<?xml version="1.0" encoding="UTF-8"?>
<svg class="svg-icon-modes-kick_scooter_electric svg-icon svg-icon-modes" xmlns="http://www.w3.org/2000/svg" version="1.1" viewBox="0 0 800 800">
    <defs>
        <style>
            .svg-icon-opacity_half { opacity: .5; }
        </style>
    </defs>
    <path d="M724.25,617.7l-14.997-51.477c3.989-.372,7.92-1.002,11.986-1.002,14.402,0,26.088-11.677,26.088-26.087s-11.686-26.087-26.087-26.087c-9.102,0-18.058.786-26.866,2.105l-123.686-424.531,52.539-13.136c13.978-3.491,22.47-17.655,18.97-31.631-3.481-13.977-17.662-22.495-31.641-18.98l-208.694,52.175c-13.978,3.491-22.47,17.653-18.97,31.631,3.503,14.05,17.77,22.475,31.641,18.98l105.494-26.373,124.388,426.942c-18.75,8.744-35.848,20.597-50.619,34.995H205.203c-33.348-32.505-78.658-52.173-127.442-52.173-14.402,0-26.087,11.677-26.087,26.088s11.686,26.087,26.087,26.087c58.509,0,110.225,39.394,125.764,95.822.819,2.969,1.988,5.723,3.075,8.525h-55.386c-10.805-30.298-39.492-52.173-73.453-52.173-43.155-.002-78.261,35.105-78.261,78.259s35.106,78.261,78.261,78.261c33.964,0,62.648-21.875,73.453-52.173h368.155c35.495,0,66.066-24.397,76.105-60.717,9.645-35.012,33.255-63.42,63.745-79.972l15.225,52.256c-18.988,14.292-31.466,36.802-31.466,62.345,0,43.155,35.106,78.261,78.261,78.261s78.261-35.106,78.261-78.261c0-42.127-33.514-76.333-75.25-77.958Z"/>
    <path class="svg-icon-opacity_half" d="M263.052,368.653h-37.549l13.861-42.234c1.302-4.946-2.44-9.826-7.549-9.826h-46.854c-3.905,0-7.223,2.896-7.744,6.768l-10.412,78.091c-.618,4.685,3.026,8.85,7.744,8.85h38.622l-15,63.286c-1.171,4.946,2.603,9.599,7.581,9.599,2.733,0,5.336-1.432,6.768-3.905l57.267-98.915c3.026-5.174-.716-11.714-6.735-11.714h0Z"/>
</svg>