<?xml version="1.0" encoding="UTF-8"?>
<svg class="svg-icon-marker_round-activities-bank svg-icon-marker_round svg-icon-marker_round-activities" xmlns="http://www.w3.org/2000/svg" version="1.1" viewBox="0 0 800 800">
    <defs>
        <style>
            .svg-icon-marker-background { fill: #fff; }

        </style>
    </defs>
    <path class="svg-icon-marker-marker_round" d="M678.058,289.282c.01-.256.02-.513.029-.769.044-1.27.087-2.539.113-3.813.046-1.971.075-3.946.075-5.925C678.276,125.068,553.208,0,399.501,0S120.726,125.068,120.726,278.775h0c0,.007,0,.015,0,.022,0,1.966.03,3.927.075,5.886.027,1.301.071,2.597.116,3.893.008.218.016.436.025.654,1.311,35.36,9.235,69.057,22.578,99.889,66.594,165.882,256.216,300.297,256.216,410.756l.133-7.452.133,7.452c0-110.815,190.349-245.74,256.184-412.361,12.919-30.379,20.579-63.506,21.873-98.232Z"/>
    <path class="svg-icon-marker-background" d="M168.817,278.775c0-127.191,103.493-230.684,230.684-230.684s230.684,103.493,230.684,230.684-103.493,230.684-230.684,230.684-230.684-103.493-230.684-230.684h0Z"/>
    <g class="svg-icon-content" transform="translate(240, 120) scale(0.4)">
        <path d="M448.8,610.3c-6.6,0-12-5.4-12-12v-338.9c0-6.6,5.4-12,12-12h64.8c6.6,0,12,5.4,12,12v338.9c0,6.6-5.4,12-12,12h-64.8ZM351.2,610.3c6.6,0,12-5.4,12-12v-338.9c0-6.6-5.4-12-12-12h-64.8c-6.6,0-12,5.4-12,12v338.9c0,6.6,5.4,12,12,12h64.8ZM189,610.3c6.6,0,12-5.4,12-12v-338.9c0-6.6-5.4-12-12-12h-64.8c-6.6,0-12,5.4-12,12v338.9c0,6.6,5.4,12,12,12h64.8ZM675.8,610.3c6.6,0,12-5.4,12-12v-338.9c0-6.6-5.4-12-12-12h-64.8c-6.6,0-12,5.4-12,12v338.9c0,6.6,5.4,12,12,12h64.8ZM32.2,211.6h735.6c21.8,0,27.6-30.1,7.3-38.2L429.4,35.4c-18.9-7.5-39.9-7.5-58.7,0L24.8,173.5c-20.3,8.1-14.5,38.2,7.3,38.2ZM799,747.5l-6.3-42.6c-.5-5.5-5.1-9.7-10.6-9.7H17.9c-5.5,0-10.1,4.3-10.6,9.7l-6.3,42.6c-.6,6.4,4.4,11.9,10.8,11.9h776.4c6.4,0,11.4-5.5,10.8-11.9ZM52.8,650.5l-2.9,23.5c-.7,6,3.9,11.2,9.9,11.2h680.4c6,0,10.7-5.3,9.9-11.2l-2.9-23.5c-.7-5.4-5.3-9.5-10.7-9.5H63.5c-5.5,0-10.1,4.1-10.7,9.5Z"/>
    </g>
</svg>