<?xml version="1.0" encoding="UTF-8"?>
<svg id="svg-icon-bank" class="svg-icon" xmlns="http://www.w3.org/2000/svg" version="1.1" viewBox="0 0 800 800">
    <path d="M448.8,610.3c-6.6,0-12-5.4-12-12v-338.9c0-6.6,5.4-12,12-12h64.8c6.6,0,12,5.4,12,12v338.9c0,6.6-5.4,12-12,12h-64.8ZM351.2,610.3c6.6,0,12-5.4,12-12v-338.9c0-6.6-5.4-12-12-12h-64.8c-6.6,0-12,5.4-12,12v338.9c0,6.6,5.4,12,12,12h64.8ZM189,610.3c6.6,0,12-5.4,12-12v-338.9c0-6.6-5.4-12-12-12h-64.8c-6.6,0-12,5.4-12,12v338.9c0,6.6,5.4,12,12,12h64.8ZM675.8,610.3c6.6,0,12-5.4,12-12v-338.9c0-6.6-5.4-12-12-12h-64.8c-6.6,0-12,5.4-12,12v338.9c0,6.6,5.4,12,12,12h64.8ZM32.2,211.6h735.6c21.8,0,27.6-30.1,7.3-38.2L429.4,35.4c-18.9-7.5-39.9-7.5-58.7,0L24.8,173.5c-20.3,8.1-14.5,38.2,7.3,38.2ZM799,747.5l-6.3-42.6c-.5-5.5-5.1-9.7-10.6-9.7H17.9c-5.5,0-10.1,4.3-10.6,9.7l-6.3,42.6c-.6,6.4,4.4,11.9,10.8,11.9h776.4c6.4,0,11.4-5.5,10.8-11.9ZM52.8,650.5l-2.9,23.5c-.7,6,3.9,11.2,9.9,11.2h680.4c6,0,10.7-5.3,9.9-11.2l-2.9-23.5c-.7-5.4-5.3-9.5-10.7-9.5H63.5c-5.5,0-10.1,4.1-10.7,9.5Z"/>
</svg>