<?xml version="1.0" encoding="UTF-8"?>
<svg class="svg-icon-marker_round-activities-cat_dog svg-icon-marker_round svg-icon-marker_round-activities" xmlns="http://www.w3.org/2000/svg" version="1.1" viewBox="0 0 800 800">
    <defs>
        <style>
            .svg-icon-marker-background { fill: #fff; }

        </style>
    </defs>
    <path class="svg-icon-marker-marker_round" d="M678.058,289.282c.01-.256.02-.513.029-.769.044-1.27.087-2.539.113-3.813.046-1.971.075-3.946.075-5.925C678.276,125.068,553.208,0,399.501,0S120.726,125.068,120.726,278.775h0c0,.007,0,.015,0,.022,0,1.966.03,3.927.075,5.886.027,1.301.071,2.597.116,3.893.008.218.016.436.025.654,1.311,35.36,9.235,69.057,22.578,99.889,66.594,165.882,256.216,300.297,256.216,410.756l.133-7.452.133,7.452c0-110.815,190.349-245.74,256.184-412.361,12.919-30.379,20.579-63.506,21.873-98.232Z"/>
    <path class="svg-icon-marker-background" d="M168.817,278.775c0-127.191,103.493-230.684,230.684-230.684s230.684,103.493,230.684,230.684-103.493,230.684-230.684,230.684-230.684-103.493-230.684-230.684h0Z"/>
    <g class="svg-icon-content" transform="translate(240, 120) scale(0.4)">
        <path class="svg-icon-activities-cat_dog-cat" d="M801.2,197.5c0,11.9-9,21.7-20.6,22.9l-4.7.2c-11.5,1.1-20.6,10.9-20.6,22.8v160.6c0,38-30.8,68.8-68.8,68.8h-103.2c-12.7,0-22.9-10.3-22.9-22.9s10.3-22.9,22.9-22.9h40.1s-97.5-78-97.5-78v100.9c0,12.7-10.3,22.9-22.9,22.9-12.7,0-22.9-10.3-22.9-22.9v-134.2c7.5,1.4,15.1,2.2,22.9,2.2,49.8,0,92.5-30.2,110.8-73.2,39.9,5.6,74.3,28.2,95.6,60.2v-61.5c0-38,30.8-68.8,68.8-68.8s22.9,10.3,22.9,22.9ZM480,140.2h45.9s38.6-32.1,38.6-32.1c7.5-6.2,18.8-.9,18.8,8.8v80.6c0,44.4-35.9,80.3-80.3,80.3s-80.3-35.9-80.3-80.3v-80.6c0-9.7,11.3-15.1,18.8-8.8l38.6,32.1ZM523.1,197.5c0,7.9,6.5,14.3,14.3,14.3s14.3-6.5,14.3-14.3c0-7.9-6.5-14.3-14.3-14.3s-14.3,6.5-14.3,14.3ZM454.2,197.5c0,7.9,6.5,14.3,14.3,14.3s14.3-6.5,14.3-14.3c0-7.9-6.5-14.3-14.3-14.3s-14.3,6.5-14.3,14.3Z"/>
        <path class="svg-icon-activities-cat_dog-dog" d="M23.2,390c12.6,0,23,9.6,24.2,21.9l.2,5c1.3,12.3,11.7,21.9,24.3,21.9h136.4l107.3,46v185.5c0,13.5-10.9,24.4-24.4,24.4h-24.4c-13.5,0-24.4-10.9-24.4-24.4v-100c-18.3,9.4-39,14.7-60.9,14.7s-42.6-5.3-60.9-14.7v100c0,13.5-10.9,24.4-24.4,24.4h-24.4c-13.5,0-24.4-10.9-24.4-24.4v-187c-28.4-10.1-48.7-37-48.7-68.8s10.9-24.4,24.4-24.4ZM269.7,280.4c5.9,0,11.3,2.7,14.9,7.5l12.6,16.9h39.7c9.7,0,19,3.9,25.8,10.7l13.7,13.6h42.6c10.1,0,18.3,8.1,18.3,18.3v18.3c0,33.7-27.3,60.9-60.9,60.9h-48.7l-5.3,21.3-95-40.7,24.1-112.1c1.8-8.6,9.4-14.8,18.2-14.8ZM339.9,338.3c-8.4,0-15.2,6.9-15.2,15.2s6.9,15.2,15.2,15.2,15.2-6.9,15.2-15.2-6.9-15.2-15.2-15.2Z"/>
    </g>
</svg>