<?xml version="1.0" encoding="UTF-8"?>
<svg class="svg-icon-marker_round-activities-gas_station svg-icon-marker_round svg-icon-marker_round-activities" xmlns="http://www.w3.org/2000/svg" version="1.1" viewBox="0 0 800 800">
    <defs>
        <style>
            .svg-icon-marker-background { fill: #fff; }

        </style>
    </defs>
    <path class="svg-icon-marker-marker_round" d="M678.058,289.282c.01-.256.02-.513.029-.769.044-1.27.087-2.539.113-3.813.046-1.971.075-3.946.075-5.925C678.276,125.068,553.208,0,399.501,0S120.726,125.068,120.726,278.775h0c0,.007,0,.015,0,.022,0,1.966.03,3.927.075,5.886.027,1.301.071,2.597.116,3.893.008.218.016.436.025.654,1.311,35.36,9.235,69.057,22.578,99.889,66.594,165.882,256.216,300.297,256.216,410.756l.133-7.452.133,7.452c0-110.815,190.349-245.74,256.184-412.361,12.919-30.379,20.579-63.506,21.873-98.232Z"/>
    <path class="svg-icon-marker-background" d="M168.817,278.775c0-127.191,103.493-230.684,230.684-230.684s230.684,103.493,230.684,230.684-103.493,230.684-230.684,230.684-230.684-103.493-230.684-230.684h0Z"/>
    <g class="svg-icon-content" transform="translate(240, 120) scale(0.4)">
        <path d="M797.268,209.821c-2.06-36.642-18.558-70.973-45.887-95.47-2.906-2.606-6.027-5.102-10.549-8.72l-46.193-36.953c-11.958-9.568-29.41-7.629-38.979,4.331-9.566,11.959-7.628,29.411,4.333,38.978l45.594,36.475c5.343,4.274,7.169,5.751,8.774,7.187,16.395,14.699,26.297,35.297,27.532,57.282.118,2.149.129,4.5.129,11.342v13.959h-27.732c-30.63,0-55.463,24.832-55.463,55.463v89.44c0,23.871,15.275,45.066,37.926,52.616l45.269,15.09v175.633c0,15.315-12.416,27.732-27.732,27.732s-27.732-12.416-27.732-27.732v-2.64c0-44.489-36.066-80.555-80.555-80.555h-58.103V238.232c0-104.583,0-156.874-32.49-189.363-32.49-32.49-84.781-32.49-189.362-32.49h-36.975c-104.583,0-156.874,0-189.363,32.49-32.49,32.49-32.49,84.781-32.49,189.363v489.925H30.245c-15.316,0-27.732,12.416-27.732,27.732s12.416,27.732,27.732,27.732h559.195c15.315,0,27.732-12.416,27.732-27.732s-12.416-27.732-27.732-27.732h-41.538v-129.414h58.103c13.858,0,25.092,11.233,25.092,25.092v2.64c0,45.949,37.249,83.195,83.195,83.195s83.195-37.245,83.195-83.195V223.508c0-5.793,0-9.789-.218-13.687ZM409.244,598.743h-184.877c-15.316,0-27.732-12.416-27.732-27.732s12.416-27.732,27.732-27.732h184.877c15.315,0,27.732,12.416,27.732,27.732s-12.416,27.732-27.732,27.732ZM435.389,301.354c-10.83,10.83-28.26,10.83-63.121,10.83h-110.926c-34.861,0-52.291,0-63.121-10.83-10.83-10.83-10.83-28.26-10.83-63.121s0-52.291,10.83-63.121c10.83-10.83,28.26-10.83,63.121-10.83h110.926c34.86,0,52.291,0,63.121,10.83,10.83,10.83,10.83,28.26,10.83,63.121s0,52.291-10.83,63.121Z" fill-rule="evenodd"/>
    </g>
</svg>