<?xml version="1.0" encoding="UTF-8"?>
<svg class="svg-icon-marker_round-activities-graduation_cap svg-icon-marker_round svg-icon-marker_round-activities" xmlns="http://www.w3.org/2000/svg" version="1.1" viewBox="0 0 800 800">
    <defs>
        <style>
            .svg-icon-marker-background { fill: #fff; }

        </style>
    </defs>
    <path class="svg-icon-marker-marker_round" d="M678.058,289.282c.01-.256.02-.513.029-.769.044-1.27.087-2.539.113-3.813.046-1.971.075-3.946.075-5.925C678.276,125.068,553.208,0,399.501,0S120.726,125.068,120.726,278.775h0c0,.007,0,.015,0,.022,0,1.966.03,3.927.075,5.886.027,1.301.071,2.597.116,3.893.008.218.016.436.025.654,1.311,35.36,9.235,69.057,22.578,99.889,66.594,165.882,256.216,300.297,256.216,410.756l.133-7.452.133,7.452c0-110.815,190.349-245.74,256.184-412.361,12.919-30.379,20.579-63.506,21.873-98.232Z"/>
    <path class="svg-icon-marker-background" d="M168.817,278.775c0-127.191,103.493-230.684,230.684-230.684s230.684,103.493,230.684,230.684-103.493,230.684-230.684,230.684-230.684-103.493-230.684-230.684h0Z"/>
    <g class="svg-icon-content" transform="translate(240, 120) scale(0.4)">
        <path d="M638.8,519.3c11.1,62.6-81.4,89.8-238.8,89.8s-248-36.8-237.8-89.8c7.2-37.5,12.8-67.7,15.5-82.1l201.5,50.3c13.6,3.4,27.8,3.1,41.2-.7l201.7-51.2c3.3,15.3,10.9,51.2,16.6,83.8ZM783.4,322.4l-363-118.9c-13.3-3.8-27.4-3.6-40.5.7L15.9,323.2c-22,7.2-20.8,38.6,1.6,44.2l37.6,9.4c-4.2,17.8-8.2,36.9-11.4,56.3-15.9,5.7-27.4,20.9-27.4,38.8s8.1,28.2,20.2,35.4c-.4,35.8,4.9,68.6,20.3,91.9l58.9-38.7c-10.3-15.7-25.4-32.2-33.9-55.5,10.1-7.5,16.7-19.5,16.7-33.1s-8.7-29.1-21.4-36.1c1.5-17,3.9-34.6,7.1-51.8l297.8,74.2c11.8,2.9,24.1,2.7,35.8-.6l365.6-90.9c22.2-6.4,22.2-37.8,0-44.2Z"/>
    </g>
</svg>