<?xml version="1.0" encoding="UTF-8"?>
<svg id="svg-icon-graduation_cap" class="svg-icon" xmlns="http://www.w3.org/2000/svg" version="1.1" viewBox="0 0 800 800">
    <path d="M638.8,519.3c11.1,62.6-81.4,89.8-238.8,89.8s-248-36.8-237.8-89.8c7.2-37.5,12.8-67.7,15.5-82.1l201.5,50.3c13.6,3.4,27.8,3.1,41.2-.7l201.7-51.2c3.3,15.3,10.9,51.2,16.6,83.8ZM783.4,322.4l-363-118.9c-13.3-3.8-27.4-3.6-40.5.7L15.9,323.2c-22,7.2-20.8,38.6,1.6,44.2l37.6,9.4c-4.2,17.8-8.2,36.9-11.4,56.3-15.9,5.7-27.4,20.9-27.4,38.8s8.1,28.2,20.2,35.4c-.4,35.8,4.9,68.6,20.3,91.9l58.9-38.7c-10.3-15.7-25.4-32.2-33.9-55.5,10.1-7.5,16.7-19.5,16.7-33.1s-8.7-29.1-21.4-36.1c1.5-17,3.9-34.6,7.1-51.8l297.8,74.2c11.8,2.9,24.1,2.7,35.8-.6l365.6-90.9c22.2-6.4,22.2-37.8,0-44.2Z"/>
</svg>