<?xml version="1.0" encoding="UTF-8"?>
<svg class="svg-icon-marker_round-activities-school_building_small svg-icon-marker_round svg-icon-marker_round-activities" xmlns="http://www.w3.org/2000/svg" version="1.1" viewBox="0 0 800 800">
    <defs>
        <style>
            .svg-icon-marker-background { fill: #fff; }

        </style>
    </defs>
    <path class="svg-icon-marker-marker_round" d="M678.058,289.282c.01-.256.02-.513.029-.769.044-1.27.087-2.539.113-3.813.046-1.971.075-3.946.075-5.925C678.276,125.068,553.208,0,399.501,0S120.726,125.068,120.726,278.775h0c0,.007,0,.015,0,.022,0,1.966.03,3.927.075,5.886.027,1.301.071,2.597.116,3.893.008.218.016.436.025.654,1.311,35.36,9.235,69.057,22.578,99.889,66.594,165.882,256.216,300.297,256.216,410.756l.133-7.452.133,7.452c0-110.815,190.349-245.74,256.184-412.361,12.919-30.379,20.579-63.506,21.873-98.232Z"/>
    <path class="svg-icon-marker-background" d="M168.817,278.775c0-127.191,103.493-230.684,230.684-230.684s230.684,103.493,230.684,230.684-103.493,230.684-230.684,230.684-230.684-103.493-230.684-230.684h0Z"/>
    <g class="svg-icon-content" transform="translate(240, 120) scale(0.4)">
        <path d="M537.4,40.4h-113.1v-16.2c0-13.4-10.9-24.2-24.2-24.2s-24.2,10.9-24.2,24.2v250.5l-137.4,137.4v387.9h81.6v-119.7c0-45.6,37.4-85.5,83-83.9,43,1.6,77,36.9,77,79.9v123.6h81.6v-387.9l-137.3-137.3v-105.1h113.1c13.4,0,24.2-10.8,24.2-24.2v-80.8c0-13.4-10.8-24.2-24.2-24.2ZM470.2,449.4c11.7,93.6-122.8,114.6-140.5,22.5-11.7-93.6,122.8-114.6,140.5-22.5Z"/>
        <path d="M610.1,557.6h145.5v242.4h-145.5v-242.4Z"/>
        <path d="M610.1,509.1h177.8l-32.3-145.5h-173.9c13.6,12.7,29.6,28.3,28.4,48.5v97Z"/>
        <path d="M44.4,557.6h145.5v242.4H44.4v-242.4Z"/>
        <path d="M12.1,509.1h177.8v-97c-1.2-20.1,14.8-35.8,28.4-48.5H44.4L12.1,509.1Z"/>
    </g>
</svg>