<?xml version="1.0" encoding="UTF-8"?>
<svg id="svg-icon-school_building_small" class="svg-icon" xmlns="http://www.w3.org/2000/svg" version="1.1" viewBox="0 0 800 800">
    <path d="M537.4,40.4h-113.1v-16.2c0-13.4-10.9-24.2-24.2-24.2s-24.2,10.9-24.2,24.2v250.5l-137.4,137.4v387.9h81.6v-119.7c0-45.6,37.4-85.5,83-83.9,43,1.6,77,36.9,77,79.9v123.6h81.6v-387.9l-137.3-137.3v-105.1h113.1c13.4,0,24.2-10.8,24.2-24.2v-80.8c0-13.4-10.8-24.2-24.2-24.2ZM470.2,449.4c11.7,93.6-122.8,114.6-140.5,22.5-11.7-93.6,122.8-114.6,140.5-22.5Z"/>
    <path d="M610.1,557.6h145.5v242.4h-145.5v-242.4Z"/>
    <path d="M610.1,509.1h177.8l-32.3-145.5h-173.9c13.6,12.7,29.6,28.3,28.4,48.5v97Z"/>
    <path d="M44.4,557.6h145.5v242.4H44.4v-242.4Z"/>
    <path d="M12.1,509.1h177.8v-97c-1.2-20.1,14.8-35.8,28.4-48.5H44.4L12.1,509.1Z"/>
</svg>