<?xml version="1.0" encoding="UTF-8"?>
<svg class="svg-icon-marker_round-activities-school_building_large svg-icon-marker_round svg-icon-marker_round-activities" xmlns="http://www.w3.org/2000/svg" version="1.1" viewBox="0 0 800 800">
    <defs>
        <style>
            .svg-icon-marker-background { fill: #fff; }

        </style>
    </defs>
    <path class="svg-icon-marker-marker_round" d="M678.058,289.282c.01-.256.02-.513.029-.769.044-1.27.087-2.539.113-3.813.046-1.971.075-3.946.075-5.925C678.276,125.068,553.208,0,399.501,0S120.726,125.068,120.726,278.775h0c0,.007,0,.015,0,.022,0,1.966.03,3.927.075,5.886.027,1.301.071,2.597.116,3.893.008.218.016.436.025.654,1.311,35.36,9.235,69.057,22.578,99.889,66.594,165.882,256.216,300.297,256.216,410.756l.133-7.452.133,7.452c0-110.815,190.349-245.74,256.184-412.361,12.919-30.379,20.579-63.506,21.873-98.232Z"/>
    <path class="svg-icon-marker-background" d="M168.817,278.775c0-127.191,103.493-230.684,230.684-230.684s230.684,103.493,230.684,230.684-103.493,230.684-230.684,230.684-230.684-103.493-230.684-230.684h0Z"/>
    <g class="svg-icon-content" transform="translate(240, 120) scale(0.4)">
        <path d="M753.7,720v-361.5c0-18.9-15.3-34.2-34.2-34.2h-162.2v-98.4c0-9.3-5-17.9-13.1-22.4l-131.7-73.5c-.7-.4-1.5-.8-2.2-1.1v-41.9h70.9c5.7,0,10.2-4.6,10.2-10.2V25.1c0-5.7-4.6-10.2-10.2-10.2h-70.9v-4.6C410.3,4.6,405.7,0,400,0s-10.2,4.6-10.2,10.2v118.8c-.8.3-1.5.7-2.2,1.1l-131.7,73.5c-8.1,4.5-13.1,13.1-13.1,22.4v98.4H80.4c-18.9,0-34.2,15.3-34.2,34.2v361.5c-14.5,6.6-24.6,21.2-24.6,38.1s18.7,41.8,41.8,41.8h673c23.1,0,41.8-18.7,41.8-41.8,0-17-10.1-31.6-24.6-38.1ZM621.7,443.4c0-11,8.9-19.9,19.9-19.9h37.2c11,0,19.9,8.9,19.9,19.9v37.2c0,11-8.9,19.9-19.9,19.9h-37.2c-11,0-19.9-8.9-19.9-19.9v-37.2h0ZM621.7,563c0-11,8.9-19.9,19.9-19.9h37.2c11,0,19.9,8.9,19.9,19.9v37.2c0,11-8.9,19.9-19.9,19.9h-37.2c-11,0-19.9-8.9-19.9-19.9v-37.2h0ZM502.1,443.4c0-11,8.9-19.9,19.9-19.9h37.2c11,0,19.9,8.9,19.9,19.9v37.2c0,11-8.9,19.9-19.9,19.9h-37.2c-11,0-19.9-8.9-19.9-19.9v-37.2ZM502.1,563c0-11,8.9-19.9,19.9-19.9h37.2c11,0,19.9,8.9,19.9,19.9v37.2c0,11-8.9,19.9-19.9,19.9h-37.2c-11,0-19.9-8.9-19.9-19.9v-37.2ZM400,226.1c31.1,0,56.4,25.2,56.4,56.4s-25.2,56.4-56.4,56.4-56.4-25.2-56.4-56.4,25.2-56.4,56.4-56.4ZM343.6,549.7c0-11,8.9-19.9,19.9-19.9h73.1c11,0,19.9,8.9,19.9,19.9v156.8c0,3.6-1,7-2.6,9.9h-107.6c-1.7-2.9-2.6-6.3-2.6-9.9v-156.8h0ZM220.9,443.4c0-11,8.9-19.9,19.9-19.9h37.2c11,0,19.9,8.9,19.9,19.9v37.2c0,11-8.9,19.9-19.9,19.9h-37.2c-11,0-19.9-8.9-19.9-19.9v-37.2ZM220.9,563c0-11,8.9-19.9,19.9-19.9h37.2c11,0,19.9,8.9,19.9,19.9v37.2c0,11-8.9,19.9-19.9,19.9h-37.2c-11,0-19.9-8.9-19.9-19.9v-37.2ZM101.3,443.4c0-11,8.9-19.9,19.9-19.9h37.2c11,0,19.9,8.9,19.9,19.9v37.2c0,11-8.9,19.9-19.9,19.9h-37.2c-11,0-19.9-8.9-19.9-19.9v-37.2h0ZM101.3,563c0-11,8.9-19.9,19.9-19.9h37.2c11,0,19.9,8.9,19.9,19.9v37.2c0,11-8.9,19.9-19.9,19.9h-37.2c-11,0-19.9-8.9-19.9-19.9v-37.2h0Z"/>
    </g>
</svg>