<?xml version="1.0" encoding="UTF-8"?>
<svg id="svg-icon-airplane" class="svg-icon" xmlns="http://www.w3.org/2000/svg" version="1.1" viewBox="0 0 800 800">
    <path d="M801.292,256.539c0,138.392-667.156,291.146-717.673,291.146-28.323,0-60.458-6.528-60.458-32.639,0-8.724,10.069-21.333,27.739-36.535l-.02.01L4.049,395.312c-6.341-11.265-1.314-25.537,10.686-30.342l8.048-3.222c14.587-5.841,31.004-4.97,44.89,2.38l85.018,45.009c33.102-19.634,70.652-40.191,110.23-60.43l-165.68-107.489c-13.107-8.505-12.967-27.739.263-36.05l13.553-8.515c22.557-14.171,49.979-18.357,75.736-11.563l275.621,72.701c85.937-34.11,163.635-57.391,209.625-57.391,12.282,0,24.583.325,36.454,1.174l-83.235,37.575-1.992,27.997,128.484-59.063c30.799,7.345,49.542,21.054,49.542,48.456ZM465.988,495.434l102.808,116.79c6.265,7.118,16.469,9.26,25.067,5.264l13.769-6.4c25.109-11.671,39.897-38.133,36.681-65.633l-12.871-110.047c-.797-6.809-7.707-11.119-14.174-8.842l-146.808,51.715c-7.145,2.519-9.48,11.465-4.472,17.153Z"/>
</svg>