<svg xmlns="http://www.w3.org/2000/svg" viewBox="0 0 88.57 89.54"><title>bus_black</title><g id="bus"><path d="M75.58,5H24a9.78,9.78,0,0,0-9.72,9.72V78.14a9.79,9.79,0,0,0,7.61,9.47v1.07a5.86,5.86,0,0,0,11.72,0v-.83H66v.83a5.86,5.86,0,0,0,11.72,0V87.62a9.77,9.77,0,0,0,7.61-9.48V14.72A9.76,9.76,0,0,0,75.58,5ZM20.65,16.52a6.11,6.11,0,0,1,6.09-6.07H72.88A6.18,6.18,0,0,1,79,16.54V53.33a6.18,6.18,0,0,1-6.08,6.07H26.72a6.18,6.18,0,0,1-6.07-6.09ZM25.79,81a5,5,0,1,1,5-5A5,5,0,0,1,25.79,81Zm48,0a5,5,0,1,1,5-5A5,5,0,0,1,73.81,81Z" transform="translate(-5.51 -5)"/><path d="M11.41,42H5.51V26.17A6.38,6.38,0,0,1,7.5,22a3.52,3.52,0,0,1,3.91-1.09Z" transform="translate(-5.51 -5)"/><path d="M88.18,42h5.9V26.17a6.38,6.38,0,0,0-2-4.17,3.52,3.52,0,0,0-3.91-1.09Z" transform="translate(-5.51 -5)"/></g></svg>