<svg xmlns="http://www.w3.org/2000/svg" viewBox="0 0 90.92 59.1"><title>funicular_black</title><g id="funicular"><g id="black"><rect x="3.25" y="65.67" width="93.58" height="2" transform="translate(-20.12 -5.42) rotate(-14.99)"/><path d="M69.33,20.83,19.81,36c-3.09.9-5.25,2.36-5.25,5.25l-.64,24.13c0,2.89,2.39,6,5.25,5.25L81.17,54c2.79-.64,5.16-2.33,5.25-5.25S77,25.25,77,25.25C75.42,21.75,72.29,20,69.33,20.83Zm-35,31.69c0,1.74-1.29,2.58-3.15,3.15l-9.37,2.5c-1.72.41-3.15-1.41-3.15-3.15V42.73c0-1.73,1.35-2.56,3.15-3.15l9.37-3c1.94-.53,3.15,1.42,3.15,3.15Zm19-5.35c0,1.73-1.29,2.58-3.15,3.15l-9.37,2.5c-1.72.4-3.15-1.42-3.15-3.15V37.37c0-1.73,1.35-2.55,3.15-3.15l9.37-3c1.94-.54,3.15,1.41,3.15,3.14Zm20-5.5c0,1.73-1.29,2.58-3.15,3.15l-9.37,2.5c-1.72.4-3.15-2.42-3.15-4.15V31.87c0-1.73,1.35-2.55,3.15-3.15l9.37-3c1.94-.54,3.15,1.41,3.15,3.14Z" transform="translate(-4.58 -20.63)"/></g></g></svg>