<svg xmlns="http://www.w3.org/2000/svg" viewBox="0 0 90.32 71.34"><defs><style>.cls-1{fill:#fff;}</style></defs><title>gondola_white</title><g id="gondola"><g id="white"><rect class="cls-1" x="3.08" y="30" width="93.58" height="2" transform="translate(-11.45 -1.4) rotate(-16.45)"/><circle class="cls-1" cx="37.14" cy="9.91" r="3.75"/><circle class="cls-1" cx="45.79" cy="7.39" r="3.75"/><circle class="cls-1" cx="54.53" cy="4.96" r="3.75"/><path class="cls-1" d="M76.61,48.5h-52a5.27,5.27,0,0,0-5.25,5.25V82.88a5.27,5.27,0,0,0,5.25,5.25h52a5.27,5.27,0,0,0,5.25-5.25V53.75A5.27,5.27,0,0,0,76.61,48.5ZM39,73.17a3.15,3.15,0,0,1-3.14,3.15H26.48a3.16,3.16,0,0,1-3.15-3.15V56.37a3.16,3.16,0,0,1,3.15-3.15h9.37A3.15,3.15,0,0,1,39,56.37Zm19.66,0a3.16,3.16,0,0,1-3.15,3.15H46.14A3.16,3.16,0,0,1,43,73.17V56.37a3.16,3.16,0,0,1,3.15-3.15H55.5a3.16,3.16,0,0,1,3.15,3.15Zm19.53,0A3.16,3.16,0,0,1,75,76.32H65.67a3.16,3.16,0,0,1-3.15-3.15V56.37a3.16,3.16,0,0,1,3.15-3.15H75a3.16,3.16,0,0,1,3.15,3.15Z" transform="translate(-4.72 -16.79)"/><polygon class="cls-1" points="45.13 17.21 42.78 29.46 50.53 29.46 48.37 17.21 45.13 17.21"/></g></g></svg>