<svg xmlns="http://www.w3.org/2000/svg" viewBox="0 0 100 100"><title>subway_black</title><g id="subway"><g id="black"><path d="M66.25,55.79a4.54,4.54,0,1,0,4.54,4.53A4.53,4.53,0,0,0,66.25,55.79Z"/><path d="M69.3,48.06V29.14A2.29,2.29,0,0,0,67,26.85H33.67a2.3,2.3,0,0,0-2.29,2.29V48.06a2.29,2.29,0,0,0,2.29,2.28H67A2.28,2.28,0,0,0,69.3,48.06Z"/><path d="M34.43,55.79A4.54,4.54,0,1,0,39,60.32,4.53,4.53,0,0,0,34.43,55.79Z"/><path d="M50,7.15A42.74,42.74,0,1,0,92.74,49.88,42.74,42.74,0,0,0,50,7.15ZM30.75,79.76H28l3.85-7.69h2.76Zm39.18,0-3.84-7.69h2.77l3.84,7.69Zm4.7-15.26a5.11,5.11,0,0,1-5.1,5.1H31.15a5.1,5.1,0,0,1-5.09-5.1V25a4.72,4.72,0,0,1,4.71-4.72H69.91A4.73,4.73,0,0,1,74.63,25Z"/></g></g></svg>