<svg xmlns="http://www.w3.org/2000/svg" viewBox="0 0 73.81 90.34"><title>train_black</title><g id="train"><path d="M21.18,79.76H79.5A7.76,7.76,0,0,0,87.25,72V12a7.18,7.18,0,0,0-7.17-7.17H20.6A7.17,7.17,0,0,0,13.44,12V72A7.75,7.75,0,0,0,21.18,79.76ZM81.41,65.67a6.89,6.89,0,1,1-6.89-6.89A6.9,6.9,0,0,1,81.41,65.67ZM46,50.5H25A3.48,3.48,0,0,1,21.53,47V18.28A3.47,3.47,0,0,1,25,14.81H75.68a3.47,3.47,0,0,1,3.48,3.47V47a3.48,3.48,0,0,1-3.48,3.47h-21M26.16,58.78a6.89,6.89,0,1,1-6.89,6.89A6.91,6.91,0,0,1,26.16,58.78Z" transform="translate(-13.44 -4.87)"/><polygon points="12.97 78.66 8.77 78.66 2.93 90.34 7.14 90.34 12.97 78.66"/><polygon points="65.05 78.66 60.84 78.66 66.67 90.34 70.88 90.34 65.05 78.66"/></g></svg>