<svg xmlns="http://www.w3.org/2000/svg" viewBox="0 0 84.37 83.71"><defs><style>.cls-1{fill:#fff;}</style></defs><title>taxi_white</title><g id="taxi"><g id="white"><path class="cls-1" d="M17.93,85.59a5.59,5.59,0,0,0,11.18,0V78.81H17.93Z" transform="translate(-7.24 -7.45)"/><path class="cls-1" d="M69.75,85.59a5.59,5.59,0,0,0,11.18,0V78.81H69.75Z" transform="translate(-7.24 -7.45)"/><path class="cls-1" d="M82.35,44H16.51a9.35,9.35,0,0,0-9.27,9.28V65.54a9.32,9.32,0,0,0,9.27,9.27H82.35a9.32,9.32,0,0,0,9.27-9.27V53.26A9.35,9.35,0,0,0,82.35,44Zm-59,22a6.55,6.55,0,1,1,6.54-6.55A6.55,6.55,0,0,1,23.39,66Zm33.37-1H42.1a1.6,1.6,0,1,1,0-3.19H56.76a1.6,1.6,0,1,1,0,3.19Zm0-7.6H42.1a1.6,1.6,0,1,1,0-3.19H56.76a1.6,1.6,0,1,1,0,3.19ZM75.47,66A6.55,6.55,0,1,1,82,59.41,6.54,6.54,0,0,1,75.47,66Z" transform="translate(-7.24 -7.45)"/><path class="cls-1" d="M22.24,40a2.64,2.64,0,0,0,1.12.27,2.79,2.79,0,0,0,2.72-2.72V34.87A11.76,11.76,0,0,1,37.83,23.13H61A11.76,11.76,0,0,1,72.78,34.87v2.66A2.7,2.7,0,0,0,74.39,40a2.59,2.59,0,0,0,2.22,0,2.71,2.71,0,0,0,1.6-2.47V34.87a17.16,17.16,0,0,0-16-17.11s0-.07,0-.11v-3A7.25,7.25,0,0,0,55,7.45H43.89a7.25,7.25,0,0,0-7.23,7.23v3s0,.08,0,.11a17.15,17.15,0,0,0-16,17.11v2.68A2.69,2.69,0,0,0,22.24,40Z" transform="translate(-7.24 -7.45)"/></g></g></svg>