<svg xmlns="http://www.w3.org/2000/svg" viewBox="0 0 73.81 90.34"><defs><style>.cls-1{fill:#fff;}</style></defs><title>tram_white</title><g id="tram"><g id="white"><path class="cls-1" d="M26.18,76.76S41.75,84,50,84s24.5-7.24,24.5-7.24c4.5-1,7.75-3.48,7.75-7.75l5-57a7.18,7.18,0,0,0-7.17-7.17H20.6A7.17,7.17,0,0,0,13.44,12l5,57C18.44,73.28,22,75.75,26.18,76.76ZM58,70.17a6.89,6.89,0,1,1-6.89-6.89A6.9,6.9,0,0,1,58,70.17ZM50.25,57.75c-10.75,0-21-5.5-22.75-6.25S24,48.94,24,47l-2.5-28.75A3.47,3.47,0,0,1,25,14.81H75.68a3.47,3.47,0,0,1,3.48,3.47L76.66,47c0,1.91-1.79,3.22-3.48,4.47S61,57.75,50.25,57.75Z" transform="translate(-13.44 -4.87)"/><polygon class="cls-1" points="17.98 78.66 13.77 78.66 7.93 90.34 12.14 90.34 17.98 78.66"/><polygon class="cls-1" points="60.05 78.66 55.84 78.66 61.67 90.34 65.88 90.34 60.05 78.66"/></g></g></svg>