<svg xmlns="http://www.w3.org/2000/svg" viewBox="0 0 100 100"><defs><style>.cls-1{fill:#fff;}</style></defs><g id="transfer_link"><g id="black"><path class="cls-1" d="M65.81,60V45.17H47.58a3.64,3.64,0,0,1-3.65-3.65V34.23a3.64,3.64,0,0,1,3.65-3.65H65.81V15.72a3.65,3.65,0,0,1,6.24-2.57l21.82,22a3.88,3.88,0,0,1,0,5.48l-21.82,22A3.64,3.64,0,0,1,65.81,60Z"/><path class="cls-1" d="M34.22,39.21V54.07H52.45a3.64,3.64,0,0,1,3.65,3.64V65a3.65,3.65,0,0,1-3.65,3.65H34.22V83.52A3.65,3.65,0,0,1,28,86.08L6.16,64.1a3.9,3.9,0,0,1,0-5.48L28,36.64A3.65,3.65,0,0,1,34.22,39.21Z"/></g></g></svg>