<?xml version="1.0" encoding="UTF-8"?>
<svg id="svg-icon-boat" class="svg-icon" xmlns="http://www.w3.org/2000/svg" version="1.1" viewBox="0 0 800 800">
    <path d="M741.062,423.64l-57.5,124.5v100.5c-6.438-3.125-13.75-5-21-5-11,0-21.438,4.062-30,11-13.938,11.375-39.938,16.5-58,16.5s-43.625-5.188-57.5-16.5c-8.5-6.938-19.5-11-30.5-11s-21.438,4.062-30,11c-13.938,11.375-39.938,16.5-58,16.5s-43.625-5.188-57.5-16.5c-8.562-6.938-19.5-11-30.5-11s-21.5,4.062-30,11c-13.875,11.25-39.938,16.5-58,16.5s-43.625-5.188-57.5-16.5c-8.562-6.938-19.5-11-30.5-11-9.75,0-19,3.438-27,9v-104.5l-59-124.5c-6.75-15.625-6.812-32.875,0-48s18.938-26.812,34.5-32l307.5-102c1.625-.562,3.312-1,5-1s3.375.438,5,1l305.5,102c16.438,5.5,29.875,18.062,36.5,34,6.25,15.062,5.625,31.688-1.5,46Z"/>
    <path d="M395.562,208.64c5.188,0,10.625.875,15.5,2.5l224.5,75.5v-94c0-8.812-7.125-16-16-16h-80l30-80c0-25.366-7.125-26-16-26h-142V.64h-32v70h-142c-8.812,0-16,.542-16,26l30,80h-80c-8.812,0-16,7.188-16,16v93.5l225-75c4.875-1.625,9.875-2.5,15-2.5ZM484.295,101.847h42.868c7.341,0,12.18,9.399,9.037,17.554l-18.527,49.266c-1.654,4.293-5.173,7.03-9.037,7.03h-32.566l8.225-73.85ZM405.562,101.847h58.609l-8.225,73.85h-50.384v-73.85ZM281.7,175.697c-3.865,0-7.383-2.737-9.037-7.03l-18.527-49.266c-3.143-8.155,1.696-17.554,9.037-17.554h43.656l8.225,73.85h-33.355ZM326.954,101.847h58.609v73.85h-50.384l-8.225-73.85Z"/>
    <path d="M2.062,717.64c0-8.875,7.188-16,16-16,4.062,0,8.188.062,13,.5,4.75.375,9.938,1,15.5,1,22.5,0,56.5-6.062,78-23.5,2.938-2.375,6.438-4,10-4s7.562,1.625,10.5,4c21.438,17.438,55,23.5,77.5,23.5s56.5-6.062,78-23.5c5.875-4.812,14.625-4.812,20.5,0,21.438,17.438,55,23.5,77.5,23.5s56.5-6.062,78-23.5c5.875-4.812,14.625-4.812,20.5,0,21.438,17.438,55,23.5,77.5,23.5s56.5-6.062,78-23.5c5.875-4.812,14.625-4.812,20.5,0,21.438,17.438,55,23.5,77.5,23.5,9.062,0,16.938-1.562,23-4,8.188-3.25,17.688.812,21,9,3.25,8.188-.812,17.688-9,21-9.875,3.938-21.812,6-35,6-25.75,0-60.938-6.312-88-23.5-27.125,17.188-62.25,23.5-88,23.5s-60.938-6.312-88-23.5c-27.125,17.188-62.25,23.5-88,23.5s-60.875-6.312-88-23.5c-27.125,17.188-62.25,23.5-88,23.5s-60.875-6.312-88-23.5c-27.125,17.188-62.25,23.5-88,23.5-6.562,0-12.438-.5-18-1-3.875-.312-7.25-.5-10.5-.5-8.812,0-16-7.125-16-16ZM794.562,772.14c-3.312-8.312-12.688-12.312-21-9-5.625,2.25-13.312,4-23,4-21.125,0-56.75-6.625-77.5-23.5-5.938-4.938-14.562-4.938-20.5,0-20.812,16.875-56.875,23.5-78,23.5s-56.75-6.625-77.5-23.5c-5.938-4.938-14.562-4.938-20.5,0-20.812,16.875-56.875,23.5-78,23.5s-56.75-6.625-77.5-23.5c-5.938-4.938-14.562-4.938-20.5,0-20.75,16.875-56.875,23.5-78,23.5s-56.75-6.625-77.5-23.5c-2.875-2.562-6.625-4-10.5-4h-1.5c-3.188.438-6.125,1.875-8.5,4-20.75,16.875-56.875,23.5-78,23.5-9.688,0-18.375-1.5-28.5-1.5-5.75-.062-11.125,2.938-14.062,7.938-2.875,5-2.875,11.125,0,16.125,2.938,5,8.312,8,14.062,7.938,5.875,0,15.75,1.5,28.5,1.5,24.062,0,59-7.188,88-26,29.062,19.062,63.812,26,88,26,24.062,0,59-7.188,88-26,29.062,19.062,63.812,26,88,26,24.062,0,59-7.188,88-26,29.062,19.062,63.812,26,88,26,24.062,0,59-7.188,88-26,29.062,19.062,63.812,26,88,26,12.75,0,24.625-1.875,35-6,8.312-3.312,12.312-12.688,9-21Z"/>
</svg>