<?xml version="1.0" encoding="UTF-8"?>
<svg class="svg-icon-modes-ferry_without_car svg-icon svg-icon-modes" xmlns="http://www.w3.org/2000/svg" version="1.1" viewBox="0 0 800 800">
    <path d="M2.062,587.64c0-8.875,7.188-16,16-16,4.062,0,8.188.062,13,.5,4.75.375,9.938,1,15.5,1,22.5,0,56.5-6.062,78-23.5,2.938-2.375,6.438-4,10-4s7.562,1.625,10.5,4c21.438,17.438,55,23.5,77.5,23.5s56.5-6.062,78-23.5c5.875-4.812,14.625-4.812,20.5,0,21.438,17.438,55,23.5,77.5,23.5s56.5-6.062,78-23.5c5.875-4.812,14.625-4.812,20.5,0,21.438,17.438,55,23.5,77.5,23.5s56.5-6.062,78-23.5c5.875-4.812,14.625-4.812,20.5,0,21.438,17.438,55,23.5,77.5,23.5,9.062,0,16.938-1.562,23-4,8.188-3.25,17.688.812,21,9,3.25,8.188-.812,17.688-9,21-9.875,3.938-21.812,6-35,6-25.75,0-60.938-6.312-88-23.5-27.125,17.188-62.25,23.5-88,23.5s-60.938-6.312-88-23.5c-27.125,17.188-62.25,23.5-88,23.5s-60.875-6.312-88-23.5c-27.125,17.188-62.25,23.5-88,23.5s-60.875-6.312-88-23.5c-27.125,17.188-62.25,23.5-88,23.5-6.562,0-12.438-.5-18-1-3.875-.312-7.25-.5-10.5-.5-8.812,0-16-7.125-16-16ZM794.562,642.14c-3.312-8.312-12.688-12.312-21-9-5.625,2.25-13.312,4-23,4-21.125,0-56.75-6.625-77.5-23.5-5.938-4.938-14.562-4.938-20.5,0-20.812,16.875-56.875,23.5-78,23.5s-56.75-6.625-77.5-23.5c-5.938-4.938-14.562-4.938-20.5,0-20.812,16.875-56.875,23.5-78,23.5s-56.75-6.625-77.5-23.5c-5.938-4.938-14.562-4.938-20.5,0-20.75,16.875-56.875,23.5-78,23.5s-56.75-6.625-77.5-23.5c-2.875-2.562-6.625-4-10.5-4h-1.5c-3.188.438-6.125,1.875-8.5,4-20.75,16.875-56.875,23.5-78,23.5-9.688,0-18.375-1.5-28.5-1.5-5.75-.062-11.125,2.938-14.062,7.938-2.875,5-2.875,11.125,0,16.125,2.938,5,8.312,8,14.062,7.938,5.875,0,15.75,1.5,28.5,1.5,24.062,0,59-7.188,88-26,29.062,19.062,63.812,26,88,26,24.062,0,59-7.188,88-26,29.062,19.062,63.812,26,88,26,24.062,0,59-7.188,88-26,29.062,19.062,63.812,26,88,26,24.062,0,59-7.188,88-26,29.062,19.062,63.812,26,88,26,12.75,0,24.625-1.875,35-6,8.312-3.312,12.312-12.688,9-21Z"/>
    <path d="M741.888,348.642l-638.248,4.142c-12.795.082-22.224,11.991-19.368,24.464l23.29,145.392c8-5.562,17.25-9,27-9,11,0,21.938,4.062,30.5,11,13.875,11.312,39.438,16.5,57.5,16.5s44.125-5.25,58-16.5c8.5-6.938,19-11,30-11s21.938,4.062,30.5,11c13.875,11.312,39.438,16.5,57.5,16.5s44.062-5.125,58-16.5c8.562-6.938,19-11,30-11s22,4.062,30.5,11c13.875,11.312,39.438,16.5,57.5,16.5s44.062-5.125,58-16.5c8.562-6.938,19-11,30-11,7.25,0,14.562,1.875,21,5l76.041-140.477c7.24-13.375-2.507-29.618-17.716-29.52Z"/>
    <path d="M468.509,240.273H159.583c-8.813,0-16.587,5.768-19.141,14.203l-24.563,81.102h381.495l-28.865-95.305Z"/>
    <path d="M449.563,179.65h-116.971c-9.413,0-17.552,6.564-19.546,15.763l-8.628,29.797h159.189l-14.045-45.56Z"/>
</svg>