<?xml version="1.0" encoding="UTF-8"?>
<svg class="svg-icon-modes-ferry_with_car svg-icon svg-icon-modes" xmlns="http://www.w3.org/2000/svg" version="1.1" viewBox="0 0 800 800">
    <path d="M2.062,587.64c0-8.875,7.188-16,16-16,4.062,0,8.188.062,13,.5,4.75.375,9.938,1,15.5,1,22.5,0,56.5-6.062,78-23.5,2.938-2.375,6.438-4,10-4s7.562,1.625,10.5,4c21.438,17.438,55,23.5,77.5,23.5s56.5-6.062,78-23.5c5.875-4.812,14.625-4.812,20.5,0,21.438,17.438,55,23.5,77.5,23.5s56.5-6.062,78-23.5c5.875-4.812,14.625-4.812,20.5,0,21.438,17.438,55,23.5,77.5,23.5s56.5-6.062,78-23.5c5.875-4.812,14.625-4.812,20.5,0,21.438,17.438,55,23.5,77.5,23.5,9.062,0,16.938-1.562,23-4,8.188-3.25,17.688.812,21,9,3.25,8.188-.812,17.688-9,21-9.875,3.938-21.812,6-35,6-25.75,0-60.938-6.312-88-23.5-27.125,17.188-62.25,23.5-88,23.5s-60.938-6.312-88-23.5c-27.125,17.188-62.25,23.5-88,23.5s-60.875-6.312-88-23.5c-27.125,17.188-62.25,23.5-88,23.5s-60.875-6.312-88-23.5c-27.125,17.188-62.25,23.5-88,23.5-6.562,0-12.438-.5-18-1-3.875-.312-7.25-.5-10.5-.5-8.812,0-16-7.125-16-16h0ZM794.562,642.14c-3.312-8.312-12.688-12.312-21-9-5.625,2.25-13.312,4-23,4-21.125,0-56.75-6.625-77.5-23.5-5.938-4.938-14.562-4.938-20.5,0-20.812,16.875-56.875,23.5-78,23.5s-56.75-6.625-77.5-23.5c-5.938-4.938-14.562-4.938-20.5,0-20.812,16.875-56.875,23.5-78,23.5s-56.75-6.625-77.5-23.5c-5.938-4.938-14.562-4.938-20.5,0-20.75,16.875-56.875,23.5-78,23.5s-56.75-6.625-77.5-23.5c-2.875-2.562-6.625-4-10.5-4h-1.5c-3.188.438-6.125,1.875-8.5,4-20.75,16.875-56.875,23.5-78,23.5-9.688,0-18.375-1.5-28.5-1.5-5.75-.062-11.125,2.938-14.062,7.938-2.875,5-2.875,11.125,0,16.125,2.938,5,8.312,8,14.062,7.938,5.875,0,15.75,1.5,28.5,1.5,24.062,0,59-7.188,88-26,29.062,19.062,63.812,26,88,26,24.062,0,59-7.188,88-26,29.062,19.062,63.812,26,88,26,24.062,0,59-7.188,88-26,29.062,19.062,63.812,26,88,26,24.062,0,59-7.188,88-26,29.062,19.062,63.812,26,88,26,12.75,0,24.625-1.875,35-6,8.312-3.312,12.312-12.688,9-21h0Z"/>
    <path d="M675.881,290.58l-2.145-2.784.766-.181c3.214-.759,5.223-4.01,4.464-7.224h0c-.759-3.214-4.01-5.223-7.224-4.464l-2.725.643c-2.227-8.431-5.028-16.175-6.687-19.683-3.235-6.897-9.583-10.987-17.7-12.086-4.09-.488-17.457-.854-33.266-.854s-29.115.427-33.204.854c-8.118.977-14.466,5.188-17.701,12.086-1.652,3.493-4.435,11.183-6.657,19.571l-2.251-.531c-3.214-.759-6.465,1.25-7.224,4.464h0c-.759,3.214,1.25,6.465,4.464,7.224l.34.08-2.223,2.885c-5.676,7.324-7.751,13.123-7.751,23.377v35.219c0,4.517,3.54,7.996,8.118,7.996h7.202c4.517,0,8.057-3.479,8.057-7.996v-10.254c13.551.854,33.143,1.465,48.83,1.465s35.341-.61,48.891-1.465v10.254c0,4.517,3.479,7.996,8.056,7.996h7.203c4.578,0,8.118-3.479,8.118-7.996v-35.219c0-10.254-2.075-16.053-7.752-23.377h0ZM564.365,278.861c1.465-6.714,4.395-15.442,6.409-18.983,1.648-2.869,3.418-4.09,6.714-4.517,4.639-.671,15.016-1.038,33.876-1.038s29.298.244,33.937,1.038c3.235.488,5.005,1.648,6.714,4.517,2.076,3.479,4.823,12.268,6.409,18.983.55,2.258-.366,3.113-2.746,2.93-10.132-.61-22.218-1.281-44.313-1.281s-34.12.671-44.252,1.281c-2.381.183-3.235-.671-2.747-2.93h0ZM566.868,324.578c-5.798,0-10.132-4.395-10.132-10.132,0-5.798,4.334-10.132,10.132-10.132s10.132,4.334,10.132,10.132c0,5.737-4.334,10.132-10.132,10.132ZM627.6,321.77h-32.411c-4.272,0-7.263-3.052-7.263-7.325,0-4.334,2.991-7.325,7.263-7.325h32.411c4.273,0,7.263,2.991,7.263,7.325,0,4.273-2.991,7.325-7.263,7.325h0ZM655.921,324.578c-5.798,0-10.132-4.395-10.132-10.132,0-5.798,4.334-10.132,10.132-10.132,5.738,0,10.133,4.334,10.133,10.132,0,5.737-4.395,10.132-10.133,10.132Z"/>
    <path d="M741.888,348.642l-638.248,4.142c-12.795.082-22.224,11.991-19.368,24.464l23.29,145.392c8-5.562,17.25-9,27-9,11,0,21.938,4.062,30.5,11,13.875,11.312,39.438,16.5,57.5,16.5s44.125-5.25,58-16.5c8.5-6.938,19-11,30-11s21.938,4.062,30.5,11c13.875,11.312,39.438,16.5,57.5,16.5s44.062-5.125,58-16.5c8.562-6.938,19-11,30-11s22,4.062,30.5,11c13.875,11.312,39.438,16.5,57.5,16.5s44.062-5.125,58-16.5c8.562-6.938,19-11,30-11,7.25,0,14.562,1.875,21,5l76.041-140.477c7.24-13.375-2.507-29.618-17.716-29.52h0Z"/>
    <path d="M468.509,240.273H159.583c-8.813,0-16.587,5.768-19.141,14.203l-24.563,81.102h381.495l-28.865-95.305h0Z"/>
    <path d="M449.563,179.65h-116.971c-9.413,0-17.552,6.564-19.546,15.763l-8.628,29.797h159.189l-14.045-45.56h.001Z"/>
</svg>