<?xml version="1.0" encoding="utf-8"?>
<svg width="800px" height="800px" viewBox="0 0 24 24" fill="none" xmlns="http://www.w3.org/2000/svg">
<path d="M14 22V16.9612C14 16.3537 13.7238 15.7791 13.2494 15.3995L11.5 14M11.5 14L13 7.5M11.5 14L10 13M13 7.5L11 7M13 7.5L15.0426 10.7681C15.3345 11.2352 15.8062 11.5612 16.3463 11.6693L18 12M10 13L11 7M10 13L9.40011 16.2994C9.18673 17.473 8.00015 18.2 6.85767 17.8573L4 17M11 7L8.10557 8.44721C7.428 8.786 7 9.47852 7 10.2361V12M14.5 3.5C14.5 4.05228 14.0523 4.5 13.5 4.5C12.9477 4.5 12.5 4.05228 12.5 3.5C12.5 2.94772 12.9477 2.5 13.5 2.5C14.0523 2.5 14.5 2.94772 14.5 3.5Z" stroke="#000000" stroke-width="2" stroke-linecap="round" stroke-linejoin="round"/>
</svg>