<svg width="24" height="24" fill="none" xmlns="http://www.w3.org/2000/svg"><path fill-rule="evenodd" clip-rule="evenodd" d="M16 6a2 2 0 1 0 0-4 2 2 0 0 0 0 4zm-2.757-.47a1 1 0 0 1 .705.652c.182.543.436 1.018.749 1.418.862 1.1 2.253 1.728 4.139 1.414a1 1 0 1 1 .328 1.972c-2.136.356-3.985-.187-5.32-1.381l-2.715 2.382 1.623 1.854A1 1 0 0 1 13 14.5V19a1 1 0 1 1-2 0v-4.124l-2.031-2.32-.044-.05c-.24-.267-.64-.715-.814-1.243-.106-.325-.14-.7-.025-1.096.11-.384.338-.71.62-.987l.014-.013 3.593-3.394a1 1 0 0 1 .93-.243zM2 17a3 3 0 1 1 6 0 3 3 0 0 1-6 0zm3-5a5 5 0 1 0 0 10 5 5 0 0 0 0-10zm11 5a3 3 0 1 1 6 0 3 3 0 0 1-6 0zm3-5a5 5 0 1 0 0 10 5 5 0 0 0 0-10z" fill="#000"/></svg>