<?xml version="1.0" encoding="UTF-8"?>
<svg class="svg-icon-modes-motorcycle_electric svg-icon svg-icon-modes" xmlns="http://www.w3.org/2000/svg" xmlns:xlink="http://www.w3.org/1999/xlink" version="1.1" viewBox="0 0 800 800">
    <defs>
        <style>
            .svg-icon-opacity_half { opacity: .5; }
        </style>
    </defs>
    <path class="svg-icon-opacity_half" d="M737.061,225.51h-37.549l13.861-42.234c1.302-4.946-2.44-9.826-7.549-9.826h-46.854c-3.905,0-7.223,2.896-7.744,6.768l-10.412,78.091c-.618,4.685,3.026,8.85,7.744,8.85h38.622l-15,63.286c-1.171,4.946,2.603,9.599,7.581,9.599,2.733,0,5.336-1.432,6.768-3.905l57.267-98.915c3.026-5.174-.716-11.714-6.735-11.714h0Z"/>
    <path d="M679.389,36.84c-23.494-14.537-57.249-9.993-82.229,2.385-9.639,4.973-19.09,12-24.633,20.967-9.823,15.602-3.881,32.939,13.688,40.529,9.861,4.647,23.566,7.027,38.262,6.384,15.465-.622,31.806-4.704,43.651-11.352l.308-.172c23.801-12.314,35.051-42.404,10.953-58.741Z"/>
    <path d="M569.83,272.228c-6.557-1.277-20.032,14.606-27.353,22.335-15.846,16.726-74.614,58.642-142.477,58.834-67.863-.192-126.631-42.108-142.477-58.834-7.322-7.729-20.796-23.612-27.353-22.335-12.766,1.829-20.295,21.177-18.53,40.589,13.422,147.64,75.001,232.063,92.648,261.352,0-47.818-5.974-97.984,14.321-128.867,19.043-28.978,49.552-42.031,81.391-42.157,31.839.127,62.349,13.18,81.391,42.157,20.295,30.883,14.321,81.049,14.321,128.867,17.647-29.288,79.227-113.712,92.648-261.352,1.765-19.412-5.764-38.76-18.53-40.589Z"/>
    <path d="M252.051,244.597c10.473,11.819,24.649,23.839,37.394,34.615,13.157,11.058,26.667,20.796,42.4,26.845,21.229,7.983,43.351,12.024,67.688,12.126v.01c.157,0,.311-.004.467-.005.156,0,.31.005.467.005v-.01c24.336-.101,46.459-4.143,67.688-12.126,15.733-6.049,29.243-15.787,42.4-26.845,12.745-10.776,26.921-22.796,37.394-34.615,18.178-19.845,25.43-47.331,15.249-72.257-5.649-14.984-16.305-27.327-23.175-40.905-6.041-11.706-9.019-24.768-9.826-37.915-1.127-16.582.149-36.489-5.927-51.637l-.099-.23c-5.404-12.989-18.839-18.544-32.186-23.275-10.479-3.691-54.881-17.907-91.959-17.92h0c-.009,0-.017,0-.026,0s-.017,0-.026,0h0c-37.078.014-81.48,14.229-91.959,17.921-13.347,4.731-26.781,10.286-32.186,23.275l-.099.23c-6.076,15.147-4.8,35.055-5.927,51.637-.807,13.147-3.785,26.209-9.826,37.915-6.87,13.578-17.527,25.921-23.175,40.905-10.181,24.926-2.929,52.412,15.249,72.257ZM444.082,255.8c4.658-13.966,14.228-21.792,25.605-34.145,9.342-9.649,21.525-22.228,31.235-32.245,8.803-8.538,16.013-17.241,22.437-15.803l.112.039c2.715.96,4.53,4.451,5.648,9.424,2.769,11.663.025,28.713-6.944,39.382-7.975,12.637-20.074,22.422-31.905,31.502-11.609,8.304-21.375,16.793-34.591,19.407-11.257,1.952-14.281-8.422-11.597-17.561ZM270.881,183.07c1.118-4.973,2.933-8.464,5.648-9.424l.112-.039c6.423-1.438,13.634,7.265,22.437,15.803,9.71,10.017,21.893,22.596,31.235,32.245,11.377,12.353,20.947,20.178,25.605,34.145,2.684,9.139-.34,19.514-11.597,17.561-13.216-2.614-22.982-11.103-34.591-19.407-11.831-9.08-23.929-18.865-31.905-31.502-6.97-10.669-9.713-27.719-6.944-39.382Z"/>
    <path d="M227.473,60.192c-5.543-8.967-14.994-15.994-24.633-20.967-24.98-12.378-58.735-16.922-82.229-2.385-24.097,16.337-12.847,46.427,10.953,58.741l.308.172c11.844,6.648,28.185,10.73,43.651,11.352,14.696.643,28.401-1.737,38.262-6.384,17.569-7.591,23.511-24.928,13.688-40.529Z"/>
    <path d="M400.467,435.389c-33.943,0-61.714,27.772-61.714,61.714v240.725c0,33.943,27.772,61.714,61.714,61.714s61.714-27.772,61.714-61.714v-240.725c0-33.943-27.771-61.714-61.714-61.714Z"/>
</svg>