<?xml version="1.0" encoding="UTF-8"?>
<svg id="svg-icon-scooter_side" class="svg-icon" xmlns="http://www.w3.org/2000/svg" xmlns:xlink="http://www.w3.org/1999/xlink" version="1.1" viewBox="0 0 800 800">
    <path d="M557.61,77.088c-18.589,0-34.263,11.941-40.157,28.516h-88.167c-15.749-.223-28.697,12.364-28.92,28.113-.223,15.749,12.364,28.697,28.113,28.92.269.004.538.004.807,0h97.914c16.716,39.686,44.668,113.846,44.668,171.099,0,114.066-85.549,171.099-142.582,171.099h-57.033c-31.511,0-57.033-25.522-57.033-57.033v-57.033H87.088S1.538,419.286,1.538,504.835c10.25,3.357,37.27,14.933,68.117,28.516-24.024,20.964-39.6,51.412-39.6,85.549,0,62.659,51.407,114.066,114.066,114.066s114.066-51.407,114.066-114.066c0-.496-.161-.953-.167-1.448,4.145.946,8.385,1.448,12.699,1.448h208.694c22.699,0,44.46-9.009,60.486-25.063l3.453-3.453h4.122c-2.406,9.176-4.122,18.621-4.122,28.516,0,62.659,51.407,114.066,114.066,114.066s114.066-51.407,114.066-114.066c0-13.768-2.87-26.843-7.408-39.099l35.924-17.934s-39.606-81.166-121.696-106.436l7.63-7.63c-1.69-105.658-62.001-230.086-94.851-285.165h37.818v-85.549h-71.291ZM87.088,276.703c-15.749-.223-28.697,12.364-28.92,28.113-.223,15.749,12.364,28.697,28.113,28.92.269.004.538.004.807,0h228.132c15.749.223,28.697-12.364,28.92-28.113.223-15.749-12.364-28.697-28.113-28.92-.269-.004-.538-.004-.807,0H87.088ZM135.377,562.759c23.077,10.448,37.991,17.26,57.2,26.066,5.371,8.717,8.577,18.941,8.577,30.076,0,31.836-25.197,57.033-57.033,57.033s-57.033-25.197-57.033-57.033c0-28.832,20.741-51.985,48.289-56.142ZM608.126,590.385h98.582c4.811,8.387,7.742,18.022,7.742,28.516,0,31.836-25.197,57.033-57.033,57.033s-57.033-25.197-57.033-57.033c0-10.495,2.93-20.13,7.742-28.516Z"/>
</svg>