<?xml version="1.0" encoding="UTF-8"?>
<svg id="svg-icon-scooter_electric" xmlns="http://www.w3.org/2000/svg" xmlns:xlink="http://www.w3.org/1999/xlink" version="1.1" viewBox="0 0 800 800">
    <defs>
        <style>
            .svg-icon-opacity_half { opacity: .5; }
        </style>
    </defs>
    <path class="svg-icon-opacity_half" d="M746.241,259.779h-37.549l13.861-42.234c1.302-4.946-2.44-9.826-7.549-9.826h-46.854c-3.905,0-7.223,2.896-7.744,6.768l-10.412,78.091c-.618,4.685,3.026,8.85,7.744,8.85h38.622l-15,63.286c-1.171,4.946,2.603,9.599,7.581,9.599,2.733,0,5.336-1.432,6.768-3.905l57.267-98.915c3.026-5.174-.716-11.714-6.735-11.714h0Z"/>
    <path d="M398.246,517.544c-38.596,0-70.175,31.579-70.175,70.175v142.105c0,38.596,31.579,70.175,70.175,70.175s70.175-31.579,70.175-70.175v-142.105c0-38.596-31.578-70.175-70.175-70.175h0Z"/>
    <path d="M652.632,87.719h-135.088C501.755,36.842,454.388,0,398.246,0s-103.509,36.842-119.298,87.719h-133.333c-19.298,0-35.088,15.789-35.088,35.088s15.789,35.088,35.088,35.088h135.088c8.772,29.825,28.07,54.386,54.386,70.175-94.737,28.07-164.912,115.789-164.912,219.298v184.211c0,31.579,26.316,57.895,57.895,57.895h47.368v-100c0-68.422,56.14-124.561,124.561-124.561s124.561,56.14,124.561,124.561v100h47.368c31.579,0,57.895-26.316,57.895-57.895v-182.456c0-103.51-70.175-192.982-164.914-219.298,26.316-15.789,45.614-40.351,54.386-70.175h135.088c19.298,0,35.088-15.789,35.088-35.088-1.753-21.053-17.543-36.842-36.841-36.842h0ZM398.246,194.737c-38.596,0-70.175-31.579-70.175-70.175s31.579-70.175,70.175-70.175,70.175,31.579,70.175,70.175c1.754,38.596-29.825,70.175-70.175,70.175h0Z"/>
</svg>