<?xml version="1.0" encoding="utf-8"?>

<!DOCTYPE svg PUBLIC "-//W3C//DTD SVG 1.1//EN" "http://www.w3.org/Graphics/SVG/1.1/DTD/svg11.dtd">
<!-- Uploaded to: SVG Repo, www.svgrepo.com, Generator: SVG Repo Mixer Tools -->
<svg version="1.1" id="_x32_" xmlns="http://www.w3.org/2000/svg" xmlns:xlink="http://www.w3.org/1999/xlink" 
	 width="800px" height="800px" viewBox="0 0 512 512"  xml:space="preserve">
<style type="text/css">
<![CDATA[
	.st0{fill:#000000;}
]]>
</style>
<g>
	<path class="st0" d="M371.884,0c-56.563,0-102.406,56.594-102.406,120.469c0,38.875,18.281,73.156,40.625,94.5
		c19.609,18.75,31.656,33.188,34.063,64.516v206.563c0,14.328,11.625,25.953,25.953,25.953h3.516
		c14.328,0,25.953-11.625,25.953-25.953V279.484c2.406-31.328,14.453-45.766,34.063-64.516c22.344-21.344,40.625-55.625,40.625-94.5
		C474.274,56.594,428.415,0,371.884,0z"/>
	<path class="st0" d="M188.587,24.547v109.375c0,6.984-5.656,12.656-12.641,12.656h-3.391c-6.969,0-12.641-5.672-12.641-12.656
		V24.047c0-18.016-12.125-23.422-23.766-23.422c-11.625,0-23.75,5.406-23.75,23.422v109.875c0,6.984-5.672,12.656-12.656,12.656
		h-3.375c-6.984,0-12.641-5.672-12.641-12.656V24.547c0-32.266-46-31.172-46,0.359c0,37.75,0,104.438,0,104.438
		c-0.219,58,13.641,73.047,36.516,91.125c18.438,14.563,34.203,22.875,34.203,59.031v206.547c0,14.328,11.609,25.953,25.953,25.953
		h3.516c14.328,0,25.953-11.625,25.953-25.953V279.5c0-36.156,15.75-44.469,34.188-59.031c22.891-18.078,36.75-33.125,36.531-91.125
		c0,0,0-66.688,0-104.438C234.587-6.625,188.587-7.719,188.587,24.547z"/>
</g>
</svg>