<?xml version="1.0" encoding="UTF-8"?>
<svg class="svg-icon-modes-carsharing svg-icon svg-icon-modes" xmlns="http://www.w3.org/2000/svg" version="1.1" viewBox="0 0 800 800">
    <defs>
        <style>
            .svg-icon-opacity_half { opacity: .5; }
        </style>
    </defs>
  <path d="M706.522,481.502l-10.156-13.18,3.628-.857c15.217-3.593,24.729-18.982,21.136-34.199h0c-3.593-15.217-18.982-24.729-34.199-21.136l-12.903,3.045c-10.541-39.917-23.803-76.576-31.658-93.184-15.315-32.654-45.368-52.015-83.799-57.216-19.361-2.31-82.644-4.045-157.489-4.045s-137.837,2.023-157.199,4.045c-38.431,4.624-68.484,24.563-83.8,57.216-7.821,16.535-20.998,52.944-31.516,92.654l-10.658-2.516c-15.217-3.593-30.607,5.919-34.199,21.136h0c-3.593,15.217,5.919,30.607,21.136,34.199l1.61.38-10.525,13.657c-26.871,34.675-36.697,62.126-36.697,110.673v166.735c0,21.383,16.76,37.855,38.433,37.855h34.098c21.384,0,38.143-16.472,38.143-37.854v-48.547c64.152,4.045,156.91,6.936,231.174,6.936s167.314-2.89,231.463-6.936v48.547c0,21.383,16.47,37.854,38.142,37.854h34.1c21.671,0,38.431-16.472,38.431-37.854v-166.735c0-48.547-9.824-75.998-36.698-110.674h0ZM178.579,426.02c6.936-31.787,20.806-73.109,30.342-89.87,7.802-13.582,16.182-19.361,31.787-21.384,21.962-3.179,71.087-4.912,160.378-4.912s138.705,1.155,160.667,4.912c15.315,2.312,23.694,7.802,31.785,21.384,9.829,16.47,22.831,58.082,30.341,89.87,2.604,10.691-1.733,14.737-13.001,13.87-47.969-2.889-105.185-6.067-209.792-6.067s-161.533,3.179-209.501,6.067c-11.27.868-15.315-3.179-13.003-13.87h0ZM190.425,642.457c-27.451,0-47.969-20.807-47.969-47.97,0-27.451,20.517-47.969,47.969-47.969s47.969,20.517,47.969,47.969c0,27.163-20.516,47.97-47.969,47.97ZM477.949,629.164h-153.442c-20.227,0-34.387-14.447-34.387-34.676,0-20.516,14.16-34.676,34.387-34.676h153.442c20.229,0,34.387,14.16,34.387,34.676,0,20.229-14.159,34.676-34.387,34.676h0ZM612.029,642.457c-27.448,0-47.967-20.807-47.967-47.97,0-27.451,20.519-47.969,47.967-47.969,27.164,0,47.97,20.517,47.97,47.969,0,27.163-20.807,47.97-47.97,47.97Z"/>
  <path class="svg-icon-opacity_half" d="M305.925,233.666c0-55.88,44.416-101.18,99.206-101.18s99.206,45.3,99.206,101.18h-198.411ZM405.131,3.234c-28.978,0-52.47,23.492-52.47,52.47s23.492,52.47,52.47,52.47,52.47-23.492,52.47-52.47S434.109,3.234,405.131,3.234ZM670.844,50.354c-28.978,0-52.47,23.492-52.47,52.47s23.492,52.47,52.47,52.47,52.47-23.492,52.47-52.47-23.492-52.47-52.47-52.47ZM583.675,232.536c40.031,0,73.667,27.383,83.198,64.439h115.603c0-71.178-49.98-128.879-111.633-128.879-41.524,0-77.751,26.176-96.981,65.014,3.222-.367,6.492-.574,9.812-.574ZM83.758,102.904c0,28.978,23.492,52.47,52.47,52.47,28.978,0,52.47-23.492,52.47-52.47,0-28.978-23.492-52.47-52.47-52.47-28.978,0-52.47,23.492-52.47,52.47ZM233.209,233.19c-19.23-38.837-55.457-65.014-96.981-65.014-61.653,0-111.633,57.701-111.633,128.879h115.603c9.531-37.057,43.167-64.439,83.198-64.439,3.32,0,6.59.208,9.812.574Z"/>
</svg>