<?xml version="1.0" encoding="UTF-8"?>
<svg id="svg-icon-ridesharing" class="svg-icon" xmlns="http://www.w3.org/2000/svg" version="1.1" viewBox="0 0 800 800">
    <path d="M772.689,393.94l-7.558-9.809,2.7-.638c11.325-2.674,18.403-14.127,15.73-25.451h0c-2.674-11.325-14.127-18.403-25.451-15.73l-9.602,2.266c-7.845-29.706-17.714-56.988-23.56-69.348-11.398-24.302-33.763-38.71-62.364-42.581-14.409-1.719-61.505-3.01-117.204-3.01s-102.579,1.505-116.989,3.01c-28.601,3.441-50.966,18.28-62.365,42.581-5.82,12.306-15.627,39.401-23.454,68.954l-7.932-1.873c-11.325-2.674-22.778,4.405-25.451,15.73h0c-2.674,11.325,4.405,22.778,15.73,25.451l1.198.283-7.833,10.164c-19.998,25.806-27.31,46.235-27.31,82.364v124.086c0,15.913,12.473,28.172,28.602,28.172h25.376c15.914,0,28.387-12.259,28.387-28.172v-36.129c47.742,3.01,116.773,5.162,172.042,5.162s124.516-2.151,172.257-5.162v36.129c0,15.913,12.257,28.172,28.385,28.172h25.378c16.128,0,28.601-12.259,28.601-28.172v-124.086c0-36.129-7.311-56.558-27.311-82.364h0ZM379.79,352.65c5.162-23.656,15.484-54.408,22.58-66.882,5.806-10.108,12.043-14.409,23.656-15.914,16.344-2.366,52.904-3.655,119.354-3.655s103.225.86,119.569,3.655c11.398,1.721,17.633,5.806,23.655,15.914,7.315,12.257,16.991,43.225,22.58,66.882,1.938,7.956-1.29,10.968-9.675,10.322-35.699-2.15-78.28-4.515-156.129-4.515s-120.214,2.366-155.912,4.515c-8.388.646-11.398-2.366-9.677-10.322h0ZM388.606,513.725c-20.429,0-35.699-15.485-35.699-35.699,0-20.429,15.269-35.699,35.699-35.699s35.699,15.269,35.699,35.699c0,20.215-15.268,35.699-35.699,35.699ZM602.584,503.832h-114.193c-15.053,0-25.591-10.752-25.591-25.806,0-15.268,10.538-25.806,25.591-25.806h114.193c15.054,0,25.591,10.538,25.591,25.806,0,15.054-10.537,25.806-25.591,25.806h0ZM702.367,513.725c-20.427,0-35.697-15.485-35.697-35.699,0-20.429,15.27-35.699,35.697-35.699,20.215,0,35.7,15.269,35.7,35.699,0,20.215-15.485,35.699-35.7,35.699Z"/>
    <path d="M255.015,372.938s-21.468-5.704-37.174-10.565c-29.722-9.2-40.876-30.655-44.082-53.804-1.659-11.979-7.009-16.199-14.923-20.436-11.704-6.268-34.318-9.319-54.076-5.093-15.758,3.371-55.806,31.981-71.376,42.265-4.028,2.66-6.753,6.885-7.517,11.651l-10.377,61.923c-2.488,12.438,4.429,24.54,16.867,27.029,12.439,2.487,24.54-5.577,27.028-18.016l9.238-48.105c.856-4.458,3.438-8.398,7.183-10.964l23.056-15.792s-2.139,18.301-6.945,38.797c-4.806,20.496-11.375,52.06,3.335,71.273L4.315,593.641c-6.218,11.057-2.298,25.06,8.758,31.281,11.056,6.217,25.06,2.297,31.279-8.758l78.973-133.333,90.336,135.501c7.035,10.554,21.296,13.407,31.85,6.371,10.556-7.038,13.407-21.299,6.371-31.852,0,0-84.158-124.458-101.035-151.552l14.029-60.523s7.594,13.293,23.99,17.994c16.395,4.701,54.279,15.564,54.279,15.564,1.984.569,3.981.84,5.946.84,9.362,0,17.979-6.155,20.688-15.603,3.278-11.431-3.331-23.356-14.763-26.634h0ZM161.076,181.912c22.108,0,40.03,17.922,40.03,40.03s-17.922,40.03-40.03,40.03-40.03-17.922-40.03-40.03,17.922-40.03,40.03-40.03Z"/>
</svg>