<?xml version="1.0" encoding="iso-8859-1"?>
<!-- Uploaded to: SVG Repo, www.svgrepo.com, Generator: SVG Repo Mixer Tools -->
<!DOCTYPE svg PUBLIC "-//W3C//DTD SVG 1.1//EN" "http://www.w3.org/Graphics/SVG/1.1/DTD/svg11.dtd">
<svg fill="#000000" version="1.1" id="Capa_1" xmlns="http://www.w3.org/2000/svg" xmlns:xlink="http://www.w3.org/1999/xlink" 
	 width="800px" height="800px" viewBox="0 0 495.984 495.984"
	 xml:space="preserve">
<g>
	<g>
		<path d="M64.003,55.062c0-5.724,0-11.447,0-17.17c0-9.627,0-19.254,0-28.882c0-3.004,0-6.007,0-9.01
			c6.557,0.11,13.078,0.401,19.605,1.038c4.462,0.435,8.874,1.066,13.295,1.806c4.728,0.79,9.379,1.859,14.042,2.968
			c4.747,1.128,9.473,2.585,14.094,4.154c4.589,1.558,9.218,3.251,13.624,5.27c4.033,1.847,8.067,3.646,12.011,5.686
			c4.101,2.122,8.126,4.39,12.072,6.79c14.62,8.894,28.182,19.613,40.328,31.664c7.027,6.974,13.854,14.209,20.094,21.906
			c6.22,7.672,12.157,15.507,17.899,23.542c5.686,7.956,10.898,16.26,16.055,24.566c5.178,8.347,10.059,16.886,14.824,25.473
			c9.766,17.59,18.896,35.518,27.914,53.499c8.867,17.684,17.611,35.435,26.845,52.933c9.155,17.353,18.66,34.633,29.713,50.866
			c5.465,8.024,11.226,15.804,17.582,23.149c5.568,6.5,11.786,12.621,18.676,17.719c6.431,4.757,13.491,8.648,21.234,10.77
			c1.775,0.487,3.571,0.92,5.39,1.197c0.791,0.121,1.589,0.333,2.384,0.407c0.714,0.067,1.438,0.267,2.146,0.293
			c2.719,0.085,5.438,0.17,8.154,0.256c-0.183,5.722-0.362,11.442-0.545,17.162c-0.305,9.623-0.609,19.245-0.914,28.868
			c-0.088,2.74-0.174,5.479-0.262,8.22c-0.007,0.23-0.015,0.46-0.021,0.69c-0.008,0.251-0.988,0.063-1.17,0.058
			c-3.896-0.123-7.749-0.285-11.629-0.667c-0.312,3.445-0.621,6.891-0.933,10.336c-0.207,2.293-0.413,4.587-0.619,6.879
			c-0.063,0.702-0.126,1.404-0.19,2.106c-0.038,0.446-0.191,0.571,0.283,0.617c4.542,0.428,9.062,0.599,13.621,0.741
			c-0.183,5.722-0.361,11.441-0.543,17.163c-0.307,9.622-0.611,19.245-0.916,28.867c-0.087,2.74-0.175,5.48-0.262,8.22
			c-0.021,0.702,0.151,0.791-0.595,0.769c-3.592-0.112-7.186-0.183-10.77-0.456c-8.707-0.667-17.406-1.659-25.942-3.545
			c-4.776-1.057-9.504-2.207-14.196-3.585c-4.671-1.371-9.234-2.947-13.797-4.645c-17.48-6.499-33.919-16.021-48.787-27.231
			c-13.822-10.423-26.417-22.521-37.763-35.582c-12.865-14.947-24.607-30.859-35.061-47.59
			c-10.509-16.822-20.244-34.068-29.492-51.613c-9.348-17.73-18.233-35.703-27.214-53.621c-8.827-17.609-17.75-35.174-27.349-52.379
			c-9.478-16.987-19.699-33.783-31.928-48.95c-3.011-3.733-6.152-7.321-9.401-10.846c-3.242-3.519-6.803-6.697-10.419-9.82
			c-5.83-4.932-12.393-9.198-19.517-12.009c-4.009-1.583-8.14-2.575-12.376-3.297c-2.108-0.36-4.284-0.533-6.42-0.581
			c-0.159-0.004-2.856-0.05-2.856-0.132c0-1.82,0-3.64,0-5.46c0-9.183,0-18.367,0-27.551c0-7.147,0-14.295,0-21.441
			c0-0.199,0-0.397,0-0.596c3.752,0.119,7.483,0.218,11.221,0.576c0.074,0.007,1.131,0.127,1.135,0.095
			c0.013-0.122,0.025-0.243,0.038-0.366c0.064-0.629,0.129-1.258,0.194-1.887c0.476-4.628,0.951-9.257,1.428-13.886
			c0.128-1.243,0.256-2.486,0.384-3.729C73.601,55.391,68.821,55.212,64.003,55.062z M312.376,378.667
			c5.377,6.666,11.247,12.913,17.309,18.955c3.452,3.443,7.123,6.671,10.855,9.804c3.554,2.982,7.209,5.919,11.06,8.517
			c1.846,1.246,3.688,2.496,5.534,3.741c1.861-2.915,3.723-5.832,5.583-8.748c1.239-1.941,2.479-3.883,3.717-5.823
			c0.38-0.594,0.758-1.188,1.138-1.782c0.208-0.326,0.431-0.417,0.091-0.647c-1.637-1.11-3.272-2.217-4.911-3.323
			c-1.89-1.276-3.663-2.728-5.488-4.091c-3.896-2.914-7.481-6.241-11.071-9.515c-3.556-3.24-6.862-6.757-10.133-10.277
			c-2.766-2.979-5.467-6.053-8.014-9.219c-0.074-0.093-0.147-0.186-0.223-0.277C322.673,370.208,317.524,374.438,312.376,378.667z
			 M251.045,278.372c7.669,14.964,15.414,29.897,23.81,44.472c1.004,1.74,1.994,3.489,3.016,5.221
			c0.171,0.29,0.762,1.824,1.15,1.592c1.269-0.749,2.539-1.498,3.809-2.246c3.932-2.32,7.865-4.643,11.798-6.963
			c0.484-0.285,0.968-0.571,1.451-0.855c-8.983-15.217-17.26-30.84-25.313-46.563c-0.578-1.131-1.157-2.261-1.736-3.392
			c-0.184-0.356-0.126-0.353-0.467-0.18c-1.428,0.727-2.854,1.452-4.28,2.18c-4.015,2.043-8.026,4.086-12.039,6.127
			C251.843,277.967,251.443,278.17,251.045,278.372z M197.847,176.439c8.983,15.216,17.26,30.84,25.313,46.562
			c0.58,1.13,1.159,2.261,1.737,3.392c0.183,0.357,0.129,0.351,0.47,0.178c1.439-0.732,2.878-1.465,4.318-2.198
			c4.019-2.046,8.039-4.092,12.059-6.138c0.378-0.192,0.757-0.385,1.135-0.578c-7.665-14.965-15.413-29.898-23.808-44.47
			c-1.004-1.742-1.993-3.491-3.016-5.222c-0.171-0.289-0.76-1.823-1.15-1.592c-1.27,0.75-2.539,1.499-3.808,2.247
			c-3.934,2.322-7.866,4.643-11.799,6.963C198.815,175.868,198.331,176.154,197.847,176.439z M126.037,93.195
			c3.218,2.184,6.401,4.371,9.503,6.716c3.869,2.925,7.539,6.09,11.11,9.369c6.623,6.077,12.961,12.68,18.592,19.697
			c0.286,0.358,0.573,0.715,0.862,1.072c2.672-2.195,5.345-4.392,8.019-6.587c1.778-1.461,3.558-2.922,5.337-4.385
			c0.545-0.447,1.09-0.894,1.633-1.342c0.514-0.421,0.511-0.303,0.032-0.896c-11.695-13.996-24.685-27.201-39.847-37.46
			c-1.496-1.012-2.991-2.022-4.488-3.032C133.207,81.963,129.622,87.579,126.037,93.195z"/>
	</g>
</g>
</svg>