<?xml version="1.0" encoding="iso-8859-1"?>
<!-- Uploaded to: SVG Repo, www.svgrepo.com, Generator: SVG Repo Mixer Tools -->
<!DOCTYPE svg PUBLIC "-//W3C//DTD SVG 1.1//EN" "http://www.w3.org/Graphics/SVG/1.1/DTD/svg11.dtd">
<svg fill="#000000" height="800px" width="800px" version="1.1" id="Capa_1" xmlns="http://www.w3.org/2000/svg" xmlns:xlink="http://www.w3.org/1999/xlink" 
	 viewBox="0 0 419.519 419.519" xml:space="preserve">
<g>
	<path d="M105.839,154.031c1.249-1.592,1.602-3.641,1.081-6.263c-0.514-2.59-1.655-4.429-3.488-5.622
		c-1.818-1.183-4.301-1.471-7.367-0.862l-9.972,1.979l3.198,16.11l9.76-1.938C102.288,156.794,104.571,155.648,105.839,154.031z"/>
	<path d="M386.784,190.429c-1.622-0.34-3.154-0.662-4.52-1.017c-15.092-3.925-22.58-6.263-27.827-16.394l-19.694-39.873
		c-6.286-12.135-22.518-22.008-36.183-22.008h-35.354V83.957c0-8.11-6.598-14.708-14.71-14.708L13.829,69.494
		C5.945,69.494,0,75.766,0,84.083v203.465c0,8.11,6.598,14.708,14.708,14.708h25.659c3.832,27.098,27.169,48.013,55.311,48.013
		c28.144,0,51.483-20.914,55.315-48.013h93.496c0.616,0,1.246-0.034,1.879-0.082c3.796,27.138,27.151,48.095,55.322,48.095
		c28.144,0,51.483-20.914,55.315-48.013h36.746c14.208,0,25.766-11.558,25.766-25.765v-44.204
		C419.519,197.297,399.819,193.164,386.784,190.429z M41.011,179.946l5.119,25.786l-14.407,2.86l-12.708-64.018l44.753-8.884
		l2.293,11.551l-30.346,6.024l3.003,15.129l25.999-5.161l2.292,11.552L41.011,179.946z M95.679,315.104
		c-11.415,0-20.701-9.287-20.701-20.702c0-11.415,9.286-20.702,20.701-20.702c11.419,0,20.709,9.287,20.709,20.702
		C116.388,305.817,107.098,315.104,95.679,315.104z M119.435,191.179l-0.311-0.161c-1.538-0.798-2.749-2.366-3.599-4.661
		c-0.779-2.104-1.37-4.157-1.756-6.104l-0.872-4.39c-0.559-2.816-1.754-4.864-3.552-6.089c-1.797-1.223-4.112-1.559-6.893-1.007
		l-10.867,2.157l4.924,24.805l-14.408,2.86l-12.708-64.018l24.38-4.84c7.274-1.444,13.404-0.892,18.221,1.638
		c4.892,2.569,7.981,6.94,9.183,12.991c0.676,3.407,0.357,6.564-0.947,9.383c-1.008,2.177-2.584,4.182-4.698,5.983
		c2.994,0.626,5.419,1.899,7.23,3.797c2.23,2.341,3.753,5.501,4.527,9.394l0.905,4.561c0.327,1.648,0.901,3.351,1.707,5.064
		c0.745,1.585,1.686,2.681,2.797,3.258l0.427,0.221l0.466,2.347L119.435,191.179z M139.81,187.135l-12.708-64.018l44.37-8.808
		l2.293,11.551l-29.962,5.948l2.707,13.638l25.701-5.102l2.292,11.552l-25.7,5.102l3.122,15.726l30.048-5.965l2.293,11.552
		L139.81,187.135z M189.933,177.185l-12.708-64.018l44.37-8.808l2.293,11.551l-29.962,5.948l2.708,13.637l25.7-5.102l2.292,11.552
		l-25.7,5.102l3.122,15.726l30.047-5.965l2.293,11.552L189.933,177.185z M301.691,315.104c-11.415,0-20.701-9.287-20.701-20.702
		c0-11.415,9.286-20.702,20.701-20.702c11.419,0,20.709,9.287,20.709,20.702C322.4,305.817,313.11,315.104,301.691,315.104z
		 M263.206,187.26v-54.948h27.085c10.395,0,23.217,7.8,27.979,16.988l17.525,35.482c0.452,0.873,0.924,1.698,1.419,2.478H263.206z"
		/>
</g>
</svg>