<?xml version="1.0" encoding="UTF-8"?>
<svg class="svg-icon-marker_square-activities-home svg-icon-marker_square svg-icon-marker_square-activities" xmlns="http://www.w3.org/2000/svg" version="1.1" viewBox="0 0 800 800">
    <defs>
        <style>
            .svg-icon-marker-background { fill: #fff; }
        </style>
    </defs>
    <path class="svg-icon-marker-marker_square" d="M678.707,0H121.24C79.611,0,45.744,33.867,45.744,75.496v557.467c0,41.629,33.867,75.496,75.496,75.496h130.099c148.693,5.043,148.635,91.541,148.635,91.541,0,0-.058-86.499,148.636-91.541h130.097c41.629,0,75.496-33.867,75.496-75.496V75.496C754.203,33.868,720.336,0,678.707,0h0Z"/>
    <path class="svg-icon-marker-background" d="M139.566,48.525h520.814c25.017,0,45.297,20.28,45.297,45.297v520.814c0,25.017-20.28,45.297-45.297,45.297H139.566c-25.017,0-45.297-20.28-45.297-45.297V93.822c0-25.017,20.28-45.297,45.297-45.297Z"/>
    <g class="svg-icon-content" transform="translate(120, 75) scale(0.7)">
        <path d="M788.5,348.2L427.1,56.8c-14.9-14.9-39.1-14.9-54,0L11.2,348.7c-14.7,14.7-14.9,38.6-.5,53.5,14.9,15.4,40,15.2,55.1,0L400.1,137.9l334.8,264.8c7.5,7.5,17.2,11.2,27,11.2s20.2-4,27.7-11.9c14.3-15.1,13.5-39-1.2-53.7Z"/>
        <path d="M400.1,180.8l-252.1,199.1c-5.7,5.7-8.9,13.5-8.9,21.5v300.6c0,16.9,13.7,30.6,30.6,30.6h119.2c16.9,0,30.6-13.7,30.6-30.6v-176c0-16.9,13.7-30.6,30.6-30.6h100c16.9,0,30.6,13.7,30.6,30.6v176c0,16.9,13.7,30.6,30.6,30.6h119.6c16.9,0,30.6-13.6,30.6-30.5v-300.6c0-8.1-3.2-15.8-8.9-21.5l-252.5-199.2Z"/>
    </g>
</svg>