<?xml version="1.0" encoding="UTF-8"?>
<svg id="svg-icon-home_with_road" class="svg-icon" xmlns="http://www.w3.org/2000/svg" version="1.1" viewBox="0 0 800 800">
    <defs>
        <style>
            #svg-icon-home_with_road-road { opacity: .5; }
        </style>
    </defs>
    <g id="svg-icon-home_with_road-road">
        <path d="M800,0h-251.2c.7,2,1.4,4,2,6,2.2,7.8,3.9,15.6,4.4,23.7,1,14.4-.9,29-4.6,42.9-2.4,8.7-4.9,17.3-8.2,25.7-3.4,8.4-6.9,16.6-10.8,24.8-15.8,33.1-36.1,64-57.2,93.9-21.2,29.9-43.6,59.1-66.1,88v98.3c0,11.3-9.1,20.3-20.4,20.3h-69.7c-15,20.9-29.5,42.2-43.3,63.9-19.9,31.3-37.4,64.2-52.4,98.1-13,29.9-23.3,61.1-29.8,93-7,34.3-9.8,70-6.7,104.9.5,5.5,1.1,11,1.8,16.5h252c-1.2-2.7-2.4-5.5-3.6-8.2-.5-1.2-.8-2.6-1.2-3.9-.5-1.4-.8-2.9-1.2-4.4-1-3.3-1.7-6.7-2.3-10.1-2.7-14.9-1.8-30,1.1-44.8,3.1-15.8,8.4-31.4,14.9-46.1,7.3-16.8,15.9-32.8,25-48.6,18.6-31.9,40.2-62.1,62.3-91.7,22.2-29.9,45.3-59.1,68.1-88.5,23.2-29.9,46.3-59.9,68.2-90.8,10.7-15.1,21.3-30.3,31.2-45.8,9.9-15.5,19.8-31.1,28.7-47.2,9-16.3,17.5-32.7,25.5-49.5,8-16.8,14.8-34.3,20.9-51.9,10.6-30.4,17.8-62.1,21.1-94.2.9-8.6,1.5-17.3,1.7-26,.3-8.4-.2-48.3-.2-48.3ZM357.7,629.6c-3.3,6.9-6.3,14-9.2,21.1-3.3,8.4-6.6,16.9-9.2,25.5-2.6,8.8-5.4,17.5-7.2,26.5-.8,4.2-1.9,8.4-2.5,12.6-.5,3.7-1.1,7.4-1.7,11-.1.8-.5.5-1.2.4-1.3-.2-2.6-.3-3.9-.5-4.3-.5-8.6-1.1-12.9-1.6-6.5-.8-12.9-1.6-19.4-2.4.6-4.1,1.2-8.3,1.9-12.4,1.3-8.6,3.3-17.2,5.5-25.7,2.3-8.9,4.8-17.7,7.8-26.4,5.3-15.2,11.2-30.2,18.1-44.8,11.4,5.3,22.7,10.6,34.1,15.9,0,.2-.2.4-.3.6ZM473.9,451c-1.5,1.9-2.9,3.8-4.4,5.7-20.2,26.4-40,53.2-58.5,80.7-.9-.6-1.8-1.2-2.6-1.8-7.1-4.8-14.3-9.6-21.4-14.4-2.3-1.5-4.6-3.1-6.9-4.6-.7-.5,1.4-2.7,1.8-3.2,2.1-3.1,4.3-6.2,6.4-9.4,17.9-26.1,37-51.3,56.2-76.5.7.5,1.3,1,2,1.5,6.7,5.2,13.4,10.3,20.2,15.5,2.4,1.8,4.8,3.7,7.2,5.5.6.4.5.3,0,.9ZM603.5,278.6c-2.1,3.1-4.3,6.2-6.4,9.4-17.9,26.1-37,51.3-56.2,76.5-.6-.5-1.3-1-1.9-1.5-6.7-5.2-13.5-10.3-20.2-15.5-2.4-1.9-4.8-3.7-7.2-5.5-.6-.4-.5-.3,0-.9,1.5-1.9,2.9-3.8,4.4-5.7,20.2-26.4,40-53.2,58.5-80.7.9.6,1.8,1.2,2.6,1.8,7.1,4.8,14.3,9.6,21.4,14.4,2.3,1.5,4.6,3.1,6.9,4.6.7.5-1.4,2.7-1.8,3.2ZM693.3,79.7c-5.1,34.1-17,66.8-31.3,98-.6,1.3-.4,1.2-1.5.7-1.2-.6-2.4-1.1-3.6-1.7-3.9-1.8-7.9-3.7-11.8-5.5-5.9-2.8-11.8-5.5-17.7-8.3.4-.8.7-1.6,1.1-2.3,7.3-15.3,13.4-31.4,18.4-47.5,2.7-8.7,5.1-17.5,6.9-26.5,1.5-7.2,2.6-14.3,3.7-21.6,12.4,1.5,24.9,3.1,37.3,4.6-.5,3.4-1,6.7-1.5,10.1Z"/>
    </g>
    <g id="svg-icon-home_with_road-home">
        <path d="M467.1,179.2L253,6.6c-8.8-8.8-23.2-8.8-32,0L6.7,179.5c-8.7,8.7-8.8,22.9-.3,31.7,8.8,9.1,23.7,9,32.6,0L237,54.7l198.3,156.8c4.4,4.4,10.2,6.6,16,6.6s12-2.4,16.4-7c8.5-8.9,8-23.1-.7-31.8h0Z"/>
        <path d="M237,80.1l-149.3,117.9c-3.4,3.4-5.3,8-5.3,12.7v178c0,10,8.1,18.1,18.1,18.1h70.6c10,0,18.1-8.1,18.1-18.1v-104.2c0-10,8.1-18.1,18.1-18.1h59.2c10,0,18.1,8.1,18.1,18.1v104.2c0,10,8.1,18.1,18.1,18.1h70.8c10,0,18.1-8.1,18.1-18.1v-178c0-4.8-1.9-9.4-5.3-12.7l-149.5-118h0Z"/>
    </g>
</svg>