<?xml version="1.0" encoding="UTF-8"?>
<svg class="svg-icon-marker_round-activities-home svg-icon-marker_round svg-icon-marker_round-activities" xmlns="http://www.w3.org/2000/svg" version="1.1" viewBox="0 0 800 800">
    <defs>
        <style>
            .svg-icon-marker-background { fill: #fff; }
        </style>
    </defs>
    <path class="svg-icon-marker-marker_round" d="M678.058,289.282c.01-.256.02-.513.029-.769.044-1.27.087-2.539.113-3.813.046-1.971.075-3.946.075-5.925C678.276,125.068,553.208,0,399.501,0S120.726,125.068,120.726,278.775h0c0,.007,0,.015,0,.022,0,1.966.03,3.927.075,5.886.027,1.301.071,2.597.116,3.893.008.218.016.436.025.654,1.311,35.36,9.235,69.057,22.578,99.889,66.594,165.882,256.216,300.297,256.216,410.756l.133-7.452.133,7.452c0-110.815,190.349-245.74,256.184-412.361,12.919-30.379,20.579-63.506,21.873-98.232Z"/>
    <path class="svg-icon-marker-background" d="M168.817,278.775c0-127.191,103.493-230.684,230.684-230.684s230.684,103.493,230.684,230.684-103.493,230.684-230.684,230.684-230.684-103.493-230.684-230.684h0Z"/>
    <g class="svg-icon-content" transform="translate(240, 120) scale(0.4)">
        <path d="M788.5,348.2L427.1,56.8c-14.9-14.9-39.1-14.9-54,0L11.2,348.7c-14.7,14.7-14.9,38.6-.5,53.5,14.9,15.4,40,15.2,55.1,0L400.1,137.9l334.8,264.8c7.5,7.5,17.2,11.2,27,11.2s20.2-4,27.7-11.9c14.3-15.1,13.5-39-1.2-53.7Z"/>
        <path d="M400.1,180.8l-252.1,199.1c-5.7,5.7-8.9,13.5-8.9,21.5v300.6c0,16.9,13.7,30.6,30.6,30.6h119.2c16.9,0,30.6-13.7,30.6-30.6v-176c0-16.9,13.7-30.6,30.6-30.6h100c16.9,0,30.6,13.7,30.6,30.6v176c0,16.9,13.7,30.6,30.6,30.6h119.6c16.9,0,30.6-13.6,30.6-30.5v-300.6c0-8.1-3.2-15.8-8.9-21.5l-252.5-199.2Z"/>
    </g>
</svg>
