<?xml version="1.0" encoding="UTF-8"?>
<svg class="svg-icon-activities-home_with_briefcase svg-icon svg-icon-activities" xmlns="http://www.w3.org/2000/svg" version="1.1" viewBox="0 0 800 800">
    <defs>
        <style>
            .svg-icon-opacity_half { opacity: .5; }
            .svg-icon-opacity_quarter { opacity: .25; }
        </style>
    </defs>
    <g class="svg-icon-activities-home_with_briefcase-home">
        <path d="M613,421.8l-281-226.5c-11.6-11.6-30.4-11.6-42,0L8.7,422.2c-11.4,11.4-11.6,30-.4,41.6,11.6,12,31.1,11.8,42.8,0l259.9-205.5,260.3,205.9c5.8,5.8,13.4,8.7,21,8.7s15.7-3.1,21.5-9.3c11.1-11.7,10.5-30.3-.9-41.7h0Z"/>
        <path d="M311,291.6l-196,154.8c-4.4,4.4-6.9,10.5-6.9,16.7v233.7c0,13.1,10.7,23.8,23.8,23.8h92.7c13.1,0,23.8-10.7,23.8-23.8v-136.8c0-13.1,10.7-23.8,23.8-23.8h77.7c13.1,0,23.8,10.7,23.8,23.8v136.8c0,13.1,10.7,23.8,23.8,23.8h93c13.1,0,23.8-10.6,23.8-23.7v-233.7c0-6.3-2.5-12.3-6.9-16.7l-196.3-154.9h0Z"/>
    </g>
    <g class="svg-icon-activities-home_with_briefcase-briefcase">
        <path class="svg-icon-opacity_quarter" d="M648.3,168.5c-2.5,0-4.5,2-4.5,4.5v43.2c0,2.5,2,4.5,4.5,4.5h17.6c2.5,0,4.5-2,4.5-4.5v-43.2c0-2.5-2-4.5-4.5-4.5h-17.6Z"/>
        <path class="svg-icon-opacity_half" d="M679.5,199.2v17.1c0,7.5-6.1,13.6-13.6,13.6h-17.6c-7.5,0-13.6-6.1-13.6-13.6v-17.1c-39.5,0-68.9-.5-90.1-4.4-13.1-2.4-22.5-6.1-28.8-11.3-.5-.4-1-.9-1.5-1.3v70.7c0,15,12.2,27.2,27.2,27.2h231.3c15,0,27.2-12.2,27.2-27.2v-69c-8.1,6.7-20.4,9.7-31.7,11.4-21.1,3.3-50.1,3.8-88.8,3.9Z"/>
        <path class="svg-icon-opacity_half" d="M772.8,109.2h-57.8v-23.9c0-8.8-7.1-15.9-15.9-15.9h-84c-8.8,0-15.9,7.1-15.9,15.9v23.9h-57.8c-15,0-27.2,12.2-27.2,27.2v23.5c0,14.2,9.3,21.7,32,25.9,20.4,3.7,49.5,4.2,88.5,4.2v-17.1c0-7.5,6.1-13.6,13.6-13.6h17.6c7.5,0,13.6,6.1,13.6,13.6v17.1c38.2,0,66.9-.6,87.4-3.8,29.2-4.5,33.1-13.9,33.1-22.4h0v-27.5c0-15-12.2-27.2-27.2-27.2ZM612.8,85.4c0-1.3,1-2.3,2.3-2.3h84c1.3,0,2.3,1,2.3,2.3v23.9h-88.6v-23.9Z"/>
    </g>
</svg>