<?xml version="1.0" encoding="UTF-8"?>
<svg id="svg-icon-home_secondary" class="svg-icon" xmlns="http://www.w3.org/2000/svg" version="1.1" viewBox="0 0 800 800">
    <defs>
        <style>
            #svg-icon-home_secondary-secondary { opacity: .5; }
        </style>
    </defs>
    <g id="svg-icon-home_secondary-secondary">
        <path d="M794.2,194.2l-181.4-146.3c-7.5-7.5-19.6-7.5-27.1,0l-181.6,146.5c-7.4,7.4-7.5,19.3-.3,26.9,7.5,7.7,20.1,7.6,27.7,0l167.8-132.6,168,132.9c3.7,3.7,8.7,5.6,13.6,5.6s10.1-2,13.9-6c7.2-7.6,6.8-19.6-.6-27Z"/>
        <path d="M599.3,110.1l-126.5,99.9c-2.9,2.9-4.5,6.8-4.5,10.8v58l90.5,73v-68.5c0-8.5,6.9-15.3,15.3-15.3h50.2c8.5,0,15.3,6.9,15.3,15.3v88.4c0,8.5,6.9,15.3,15.3,15.3h60c8.5,0,15.3-6.8,15.3-15.3v-150.9c0-4-1.6-7.9-4.5-10.8l-126.7-100Z"/>
    </g>
    <g id="svg-icon-home_secondary-main">
        <path d="M637.6,434l-292.2-235.6c-12.1-12.1-31.6-12.1-43.7,0L9.3,434.3c-11.9,11.9-12.1,31.2-.4,43.3,12,12.5,32.3,12.2,44.5,0l270.2-213.6,270.7,214.1c6,6,13.9,9,21.8,9s16.3-3.2,22.4-9.6c11.6-12.2,11-31.6-.9-43.4Z"/>
        <path d="M323.7,298.6l-203.8,160.9c-4.6,4.6-7.2,10.9-7.2,17.4v243c0,13.6,11.1,24.7,24.7,24.7h96.3c13.6,0,24.7-11.1,24.7-24.7v-142.3c0-13.6,11.1-24.7,24.7-24.7h80.9c13.6,0,24.7,11.1,24.7,24.7v142.3c0,13.6,11.1,24.7,24.7,24.7h96.7c13.6,0,24.7-11,24.7-24.6v-243c0-6.5-2.6-12.8-7.2-17.4l-204.1-161Z"/>
    </g>
</svg>