<?xml version="1.0" encoding="UTF-8"?>
<svg id="svg-icon-home" class="svg-icon" xmlns="http://www.w3.org/2000/svg" version="1.1" viewBox="0 0 800 800">
    <path d="M788.5,348.2L427.1,56.8c-14.9-14.9-39.1-14.9-54,0L11.2,348.7c-14.7,14.7-14.9,38.6-.5,53.5,14.9,15.4,40,15.2,55.1,0L400.1,137.9l334.8,264.8c7.5,7.5,17.2,11.2,27,11.2s20.2-4,27.7-11.9c14.3-15.1,13.5-39-1.2-53.7Z"/>
    <path d="M400.1,180.8l-252.1,199.1c-5.7,5.7-8.9,13.5-8.9,21.5v300.6c0,16.9,13.7,30.6,30.6,30.6h119.2c16.9,0,30.6-13.7,30.6-30.6v-176c0-16.9,13.7-30.6,30.6-30.6h100c16.9,0,30.6,13.7,30.6,30.6v176c0,16.9,13.7,30.6,30.6,30.6h119.6c16.9,0,30.6-13.6,30.6-30.5v-300.6c0-8.1-3.2-15.8-8.9-21.5l-252.5-199.2Z"/>
</svg>