<?xml version="1.0" encoding="UTF-8"?>
<svg class="svg-icon-activities-briefcase_with_road svg-icon svg-icon-activities" xmlns="http://www.w3.org/2000/svg" version="1.1" viewBox="0 0 800 800">
    <defs>
        <style>
            .svg-icon-activities-briefcase_with_road-road, .svg-icon-opacity_half { opacity: .5; }
        </style>
    </defs>
    <g class="svg-icon-activities-briefcase_with_road-briefcase">
        <path class="svg-icon-opacity_half" d="M205.1,193.6c-3.8,0-6.9,3.1-6.9,6.9v66.1c0,3.8,3.1,6.9,6.9,6.9h26.9c3.8,0,6.9-3.1,6.9-6.9v-66.1c0-3.8-3.1-6.9-6.9-6.9h-26.9Z"/>
        <path d="M253,240.5v26.2c0,11.5-9.3,20.8-20.8,20.8h-26.9c-11.5,0-20.8-9.3-20.8-20.8v-26.1c-60.4-.1-105.5-.8-137.9-6.7-20-3.7-34.4-9.3-44.2-17.2-.8-.7-1.6-1.4-2.4-2.1v108.1c0,23,18.6,41.7,41.7,41.7h354c23,0,41.7-18.6,41.7-41.7v-105.6c-12.4,10.3-31.2,14.8-48.5,17.5-32.2,5-76.7,5.8-135.8,5.9h0Z"/>
        <path d="M395.6,102.9h-88.4v-36.5c0-13.4-10.9-24.3-24.3-24.3h-128.6c-13.4,0-24.3,10.9-24.3,24.3v36.5H41.7C18.6,102.9,0,121.5,0,144.5v36c0,21.8,14.2,33.3,49,39.6,31.3,5.7,75.7,6.4,135.3,6.5v-26.1c0-11.5,9.3-20.8,20.8-20.8h26.9c11.5,0,20.8,9.3,20.8,20.8v26.1c58.5-.1,102.4-.9,133.7-5.7,44.6-6.9,50.6-21.2,50.6-34.2h0v-42.1c0-23-18.6-41.7-41.7-41.7h0ZM150.9,66.3c0-1.9,1.5-3.4,3.4-3.4h128.6c1.9,0,3.4,1.5,3.4,3.4v36.5h-135.6v-36.5h0Z"/>
    </g>
    <g class="svg-icon-activities-briefcase_with_road-road">
        <path d="M800,0h-250.9c1.4,3.3,2.6,6.7,3.5,10.1,2.1,7.8,3.6,15.5,4.1,23.6.8,14.3-1.3,28.8-5.1,42.5-2.5,8.6-5.1,17.1-8.5,25.4-3.4,8.3-7.1,16.4-11,24.5-16.2,32.6-36.7,63.1-58.1,92.5-6.3,8.6-12.7,17.2-19.1,25.7v85.2c0,25.2-26.1,51.7-51,51.7h-56.9c-3.4,4.4-6.8,8.7-10.1,13.1-22.5,29.4-44.2,59.5-64.5,90.5-20.2,30.9-38,63.3-53.3,96.8-13.3,29.5-23.9,60.3-30.8,92-7.4,34-10.7,69.4-8,104.1.6,7.5,1.3,14.9,2.3,22.3h250.7c-1.5-3.6-3.1-7.3-4.6-10.9-.5-1.2-.7-2.6-1.2-3.9-.5-1.4-.8-2.9-1.2-4.4-1-3.3-1.6-6.7-2.2-10.1-2.5-14.8-1.4-29.8,1.6-44.5,3.3-15.7,8.8-31,15.4-45.6,7.5-16.5,16.2-32.4,25.5-48,18.9-31.5,40.8-61.2,63.1-90.3,22.5-29.4,45.7-58.1,68.8-87,23.5-29.4,46.7-58.9,68.9-89.3,10.8-14.8,21.5-29.8,31.6-45.1,10.1-15.3,20.1-30.6,29.1-46.5,9.1-16,17.8-32.3,25.9-48.8,8.2-16.6,15.1-33.9,21.4-51.3,10.9-30.1,18.5-61.5,22.1-93.3,1-8.6,1.7-17.2,2.1-25.8.4-8.3.3-55.3.3-55.3ZM352.5,627c-3.4,6.8-6.5,13.8-9.4,20.8-3.4,8.3-6.8,16.7-9.5,25.3-2.7,8.7-5.6,17.4-7.5,26.2-.9,4.2-2,8.3-2.6,12.5-.6,3.6-1.2,7.3-1.8,10.9-.1.8-.5.5-1.2.4-1.3-.2-2.6-.4-3.9-.5-4.3-.6-8.5-1.2-12.8-1.7-6.4-.9-12.8-1.7-19.2-2.6.7-4.1,1.3-8.2,2-12.3,1.4-8.6,3.5-17.1,5.8-25.4,2.4-8.8,5-17.5,8.1-26.1,5.5-15,11.5-29.9,18.6-44.2,11.2,5.4,22.4,10.9,33.6,16.3,0,.2-.2.4-.3.6ZM470.3,451.1c-1.5,1.9-2.9,3.7-4.4,5.6-20.4,26-40.4,52.3-59.2,79.4-.9-.6-1.7-1.2-2.6-1.8-7-4.9-14-9.7-21.1-14.6-2.3-1.6-4.5-3.1-6.8-4.7-.7-.5,1.4-2.7,1.8-3.2,2.1-3.1,4.3-6.1,6.5-9.2,18.2-25.7,37.4-50.5,56.8-75.3.7.5,1.3,1,2,1.6,6.6,5.2,13.2,10.4,19.8,15.6,2.4,1.9,4.7,3.7,7.1,5.6.6.4.5.3,0,.9ZM601.4,281.5c-2.1,3.1-4.3,6.1-6.5,9.2-18.2,25.7-37.4,50.5-56.8,75.3-.6-.5-1.2-1-1.9-1.5-6.6-5.2-13.2-10.4-19.9-15.7-2.4-1.9-4.7-3.7-7.1-5.6-.6-.4-.5-.3,0-.9,1.5-1.9,2.9-3.7,4.4-5.6,20.4-26,40.4-52.3,59.2-79.4.9.6,1.7,1.2,2.6,1.8,7,4.9,14,9.7,21.1,14.6,2.3,1.6,4.5,3.1,6.8,4.7.7.5-1.4,2.7-1.8,3.2ZM693.1,85.2c-5.5,33.8-17.8,66.2-32.4,97-.6,1.3-.4,1.2-1.5.6-1.2-.6-2.4-1.1-3.6-1.7-3.9-1.9-7.8-3.8-11.6-5.6-5.8-2.8-11.6-5.6-17.5-8.5.4-.8.8-1.5,1.1-2.3,7.5-15.1,13.7-31,18.9-47,2.8-8.6,5.3-17.3,7.2-26.2,1.6-7.1,2.8-14.2,4-21.4,12.3,1.7,24.7,3.4,37,5.1-.5,3.3-1.1,6.7-1.6,10Z"/>
    </g>
</svg>