<?xml version="1.0" encoding="UTF-8"?>
<svg class="svg-icon-marker_round-activities-briefcase svg-icon-marker_round svg-icon-marker_round-activities" xmlns="http://www.w3.org/2000/svg" version="1.1" viewBox="0 0 800 800">
    <defs>
        <style>
            .svg-icon-marker-background { fill: #fff; }
            .svg-icon-opacity_half { opacity: .5; }
        </style>
    </defs>
    <path class="svg-icon-marker-marker_round" d="M678.058,289.282c.01-.256.02-.513.029-.769.044-1.27.087-2.539.113-3.813.046-1.971.075-3.946.075-5.925C678.276,125.068,553.208,0,399.501,0S120.726,125.068,120.726,278.775h0c0,.007,0,.015,0,.022,0,1.966.03,3.927.075,5.886.027,1.301.071,2.597.116,3.893.008.218.016.436.025.654,1.311,35.36,9.235,69.057,22.578,99.889,66.594,165.882,256.216,300.297,256.216,410.756l.133-7.452.133,7.452c0-110.815,190.349-245.74,256.184-412.361,12.919-30.379,20.579-63.506,21.873-98.232Z"/>
    <path class="svg-icon-marker-background" d="M168.817,278.775c0-127.191,103.493-230.684,230.684-230.684s230.684,103.493,230.684,230.684-103.493,230.684-230.684,230.684-230.684-103.493-230.684-230.684h0Z"/>
    <g class="svg-icon-content" transform="translate(240, 120) scale(0.4)">
        <path class="svg-icon-opacity_half" d="M375.3,378.8c-7,0-12.7,5.7-12.7,12.7v121c0,7,5.7,12.7,12.7,12.7h49.3c7,0,12.7-5.7,12.7-12.7v-121c0-7-5.7-12.7-12.7-12.7h-49.3Z"/>
        <path d="M462.8,464.7v47.9c0,21-17.1,38.1-38.1,38.1h-49.3c-21,0-38.1-17.1-38.1-38.1v-47.8c-110.5-.2-193-1.5-252.2-12.3-36.6-6.7-63-17-80.8-31.5C2.8,419.7,1.4,418.4,0,417.1v197.8C0,657,34.1,691.1,76.2,691.1h647.6c42.1,0,76.2-34.1,76.2-76.2v-193.1c-22.7,18.9-57.1,27.1-88.7,32-58.9,9.2-140.3,10.6-248.5,10.8Z"/>
        <path d="M723.8,212.9h-161.7v-66.8c0-24.5-19.9-44.4-44.4-44.4h-235.3c-24.5,0-44.4,19.9-44.4,44.4v66.8H76.2C34.1,212.9,0,247,0,289.1v65.8c0,39.9,26,60.9,89.6,72.5,57.2,10.4,138.5,11.7,247.6,11.9v-47.8c0-21,17.1-38.1,38.1-38.1h49.3c21,0,38.1,17.1,38.1,38.1v47.8c107.1-.2,187.4-1.6,244.6-10.5,81.6-12.7,92.6-38.8,92.6-62.6h0v-77c0-42.1-34.1-76.2-76.2-76.2ZM276,146c0-3.5,2.8-6.3,6.3-6.3h235.3c3.5,0,6.3,2.8,6.3,6.3v66.8h-248v-66.8Z"/>
    </g>
</svg>