<?xml version="1.0" encoding="UTF-8"?>
<svg class="svg-icon-marker_round-activities-building_office svg-icon-marker_round svg-icon-marker_round-activities" xmlns="http://www.w3.org/2000/svg" version="1.1" viewBox="0 0 800 800">
    <defs>
        <style>
            .svg-icon-marker-background { fill: #fff; }
            .svg-icon-activities-building_office-entrance {
            opacity: .5;
            fill: #fff;
            }
            .svg-icon-activities-building_office-windows {
            opacity: .8;
            fill: #fff;
            }
        </style>
    </defs>
    <path class="svg-icon-marker-marker_round" d="M678.058,289.282c.01-.256.02-.513.029-.769.044-1.27.087-2.539.113-3.813.046-1.971.075-3.946.075-5.925C678.276,125.068,553.208,0,399.501,0S120.726,125.068,120.726,278.775h0c0,.007,0,.015,0,.022,0,1.966.03,3.927.075,5.886.027,1.301.071,2.597.116,3.893.008.218.016.436.025.654,1.311,35.36,9.235,69.057,22.578,99.889,66.594,165.882,256.216,300.297,256.216,410.756l.133-7.452.133,7.452c0-110.815,190.349-245.74,256.184-412.361,12.919-30.379,20.579-63.506,21.873-98.232Z"/>
    <path class="svg-icon-marker-background" d="M168.817,278.775c0-127.191,103.493-230.684,230.684-230.684s230.684,103.493,230.684,230.684-103.493,230.684-230.684,230.684-230.684-103.493-230.684-230.684h0Z"/>
    <g class="svg-icon-content" transform="translate(240, 120) scale(0.4)">
        <path class="svg-icon-activities-building_office-building" d="M676.6,756h-23.3c.2-1.1.3-2.3.3-3.5V69.1c0-12.5-10.1-22.6-22.6-22.6h-99.9v-23.9c0-12.5-10.1-22.6-22.6-22.6h-217c-12.5,0-22.6,10.1-22.6,22.6v23.9h-99.9c-12.5,0-22.6,10.1-22.6,22.6v683.4c0,1.2.1,2.3.3,3.5h-23.3c-12.2,0-22,9.9-22,22s9.9,22,22,22h553.1c12.2,0,22-9.9,22-22s-9.9-22-22-22Z"/>
        <path class="svg-icon-activities-building_office-entrance" d="M488.5,800v-90.2c0-6.2-5.1-11.3-11.3-11.3h-154.4c-6.2,0-11.3,5.1-11.3,11.3v90.2h177Z"/>
        <path class="svg-icon-activities-building_office-windows" d="M458.4,112.7v94.2c0,6.2-5.1,11.3-11.3,11.3h-94.2c-6.2,0-11.3-5.1-11.3-11.3v-94.2c0-6.2,5.1-11.3,11.3-11.3h94.2c6.2,0,11.3,5.1,11.3,11.3ZM300.2,101.4h-94.2c-6.2,0-11.3,5.1-11.3,11.3v94.2c0,6.2,5.1,11.3,11.3,11.3h94.2c6.2,0,11.3-5.1,11.3-11.3v-94.2c0-6.2-5.1-11.3-11.3-11.3ZM593.9,101.4h-94.2c-6.2,0-11.3,5.1-11.3,11.3v94.2c0,6.2,5.1,11.3,11.3,11.3h94.2c6.2,0,11.3-5.1,11.3-11.3v-94.2c0-6.2-5.1-11.3-11.3-11.3ZM447.1,248.3h-94.2c-6.2,0-11.3,5.1-11.3,11.3v94.2c0,6.2,5.1,11.3,11.3,11.3h94.2c6.2,0,11.3-5.1,11.3-11.3v-94.2c0-6.2-5.1-11.3-11.3-11.3ZM300.2,248.3h-94.2c-6.2,0-11.3,5.1-11.3,11.3v94.2c0,6.2,5.1,11.3,11.3,11.3h94.2c6.2,0,11.3-5.1,11.3-11.3v-94.2c0-6.2-5.1-11.3-11.3-11.3ZM593.9,248.3h-94.2c-6.2,0-11.3,5.1-11.3,11.3v94.2c0,6.2,5.1,11.3,11.3,11.3h94.2c6.2,0,11.3-5.1,11.3-11.3v-94.2c0-6.2-5.1-11.3-11.3-11.3ZM447.1,395.2h-94.2c-6.2,0-11.3,5.1-11.3,11.3v94.2c0,6.2,5.1,11.3,11.3,11.3h94.2c6.2,0,11.3-5.1,11.3-11.3v-94.2c0-6.2-5.1-11.3-11.3-11.3ZM300.2,395.2h-94.2c-6.2,0-11.3,5.1-11.3,11.3v94.2c0,6.2,5.1,11.3,11.3,11.3h94.2c6.2,0,11.3-5.1,11.3-11.3v-94.2c0-6.2-5.1-11.3-11.3-11.3ZM593.9,395.2h-94.2c-6.2,0-11.3,5.1-11.3,11.3v94.2c0,6.2,5.1,11.3,11.3,11.3h94.2c6.2,0,11.3-5.1,11.3-11.3v-94.2c0-6.2-5.1-11.3-11.3-11.3ZM447.1,542h-94.2c-6.2,0-11.3,5.1-11.3,11.3v94.2c0,6.2,5.1,11.3,11.3,11.3h94.2c6.2,0,11.3-5.1,11.3-11.3v-94.2c0-6.2-5.1-11.3-11.3-11.3ZM300.2,542h-94.2c-6.2,0-11.3,5.1-11.3,11.3v94.2c0,6.2,5.1,11.3,11.3,11.3h94.2c6.2,0,11.3-5.1,11.3-11.3v-94.2c0-6.2-5.1-11.3-11.3-11.3ZM593.9,542h-94.2c-6.2,0-11.3,5.1-11.3,11.3v94.2c0,6.2,5.1,11.3,11.3,11.3h94.2c6.2,0,11.3-5.1,11.3-11.3v-94.2c0-6.2-5.1-11.3-11.3-11.3Z"/>
    </g>
</svg>