<?xml version="1.0" encoding="UTF-8"?>
<svg class="svg-icon-marker_square-activities-building_office_with_road svg-icon-marker_square svg-icon-marker_square-activities" xmlns="http://www.w3.org/2000/svg" version="1.1" viewBox="0 0 800 800">
    <defs>
        <style>
            .svg-icon-marker-background { fill: #fff; }
            .svg-icon-activities-building_office_with_road-building-entrance {
            opacity: .5;
            fill: #fff;
            }
            .svg-icon-activities-building_office_with_road-building-windows {
            opacity: .8;
            fill: #fff;
            }
            .svg-icon-activities-building_office_with_road-road { opacity: .5; }
        </style>
    </defs>
    <path class="svg-icon-marker-marker_square" d="M678.707,0H121.24C79.611,0,45.744,33.867,45.744,75.496v557.467c0,41.629,33.867,75.496,75.496,75.496h130.099c148.693,5.043,148.635,91.541,148.635,91.541,0,0-.058-86.499,148.636-91.541h130.097c41.629,0,75.496-33.867,75.496-75.496V75.496C754.203,33.868,720.336,0,678.707,0h0Z"/>
    <path class="svg-icon-marker-background" d="M139.566,48.525h520.814c25.017,0,45.297,20.28,45.297,45.297v520.814c0,25.017-20.28,45.297-45.297,45.297H139.566c-25.017,0-45.297-20.28-45.297-45.297V93.822c0-25.017,20.28-45.297,45.297-45.297Z"/>
    <g class="svg-icon-content" transform="translate(120, 75) scale(0.7)">
        <g class="svg-icon-activities-building_office_with_road-building">
        <path class="svg-icon-activities-building_office_with_road-building-building" d="M340.4,449h-13.8c.1-.7.2-1.4.2-2.1V41c0-7.4-6-13.4-13.4-13.4h-59.3v-14.2c0-7.4-6-13.4-13.4-13.4H111.7c-7.4,0-13.4,6-13.4,13.4v14.2h-59.3c-7.4,0-13.4,6-13.4,13.4v405.9c0,.7,0,1.4.2,2.1h-13.8c-7.2,0-13.1,5.9-13.1,13.1s5.9,13.1,13.1,13.1h328.5c7.2,0,13.1-5.9,13.1-13.1s-5.9-13.1-13.1-13.1Z"/>
        <path class="svg-icon-activities-building_office_with_road-building-entrance" d="M228.7,475.2v-53.6c0-3.7-3-6.7-6.7-6.7h-91.7c-3.7,0-6.7,3-6.7,6.7v53.6h105.1Z"/>
        <path class="svg-icon-activities-building_office_with_road-building-windows" d="M210.8,67v55.9c0,3.7-3,6.7-6.7,6.7h-55.9c-3.7,0-6.7-3-6.7-6.7v-55.9c0-3.7,3-6.7,6.7-6.7h55.9c3.7,0,6.7,3,6.7,6.7ZM116.9,60.2h-55.9c-3.7,0-6.7,3-6.7,6.7v55.9c0,3.7,3,6.7,6.7,6.7h55.9c3.7,0,6.7-3,6.7-6.7v-55.9c0-3.7-3-6.7-6.7-6.7ZM291.3,60.2h-55.9c-3.7,0-6.7,3-6.7,6.7v55.9c0,3.7,3,6.7,6.7,6.7h55.9c3.7,0,6.7-3,6.7-6.7v-55.9c0-3.7-3-6.7-6.7-6.7ZM204.1,147.5h-55.9c-3.7,0-6.7,3-6.7,6.7v55.9c0,3.7,3,6.7,6.7,6.7h55.9c3.7,0,6.7-3,6.7-6.7v-55.9c0-3.7-3-6.7-6.7-6.7ZM116.9,147.5h-55.9c-3.7,0-6.7,3-6.7,6.7v55.9c0,3.7,3,6.7,6.7,6.7h55.9c3.7,0,6.7-3,6.7-6.7v-55.9c0-3.7-3-6.7-6.7-6.7ZM291.3,147.5h-55.9c-3.7,0-6.7,3-6.7,6.7v55.9c0,3.7,3,6.7,6.7,6.7h55.9c3.7,0,6.7-3,6.7-6.7v-55.9c0-3.7-3-6.7-6.7-6.7ZM204.1,234.7h-55.9c-3.7,0-6.7,3-6.7,6.7v55.9c0,3.7,3,6.7,6.7,6.7h55.9c3.7,0,6.7-3,6.7-6.7v-55.9c0-3.7-3-6.7-6.7-6.7ZM116.9,234.7h-55.9c-3.7,0-6.7,3-6.7,6.7v55.9c0,3.7,3,6.7,6.7,6.7h55.9c3.7,0,6.7-3,6.7-6.7v-55.9c0-3.7-3-6.7-6.7-6.7ZM291.3,234.7h-55.9c-3.7,0-6.7,3-6.7,6.7v55.9c0,3.7,3,6.7,6.7,6.7h55.9c3.7,0,6.7-3,6.7-6.7v-55.9c0-3.7-3-6.7-6.7-6.7ZM204.1,321.9h-55.9c-3.7,0-6.7,3-6.7,6.7v55.9c0,3.7,3,6.7,6.7,6.7h55.9c3.7,0,6.7-3,6.7-6.7v-55.9c0-3.7-3-6.7-6.7-6.7ZM116.9,321.9h-55.9c-3.7,0-6.7,3-6.7,6.7v55.9c0,3.7,3,6.7,6.7,6.7h55.9c3.7,0,6.7-3,6.7-6.7v-55.9c0-3.7-3-6.7-6.7-6.7ZM291.3,321.9h-55.9c-3.7,0-6.7,3-6.7,6.7v55.9c0,3.7,3,6.7,6.7,6.7h55.9c3.7,0,6.7-3,6.7-6.7v-55.9c0-3.7-3-6.7-6.7-6.7Z"/>
        </g>
        <g class="svg-icon-activities-building_office_with_road-road">
        <path d="M800,0h-251.2c.7,2,1.4,4,2,6,2.2,7.8,3.9,15.6,4.4,23.7,1,14.4-.9,29-4.6,42.9-2.4,8.7-4.9,17.3-8.2,25.7-3.4,8.4-6.9,16.6-10.8,24.8-15.8,33.1-36.1,64-57.2,93.9-21.4,30.3-44,59.7-66.8,88.9-23.1,29.8-46.5,59.4-69,89.7-.7.9-1.4,1.9-2.1,2.8l-.2,30.5c0,1.1-.1,9.2-.3,10.3h7.4c11.7,0,21.2,12.5,21.2,24.2s-10.5,22.2-22.2,22.2h-66.8c-.6,1.1-.2,1-.8,1.9-19.9,31.3-37.4,64.2-52.4,98.1-13,29.9-23.3,61.1-29.8,93-7,34.3-9.8,70-6.7,104.9.5,5.5,1.1,11,1.8,16.5h252c-1.2-2.7-2.4-5.5-3.6-8.2-.5-1.2-.8-2.6-1.2-3.9-.5-1.4-.8-2.9-1.2-4.4-1-3.3-1.7-6.7-2.3-10.1-2.7-14.9-1.8-30,1.1-44.8,3.1-15.8,8.4-31.4,14.9-46.1,7.3-16.8,15.9-32.8,25-48.6,18.6-31.9,40.2-62.1,62.3-91.7,22.2-29.9,45.3-59.1,68.1-88.5,23.2-29.9,46.3-59.9,68.2-90.8,10.7-15.1,21.3-30.3,31.2-45.8,9.9-15.5,19.8-31.1,28.7-47.2,9-16.3,17.5-32.7,25.5-49.5,8-16.8,14.8-34.3,20.9-51.9,10.6-30.4,17.8-62.1,21.1-94.2.9-8.6,1.5-17.3,1.7-26,.3-8.4-.2-48.3-.2-48.3ZM357.7,629.6c-3.3,6.9-6.3,14-9.2,21.1-3.3,8.4-6.6,16.9-9.2,25.5-2.6,8.8-5.4,17.5-7.2,26.5-.8,4.2-1.9,8.4-2.5,12.6-.5,3.7-1.1,7.4-1.7,11-.1.8-.5.5-1.2.4-1.3-.2-2.6-.3-3.9-.5-4.3-.5-8.6-1.1-12.9-1.6-6.5-.8-12.9-1.6-19.4-2.4.6-4.1,1.2-8.3,1.9-12.4,1.3-8.6,3.3-17.2,5.5-25.7,2.3-8.9,4.8-17.7,7.8-26.4,5.3-15.2,11.2-30.2,18.1-44.8,11.4,5.3,22.7,10.6,34.1,15.9,0,.2-.2.4-.3.6ZM473.9,451c-1.5,1.9-2.9,3.8-4.4,5.7-20.2,26.4-40,53.2-58.5,80.7-.9-.6-1.8-1.2-2.6-1.8-7.1-4.8-14.3-9.6-21.4-14.4-2.3-1.5-4.6-3.1-6.9-4.6-.7-.5,1.4-2.7,1.8-3.2,2.1-3.1,4.3-6.2,6.4-9.4,17.9-26.1,37-51.3,56.2-76.5.7.5,1.3,1,2,1.5,6.7,5.2,13.4,10.3,20.2,15.5,2.4,1.8,4.8,3.7,7.2,5.5.6.4.5.3,0,.9ZM603.5,278.6c-2.1,3.1-4.3,6.2-6.4,9.4-17.9,26.1-37,51.3-56.2,76.5-.6-.5-1.3-1-1.9-1.5-6.7-5.2-13.5-10.3-20.2-15.5-2.4-1.9-4.8-3.7-7.2-5.5-.6-.4-.5-.3,0-.9,1.5-1.9,2.9-3.8,4.4-5.7,20.2-26.4,40-53.2,58.5-80.7.9.6,1.8,1.2,2.6,1.8,7.1,4.8,14.3,9.6,21.4,14.4,2.3,1.5,4.6,3.1,6.9,4.6.7.5-1.4,2.7-1.8,3.2ZM693.3,79.7c-5.1,34.1-17,66.8-31.3,98-.6,1.3-.4,1.2-1.5.7-1.2-.6-2.4-1.1-3.6-1.7-3.9-1.8-7.9-3.7-11.8-5.5-5.9-2.8-11.8-5.5-17.7-8.3.4-.8.7-1.6,1.1-2.3,7.3-15.3,13.4-31.4,18.4-47.5,2.7-8.7,5.1-17.5,6.9-26.5,1.5-7.2,2.6-14.3,3.7-21.6,12.4,1.5,24.9,3.1,37.3,4.6-.5,3.4-1,6.7-1.5,10.1Z"/>
        </g>
    </g>
</svg>