<?xml version="1.0" encoding="UTF-8"?>
<svg class="svg-icon-marker_square-activities-building_office svg-icon-marker_square svg-icon-marker_square-activities" xmlns="http://www.w3.org/2000/svg" version="1.1" viewBox="0 0 800 800">
    <defs>
        <style>
            .svg-icon-marker-background { fill: #fff; }
            .svg-icon-activities-building_office-entrance {
            opacity: .5;
            fill: #fff;
            }
            .svg-icon-activities-building_office-windows {
            opacity: .8;
            fill: #fff;
            }
        </style>
    </defs>
    <path class="svg-icon-marker-marker_square" d="M678.707,0H121.24C79.611,0,45.744,33.867,45.744,75.496v557.467c0,41.629,33.867,75.496,75.496,75.496h130.099c148.693,5.043,148.635,91.541,148.635,91.541,0,0-.058-86.499,148.636-91.541h130.097c41.629,0,75.496-33.867,75.496-75.496V75.496C754.203,33.868,720.336,0,678.707,0h0Z"/>
    <path class="svg-icon-marker-background" d="M139.566,48.525h520.814c25.017,0,45.297,20.28,45.297,45.297v520.814c0,25.017-20.28,45.297-45.297,45.297H139.566c-25.017,0-45.297-20.28-45.297-45.297V93.822c0-25.017,20.28-45.297,45.297-45.297Z"/>
    <g class="svg-icon-content" transform="translate(120, 75) scale(0.7)">
        <path class="svg-icon-activities-building_office-building" d="M676.6,756h-23.3c.2-1.1.3-2.3.3-3.5V69.1c0-12.5-10.1-22.6-22.6-22.6h-99.9v-23.9c0-12.5-10.1-22.6-22.6-22.6h-217c-12.5,0-22.6,10.1-22.6,22.6v23.9h-99.9c-12.5,0-22.6,10.1-22.6,22.6v683.4c0,1.2.1,2.3.3,3.5h-23.3c-12.2,0-22,9.9-22,22s9.9,22,22,22h553.1c12.2,0,22-9.9,22-22s-9.9-22-22-22Z"/>
        <path class="svg-icon-activities-building_office-entrance" d="M488.5,800v-90.2c0-6.2-5.1-11.3-11.3-11.3h-154.4c-6.2,0-11.3,5.1-11.3,11.3v90.2h177Z"/>
        <path class="svg-icon-activities-building_office-windows" d="M458.4,112.7v94.2c0,6.2-5.1,11.3-11.3,11.3h-94.2c-6.2,0-11.3-5.1-11.3-11.3v-94.2c0-6.2,5.1-11.3,11.3-11.3h94.2c6.2,0,11.3,5.1,11.3,11.3ZM300.2,101.4h-94.2c-6.2,0-11.3,5.1-11.3,11.3v94.2c0,6.2,5.1,11.3,11.3,11.3h94.2c6.2,0,11.3-5.1,11.3-11.3v-94.2c0-6.2-5.1-11.3-11.3-11.3ZM593.9,101.4h-94.2c-6.2,0-11.3,5.1-11.3,11.3v94.2c0,6.2,5.1,11.3,11.3,11.3h94.2c6.2,0,11.3-5.1,11.3-11.3v-94.2c0-6.2-5.1-11.3-11.3-11.3ZM447.1,248.3h-94.2c-6.2,0-11.3,5.1-11.3,11.3v94.2c0,6.2,5.1,11.3,11.3,11.3h94.2c6.2,0,11.3-5.1,11.3-11.3v-94.2c0-6.2-5.1-11.3-11.3-11.3ZM300.2,248.3h-94.2c-6.2,0-11.3,5.1-11.3,11.3v94.2c0,6.2,5.1,11.3,11.3,11.3h94.2c6.2,0,11.3-5.1,11.3-11.3v-94.2c0-6.2-5.1-11.3-11.3-11.3ZM593.9,248.3h-94.2c-6.2,0-11.3,5.1-11.3,11.3v94.2c0,6.2,5.1,11.3,11.3,11.3h94.2c6.2,0,11.3-5.1,11.3-11.3v-94.2c0-6.2-5.1-11.3-11.3-11.3ZM447.1,395.2h-94.2c-6.2,0-11.3,5.1-11.3,11.3v94.2c0,6.2,5.1,11.3,11.3,11.3h94.2c6.2,0,11.3-5.1,11.3-11.3v-94.2c0-6.2-5.1-11.3-11.3-11.3ZM300.2,395.2h-94.2c-6.2,0-11.3,5.1-11.3,11.3v94.2c0,6.2,5.1,11.3,11.3,11.3h94.2c6.2,0,11.3-5.1,11.3-11.3v-94.2c0-6.2-5.1-11.3-11.3-11.3ZM593.9,395.2h-94.2c-6.2,0-11.3,5.1-11.3,11.3v94.2c0,6.2,5.1,11.3,11.3,11.3h94.2c6.2,0,11.3-5.1,11.3-11.3v-94.2c0-6.2-5.1-11.3-11.3-11.3ZM447.1,542h-94.2c-6.2,0-11.3,5.1-11.3,11.3v94.2c0,6.2,5.1,11.3,11.3,11.3h94.2c6.2,0,11.3-5.1,11.3-11.3v-94.2c0-6.2-5.1-11.3-11.3-11.3ZM300.2,542h-94.2c-6.2,0-11.3,5.1-11.3,11.3v94.2c0,6.2,5.1,11.3,11.3,11.3h94.2c6.2,0,11.3-5.1,11.3-11.3v-94.2c0-6.2-5.1-11.3-11.3-11.3ZM593.9,542h-94.2c-6.2,0-11.3,5.1-11.3,11.3v94.2c0,6.2,5.1,11.3,11.3,11.3h94.2c6.2,0,11.3-5.1,11.3-11.3v-94.2c0-6.2-5.1-11.3-11.3-11.3Z"/>
    </g>
</svg>