<?xml version="1.0" encoding="UTF-8"?>
<svg id="svg-icon-building_office" class="svg-icon" xmlns="http://www.w3.org/2000/svg" version="1.1" viewBox="0 0 800 800">
    <defs>
        <style>
            #svg-icon-building_office-entrance {
                opacity: .5;
                fill: #fff;
            }
            #svg-icon-building_office-windows {
                opacity: .8;
                fill: #fff;
            }
        </style>
    </defs>
    <path id="svg-icon-building_office-building" d="M676.6,756h-23.3c.2-1.1.3-2.3.3-3.5V69.1c0-12.5-10.1-22.6-22.6-22.6h-99.9v-23.9c0-12.5-10.1-22.6-22.6-22.6h-217c-12.5,0-22.6,10.1-22.6,22.6v23.9h-99.9c-12.5,0-22.6,10.1-22.6,22.6v683.4c0,1.2.1,2.3.3,3.5h-23.3c-12.2,0-22,9.9-22,22s9.9,22,22,22h553.1c12.2,0,22-9.9,22-22s-9.9-22-22-22Z"/>
    <path id="svg-icon-building_office-entrance" d="M488.5,800v-90.2c0-6.2-5.1-11.3-11.3-11.3h-154.4c-6.2,0-11.3,5.1-11.3,11.3v90.2h177Z"/>
    <path id="svg-icon-building_office-windows" d="M458.4,112.7v94.2c0,6.2-5.1,11.3-11.3,11.3h-94.2c-6.2,0-11.3-5.1-11.3-11.3v-94.2c0-6.2,5.1-11.3,11.3-11.3h94.2c6.2,0,11.3,5.1,11.3,11.3ZM300.2,101.4h-94.2c-6.2,0-11.3,5.1-11.3,11.3v94.2c0,6.2,5.1,11.3,11.3,11.3h94.2c6.2,0,11.3-5.1,11.3-11.3v-94.2c0-6.2-5.1-11.3-11.3-11.3ZM593.9,101.4h-94.2c-6.2,0-11.3,5.1-11.3,11.3v94.2c0,6.2,5.1,11.3,11.3,11.3h94.2c6.2,0,11.3-5.1,11.3-11.3v-94.2c0-6.2-5.1-11.3-11.3-11.3ZM447.1,248.3h-94.2c-6.2,0-11.3,5.1-11.3,11.3v94.2c0,6.2,5.1,11.3,11.3,11.3h94.2c6.2,0,11.3-5.1,11.3-11.3v-94.2c0-6.2-5.1-11.3-11.3-11.3ZM300.2,248.3h-94.2c-6.2,0-11.3,5.1-11.3,11.3v94.2c0,6.2,5.1,11.3,11.3,11.3h94.2c6.2,0,11.3-5.1,11.3-11.3v-94.2c0-6.2-5.1-11.3-11.3-11.3ZM593.9,248.3h-94.2c-6.2,0-11.3,5.1-11.3,11.3v94.2c0,6.2,5.1,11.3,11.3,11.3h94.2c6.2,0,11.3-5.1,11.3-11.3v-94.2c0-6.2-5.1-11.3-11.3-11.3ZM447.1,395.2h-94.2c-6.2,0-11.3,5.1-11.3,11.3v94.2c0,6.2,5.1,11.3,11.3,11.3h94.2c6.2,0,11.3-5.1,11.3-11.3v-94.2c0-6.2-5.1-11.3-11.3-11.3ZM300.2,395.2h-94.2c-6.2,0-11.3,5.1-11.3,11.3v94.2c0,6.2,5.1,11.3,11.3,11.3h94.2c6.2,0,11.3-5.1,11.3-11.3v-94.2c0-6.2-5.1-11.3-11.3-11.3ZM593.9,395.2h-94.2c-6.2,0-11.3,5.1-11.3,11.3v94.2c0,6.2,5.1,11.3,11.3,11.3h94.2c6.2,0,11.3-5.1,11.3-11.3v-94.2c0-6.2-5.1-11.3-11.3-11.3ZM447.1,542h-94.2c-6.2,0-11.3,5.1-11.3,11.3v94.2c0,6.2,5.1,11.3,11.3,11.3h94.2c6.2,0,11.3-5.1,11.3-11.3v-94.2c0-6.2-5.1-11.3-11.3-11.3ZM300.2,542h-94.2c-6.2,0-11.3,5.1-11.3,11.3v94.2c0,6.2,5.1,11.3,11.3,11.3h94.2c6.2,0,11.3-5.1,11.3-11.3v-94.2c0-6.2-5.1-11.3-11.3-11.3ZM593.9,542h-94.2c-6.2,0-11.3,5.1-11.3,11.3v94.2c0,6.2,5.1,11.3,11.3,11.3h94.2c6.2,0,11.3-5.1,11.3-11.3v-94.2c0-6.2-5.1-11.3-11.3-11.3Z"/>
</svg>