<?xml version="1.0" encoding="UTF-8"?>
<svg class="svg-icon-marker_round-activities-truck svg-icon-marker_round svg-icon-marker_round-activities" xmlns="http://www.w3.org/2000/svg" version="1.1" viewBox="0 0 800 800">
    <defs>
        <style>
            .svg-icon-marker-background { fill: #fff; }
        </style>
    </defs>
    <path class="svg-icon-marker-marker_round" d="M678.058,289.282c.01-.256.02-.513.029-.769.044-1.27.087-2.539.113-3.813.046-1.971.075-3.946.075-5.925C678.276,125.068,553.208,0,399.501,0S120.726,125.068,120.726,278.775h0c0,.007,0,.015,0,.022,0,1.966.03,3.927.075,5.886.027,1.301.071,2.597.116,3.893.008.218.016.436.025.654,1.311,35.36,9.235,69.057,22.578,99.889,66.594,165.882,256.216,300.297,256.216,410.756l.133-7.452.133,7.452c0-110.815,190.349-245.74,256.184-412.361,12.919-30.379,20.579-63.506,21.873-98.232Z"/>
    <path class="svg-icon-marker-background" d="M168.817,278.775c0-127.191,103.493-230.684,230.684-230.684s230.684,103.493,230.684,230.684-103.493,230.684-230.684,230.684-230.684-103.493-230.684-230.684h0Z"/>
    <g class="svg-icon-content" transform="translate(240, 120) scale(0.4)">
        <path d="M0,548.3c0,15.5,12.6,28,28,28h48.9c7.3,51.7,51.8,91.6,105.5,91.6s98.2-39.9,105.5-91.6h178.3c1.2,0,2.4,0,3.6-.2,7.2,51.8,51.8,91.7,105.5,91.7s98.2-39.9,105.5-91.6h70.1c27.1,0,49.1-22,49.1-49.1v-84.3c0-66.7-37.6-74.6-62.4-79.8-3.1-.6-6-1.3-8.6-1.9-28.8-7.5-43.1-11.9-53.1-31.3l-37.6-76c-12-23.1-33.4-41-69-42h-67.4v-51.8c0-15.5-12.6-28-28.1-28l-447.5.5C11.3,132.5,0,144.5,0,160.3M182.5,600.9c-21.8,0-39.5-17.7-39.5-39.5s17.7-39.5,39.5-39.5,39.5,17.7,39.5,39.5-17.7,39.5-39.5,39.5ZM575.3,600.9c-21.8,0-39.5-17.7-39.5-39.5s17.7-39.5,39.5-39.5,39.5,17.7,39.5,39.5c0,21.8-17.7,39.5-39.5,39.5ZM501.9,357.1v-104.8h51.6c32.1,0,42.2,8.7,53.4,32.4l33.4,67.7c.9,1.7,1.8,3.2,2.7,4.7h-141.1Z"/>
    </g>
</svg>