<?xml version="1.0" encoding="UTF-8"?>
<svg class="svg-icon-activities-truck svg-icon svg-icon-activities" xmlns="http://www.w3.org/2000/svg" version="1.1" viewBox="0 0 800 800">
    <path d="M0,548.3c0,15.5,12.6,28,28,28h48.9c7.3,51.7,51.8,91.6,105.5,91.6s98.2-39.9,105.5-91.6h178.3c1.2,0,2.4,0,3.6-.2,7.2,51.8,51.8,91.7,105.5,91.7s98.2-39.9,105.5-91.6h70.1c27.1,0,49.1-22,49.1-49.1v-84.3c0-66.7-37.6-74.6-62.4-79.8-3.1-.6-6-1.3-8.6-1.9-28.8-7.5-43.1-11.9-53.1-31.3l-37.6-76c-12-23.1-33.4-41-69-42h-67.4v-51.8c0-15.5-12.6-28-28.1-28l-447.5.5C11.3,132.5,0,144.5,0,160.3M182.5,600.9c-21.8,0-39.5-17.7-39.5-39.5s17.7-39.5,39.5-39.5,39.5,17.7,39.5,39.5-17.7,39.5-39.5,39.5ZM575.3,600.9c-21.8,0-39.5-17.7-39.5-39.5s17.7-39.5,39.5-39.5,39.5,17.7,39.5,39.5c0,21.8-17.7,39.5-39.5,39.5ZM501.9,357.1v-104.8h51.6c32.1,0,42.2,8.7,53.4,32.4l33.4,67.7c.9,1.7,1.8,3.2,2.7,4.7h-141.1Z"/>
</svg>