<?xml version="1.0" encoding="UTF-8"?>
<svg id="svg-icon-worker_with_necktie" cladd="svg-icon" xmlns="http://www.w3.org/2000/svg" version="1.1" viewBox="0 0 800 800">
    <path d="M209.1,191.6C209.1,85.8,294.8,0,400.7,0s191.6,85.8,191.6,191.6-85.8,191.6-191.6,191.6-191.6-85.8-191.6-191.6Z"/>
    <path d="M754.8,737.5v62.5H45.2v-62.5c0-140.7,67.9-255.9,229.1-294l60.6,264.6,44.4-203.3-55.2-70.1c23.6-3,48.8-4.5,75.8-4.5h0c27.4,0,53.1,1.6,77,4.7l-55.1,70,44.4,203.3,60.5-264.3c160.2,38.4,227.8,153.3,227.8,293.7Z"/>
</svg>