<?xml version="1.0" encoding="UTF-8"?>
<svg class="svg-icon-marker_round-activities-worker_with_necktie svg-icon-marker_round svg-icon-marker_round-activities" xmlns="http://www.w3.org/2000/svg" version="1.1" viewBox="0 0 800 800">
    <defs>
        <style>
            .svg-icon-marker-background { fill: #fff; }
        </style>
    </defs>
    <path class="svg-icon-marker-marker_round" d="M678.058,289.282c.01-.256.02-.513.029-.769.044-1.27.087-2.539.113-3.813.046-1.971.075-3.946.075-5.925C678.276,125.068,553.208,0,399.501,0S120.726,125.068,120.726,278.775h0c0,.007,0,.015,0,.022,0,1.966.03,3.927.075,5.886.027,1.301.071,2.597.116,3.893.008.218.016.436.025.654,1.311,35.36,9.235,69.057,22.578,99.889,66.594,165.882,256.216,300.297,256.216,410.756l.133-7.452.133,7.452c0-110.815,190.349-245.74,256.184-412.361,12.919-30.379,20.579-63.506,21.873-98.232Z"/>
    <path class="svg-icon-marker-background" d="M168.817,278.775c0-127.191,103.493-230.684,230.684-230.684s230.684,103.493,230.684,230.684-103.493,230.684-230.684,230.684-230.684-103.493-230.684-230.684h0Z"/>
    <g class="svg-icon-content" transform="translate(240, 120) scale(0.4)">
        <path d="M209.1,191.6C209.1,85.8,294.8,0,400.7,0s191.6,85.8,191.6,191.6-85.8,191.6-191.6,191.6-191.6-85.8-191.6-191.6Z"/>
        <path d="M754.8,737.5v62.5H45.2v-62.5c0-140.7,67.9-255.9,229.1-294l60.6,264.6,44.4-203.3-55.2-70.1c23.6-3,48.8-4.5,75.8-4.5h0c27.4,0,53.1,1.6,77,4.7l-55.1,70,44.4,203.3,60.5-264.3c160.2,38.4,227.8,153.3,227.8,293.7Z"/>
    </g>
</svg>