<?xml version="1.0" encoding="UTF-8"?>
<svg class="svg-icon-marker_square-activities-worker_with_necktie svg-icon-marker_square svg-icon-marker_square-activities" xmlns="http://www.w3.org/2000/svg" version="1.1" viewBox="0 0 800 800">
    <defs>
        <style>
            .svg-icon-marker-background { fill: #fff; }
        </style>
    </defs>
    <path class="svg-icon-marker-marker_square" d="M678.707,0H121.24C79.611,0,45.744,33.867,45.744,75.496v557.467c0,41.629,33.867,75.496,75.496,75.496h130.099c148.693,5.043,148.635,91.541,148.635,91.541,0,0-.058-86.499,148.636-91.541h130.097c41.629,0,75.496-33.867,75.496-75.496V75.496C754.203,33.868,720.336,0,678.707,0h0Z"/>
    <path class="svg-icon-marker-background" d="M139.566,48.525h520.814c25.017,0,45.297,20.28,45.297,45.297v520.814c0,25.017-20.28,45.297-45.297,45.297H139.566c-25.017,0-45.297-20.28-45.297-45.297V93.822c0-25.017,20.28-45.297,45.297-45.297Z"/>
    <g class="svg-icon-content" transform="translate(120, 75) scale(0.7)">
        <path d="M209.1,191.6C209.1,85.8,294.8,0,400.7,0s191.6,85.8,191.6,191.6-85.8,191.6-191.6,191.6-191.6-85.8-191.6-191.6Z"/>
        <path d="M754.8,737.5v62.5H45.2v-62.5c0-140.7,67.9-255.9,229.1-294l60.6,264.6,44.4-203.3-55.2-70.1c23.6-3,48.8-4.5,75.8-4.5h0c27.4,0,53.1,1.6,77,4.7l-55.1,70,44.4,203.3,60.5-264.3c160.2,38.4,227.8,153.3,227.8,293.7Z"/>
    </g>
</svg>