<svg xmlns="http://www.w3.org/2000/svg" viewBox="0 0 100 100"><title>agencies_black</title><g id="agencies"><path id="black" d="M86.91,89H83.43V26.32a4.18,4.18,0,0,0-4.18-4.18H63.93V9.61a4.18,4.18,0,0,0-4.18-4.18H40.25a4.18,4.18,0,0,0-4.18,4.18V22.14H20.75a4.18,4.18,0,0,0-4.18,4.18V89H13.09A2.1,2.1,0,0,0,11,91.09v3.48H89V91.09A2.1,2.1,0,0,0,86.91,89ZM43.66,14.13a1.7,1.7,0,0,1,0-2.41l1.6-1.62a1.7,1.7,0,0,1,2.41,0l9.67,9.67a1.7,1.7,0,0,1,0,2.41l-9.67,9.67a1.7,1.7,0,0,1-2.41,0l-1.6-1.61a1.68,1.68,0,0,1,0-2.4L50.51,21ZM33.29,41a2.08,2.08,0,0,1,2.09-2.09h7A2.09,2.09,0,0,1,44.43,41v7A2.1,2.1,0,0,1,42.34,50h-7a2.09,2.09,0,0,1-2.09-2.09Zm9.05,25.76h-7a2.08,2.08,0,0,1-2.09-2.09v-7a2.09,2.09,0,0,1,2.09-2.09h7a2.1,2.1,0,0,1,2.09,2.09v7A2.09,2.09,0,0,1,42.34,66.71ZM55.57,89H44.43V74.38a2.08,2.08,0,0,1,2.09-2.09h7a2.08,2.08,0,0,1,2.09,2.09ZM66.71,64.62a2.08,2.08,0,0,1-2.09,2.09h-7a2.09,2.09,0,0,1-2.09-2.09v-7a2.1,2.1,0,0,1,2.09-2.09h7a2.09,2.09,0,0,1,2.09,2.09Zm0-16.71A2.09,2.09,0,0,1,64.62,50h-7a2.1,2.1,0,0,1-2.09-2.09V41a2.09,2.09,0,0,1,2.09-2.09h7A2.08,2.08,0,0,1,66.71,41Z"/></g></svg>