<svg xmlns="http://www.w3.org/2000/svg" viewBox="0 0 88.69 77.99"><title>line_black</title><g id="line"><path id="black" d="M6.82,51.15l-1-2.36a3.83,3.83,0,0,1,2.09-5L61.06,22l-2.91-7.08a3.83,3.83,0,0,1,5-5l16.64,7a3.84,3.84,0,0,1,2.06,5l-7,16.64a3.83,3.83,0,0,1-7.07,0l-2.9-7.08L11.82,53.24A3.83,3.83,0,0,1,6.82,51.15ZM88,44.06,34.9,65.83,32,58.75a3.83,3.83,0,0,0-7.07,0L18,75.37a3.84,3.84,0,0,0,2.06,5l16.64,7a3.83,3.83,0,0,0,5-5l-2.91-7.08L91.89,53.5a3.82,3.82,0,0,0,2.08-5l-1-2.36A3.83,3.83,0,0,0,88,44.06Z" transform="translate(-5.57 -9.65)"/></g></svg>