<svg xmlns="http://www.w3.org/2000/svg" viewBox="0 0 100 100"><g id="line_add"><path id="black" d="M6.69,60.48,5.8,58.3a3.31,3.31,0,0,1,1.48-4.42L49.55,36.55,46.87,30c-1.19-2.91,1.26-5.61,3.87-4.28l13.85,7a3.94,3.94,0,0,1,1.89,4.62L61.55,52.12c-.93,2.76-4.56,2.58-5.76-.34l-2.67-6.52L10.84,62.59A3.31,3.31,0,0,1,6.69,60.48Zm65.77-2.82L30.19,75l-2.68-6.53c-1.18-2.9-4.82-3.12-5.75-.34L16.82,82.85a3.94,3.94,0,0,0,1.9,4.62l13.85,7c2.6,1.32,5.06-1.37,3.86-4.28l-2.67-6.53L76,66.36a3.31,3.31,0,0,0,1.48-4.42l-.89-2.18A3.31,3.31,0,0,0,72.46,57.66Z"/><path id="black-2" data-name="black" d="M92.9,16.84H83.29V7.22a2.14,2.14,0,0,0-2.14-2.14H79a2.13,2.13,0,0,0-2.13,2.14v9.62H67.26A2.13,2.13,0,0,0,65.12,19v2.14a2.14,2.14,0,0,0,2.14,2.14h9.62v9.61A2.13,2.13,0,0,0,79,35h2.14a2.14,2.14,0,0,0,2.14-2.14V23.25H92.9A2.14,2.14,0,0,0,95,21.11V19A2.13,2.13,0,0,0,92.9,16.84Z"/></g></svg>