<svg xmlns="http://www.w3.org/2000/svg" viewBox="0 0 100 100"><defs><style>.cls-1{fill:#fff;}</style></defs><title>hide_nodes_white</title><g id="nodes_show_hide"><path id="white" class="cls-1" d="M28.69,93.26C9.14,64.91,5.51,62,5.51,51.59a25.84,25.84,0,1,1,51.67,0C57.18,62,53.55,64.91,34,93.26a3.23,3.23,0,0,1-5.31,0Zm2.66-30.91A10.77,10.77,0,1,0,20.58,51.59,10.76,10.76,0,0,0,31.35,62.35Z"/><path id="white-2" data-name="white" class="cls-1" d="M70.87,35.45A10.87,10.87,0,0,1,60,25.36l-7.95-6.14a24.74,24.74,0,0,0-2.78,4.21,2.42,2.42,0,0,0,0,2.22A24.31,24.31,0,0,0,70.87,39.09a23.52,23.52,0,0,0,5.9-.79l-3.93-3A10.05,10.05,0,0,1,70.87,35.45Zm23.78,4.41-8.38-6.48a24.91,24.91,0,0,0,6.16-7.74,2.46,2.46,0,0,0,0-2.21A24.3,24.3,0,0,0,70.87,10,23.35,23.35,0,0,0,59.7,12.85L50.06,5.39a1.21,1.21,0,0,0-1.7.22h0L46.87,7.52a1.21,1.21,0,0,0,.22,1.7L91.67,43.68a1.2,1.2,0,0,0,1.7-.21h0l1.48-1.91A1.21,1.21,0,0,0,94.65,39.86ZM80.73,29.09l-3-2.3A7.18,7.18,0,0,0,69,17.55a3.66,3.66,0,0,1,.71,2.14,4.81,4.81,0,0,1-.12.76L64,16.14a10.77,10.77,0,0,1,6.91-2.51,10.9,10.9,0,0,1,10.91,10.9h0a10.63,10.63,0,0,1-1,4.55Z"/></g></svg>