<svg xmlns="http://www.w3.org/2000/svg" viewBox="0 0 100 100"><defs><style>.cls-1{fill:#fff;}</style></defs><title>show_nodes_white</title><g id="nodes_show_hide"><path id="white" class="cls-1" d="M28.69,93.26C9.14,64.91,5.51,62,5.51,51.59a25.84,25.84,0,1,1,51.67,0C57.18,62,53.55,64.91,34,93.26a3.23,3.23,0,0,1-5.31,0Zm2.66-30.91A10.77,10.77,0,1,0,20.58,51.59,10.76,10.76,0,0,0,31.35,62.35Z"/><path id="white-2" data-name="white" class="cls-1" d="M92.6,23a24.08,24.08,0,0,0-43.49,0,2.56,2.56,0,0,0,0,2.26,24.09,24.09,0,0,0,43.49,0A2.54,2.54,0,0,0,92.6,23ZM70.85,35.21a11.14,11.14,0,1,1,11-11.13,11.07,11.07,0,0,1-11,11.13Zm0-18.56a7.45,7.45,0,0,0-1.93.29,3.73,3.73,0,0,1-.78,5.18,3.62,3.62,0,0,1-4.33,0A7.41,7.41,0,0,0,69,31.21a7.32,7.32,0,0,0,9-5.21,7.36,7.36,0,0,0-7.09-9.35Z"/></g></svg>