<svg xmlns="http://www.w3.org/2000/svg" viewBox="0 0 88.5 88.5"><defs><style>.cls-1{fill:#fff;}</style></defs><title>path_white</title><g id="path"><g id="white"><path class="cls-1" d="M90.84,9.37a11.2,11.2,0,0,0-18.41,12L54.12,39.72A11.22,11.22,0,0,0,42,42.15l0,.06-.07.06a11.24,11.24,0,0,0-2.43,12.15l-18.3,18.3a11.21,11.21,0,0,0-12,18.42,11.21,11.21,0,0,0,18.41-12l18.3-18.3A11.26,11.26,0,0,0,58,58.36l0-.07.06,0a11.21,11.21,0,0,0,2.43-12.15L78.8,27.78a11.2,11.2,0,0,0,12-18.41ZM21.66,87.84a6.57,6.57,0,1,1-.06-9.22A6.53,6.53,0,0,1,21.66,87.84ZM45.44,54.77a6.39,6.39,0,1,1,9.16.12A6.51,6.51,0,0,1,45.44,54.77ZM87.54,22a6.56,6.56,0,1,1-.06-9.22A6.52,6.52,0,0,1,87.54,22Z" transform="translate(-5.71 -6)"/></g></g></svg>