<svg xmlns="http://www.w3.org/2000/svg" viewBox="0 0 100 100"><defs><style>.cls-1{fill:#fff;}</style></defs><title>paths_hidden_white</title><g id="show_hide_objects"><path id="white" class="cls-1" d="M6.46,68.16l-.71-1.75a2.83,2.83,0,0,1,1.54-3.7L46.61,46.59l-2.15-5.24a2.84,2.84,0,0,1,3.72-3.69l12.31,5.16A2.82,2.82,0,0,1,62,46.53L56.86,58.84a2.84,2.84,0,0,1-5.24,0l-2.14-5.25L10.16,69.7A2.84,2.84,0,0,1,6.46,68.16Zm60.1-5.25L27.25,79,25.1,73.78a2.84,2.84,0,0,0-5.24,0L14.71,86.08a2.82,2.82,0,0,0,1.52,3.71L28.55,95a2.84,2.84,0,0,0,3.71-3.69L30.11,86,69.43,69.9A2.84,2.84,0,0,0,71,66.2l-.72-1.75A2.83,2.83,0,0,0,66.56,62.91Z"/><path id="white-2" data-name="white" class="cls-1" d="M70.87,35.45A10.87,10.87,0,0,1,60,25.36l-7.95-6.14a24.74,24.74,0,0,0-2.78,4.21,2.42,2.42,0,0,0,0,2.22A24.31,24.31,0,0,0,70.87,39.09a23.52,23.52,0,0,0,5.9-.79l-3.93-3A10.05,10.05,0,0,1,70.87,35.45Zm23.78,4.41-8.38-6.48a24.91,24.91,0,0,0,6.16-7.74,2.46,2.46,0,0,0,0-2.21A24.3,24.3,0,0,0,70.87,10,23.35,23.35,0,0,0,59.7,12.85L50.06,5.39a1.21,1.21,0,0,0-1.7.22h0L46.87,7.52a1.21,1.21,0,0,0,.22,1.7L91.67,43.68a1.2,1.2,0,0,0,1.7-.21h0l1.48-1.91A1.21,1.21,0,0,0,94.65,39.86ZM80.73,29.09l-3-2.3A7.18,7.18,0,0,0,69,17.55a3.66,3.66,0,0,1,.71,2.14,4.81,4.81,0,0,1-.12.76L64,16.14a10.77,10.77,0,0,1,6.91-2.51,10.9,10.9,0,0,1,10.91,10.9h0a10.63,10.63,0,0,1-1,4.55Z"/></g></svg>