<svg xmlns="http://www.w3.org/2000/svg" viewBox="0 0 100 100"><defs><style>.cls-1{fill:#fff;}</style></defs><title>paths_visible_white</title><g id="show_hide_objects"><path id="white" class="cls-1" d="M6.46,68.16l-.71-1.75a2.83,2.83,0,0,1,1.54-3.7L46.61,46.59l-2.15-5.24a2.84,2.84,0,0,1,3.72-3.69l12.31,5.16A2.82,2.82,0,0,1,62,46.53L56.86,58.84a2.84,2.84,0,0,1-5.24,0l-2.14-5.25L10.16,69.7A2.84,2.84,0,0,1,6.46,68.16Zm60.1-5.25L27.25,79,25.1,73.78a2.84,2.84,0,0,0-5.24,0L14.71,86.08a2.82,2.82,0,0,0,1.52,3.71L28.55,95a2.84,2.84,0,0,0,3.71-3.69L30.11,86,69.43,69.9A2.84,2.84,0,0,0,71,66.2l-.72-1.75A2.83,2.83,0,0,0,66.56,62.91Z"/><path id="white-2" data-name="white" class="cls-1" d="M92.6,23a24.08,24.08,0,0,0-43.49,0,2.56,2.56,0,0,0,0,2.26,24.09,24.09,0,0,0,43.49,0A2.54,2.54,0,0,0,92.6,23ZM70.85,35.21a11.14,11.14,0,1,1,11-11.13,11.07,11.07,0,0,1-11,11.13Zm0-18.56a7.45,7.45,0,0,0-1.93.29,3.73,3.73,0,0,1-.78,5.18,3.62,3.62,0,0,1-4.33,0A7.41,7.41,0,0,0,69,31.21a7.32,7.32,0,0,0,9-5.21,7.36,7.36,0,0,0-7.09-9.35Z"/></g></svg>