<svg xmlns="http://www.w3.org/2000/svg" viewBox="0 0 100 100"><title>scenario_black</title><g id="scenario"><path id="black" d="M74.8,16.93H61a11,11,0,0,0-22,0H25.2a8.27,8.27,0,0,0-8.27,8.27V85.82a8.27,8.27,0,0,0,8.27,8.27H74.8a8.27,8.27,0,0,0,8.27-8.27V25.2A8.27,8.27,0,0,0,74.8,16.93Zm-41.33,62A4.13,4.13,0,1,1,37.6,74.8,4.13,4.13,0,0,1,33.47,78.93Zm0-16.53a4.14,4.14,0,1,1,4.13-4.13A4.13,4.13,0,0,1,33.47,62.4Zm0-16.53a4.14,4.14,0,1,1,4.13-4.14A4.14,4.14,0,0,1,33.47,45.87ZM50,12.8a4.14,4.14,0,1,1-4.13,4.13A4.12,4.12,0,0,1,50,12.8Zm22,63.38a1.38,1.38,0,0,1-1.38,1.38H45.87a1.38,1.38,0,0,1-1.38-1.38V73.42a1.38,1.38,0,0,1,1.38-1.37h24.8a1.38,1.38,0,0,1,1.38,1.37Zm0-16.54A1.38,1.38,0,0,1,70.67,61H45.87a1.38,1.38,0,0,1-1.38-1.38V56.89a1.38,1.38,0,0,1,1.38-1.38h24.8a1.38,1.38,0,0,1,1.38,1.38Zm0-16.53a1.38,1.38,0,0,1-1.38,1.38H45.87a1.38,1.38,0,0,1-1.38-1.38V40.36A1.38,1.38,0,0,1,45.87,39h24.8a1.38,1.38,0,0,1,1.38,1.38Z"/></g></svg>