<svg xmlns="http://www.w3.org/2000/svg" viewBox="0 0 100 100"><defs><style>.cls-1{fill:#fff;}</style></defs><title>schedule_white</title><g id="schedule"><g id="white"><path class="cls-1" d="M53.12,66.48V54.54a1,1,0,0,0-1-1H47.92a1,1,0,0,0-1,1V69.13a1.07,1.07,0,0,0,.42.84L55,75.53a1.06,1.06,0,0,0,1.46-.23l2.44-3.36a1,1,0,0,0-.22-1.46Z"/><path class="cls-1" d="M80.8,16.28H72.4V7.18a2.11,2.11,0,0,0-2.1-2.1h-7a2.11,2.11,0,0,0-2.1,2.1v9.1H38.8V7.18a2.11,2.11,0,0,0-2.1-2.1h-7a2.11,2.11,0,0,0-2.1,2.1v9.1H19.2a8.41,8.41,0,0,0-8.4,8.4V31a2.11,2.11,0,0,0,2.1,2.1H87.1A2.11,2.11,0,0,0,89.2,31v-6.3A8.41,8.41,0,0,0,80.8,16.28Z"/><path class="cls-1" d="M87.1,38.68H12.9a2.11,2.11,0,0,0-2.1,2.1V86.27a8.41,8.41,0,0,0,8.4,8.4H80.8a8.41,8.41,0,0,0,8.4-8.4V40.78A2.11,2.11,0,0,0,87.1,38.68ZM50,88.18a21.5,21.5,0,1,1,21.5-21.5A21.5,21.5,0,0,1,50,88.18Z"/></g></g></svg>