<svg id="line_black" xmlns="http://www.w3.org/2000/svg" viewBox="0 0 89.69 89.69"><defs><style>.cls-1{fill:#fff;}</style></defs><title>line_white</title><g id="white"><path class="cls-1" d="M40.11,70.36,69.83,40.64a18.17,18.17,0,1,0-6.36-29.87,18.12,18.12,0,0,0-3.92,19.6L29.84,60.08a18.07,18.07,0,0,0-19.43,29.7,18.07,18.07,0,0,0,29.7-19.42ZM69,16.26a10.59,10.59,0,1,1,.1,14.87A10.52,10.52,0,0,1,69,16.26ZM15.83,84.36a10.45,10.45,0,1,1,14.88.1A10.52,10.52,0,0,1,15.83,84.36Z" transform="translate(-4.99 -5.51)"/></g></svg>