<svg xmlns="http://www.w3.org/2000/svg" viewBox="0 0 100 100"><title>service_black</title><g id="service"><path id="black" d="M10.77,86.26a8.42,8.42,0,0,0,8.41,8.41H80.82a8.42,8.42,0,0,0,8.41-8.41V38.62H10.77Zm56-34.33a2.11,2.11,0,0,1,2.1-2.1h7a2.11,2.11,0,0,1,2.1,2.1v7a2.1,2.1,0,0,1-2.1,2.1h-7a2.11,2.11,0,0,1-2.1-2.1Zm0,22.42a2.11,2.11,0,0,1,2.1-2.1h7a2.11,2.11,0,0,1,2.1,2.1v7a2.11,2.11,0,0,1-2.1,2.1h-7a2.11,2.11,0,0,1-2.1-2.1ZM44.4,51.93a2.11,2.11,0,0,1,2.1-2.1h7a2.11,2.11,0,0,1,2.1,2.1v7A2.1,2.1,0,0,1,53.5,61h-7a2.1,2.1,0,0,1-2.1-2.1Zm0,22.42a2.11,2.11,0,0,1,2.1-2.1h7a2.11,2.11,0,0,1,2.1,2.1v7a2.11,2.11,0,0,1-2.1,2.1h-7a2.11,2.11,0,0,1-2.1-2.1ZM22,51.93a2.11,2.11,0,0,1,2.1-2.1h7a2.11,2.11,0,0,1,2.1,2.1v7a2.11,2.11,0,0,1-2.1,2.1h-7a2.1,2.1,0,0,1-2.1-2.1Zm0,22.42a2.11,2.11,0,0,1,2.1-2.1h7a2.11,2.11,0,0,1,2.1,2.1v7a2.11,2.11,0,0,1-2.1,2.1h-7a2.11,2.11,0,0,1-2.1-2.1ZM80.82,16.21h-8.4V7.8A2.81,2.81,0,0,0,69.61,5H64a2.81,2.81,0,0,0-2.8,2.8v8.41H38.79V7.8A2.81,2.81,0,0,0,36,5h-5.6a2.81,2.81,0,0,0-2.81,2.8v8.41h-8.4a8.41,8.41,0,0,0-8.41,8.4V33H89.23V24.61A8.41,8.41,0,0,0,80.82,16.21Z"/></g></svg>