<svg id="Layer_1" data-name="Layer 1" xmlns="http://www.w3.org/2000/svg" viewBox="0 0 89.3 89.72"><defs><style>.cls-1,.cls-2{fill:#78CDFF;}.cls-2{opacity:0.75;isolation:isolate;}</style></defs><g id="black"><path id="black-2" class="cls-1" d="M20.5,94C7.8,75.6,5.4,73.7,5.4,66.9a16.8,16.8,0,0,1,33.6,0c0,6.8-2.4,8.7-15.1,27.1a2,2,0,0,1-2.9.5,1.21,1.21,0,0,1-.5-.5Zm1.7-20.1a7,7,0,1,0-7-7,7,7,0,0,0,7,7Z" transform="translate(-5.4 -5.2)"/><path id="black-3" class="cls-1" d="M76.2,49.5C63.4,31,61.1,29.1,61.1,22.4a16.8,16.8,0,1,1,33.6-.8v.8c0,6.8-2.3,8.7-15.1,27.1a2,2,0,0,1-2.9.5C76.5,49.8,76.3,49.7,76.2,49.5Zm1.7-20.1a7,7,0,1,0-7-7,7,7,0,0,0,7,7Z" transform="translate(-5.4 -5.2)"/><path id="black-4" class="cls-1" d="M40,58.3l-1-1.1a2.09,2.09,0,0,1,.2-3L52.6,42.4l-2.8-3.2a2.09,2.09,0,0,1,.2-3,1.74,1.74,0,0,1,1.5-.5l10.1.6a2.14,2.14,0,0,1,2,2.3h0L63,48.5a2.2,2.2,0,0,1-3.8,1.3l-2.8-3.2L43,58.5A2.18,2.18,0,0,1,40,58.3Z" transform="translate(-5.4 -5.2)"/><path id="black-5" class="cls-2" d="M34.6,15.8a13.43,13.43,0,0,0-19,.6,12.68,12.68,0,0,0-3.2,5.9,1,1,0,0,1-.9.7H6.8a.94.94,0,0,1-1-1v-.1A19.89,19.89,0,0,1,29,6a19.66,19.66,0,0,1,10.1,5.2L42,8.4a1.82,1.82,0,0,1,2.7,0,2,2,0,0,1,.6,1.4V20.6a1.84,1.84,0,0,1-1.9,1.9H32.6a1.84,1.84,0,0,1-1.9-1.9,2,2,0,0,1,.6-1.4ZM7.4,28.8H18.2a1.84,1.84,0,0,1,1.9,1.9,2,2,0,0,1-.6,1.4l-3.4,3.3a13.47,13.47,0,0,0,19.1-.7,12.68,12.68,0,0,0,3.2-5.9,1,1,0,0,1,.9-.7H44a.94.94,0,0,1,1,1v.1A20,20,0,0,1,11.6,39.9L8.7,42.8a1.82,1.82,0,0,1-2.7,0,2,2,0,0,1-.6-1.4V30.8a2.07,2.07,0,0,1,2-2Z" transform="translate(-5.4 -5.2)"/></g></svg>