<svg xmlns="http://www.w3.org/2000/svg" viewBox="0 0 100 100"><defs><style>.cls-1{opacity:0.75;}</style></defs><g id="transfer_refresh"><g id="black"><path id="black-2" data-name="black" d="M20.48,94C7.78,75.55,5.42,73.66,5.42,66.89a16.79,16.79,0,0,1,33.58,0c0,6.77-2.36,8.66-15.06,27.08a2.1,2.1,0,0,1-3.46,0Zm1.73-20.08a7,7,0,1,0-7-7A7,7,0,0,0,22.21,73.89Z"/><path id="black-3" data-name="black" d="M76.15,49.46C63.44,31,61.09,29.15,61.09,22.38a16.79,16.79,0,1,1,33.57,0c0,6.77-2.35,8.66-15.06,27.08a2.1,2.1,0,0,1-3.45,0Zm1.72-20.09a7,7,0,1,0-7-7A7,7,0,0,0,77.87,29.37Z"/><path id="black-4" data-name="black" d="M40,58.3l-1-1.06a2.14,2.14,0,0,1,.17-3L52.61,42.39,49.77,39.2a2.14,2.14,0,0,1,1.72-3.56l10.07.59a2.13,2.13,0,0,1,2,2.26L63,48.55a2.14,2.14,0,0,1-3.73,1.3l-2.84-3.19L43,58.48A2.15,2.15,0,0,1,40,58.3Z"/><path id="black-5" data-name="black" class="cls-1" d="M34.57,15.78a13.47,13.47,0,0,0-22.26,6.54,1,1,0,0,1-.94.74H6.78a1,1,0,0,1-1-1.14A19.9,19.9,0,0,1,39.11,11.24L42,8.38a1.92,1.92,0,0,1,3.28,1.36V20.49a1.92,1.92,0,0,1-1.92,1.93H32.59a1.92,1.92,0,0,1-1.36-3.29ZM7.41,28.83H18.16a1.92,1.92,0,0,1,1.36,3.29l-3.35,3.35a13.48,13.48,0,0,0,22.27-6.55,1,1,0,0,1,.94-.73H44a1,1,0,0,1,1,1.14A19.89,19.89,0,0,1,11.64,40L8.77,42.87a1.92,1.92,0,0,1-3.28-1.36V30.76A1.92,1.92,0,0,1,7.41,28.83Z"/></g></g></svg>