<svg xmlns="http://www.w3.org/2000/svg" viewBox="0 0 100 100"><g id="transfer"><g id="black"><path id="black-2" data-name="black" d="M20.48,94C7.78,75.55,5.42,73.66,5.42,66.89a16.79,16.79,0,0,1,33.58,0c0,6.77-2.36,8.66-15.06,27.08a2.1,2.1,0,0,1-3.46,0Zm1.73-20.08a7,7,0,1,0-7-7A7,7,0,0,0,22.21,73.89Z"/><path id="black-3" data-name="black" d="M76.15,49.46C63.44,31,61.09,29.15,61.09,22.38a16.79,16.79,0,1,1,33.57,0c0,6.77-2.35,8.66-15.06,27.08a2.1,2.1,0,0,1-3.45,0Zm1.72-20.09a7,7,0,1,0-7-7A7,7,0,0,0,77.87,29.37Z"/><path id="black-4" data-name="black" d="M40,58.3l-1-1.06a2.14,2.14,0,0,1,.17-3L52.61,42.39,49.77,39.2a2.14,2.14,0,0,1,1.72-3.56l10.07.59a2.13,2.13,0,0,1,2,2.26L63,48.55a2.14,2.14,0,0,1-3.73,1.3l-2.84-3.19L43,58.48A2.15,2.15,0,0,1,40,58.3Z"/></g></g></svg>