<svg xmlns="http://www.w3.org/2000/svg" viewBox="0 0 100 100"><defs><style>.cls-1{fill:#fff;}</style></defs><title>trip_white</title><g id="trip"><g id="white"><path class="cls-1" d="M93.8,53.4,70.58,76.62a4.08,4.08,0,0,1-5.78,0l-3.86-3.86a4.09,4.09,0,0,1,0-5.79L77.4,50.52,60.94,34.06a4.08,4.08,0,0,1,0-5.78l3.84-3.9a4.09,4.09,0,0,1,5.79,0L93.78,47.6A4.09,4.09,0,0,1,93.8,53.4Z"/><path class="cls-1" d="M30.34,24.64A25.13,25.13,0,1,0,55.47,49.77,25.13,25.13,0,0,0,30.34,24.64Zm5.79,35.48-8.94-6.5a1.24,1.24,0,0,1-.5-1V35.58a1.22,1.22,0,0,1,1.22-1.21h4.86A1.22,1.22,0,0,1,34,35.58v14l6.43,4.68a1.22,1.22,0,0,1,.27,1.7l-2.86,3.93a1.23,1.23,0,0,1-1.7.27Z"/></g></g></svg>