<?xml version="1.0" encoding="iso-8859-1"?>
<!-- Uploaded to: SVG Repo, www.svgrepo.com, Generator: SVG Repo Mixer Tools -->
<svg fill="#000000" height="800px" width="800px" version="1.1" id="Layer_1" xmlns="http://www.w3.org/2000/svg" xmlns:xlink="http://www.w3.org/1999/xlink" 
	 viewBox="0 0 512 512" xml:space="preserve">
<g>
	<g>
		<path d="M291.035,96.778c-4.483-26.885-11.463-48.671-18.066-64.94c-2.487-6.134-4.921-11.473-7.147-16.008
			c-3.72-7.586-6.865-12.894-8.704-15.83h-0.711c-1.839,2.926-4.974,8.223-8.694,15.788c-2.226,4.524-4.65,9.853-7.137,15.966
			c-6.614,16.269-13.605,38.097-18.098,65.024c-8.955,53.624-9.362,138.073,34.283,246.188
			C300.398,234.851,299.99,150.403,291.035,96.778z"/>
	</g>
</g>
<g>
	<g>
		<path d="M391.805,57.093C372.746,27,340.01,8.694,294.212,2.435c2.424,4.942,5.016,10.648,7.649,17.095
			c2.163,5.308,4.347,11.128,6.478,17.439c5.026,14.817,9.77,32.36,13.26,52.527c7.063,40.855,7.544,84.271,1.452,129.066
			c-5.747,42.203-17.387,85.723-34.711,129.849c-0.408,1.055-0.826,2.111-1.254,3.166h22.424h17.523l58.096-116.548l0.146-0.293
			C387.354,230.348,435.66,126.349,391.805,57.093z"/>
	</g>
</g>
<g>
	<g>
		<path d="M225.176,348.411c-17.324-44.126-28.965-87.646-34.712-129.849c-6.092-44.795-5.611-88.21,1.452-129.066
			c3.511-20.344,8.307-38.024,13.385-52.924c2.132-6.28,4.326-12.069,6.478-17.345c2.633-6.416,5.214-12.089,7.628-17
			c-46.644,6.04-79.935,24.419-99.213,54.868c-43.854,69.256,4.451,173.255,6.531,177.643l58.243,116.841h17.523h23.939
			C226.001,350.521,225.583,349.466,225.176,348.411z"/>
	</g>
</g>
<g>
	<g>
		<polygon points="306.751,407.51 306.751,382.924 275.404,382.924 275.404,407.51 236.743,407.51 236.743,382.924 205.396,382.924 
			205.396,407.51 189.2,407.51 189.2,512 320.366,512 320.366,407.51 		"/>
	</g>
</g>
</svg>