<?xml version="1.0" encoding="UTF-8"?>
<svg id="svg-ornamenent-circle_flowers" class="svg-ornament" xmlns="http://www.w3.org/2000/svg" version="1.1" viewBox="0 0 632.288 800">
    <path d="M592.975,294.662c21.712,0,39.313-17.601,39.313-39.313s-17.601-39.313-39.313-39.313-39.313,17.601-39.313,39.313c0,11.584,5.013,21.996,12.985,29.191-19.826,21.414-50.153,54.81-81.199,91.426-44.899,52.953-77.733,96.401-98.245,129.945,11.629-42.186,23.505-85.47,31.909-124.732,1.083-4.239,1.951-8.53,2.641-12.854.261-1.316.533-2.645.784-3.951,14.5-75.247,7.553-217.333,2.978-285.919,18.012-3.59,31.588-19.482,31.588-38.55,0-21.712-17.601-39.313-39.313-39.313s-39.313,17.601-39.313,39.313c0,21.07,16.576,38.266,37.399,39.265,3.485,52.184,8.353,147.011,4.033,221.916-4.506-24.868-12.31-48.356-20.048-67.554-8.833-21.914-18.381-40.567-25.691-53.704,8.551-7.211,13.988-17.999,13.988-30.061,0-21.712-17.601-39.313-39.313-39.313s-39.313,17.601-39.313,39.313,17.601,39.313,39.313,39.313c6.161,0,11.989-1.42,17.179-3.946,7.168,12.933,16.467,31.143,24.938,52.185,14.047,34.894,28.375,84.318,21.293,129.196-8.546,43.109-22.092,92.279-35.22,139.895-2.233,8.098-4.448,16.135-6.618,24.068,2.281-31.362,3.078-67.151.834-103.523-2.826-45.802-10.099-86.083-21.618-119.724-13.895-40.578-34.015-71.437-59.803-91.722-24.894-19.58-56.599-46.521-74.595-69.548,13.232-6.328,22.374-19.837,22.374-35.484,0-21.712-17.601-39.313-39.313-39.313s-39.313,17.601-39.313,39.313,17.601,39.313,39.313,39.313c2.456,0,4.856-.236,7.188-.667,12.684,17.05,36.26,40.864,78.368,73.986,56.582,44.505,73.511,135.74,77.749,204.441.919,14.897,1.307,29.769,1.282,44.307-13.9-40.082-43.32-82.633-74.122-111.221,3.346-5.783,5.27-12.491,5.27-19.652,0-21.712-17.601-39.313-39.313-39.313s-39.313,17.601-39.313,39.313,17.601,39.313,39.313,39.313c11.05,0,21.029-4.565,28.171-11.905,14.995,14.06,29.886,31.807,42.822,51.366,23.055,34.858,36.076,70.021,35.845,96.683-2.105,36.928-6.386,68.866-10.444,89.424-.775,3.453-1.507,6.827-2.196,10.125-.039.162-.078.33-.117.489l.015.004c-3.681,17.703-6.039,33.059-6.379,44.962-.233,8.175.206,16.737,1.136,25.422-10.068-24.335-20.844-47.334-30.764-62.348-6.345-9.604-13.833-19.606-22.015-29.483h.002c-3.275-4.651-7.12-9.082-11.506-13.298-22.27-24.595-46.733-45.771-70.344-61.184v-.002c-25.497-18.663-39.32-39.758-46.74-55.912,14.354-5.857,24.475-19.946,24.475-36.407,0-21.712-17.601-39.313-39.313-39.313s-39.313,17.601-39.313,39.313,17.601,39.313,39.313,39.313c1.775,0,3.518-.129,5.23-.357,4.548,10.279,11.513,22.464,22.17,34.938-28.487-12.107-68.595-25.191-97.524-34.121.898-3.298,1.386-6.766,1.386-10.348,0-21.712-17.601-39.313-39.313-39.313S0,435.948,0,457.66s17.601,39.313,39.313,39.313c14.685,0,27.481-8.058,34.231-19.988,29.577,9.114,71.3,22.707,99.805,35.059,20.602,8.927,43.306,24.082,65.465,43.415-15.767-7.146-34.28-13.142-55.49-17.948-13.215-2.994-25.753-5.119-36.611-6.624-3.343-18.322-19.375-32.215-38.662-32.215-21.712,0-39.313,17.601-39.313,39.313s17.601,39.313,39.313,39.313c20.765,0,37.757-16.102,39.202-36.499,37.648,5.398,94.256,18.19,125.311,47.92,12.204,13.523,23.328,27.741,32.175,41.131,16.69,25.261,36.425,75.46,50.528,114.643,8.431,30.01,16.073,45.819,18.717,55.507h10.8c-.685-2.163-9.648-28.932-20.1-58.052-7.058-25.09-13.306-54.929-12.584-80.226.324-11.341,2.603-26.131,6.17-43.273.813-3.359,1.648-7.186,2.485-11.436.606-2.678,1.24-5.409,1.894-8.177,9.484-37.166,34.073-64.896,53.495-73.093,12.85-5.422,25.817-4.447,38.543,2.9,27.315,15.772,62.159,26.801,87.46,33.44-.002.158-.012.314-.012.473,0,21.712,17.601,39.313,39.313,39.313s39.313-17.601,39.313-39.313-17.601-39.313-39.313-39.313c-18.188,0-33.483,12.353-37.972,29.125-24.721-6.562-58.223-17.241-83.955-32.098-6.474-3.738-13.014-6.096-19.586-7.111,12.101-7.659,21.653-15.598,29.148-23.092,7.067,6.8,16.665,10.989,27.247,10.989,21.712,0,39.313-17.601,39.313-39.313s-17.601-39.313-39.313-39.313-39.313,17.601-39.313,39.313c0,7.587,2.155,14.668,5.878,20.676-10.552,10.743-25.663,22.637-46.982,33.072-1.176.41-2.353.848-3.529,1.345-12.846,5.421-25.239,16.064-35.996,30.873,26.33-67.699,148.011-203.284,198.274-257.574,5.47,2.886,11.698,4.527,18.313,4.527Z"/>
</svg>