<?xml version="1.0" encoding="UTF-8"?>
<svg class="svg-icon-marker_round-activities-shopping_basket svg-icon-marker_round svg-icon-marker_round-activities" xmlns="http://www.w3.org/2000/svg" version="1.1" viewBox="0 0 800 800">
    <defs>
        <style>
            .svg-icon-marker-background { fill: #fff; }

        </style>
    </defs>
    <path class="svg-icon-marker-marker_round" d="M678.058,289.282c.01-.256.02-.513.029-.769.044-1.27.087-2.539.113-3.813.046-1.971.075-3.946.075-5.925C678.276,125.068,553.208,0,399.501,0S120.726,125.068,120.726,278.775h0c0,.007,0,.015,0,.022,0,1.966.03,3.927.075,5.886.027,1.301.071,2.597.116,3.893.008.218.016.436.025.654,1.311,35.36,9.235,69.057,22.578,99.889,66.594,165.882,256.216,300.297,256.216,410.756l.133-7.452.133,7.452c0-110.815,190.349-245.74,256.184-412.361,12.919-30.379,20.579-63.506,21.873-98.232Z"/>
    <path class="svg-icon-marker-background" d="M168.817,278.775c0-127.191,103.493-230.684,230.684-230.684s230.684,103.493,230.684,230.684-103.493,230.684-230.684,230.684-230.684-103.493-230.684-230.684h0Z"/>
    <g class="svg-icon-content" transform="translate(240, 120) scale(0.4)">
        <path d="M736.3,288.7h-50.9c6,33.6-8.4,68.9-39.1,87.9-13.6,8.4-29.1,12.8-45,12.8-29.9,0-57.2-15.2-72.9-40.6-11.1-18-14.7-39.5-11-60.2h-234.1c3.7,20.6.1,42.2-11,60.2-15.7,25.4-43,40.6-72.9,40.6s-31.5-4.4-45.1-12.8c-30.7-19-45.1-54.4-39.1-87.9h-50.9c-35.3,0-64,28.6-64,64s28.6,64,64,64h7.1l46.9,285.4c4.9,29.9,30.7,51.8,61,51.8h442.1c30.3,0,56.1-21.9,61-51.8l46.9-285.4h7.1c35.3,0,64-28.6,64-64s-28.7-64-64-64ZM273.1,679.8c-1.9.3-3.8.4-5.7.4-18.7,0-35-13.7-37.9-32.7l-26.6-177.1c-3.1-21,11.3-40.5,32.3-43.7,21-3.1,40.5,11.3,43.7,32.3l26.6,177.1c3.1,21-11.3,40.5-32.3,43.7ZM438.7,641.8c0,21.2-17.2,38.4-38.4,38.4s-38.4-17.2-38.4-38.4v-177.1c0-21.2,17.2-38.4,38.4-38.4s38.4,17.2,38.4,38.4v177.1ZM597.7,470.4l-26.6,177.1c-2.9,19-19.2,32.7-37.9,32.7s-3.8-.1-5.7-.4c-21-3.1-35.4-22.7-32.3-43.7l26.6-177.1c3.2-21,22.6-35.4,43.7-32.3,21,3.1,35.4,22.7,32.3,43.7Z"/>
        <path d="M167.7,354.8c9.8,6.1,20.8,9,31.6,9,20.1,0,39.8-10.1,51.1-28.5,10.5-16.9,11.4-36.9,4.5-54l114-184.2c10.3-16.7,5.1-38.5-11.5-48.8-5.8-3.6-12.3-5.3-18.6-5.3-11.9,0-23.5,6-30.2,16.8l-114,184.2c-18.4,1.5-35.9,11.2-46.3,28.1-17.5,28.2-8.7,65.2,19.5,82.7Z"/>
        <path d="M545.7,281.4c-6.9,17.1-6,37.1,4.4,54,11.4,18.4,31,28.5,51.1,28.5s21.7-2.9,31.6-9c28.2-17.5,36.9-54.5,19.5-82.7-10.4-16.9-27.9-26.6-46.3-28.1l-114-184.2c-6.7-10.9-18.3-16.8-30.2-16.8s-12.8,1.7-18.6,5.3c-16.7,10.3-21.8,32.1-11.5,48.8l114,184.2Z"/>
    </g>
</svg>