<?xml version="1.0" encoding="UTF-8"?>
<svg id="svg-icon-shopping_basket_with_home" class="svg-icon" xmlns="http://www.w3.org/2000/svg" version="1.1" viewBox="0 0 800 800">
    <defs>
        <style>
            #shopping_basket_with_home-home {
                opacity: .5;
            }
        </style>
    </defs>
    <g id="shopping_basket_with_home-home">
        <path d="M497.1,190.7L269.3,7c-9.4-9.4-24.6-9.4-34,0L7.1,191c-9.3,9.3-9.4,24.3-.3,33.7,9.4,9.7,25.2,9.6,34.7,0L252.3,58.2l211,166.9c4.7,4.7,10.8,7.1,17,7.1s12.7-2.5,17.5-7.5c9-9.5,8.5-24.6-.8-33.8h0Z"/>
        <path d="M252.3,85.2l-158.9,125.5c-3.6,3.6-5.6,8.5-5.6,13.6v189.5c0,10.7,8.6,19.3,19.3,19.3h75.1c10.7,0,19.3-8.6,19.3-19.3v-110.9c0-10.7,8.6-19.3,19.3-19.3h63c10.7,0,19.3,8.6,19.3,19.3v110.9c0,10.7,8.6,19.3,19.3,19.3h75.4c10.7,0,19.3-8.6,19.3-19.2v-189.5c0-5.1-2-10-5.6-13.6l-159.2-125.6h0Z"/>
    </g>
    <g id="shopping_basket_with_home-shopping_basket">
        <path d="M762,521.6h-30.5c3.6,20.1-5,41.3-23.4,52.6-8.1,5-17.4,7.7-27,7.7-17.9,0-34.2-9.1-43.6-24.3-6.7-10.8-8.8-23.7-6.6-36h-140.2c2.2,12.4,0,25.2-6.6,36-9.4,15.2-25.7,24.3-43.6,24.3s-18.8-2.7-27-7.7c-18.4-11.4-27-32.5-23.4-52.6h-30.5c-21.2,0-38.3,17.1-38.3,38.3s17.1,38.3,38.3,38.3h4.2l28.1,170.8c2.9,17.9,18.4,31,36.5,31h264.6c18.1,0,33.6-13.1,36.5-31l28.1-170.8h4.2c21.2,0,38.3-17.1,38.3-38.3s-17.2-38.3-38.3-38.3ZM484.7,755.7c-1.2.2-2.3.3-3.4.3-11.2,0-21-8.2-22.7-19.6l-15.9-106c-1.9-12.6,6.8-24.3,19.3-26.1,12.6-1.8,24.2,6.8,26.1,19.3l15.9,106c1.9,12.6-6.8,24.3-19.3,26.1ZM583.8,733c0,12.7-10.3,23-23,23s-23-10.3-23-23v-106c0-12.7,10.3-23,23-23s23,10.3,23,23v106ZM679,630.3l-15.9,106c-1.7,11.4-11.5,19.6-22.7,19.6s-2.3,0-3.4-.3c-12.6-1.9-21.2-13.6-19.3-26.1l15.9-106c1.9-12.6,13.5-21.2,26.1-19.3,12.6,1.9,21.2,13.6,19.3,26.1Z"/>
        <path d="M421.7,561.2c5.9,3.6,12.4,5.4,18.9,5.4,12,0,23.8-6,30.6-17,6.3-10.1,6.8-22.1,2.7-32.3l68.2-110.3c6.2-10,3.1-23-6.9-29.2-3.5-2.1-7.3-3.2-11.1-3.2-7.1,0-14,3.6-18.1,10.1l-68.2,110.3c-11,.9-21.5,6.7-27.7,16.8-10.5,16.9-5.2,39.1,11.7,49.5Z"/>
        <path d="M647.9,517.2c-4.1,10.2-3.6,22.2,2.7,32.3,6.8,11,18.6,17,30.6,17s13-1.7,18.9-5.4c16.9-10.4,22.1-32.6,11.6-49.5-6.2-10.1-16.7-15.9-27.7-16.8l-68.2-110.3c-4-6.5-11-10.1-18.1-10.1s-7.7,1-11.1,3.2c-10,6.2-13,19.2-6.9,29.2l68.2,110.3Z"/>
    </g>
</svg>