<?xml version="1.0" encoding="UTF-8"?>
<svg class="svg-icon-marker_square-activities-shopping_cart svg-icon-marker_square svg-icon-marker_square-activities" xmlns="http://www.w3.org/2000/svg" version="1.1" viewBox="0 0 800 800">
    <defs>
        <style>
            .svg-icon-marker-background { fill: #fff; }

        </style>
    </defs>
    <path class="svg-icon-marker-marker_square" d="M678.707,0H121.24C79.611,0,45.744,33.867,45.744,75.496v557.467c0,41.629,33.867,75.496,75.496,75.496h130.099c148.693,5.043,148.635,91.541,148.635,91.541,0,0-.058-86.499,148.636-91.541h130.097c41.629,0,75.496-33.867,75.496-75.496V75.496C754.203,33.868,720.336,0,678.707,0h0Z"/>
    <path class="svg-icon-marker-background" d="M139.566,48.525h520.814c25.017,0,45.297,20.28,45.297,45.297v520.814c0,25.017-20.28,45.297-45.297,45.297H139.566c-25.017,0-45.297-20.28-45.297-45.297V93.822c0-25.017,20.28-45.297,45.297-45.297Z"/>
    <g class="svg-icon-content" transform="translate(120, 75) scale(0.7)">
        <path d="M341.3,695c-9.1-6.2-20.3-9.8-32.1-9.8-7.9,0-15.5,1.6-22.4,4.5-10.3,4.4-19.1,11.6-25.2,20.8-6.2,9.1-9.8,20.3-9.8,32.1,0,7.9,1.6,15.5,4.5,22.4,4.4,10.3,11.6,19.1,20.8,25.2,9.2,6.2,20.3,9.8,32.1,9.8s15.5-1.6,22.3-4.5c10.3-4.4,19.1-11.6,25.3-20.8,6.2-9.1,9.8-20.3,9.8-32.1s-1.6-15.5-4.5-22.4c-4.4-10.3-11.6-19.1-20.8-25.2ZM330.5,751.6c-1.7,4.1-4.7,7.7-8.4,10.2-3.7,2.5-8.1,3.9-12.9,4-3.3,0-6.3-.6-9-1.8-4.1-1.7-7.7-4.7-10.2-8.4-2.5-3.7-3.9-8.1-4-12.9,0-3.2.7-6.2,1.8-9,1.7-4.1,4.7-7.7,8.4-10.2,3.7-2.5,8.1-3.9,12.9-3.9,3.2,0,6.2.7,9,1.8,4.1,1.7,7.7,4.7,10.2,8.4,2.5,3.7,3.9,8.1,3.9,12.9,0,3.2-.6,6.2-1.8,9Z"/>
        <path d="M656.2,695c-9.2-6.2-20.3-9.8-32.1-9.8-7.9,0-15.5,1.6-22.4,4.5-10.3,4.4-19.1,11.6-25.3,20.8-6.2,9.1-9.8,20.3-9.8,32.1,0,7.9,1.6,15.5,4.5,22.4,4.4,10.3,11.6,19.1,20.8,25.3,9.1,6.2,20.3,9.8,32.1,9.8s15.5-1.6,22.4-4.5c10.3-4.4,19.1-11.6,25.3-20.8,6.2-9.1,9.8-20.3,9.8-32.1,0-7.9-1.6-15.5-4.5-22.4-4.4-10.3-11.6-19.1-20.8-25.2ZM645.4,751.6c-1.7,4.1-4.7,7.7-8.4,10.2-3.7,2.5-8.1,3.9-12.9,4-3.2,0-6.2-.6-9-1.8-4.1-1.7-7.7-4.7-10.2-8.4-2.5-3.7-4-8.1-4-12.9s.6-6.2,1.8-9c1.8-4.1,4.7-7.7,8.4-10.2,3.7-2.5,8.1-3.9,12.9-3.9,3.2,0,6.2.7,9,1.8,4.1,1.7,7.7,4.7,10.2,8.4,2.5,3.7,4,8.1,4,12.9,0,3.2-.6,6.2-1.8,9Z"/>
        <path d="M768.1,149.6c-7.9-9.7-19.7-15.3-32.2-15.3H193.2l-18.5-63.5h0c-8.5-28.4-31.8-49.9-60.8-56.1L47.6.5c-11.2-2.4-22.3,4.7-24.7,16-2.4,11.2,4.7,22.3,16,24.7l66.3,14.2c14.1,3,25.5,13.5,29.6,27.4l121.2,416.5c-2.7,1.3-5.4,2.7-7.9,4.2-13.1,7.8-23.6,18.7-30.6,31.5-6.7,12.1-10.3,25.9-10.6,40h0v2.2h0c.3,11.1,2.6,21.7,6.7,31.4,6.6,15.5,17.5,28.6,31.2,37.9,13.7,9.3,30.4,14.8,48.2,14.7h389.9c11.5,0,20.8-9.3,20.8-20.8s-9.3-20.8-20.8-20.8h-389.9c-6.2,0-12-1.3-17.4-3.5-8-3.4-14.8-9-19.6-16.2-4.6-6.9-7.3-14.9-7.6-23.8.2-10.6,3.6-19.8,9.5-27.1,3.1-3.8,6.8-7.1,11.4-9.8,4.5-2.7,9.9-4.9,16.2-6.2l391.9-63.8c25.6-4.2,46-23.8,51.2-49.2l47.9-235.7h0c.6-2.8.8-5.5.8-8.3,0-9.5-3.3-18.8-9.4-26.3ZM369.8,444.6c-11.7,3.4-23.9-3.3-27.3-15l-57.1-195.4c-3.4-11.7,3.3-23.9,15-27.3,11.7-3.4,23.9,3.3,27.3,15l57.1,195.4c3.4,11.7-3.3,23.9-15,27.3ZM462,430.1c-11.7,3.4-23.9-3.3-27.3-15l-52.9-181.2c-3.4-11.7,3.3-23.9,15-27.3,11.7-3.4,23.9,3.3,27.3,15l52.9,181.2c3.4,11.7-3.3,23.9-15,27.3ZM554.4,416c-11.7,3.4-23.9-3.3-27.3-15l-48.9-167.5c-3.4-11.7,3.3-23.9,15-27.3,11.7-3.4,23.9,3.3,27.3,15l48.9,167.5c3.4,11.7-3.3,23.9-15,27.3ZM646.4,400.9c-11.7,3.4-23.9-3.3-27.3-15l-44.6-152.8c-3.4-11.7,3.3-23.9,15-27.3,11.7-3.4,23.9,3.3,27.3,15l44.7,152.8c3.4,11.7-3.3,23.9-15,27.3Z"/>
    </g>
</svg>