<?xml version="1.0" encoding="UTF-8"?>
<svg class="svg-icon-marker_square-activities-shopping_basket svg-icon-marker_square svg-icon-marker_square-activities" xmlns="http://www.w3.org/2000/svg" version="1.1" viewBox="0 0 800 800">
    <defs>
        <style>
            .svg-icon-marker-background { fill: #fff; }

        </style>
    </defs>
    <path class="svg-icon-marker-marker_square" d="M678.707,0H121.24C79.611,0,45.744,33.867,45.744,75.496v557.467c0,41.629,33.867,75.496,75.496,75.496h130.099c148.693,5.043,148.635,91.541,148.635,91.541,0,0-.058-86.499,148.636-91.541h130.097c41.629,0,75.496-33.867,75.496-75.496V75.496C754.203,33.868,720.336,0,678.707,0h0Z"/>
    <path class="svg-icon-marker-background" d="M139.566,48.525h520.814c25.017,0,45.297,20.28,45.297,45.297v520.814c0,25.017-20.28,45.297-45.297,45.297H139.566c-25.017,0-45.297-20.28-45.297-45.297V93.822c0-25.017,20.28-45.297,45.297-45.297Z"/>
    <g class="svg-icon-content" transform="translate(120, 75) scale(0.7)">
        <path d="M736.3,288.7h-50.9c6,33.6-8.4,68.9-39.1,87.9-13.6,8.4-29.1,12.8-45,12.8-29.9,0-57.2-15.2-72.9-40.6-11.1-18-14.7-39.5-11-60.2h-234.1c3.7,20.6.1,42.2-11,60.2-15.7,25.4-43,40.6-72.9,40.6s-31.5-4.4-45.1-12.8c-30.7-19-45.1-54.4-39.1-87.9h-50.9c-35.3,0-64,28.6-64,64s28.6,64,64,64h7.1l46.9,285.4c4.9,29.9,30.7,51.8,61,51.8h442.1c30.3,0,56.1-21.9,61-51.8l46.9-285.4h7.1c35.3,0,64-28.6,64-64s-28.7-64-64-64ZM273.1,679.8c-1.9.3-3.8.4-5.7.4-18.7,0-35-13.7-37.9-32.7l-26.6-177.1c-3.1-21,11.3-40.5,32.3-43.7,21-3.1,40.5,11.3,43.7,32.3l26.6,177.1c3.1,21-11.3,40.5-32.3,43.7ZM438.7,641.8c0,21.2-17.2,38.4-38.4,38.4s-38.4-17.2-38.4-38.4v-177.1c0-21.2,17.2-38.4,38.4-38.4s38.4,17.2,38.4,38.4v177.1ZM597.7,470.4l-26.6,177.1c-2.9,19-19.2,32.7-37.9,32.7s-3.8-.1-5.7-.4c-21-3.1-35.4-22.7-32.3-43.7l26.6-177.1c3.2-21,22.6-35.4,43.7-32.3,21,3.1,35.4,22.7,32.3,43.7Z"/>
        <path d="M167.7,354.8c9.8,6.1,20.8,9,31.6,9,20.1,0,39.8-10.1,51.1-28.5,10.5-16.9,11.4-36.9,4.5-54l114-184.2c10.3-16.7,5.1-38.5-11.5-48.8-5.8-3.6-12.3-5.3-18.6-5.3-11.9,0-23.5,6-30.2,16.8l-114,184.2c-18.4,1.5-35.9,11.2-46.3,28.1-17.5,28.2-8.7,65.2,19.5,82.7Z"/>
        <path d="M545.7,281.4c-6.9,17.1-6,37.1,4.4,54,11.4,18.4,31,28.5,51.1,28.5s21.7-2.9,31.6-9c28.2-17.5,36.9-54.5,19.5-82.7-10.4-16.9-27.9-26.6-46.3-28.1l-114-184.2c-6.7-10.9-18.3-16.8-30.2-16.8s-12.8,1.7-18.6,5.3c-16.7,10.3-21.8,32.1-11.5,48.8l114,184.2Z"/>
    </g>
</svg>