<?xml version="1.0" encoding="UTF-8"?>
<svg class="svg-icon-interface-arrow_down_bold svg-icon svg-icon-interface" xmlns="http://www.w3.org/2000/svg" version="1.1" viewBox="0 0 800 800">
    <path d="M646.644,362.434l-185.466,207.089V60.928C461.178,27.278,433.899,0,400.25,0h-.374c-33.65,0-60.928,27.278-60.928,60.928v508.832s-185.586-207.308-185.586-207.308c-22.757-25.421-61.952-27.201-86.92-3.948h0c-24.414,22.738-26.001,60.882-3.56,85.569l314.453,345.923c12.123,13.336,33.095,13.338,45.22.004l314.556-345.926c22.448-24.686,20.864-62.836-3.553-85.576l-.003-.002c-24.964-23.25-64.152-21.474-86.911,3.938Z"/>
</svg>