<?xml version="1.0" encoding="UTF-8"?>
<svg id="svg-icon-hsr" class="svg-icon" xmlns="http://www.w3.org/2000/svg" version="1.1" viewBox="0 0 800 800">
    <path d="M267.243,723.86l10.739-19.777h246.042l10.74,19.777h-267.521ZM550.639,753.093l13.686,25.203H237.682l13.686-25.203h299.271,0Z"/>
    <path d="M704.057,234.619c0-74.652-30-165.64-167.08-165.64h-127.027c3.321-13.364,9.984-24.854,19.767-33.83,13.656-12.53,32.685-19.43,53.578-19.43h88.521V0H228.184v15.719h88.521c20.894,0,39.921,6.9,53.578,19.43,9.783,8.976,16.446,20.466,19.767,33.83h-112.808c-149.364,0-179.364,73.611-179.364,144.682,0,308.492,79.547,437.953,149.377,456.444l-102.109,129.895h46.908l77.689-124.807c46.031,8.784,94.162,8.785,131.225,8.785,36.598,0,83.987-.003,129.491-8.461l77.486,124.482h46.908l-101.78-129.476c70.52-18.255,150.984-148.369,150.984-435.904ZM380.166,23.323h0c-3.017-2.768-6.246-5.303-9.653-7.604h58.979c-3.408,2.301-6.636,4.836-9.653,7.604-8.613,7.902-15.248,17.336-19.836,27.998-4.588-10.662-11.223-20.096-19.836-27.998ZM279.1,599.788h0c-35.615,7.967-53.644-20.406-64.336-38.066-10.692-17.661-44.246-87.748-21.517-83.516s98.729,118.701,85.853,121.582ZM399.5,355.93c-156.031,0-262.576-95.136-262.576-143.477,0-96.517,76.882-6.314,262.576-6.254,185.694-.06,262.576-90.263,262.576,6.254,0,48.341-106.545,143.477-262.576,143.477ZM520.9,599.786h0c-12.875-2.879,63.125-117.349,85.853-121.581,22.729-4.232-10.825,65.856-21.517,83.516-10.692,17.661-28.721,46.033-64.336,38.065Z"/>
</svg>