<?xml version="1.0" encoding="UTF-8"?>
<svg class="svg-icon-modes-rrt svg-icon svg-icon-modes" xmlns="http://www.w3.org/2000/svg" version="1.1" viewBox="0 0 800 800">
    <path d="M534.764,723.86h-267.522l10.74-19.777h246.042l10.74,19.777ZM550.639,753.093H251.368l-13.686,25.203h326.643l-13.686-25.203Z"/>
    <path d="M643.808,67.234h-232.359c3.471-13.969,10.436-25.979,20.662-35.361,14.274-13.097,34.165-20.31,56.003-20.31h92.528V-4.868H221.455V11.563h92.528c21.84,0,41.728,7.212,56.003,20.31,10.226,9.382,17.19,21.392,20.662,35.361h-234.457c-33,0-60,27-60,60v487.616c0,33,27,60,60,60h87.334l-98.379,125.15h46.908l81.172-125.15h258.256l76.462,125.15h46.908l-98.379-125.15h87.334c33,0,60-27,60-60V127.234c0-33-27-60-60-60ZM380.316,19.511h-.001c-3.154-2.893-6.529-5.543-10.09-7.948h61.649c-3.562,2.405-6.936,5.055-10.09,7.948-9.003,8.26-15.938,18.121-20.734,29.265-4.796-11.145-11.731-21.006-20.734-29.265ZM198.728,622.315c-25.13,0-45.501-20.372-45.501-45.501s20.372-45.501,45.501-45.501,45.501,20.372,45.501,45.501-20.372,45.501-45.501,45.501ZM601.377,619.976c-25.13,0-45.501-20.372-45.501-45.501s20.372-45.501,45.501-45.501,45.501,20.372,45.501,45.501-20.372,45.501-45.501,45.501ZM646.878,421.774c0,33-27,60-60,60H213.122c-33,0-60-27-60-60v-237.223c0-33,27-60,60-60h373.757c33,0,60,27,60,60v237.223Z"/>
</svg>