<?xml version="1.0" encoding="UTF-8"?>
<svg id="svg-icon-subway" class="svg-icon" xmlns="http://www.w3.org/2000/svg" version="1.1" viewBox="0 0 800 800">
    <path d="M289.593,528.365c0,17.811-14.439,32.25-32.25,32.25s-32.25-14.439-32.25-32.25,14.439-32.25,32.25-32.25,32.25,14.439,32.25,32.25ZM542.731,494.457c-17.811,0-32.25,14.439-32.25,32.25s14.438,32.25,32.25,32.25,32.25-14.439,32.25-32.25-14.439-32.25-32.25-32.25Z"/>
    <path d="M532.455,207.811h-264.911c-23.39,0-42.527,19.137-42.527,42.527v168.139c0,23.39,19.137,42.527,42.527,42.527h264.91c23.39,0,42.527-19.137,42.527-42.527h0v-168.139c0-23.39-19.137-42.527-42.527-42.527Z"/>
    <path d="M400.814.001C179.901.001.815,179.087.815,400s179.086,399.999,399.999,399.999,399.999-179.086,399.999-399.999S621.727.001,400.814.001ZM284.952,671.171l9.7-17.863h212.117l9.7,17.863h-231.517ZM305.904,632.588l7.612-14.018h174.389l7.612,14.018h-189.614ZM615.332,555.324c0,23.39-19.137,42.527-42.527,42.527h-61.9l69.729,88.704h-33.247l-54.195-88.704h-183.046l-57.533,88.704h-33.247l69.729-88.704h-61.9c-23.39,0-42.527-19.137-42.527-42.527V209.712c0-23.39,19.137-42.527,42.527-42.527h345.612c23.39,0,42.527,19.137,42.527,42.527v345.612Z"/>
</svg>