<?xml version="1.0" encoding="UTF-8"?>
<svg class="svg-icon-modes-train_electric svg-icon svg-icon-modes" xmlns="http://www.w3.org/2000/svg" version="1.1" viewBox="0 0 800 800">
    <path d="M704.057,507.82V234.619c0-62.285,0-165.64-137.08-165.64h-157.027c3.321-13.364,9.984-24.854,19.767-33.83,13.656-12.53,32.685-19.43,53.578-19.43h88.521V0H228.184v15.719h88.521c20.894,0,39.921,6.9,53.578,19.43,9.783,8.976,16.446,20.466,19.767,33.83h-142.808c-149.364,0-149.364,82.397-149.364,144.682v294.159c0,100.653,79.547,143.794,149.377,162.285l-102.109,129.895h46.908l77.689-124.807c46.031,8.784,94.162,8.785,131.225,8.785,36.598,0,83.987-.003,129.491-8.461l77.486,124.482h46.908l-101.78-129.476c70.52-18.255,150.984-61.281,150.984-162.705v.002ZM380.164,23.323c-3.017-2.768-6.246-5.303-9.653-7.604h58.979c-3.408,2.301-6.636,4.836-9.653,7.604-8.613,7.902-15.248,17.336-19.836,27.998-4.588-10.662-11.223-20.096-19.836-27.998h0ZM189.886,594.214c-23.824,0-43.137-20.238-43.137-45.203s19.313-45.203,43.137-45.203,43.137,20.238,43.137,45.203-19.313,45.203-43.137,45.203h0ZM149.982,235.771c0-75.804,166.566-75.497,250.986-75.497s250.986-9.377,250.986,75.497c0,42.518-10,278.037-250.986,278.037s-250.986-233.53-250.986-278.037ZM610.114,594.214c-23.824,0-43.137-20.238-43.137-45.203s19.313-45.203,43.137-45.203,43.137,20.238,43.137,45.203-19.313,45.203-43.137,45.203Z"/>
    <path d="M524.024,704.083h-246.042l-10.739,19.777h267.521l-10.74-19.777Z"/>
    <path d="M550.639,753.093H251.368l-13.686,25.203h326.643l-13.686-25.203Z"/>
</svg>