<?xml version="1.0" encoding="UTF-8"?>
<svg class="svg-icon-marker_round-activities-luggages svg-icon-marker_round svg-icon-marker_round-activities" xmlns="http://www.w3.org/2000/svg" version="1.1" viewBox="0 0 800 800">
    <defs>
        <style>
            .svg-icon-marker-background { fill: #fff; }

        </style>
    </defs>
    <path class="svg-icon-marker-marker_round" d="M678.058,289.282c.01-.256.02-.513.029-.769.044-1.27.087-2.539.113-3.813.046-1.971.075-3.946.075-5.925C678.276,125.068,553.208,0,399.501,0S120.726,125.068,120.726,278.775h0c0,.007,0,.015,0,.022,0,1.966.03,3.927.075,5.886.027,1.301.071,2.597.116,3.893.008.218.016.436.025.654,1.311,35.36,9.235,69.057,22.578,99.889,66.594,165.882,256.216,300.297,256.216,410.756l.133-7.452.133,7.452c0-110.815,190.349-245.74,256.184-412.361,12.919-30.379,20.579-63.506,21.873-98.232Z"/>
    <path class="svg-icon-marker-background" d="M168.817,278.775c0-127.191,103.493-230.684,230.684-230.684s230.684,103.493,230.684,230.684-103.493,230.684-230.684,230.684-230.684-103.493-230.684-230.684h0Z"/>
    <g class="svg-icon-content" transform="translate(240, 120) scale(0.4)">
        <path class="svg-icon-activities-luggages-small" d="M106.395,430.412c0-29.404,23.836-53.24,53.24-53.24h35.493c29.404,0,53.24,23.836,53.24,53.24v266.2H106.395v-266.2ZM70.902,448.159h-17.747C23.752,448.159-.085,471.995-.085,501.399v141.974c0,29.404,23.836,53.24,53.24,53.24h17.747v-248.454ZM283.862,696.612h17.747c29.404,0,53.24-23.836,53.24-53.24v-141.974c0-29.404-23.836-53.24-53.24-53.24h-17.747v248.454ZM141.889,448.159h70.987v-17.747c0-9.801-7.945-17.747-17.747-17.747h-35.493c-9.801,0-17.747,7.945-17.747,17.747v17.747Z" fill-rule="evenodd"/>
        <path class="svg-icon-activities-luggages-large" d="M651.4,103.388c31.275,0,56.895,24.2,59.16,54.895l.163,4.427v59.322h29.661c31.275,0,56.895,24.2,59.16,54.895l.163,4.427v326.274c0,32.764-26.559,59.322-59.322,59.322,0,16.382-13.279,29.661-29.661,29.661-15.212,0-27.748-11.45-29.462-26.202l-.2-3.459h-177.967c0,16.382-13.28,29.661-29.661,29.661s-29.661-13.279-29.661-29.661c-31.274,0-56.895-24.199-59.16-54.895l-.163-4.427v-326.274c0-31.274,24.2-56.895,54.895-59.16l4.427-.163h29.661v-59.322c0-31.274,24.2-56.895,54.895-59.16l4.427-.163h118.645ZM532.755,340.678c-16.381,0-29.661,13.279-29.661,29.661v148.306c0,16.382,13.28,29.661,29.661,29.661s29.661-13.279,29.661-29.661v-148.306c0-16.382-13.279-29.661-29.661-29.661ZM651.4,340.678c-15.212,0-27.748,11.45-29.462,26.202l-.2,3.459v148.306c0,16.382,13.279,29.661,29.661,29.661,15.212,0,27.748-11.45,29.462-26.202l.2-3.459v-148.306c0-16.382-13.279-29.661-29.661-29.661ZM651.4,162.71h-118.645v59.322h118.645v-59.322Z" fill-rule="evenodd"/>
    </g>
</svg>