<?xml version="1.0" encoding="UTF-8"?>
<svg class="svg-icon-marker_round-activities-music svg-icon-marker_round svg-icon-marker_round-activities" xmlns="http://www.w3.org/2000/svg" version="1.1" viewBox="0 0 800 800">
    <defs>
        <style>
            .svg-icon-marker-background { fill: #fff; }

        </style>
    </defs>
    <path class="svg-icon-marker-marker_round" d="M678.058,289.282c.01-.256.02-.513.029-.769.044-1.27.087-2.539.113-3.813.046-1.971.075-3.946.075-5.925C678.276,125.068,553.208,0,399.501,0S120.726,125.068,120.726,278.775h0c0,.007,0,.015,0,.022,0,1.966.03,3.927.075,5.886.027,1.301.071,2.597.116,3.893.008.218.016.436.025.654,1.311,35.36,9.235,69.057,22.578,99.889,66.594,165.882,256.216,300.297,256.216,410.756l.133-7.452.133,7.452c0-110.815,190.349-245.74,256.184-412.361,12.919-30.379,20.579-63.506,21.873-98.232Z"/>
    <path class="svg-icon-marker-background" d="M168.817,278.775c0-127.191,103.493-230.684,230.684-230.684s230.684,103.493,230.684,230.684-103.493,230.684-230.684,230.684-230.684-103.493-230.684-230.684h0Z"/>
    <g class="svg-icon-content" transform="translate(240, 120) scale(0.4)">
        <path d="M482.8,626.7c-47.9-147.8-69-213.2-116.9-361-7.8-30.4-10.8-35.5,8.9-38.8,76.9-12.6,163.2,9.9,206,75.1,34.8,54.6,21.1,124.3,12.6,185.2-1.6,14.7,14.6-65.1,21-85.3,22.7-71.5-9.5-149.5-73.8-186.6-78.6-45.5-183.5-63.2-230.9-147-16.9-20.8-32.8-82.5-68.7-59.6,67,206.8,122.5,381.4,189.5,588.3-74.2-30.1-141.2,15.5-159.1,54.1-27.8,60.2-15.1,140.7,46.9,145.8,91.5,7.5,185.2-106.3,164.5-170.1Z"/>
    </g>
</svg>