<?xml version="1.0" encoding="UTF-8"?>
<svg class="svg-icon-marker_square-activities-music svg-icon-marker_square svg-icon-marker_square-activities" xmlns="http://www.w3.org/2000/svg" version="1.1" viewBox="0 0 800 800">
    <defs>
        <style>
            .svg-icon-marker-background { fill: #fff; }

        </style>
    </defs>
    <path class="svg-icon-marker-marker_square" d="M678.707,0H121.24C79.611,0,45.744,33.867,45.744,75.496v557.467c0,41.629,33.867,75.496,75.496,75.496h130.099c148.693,5.043,148.635,91.541,148.635,91.541,0,0-.058-86.499,148.636-91.541h130.097c41.629,0,75.496-33.867,75.496-75.496V75.496C754.203,33.868,720.336,0,678.707,0h0Z"/>
    <path class="svg-icon-marker-background" d="M139.566,48.525h520.814c25.017,0,45.297,20.28,45.297,45.297v520.814c0,25.017-20.28,45.297-45.297,45.297H139.566c-25.017,0-45.297-20.28-45.297-45.297V93.822c0-25.017,20.28-45.297,45.297-45.297Z"/>
    <g class="svg-icon-content" transform="translate(120, 75) scale(0.7)">
        <path d="M482.8,626.7c-47.9-147.8-69-213.2-116.9-361-7.8-30.4-10.8-35.5,8.9-38.8,76.9-12.6,163.2,9.9,206,75.1,34.8,54.6,21.1,124.3,12.6,185.2-1.6,14.7,14.6-65.1,21-85.3,22.7-71.5-9.5-149.5-73.8-186.6-78.6-45.5-183.5-63.2-230.9-147-16.9-20.8-32.8-82.5-68.7-59.6,67,206.8,122.5,381.4,189.5,588.3-74.2-30.1-141.2,15.5-159.1,54.1-27.8,60.2-15.1,140.7,46.9,145.8,91.5,7.5,185.2-106.3,164.5-170.1Z"/>
    </g>
</svg>