<?xml version="1.0" encoding="UTF-8"?>
<svg id="svg-icon-music" class="svg-icon" xmlns="http://www.w3.org/2000/svg" version="1.1" viewBox="0 0 800 800">
    <path d="M482.8,626.7c-47.9-147.8-69-213.2-116.9-361-7.8-30.4-10.8-35.5,8.9-38.8,76.9-12.6,163.2,9.9,206,75.1,34.8,54.6,21.1,124.3,12.6,185.2-1.6,14.7,14.6-65.1,21-85.3,22.7-71.5-9.5-149.5-73.8-186.6-78.6-45.5-183.5-63.2-230.9-147-16.9-20.8-32.8-82.5-68.7-59.6,67,206.8,122.5,381.4,189.5,588.3-74.2-30.1-141.2,15.5-159.1,54.1-27.8,60.2-15.1,140.7,46.9,145.8,91.5,7.5,185.2-106.3,164.5-170.1Z"/>
</svg>