<?xml version="1.0" encoding="UTF-8"?>
<svg id="svg-icon-sports_run" class="svg-icon" xmlns="http://www.w3.org/2000/svg" version="1.1" viewBox="0 0 800 800">
    <path d="M33,567.7c-22,4.2-36.5,25.5-32.2,47.5,3.7,19.4,20.8,32.9,39.8,32.9s5.1-.3,7.7-.8l167.1-32.1c9.5-1.9,18.1-7,24.1-14.6l71.7-90.5-24-12.2c-17.7-8.9-30-25.1-34.3-44.8l-67.7,85.3-152.3,29.2ZM628,37.1c49.1,0,88.9,39.8,88.9,88.9s-39.8,88.9-88.9,88.9-88.9-39.8-88.9-88.9,39.8-88.9,88.9-88.9ZM433.9,103.8c-9.4-9.6-18.1-13.4-27.6-13.4s-6.9.5-10.6,1.4l-152.6,36.2c-21.1,5-34.1,26.2-29.1,47.2,4.3,18.1,20.3,30.2,38.1,30.2s6.1-.3,9.1-1.1l130-30.8c8.4,9.4,50.7,55.2,58.4,63.3h0c-53.7,57.5-107.5,115-161.2,172.6-.8.9-1.6,1.9-2.4,2.8-15.7,20-10.9,51.4,12.7,63.3l28.6,14.6,136.2,69.5-85.6,138.6c-11.7,19.1-5.8,44,13.2,55.9,6.7,4.1,14,6.1,21.3,6.1h0c13.6,0,26.9-6.8,34.6-19.2l108.7-176.1c6-9.7,7.6-21.4,4.5-32.3-3.1-11-10.6-20.1-20.8-25.2l-111.6-56.8,117.4-125.6,88.6,75.1c7.3,6.2,16.4,9.3,25.3,9.3s19.2-3.5,26.7-10.5l101.7-94.8c15.9-14.8,16.8-39.6,2-55.4-7.8-8.3-18.2-12.5-28.7-12.5s-19.2,3.5-26.7,10.5l-76.1,70.8c0,0-190.8-179.3-224.1-213.5Z"/>
</svg>