<?xml version="1.0" encoding="UTF-8"?>
<svg class="svg-icon-marker_round-activities-walk svg-icon-marker_round svg-icon-marker_round-activities" xmlns="http://www.w3.org/2000/svg" version="1.1" viewBox="0 0 800 800">
    <defs>
        <style>
            .svg-icon-marker-background { fill: #fff; }
        </style>
    </defs>
    <path class="svg-icon-marker-marker_round" d="M678.058,289.282c.01-.256.02-.513.029-.769.044-1.27.087-2.539.113-3.813.046-1.971.075-3.946.075-5.925C678.276,125.068,553.208,0,399.501,0S120.726,125.068,120.726,278.775h0c0,.007,0,.015,0,.022,0,1.966.03,3.927.075,5.886.027,1.301.071,2.597.116,3.893.008.218.016.436.025.654,1.311,35.36,9.235,69.057,22.578,99.889,66.594,165.882,256.216,300.297,256.216,410.756l.133-7.452.133,7.452c0-110.815,190.349-245.74,256.184-412.361,12.919-30.379,20.579-63.506,21.873-98.232Z"/>
    <path class="svg-icon-marker-background" d="M168.817,278.775c0-127.191,103.493-230.684,230.684-230.684s230.684,103.493,230.684,230.684-103.493,230.684-230.684,230.684-230.684-103.493-230.684-230.684h0Z"/>
    <g class="svg-icon-content" transform="translate(240, 120) scale(0.4)">
        <path d="M445.359,0c39.598,0,71.699,32.1,71.699,71.699s-32.1,71.699-71.699,71.699-71.699-32.1-71.699-71.699S405.76,0,445.359,0Z"/>
        <path d="M613.614,342.15s-38.452-10.217-66.582-18.923c-53.236-16.478-73.213-54.906-78.955-96.369-2.971-21.456-12.554-29.014-26.728-36.604-20.963-11.227-61.468-16.692-96.857-9.123-28.224,6.037-99.954,57.282-127.842,75.702-7.214,4.765-12.096,12.331-13.464,20.868l-18.587,110.911c-4.457,22.277,7.932,43.953,30.21,48.412,22.279,4.455,43.953-9.989,48.411-32.269l16.547-86.162c1.533-7.985,6.157-15.042,12.865-19.637l41.296-28.285s-3.831,32.78-12.439,69.49-20.374,93.246,5.973,127.658l-162.88,269.635c-11.138,19.804-4.116,44.886,15.687,56.027,19.802,11.136,44.885,4.114,56.024-15.686l141.449-238.815,161.801,242.698c12.601,18.903,38.144,24.013,57.047,11.412,18.907-12.605,24.013-38.148,11.412-57.051,0,0-150.736-222.919-180.965-271.446l25.127-108.404s13.602,23.81,42.968,32.23c29.366,8.42,97.219,27.877,97.219,27.877,3.553,1.019,7.13,1.505,10.65,1.505,16.768,0,32.202-11.025,37.054-27.947,5.872-20.475-5.967-41.833-26.442-47.704Z"/>
    </g>
</svg>