<?xml version="1.0" encoding="UTF-8"?>
<svg class="svg-icon-marker_square-activities-walk svg-icon-marker_square svg-icon-marker_square-activities" xmlns="http://www.w3.org/2000/svg" version="1.1" viewBox="0 0 800 800">
    <defs>
        <style>
            .svg-icon-marker-background { fill: #fff; }
        </style>
    </defs>
    <path class="svg-icon-marker-marker_square" d="M678.707,0H121.24C79.611,0,45.744,33.867,45.744,75.496v557.467c0,41.629,33.867,75.496,75.496,75.496h130.099c148.693,5.043,148.635,91.541,148.635,91.541,0,0-.058-86.499,148.636-91.541h130.097c41.629,0,75.496-33.867,75.496-75.496V75.496C754.203,33.868,720.336,0,678.707,0h0Z"/>
    <path class="svg-icon-marker-background" d="M139.566,48.525h520.814c25.017,0,45.297,20.28,45.297,45.297v520.814c0,25.017-20.28,45.297-45.297,45.297H139.566c-25.017,0-45.297-20.28-45.297-45.297V93.822c0-25.017,20.28-45.297,45.297-45.297Z"/>
    <g class="svg-icon-content" transform="translate(120, 75) scale(0.7)">
        <path d="M445.359,0c39.598,0,71.699,32.1,71.699,71.699s-32.1,71.699-71.699,71.699-71.699-32.1-71.699-71.699S405.76,0,445.359,0Z"/>
        <path d="M613.614,342.15s-38.452-10.217-66.582-18.923c-53.236-16.478-73.213-54.906-78.955-96.369-2.971-21.456-12.554-29.014-26.728-36.604-20.963-11.227-61.468-16.692-96.857-9.123-28.224,6.037-99.954,57.282-127.842,75.702-7.214,4.765-12.096,12.331-13.464,20.868l-18.587,110.911c-4.457,22.277,7.932,43.953,30.21,48.412,22.279,4.455,43.953-9.989,48.411-32.269l16.547-86.162c1.533-7.985,6.157-15.042,12.865-19.637l41.296-28.285s-3.831,32.78-12.439,69.49-20.374,93.246,5.973,127.658l-162.88,269.635c-11.138,19.804-4.116,44.886,15.687,56.027,19.802,11.136,44.885,4.114,56.024-15.686l141.449-238.815,161.801,242.698c12.601,18.903,38.144,24.013,57.047,11.412,18.907-12.605,24.013-38.148,11.412-57.051,0,0-150.736-222.919-180.965-271.446l25.127-108.404s13.602,23.81,42.968,32.23c29.366,8.42,97.219,27.877,97.219,27.877,3.553,1.019,7.13,1.505,10.65,1.505,16.768,0,32.202-11.025,37.054-27.947,5.872-20.475-5.967-41.833-26.442-47.704Z"/>
    </g>
</svg>