<?xml version="1.0" encoding="iso-8859-1"?>
<!-- Uploaded to: SVG Repo, www.svgrepo.com, Generator: SVG Repo Mixer Tools -->
<!DOCTYPE svg PUBLIC "-//W3C//DTD SVG 1.1//EN" "http://www.w3.org/Graphics/SVG/1.1/DTD/svg11.dtd">
<svg fill="#000000" version="1.1" id="Capa_1" xmlns="http://www.w3.org/2000/svg" xmlns:xlink="http://www.w3.org/1999/xlink" 
	 width="800px" height="800px" viewBox="0 0 925.801 925.801"
	 xml:space="preserve">
<g>
	<g>
		<path d="M786.101,857.801h-30V443.6c0-9-4.801-17.3-12.6-21.7l-55.5-31.5V17c0-9.4-7.602-17-17-17h-3.5c-9.4,0-17,7.6-17,17v352
			L615.7,349.2V146.8c0-8.5-4.301-16.4-11.4-21L423.3,8.6c-8.3-5.3-18.9-5.3-27.2,0l-181,117.2c-7.1,4.6-11.4,12.5-11.4,21v202.5
			L75.8,421.9c-7.8,4.4-12.6,12.7-12.6,21.7v414.201h-30c-13.8,0-25,11.199-25,25v18c0,13.799,11.2,25,25,25h753
			c13.801,0,25-11.201,25-25v-18C811.101,869,799.899,857.801,786.101,857.801z M656.7,517.9c13.801,0,25,11.199,25,25v82
			c0,13.799-11.199,25-25,25h-82c-13.801,0-25-11.201-25-25v-82c0-13.801,11.199-25,25-25H656.7z M332.201,208.2
			c0-42.8,34.699-77.5,77.5-77.5c42.8,0,77.5,34.7,77.5,77.5c0,21.5-8.801,40.9-22.9,55c-14,13.9-33.299,22.5-54.599,22.5
			c-21.301,0-40.601-8.6-54.601-22.5C340.9,249.1,332.201,229.6,332.201,208.2z M137.6,542.9c0-13.801,11.2-25,25-25h82
			c13.8,0,25,11.199,25,25v82c0,13.799-11.2,25-25,25h-82c-13.8,0-25-11.201-25-25V542.9L137.6,542.9z M302.8,756.4
			c0-57.4,46.5-103.9,103.9-103.9l0,0c57.399,0,103.9,46.5,103.9,103.9v101.4H302.8V756.4z"/>
		<path d="M902.601,51.8c-58.6-8.9-109.6-42.1-168.201-50.9c-8.299-0.9-15,5.9-15,14.1c0,33.9,0,67.8,0,101.6
			c0,8.3,6.701,14.9,15,15.9c58.602,8.9,109.602,42.1,168.201,50.9c8.299,0.9,15-5.9,15-14.1c0-33.9,0-67.8,0-101.6
			C917.601,59.4,910.899,52.7,902.601,51.8z"/>
	</g>
</g>
</svg>