<?xml version="1.0" encoding="iso-8859-1"?>
<!-- Uploaded to: SVG Repo, www.svgrepo.com, Generator: SVG Repo Mixer Tools -->
<!DOCTYPE svg PUBLIC "-//W3C//DTD SVG 1.1//EN" "http://www.w3.org/Graphics/SVG/1.1/DTD/svg11.dtd">
<svg fill="#000000" version="1.1" id="Capa_1" xmlns="http://www.w3.org/2000/svg" xmlns:xlink="http://www.w3.org/1999/xlink" 
	 width="800px" height="800px" viewBox="0 0 400 399.999" xml:space="preserve"
	>
<g>
	<g>
		<path d="M376.865,360.011V179.26c0-9.434-7.646-17.082-17.08-17.082h-81.112v-49.179c0-4.645-2.517-8.926-6.571-11.188
			l-65.86-36.729c-0.363-0.203-0.738-0.381-1.115-0.545v-20.96h35.465c2.829,0,5.124-2.295,5.124-5.125V12.566
			c0-2.83-2.295-5.125-5.124-5.125h-35.465V5.125c0-2.83-2.293-5.125-5.124-5.125c-2.831,0-5.124,2.295-5.124,5.125v59.412
			c-0.377,0.165-0.752,0.343-1.116,0.545l-65.86,36.73c-4.058,2.261-6.573,6.543-6.573,11.188v49.178H40.216
			c-9.434,0-17.08,7.648-17.08,17.082v180.75c-7.257,3.284-12.308,10.583-12.308,19.064c0,11.558,9.368,20.925,20.924,20.925
			h336.496c11.556,0,20.924-9.367,20.924-20.925C389.171,370.593,384.121,363.294,376.865,360.011z M310.841,221.716
			c0-5.495,4.455-9.95,9.954-9.95H339.4c5.494,0,9.95,4.455,9.95,9.95v18.607c0,5.495-4.456,9.95-9.95,9.95h-18.604
			c-5.499,0-9.954-4.455-9.954-9.95V221.716L310.841,221.716z M310.841,281.5c0-5.495,4.455-9.95,9.954-9.95H339.4
			c5.494,0,9.95,4.455,9.95,9.95v18.605c0,5.495-4.456,9.95-9.95,9.95h-18.604c-5.499,0-9.954-4.455-9.954-9.95V281.5L310.841,281.5
			z M251.06,221.716c0-5.495,4.453-9.95,9.948-9.95h18.607c5.492,0,9.949,4.455,9.949,9.95v18.607c0,5.495-4.457,9.95-9.949,9.95
			h-18.607c-5.495,0-9.948-4.455-9.948-9.95V221.716z M251.06,281.5c0-5.495,4.453-9.95,9.948-9.95h18.607
			c5.492,0,9.949,4.455,9.949,9.95v18.605c0,5.495-4.457,9.95-9.949,9.95h-18.607c-5.495,0-9.948-4.455-9.948-9.95V281.5z
			 M200,113.039c15.566,0,28.185,12.618,28.185,28.184S215.567,169.406,200,169.406c-15.566,0-28.184-12.618-28.184-28.184
			S184.434,113.039,200,113.039z M171.777,274.836c0-5.495,4.454-9.95,9.953-9.95h36.541c5.496,0,9.95,4.455,9.95,9.95v78.39
			c0,1.794-0.479,3.475-1.312,4.929h-53.814c-0.833-1.454-1.315-3.135-1.315-4.929L171.777,274.836L171.777,274.836z
			 M110.434,221.716c0-5.495,4.454-9.95,9.949-9.95h18.606c5.495,0,9.949,4.455,9.949,9.95v18.607c0,5.495-4.454,9.95-9.949,9.95
			h-18.606c-5.495,0-9.949-4.455-9.949-9.95V221.716z M110.434,281.5c0-5.495,4.454-9.95,9.949-9.95h18.606
			c5.495,0,9.949,4.455,9.949,9.95v18.605c0,5.495-4.454,9.95-9.949,9.95h-18.606c-5.495,0-9.949-4.455-9.949-9.95V281.5z
			 M50.647,221.716c0-5.495,4.454-9.95,9.952-9.95h18.604c5.497,0,9.952,4.455,9.952,9.95v18.607c0,5.495-4.455,9.95-9.952,9.95
			H60.6c-5.498,0-9.952-4.455-9.952-9.95V221.716z M50.647,281.5c0-5.495,4.454-9.95,9.952-9.95h18.604
			c5.497,0,9.952,4.455,9.952,9.95v18.605c0,5.495-4.455,9.95-9.952,9.95H60.6c-5.498,0-9.952-4.455-9.952-9.95V281.5z"/>
	</g>
</g>
</svg>