<?xml version="1.0" encoding="UTF-8"?>
<svg id="svg-icon-air_balloon" class="svg-icon" xmlns="http://www.w3.org/2000/svg" xmlns:xlink="http://www.w3.org/1999/xlink" version="1.1" viewBox="0 0 800 800">
    <path d="M313.745,457.184c-36.959-112.845-40.395-233.153-9.936-347.923l26.919-101.423c-41.533,9.437-81.648,27.516-117.748,54.261-47.133,34.919-77.642,86.134-85.908,144.208-8.269,58.073,6.739,115.766,42.255,162.45l151.367,198.973h29.261l-36.209-110.545Z"/>
    <path d="M478.296,663.008l6.931-57.536h-38.016l-6.166,51.188h-23.355c.43-1.583.681-3.241.681-4.959v-16.727c0-10.423-8.452-18.872-18.872-18.872s-18.872,8.448-18.872,18.872v16.727c0,1.719.248,3.377.681,4.959h-23.353l-6.166-51.186h-38.019l6.93,57.536c-7.119,5.523-11.72,14.141-11.72,23.848v83.059c0,16.68,13.522,30.202,30.202,30.202h120.631c16.68,0,30.2-13.522,30.2-30.202v-83.059c0-9.708-4.602-18.323-11.719-23.85Z"/>
    <path d="M671.93,206.308c-8.266-58.073-38.777-109.288-85.908-144.208-36.197-26.819-76.433-44.923-118.084-54.341l26.994,101.028c30.745,115.066,27.4,235.714-9.673,348.903l-36.042,110.041h29.095l151.364-198.973c35.516-46.686,50.522-104.377,42.255-162.45Z"/>
    <path d="M458.465,118.531L427.298,1.872l1.414-.378c-19.031-1.8-38.183-1.833-57.219-.108l-31.202,117.555c-28.584,107.698-25.362,220.6,9.323,326.492l40.056,122.295h19.827l39.891-121.788c34.787-106.216,37.927-219.431,9.077-327.409Z"/>
</svg>