<?xml version="1.0" encoding="UTF-8"?>
<svg class="svg-icon-modes-air_balloon_with_question_mark svg-icon svg-icon-modes" xmlns="http://www.w3.org/2000/svg" xmlns:xlink="http://www.w3.org/1999/xlink" version="1.1" viewBox="0 0 800 800">
    <defs>
        <style>
            .svg-icon-opacity_half { opacity: .5; }
        </style>
    </defs>
    <path class="svg-icon-opacity_half" d="M623.482,269.082v-19.975c0-17.276,3.686-32.299,11.067-45.079,7.376-12.775,20.873-26.361,40.489-40.76,18.896-13.497,31.354-24.471,37.386-32.932,6.027-8.457,9.043-17.904,9.043-28.343,0-11.696-4.318-20.604-12.957-26.724-8.638-6.116-20.696-9.178-36.171-9.178-26.993,0-57.766,8.819-92.317,26.454l-29.423-59.116C590.728,10.938,633.288-.311,678.278-.311c37.069,0,66.539,8.908,88.403,26.724,21.865,17.815,32.797,41.57,32.797,71.262,0,19.798-4.5,36.893-13.496,51.288-9.001,14.399-26.096,30.595-51.288,48.588-17.275,12.78-28.208,22.498-32.797,29.153-4.589,6.66-6.883,15.386-6.883,26.184v16.196h-71.532ZM614.844,361.4c0-15.116,4.05-26.542,12.147-34.281,8.098-7.735,19.882-11.607,35.361-11.607,14.935,0,26.496,3.961,34.687,11.877,8.187,7.921,12.282,19.258,12.282,34.012,0,14.218-4.143,25.42-12.417,33.606-8.279,8.187-19.798,12.282-34.552,12.282-15.116,0-26.816-4.007-35.092-12.012-8.279-8.006-12.417-19.301-12.417-33.877Z"/>
    <path d="M173.362,485.379c-33.921-103.568-37.074-213.984-9.119-319.319l24.706-93.085c-38.118,8.662-74.936,25.253-108.068,49.8C37.623,154.823,9.622,201.828,2.036,255.127c-7.589,53.299,6.185,106.248,38.781,149.094l138.922,182.615h26.855l-33.232-101.457Z"/>
    <path d="M324.385,674.28l6.361-52.806h-34.89l-5.659,46.979h-21.435c.394-1.453.625-2.974.625-4.552v-15.351c0-9.566-7.757-17.32-17.32-17.32s-17.32,7.754-17.32,17.32v15.351c0,1.577.228,3.099.625,4.552h-21.433l-5.659-46.978h-34.893l6.36,52.806c-6.533,5.069-10.757,12.978-10.757,21.888v76.231c0,15.308,12.41,27.719,27.719,27.719h110.714c15.308,0,27.717-12.41,27.717-27.719v-76.231c0-8.91-4.223-16.817-10.755-21.889Z"/>
    <path d="M502.1,255.128c-7.586-53.299-35.589-100.302-78.845-132.352-33.221-24.614-70.149-41.23-108.376-49.873l24.774,92.722c28.218,105.605,25.147,216.335-8.878,320.218l-33.079,100.994h26.703l138.92-182.615c32.596-42.848,46.368-95.795,38.781-149.094Z"/>
    <path d="M306.184,174.568l-28.605-107.068,1.298-.347c-17.467-1.652-35.044-1.682-52.514-.099l-28.636,107.89c-26.234,98.844-23.277,202.463,8.557,299.65l36.763,112.241h18.197l36.611-111.775c31.927-97.483,34.808-201.391,8.33-300.491Z"/>
</svg>