<?xml version="1.0" encoding="UTF-8"?>
<svg class="svg-icon-modes-bus_intercity svg-icon svg-icon-modes" xmlns="http://www.w3.org/2000/svg" version="1.1" viewBox="0 0 800 800">
    <path d="M542.467,745.89v17.951c0,19.8,14.507,36,32.238,36h38.954c17.731,0,32.238-16.2,32.238-36v-17.951h-103.429Z"/>
    <path d="M151.539,745.89v17.951c0,19.8,14.507,36,32.238,36h38.954c17.731,0,32.238-16.2,32.238-36v-17.951h-103.429Z"/>
    <path d="M400,0C329.556,0,106.932,13.674,106.932,112.023v557.866c0,33,27,60,60,60h466.137c33,0,60-27,60-60V112.023C693.068,10.286,470.444,0,400,0ZM148.313,681.155c-12.41-12.41-14.273-55.431-14.273-55.431,87.648,0,109.213,70.204,109.213,70.204,0,0-75.634,4.534-94.94-14.773ZM649.121,681.155c-19.306,19.306-94.94,14.773-94.94,14.773,0,0,21.565-70.204,109.213-70.204,0,0-1.862,43.021-14.273,55.431ZM665.959,523.602c-2.566,102.121-165.835,102.121-265.959,102.121s-265.959,0-265.959-99.862V139.08c0-105.107,202.032-105.077,265.959-105.077s265.959-.145,265.959,105.077v384.522Z"/>
    <path d="M728.636,217.42c0,51.79,5.379,66.747,17.704,66.747h18.759c8.963,0,18.215-36.558,17.094-83.778-1.12-47.22-16.637-70.069-26.806-82.254-10.168-12.186-16.891-12.186-26.975-12.186h-20.804v42.65h15.201c7.325,0,5.825,17.03,5.825,68.82Z"/>
    <path d="M71.364,217.42c0,51.79-5.379,66.747-17.704,66.747s-9.796,0-18.759,0c-8.963,0-18.215-36.558-17.094-83.778,1.12-47.22,16.637-70.069,26.806-82.254,10.168-12.186,16.891-12.186,26.975-12.186s20.804,0,20.804,0v42.65s-10.79,0-15.201,0c-7.325,0-5.825,17.03-5.825,68.82Z"/>
</svg>