<?xml version="1.0" encoding="UTF-8"?>
<svg id="svg-icon-bus_school_pale" class="svg-icon" xmlns="http://www.w3.org/2000/svg" version="1.1" viewBox="0 0 800 800">
    <defs>
        <style>
            .svg-icon-opacity_half { opacity: .5; }
            .svg-icon-opacity_three_quarters { opacity: .75; }
        </style>
    </defs>
    <path d="M599.5,745.89v17.951c0,19.8,16.2,36,36,36h43.5c19.8,0,36-16.2,36-36v-17.951h-115.5Z"/>
    <path d="M89,745.89v17.951c0,19.8,16.2,36,36,36h43.5c19.8,0,36-16.2,36-36v-17.951h-115.5Z"/>
    <path class="svg-icon-opacity_three_quarters" d="M56.498,268.89h-26.498C13.5,268.89,0,282.39,0,298.89v81.475C0,396.865,13.5,410.365,30,410.365h26.498v-141.475Z"/>
    <path class="svg-icon-opacity_three_quarters" d="M770,268.89h-25.822v141.475h25.822c16.5,0,30-13.5,30-30v-81.475c0-16.5-13.5-30-30-30h0Z"/>
    <path class="svg-icon-opacity_half" d="M727.273,430.363V150.89C727.273,30,599.781,0,402,0S72.727,30,72.727,150.89v279.345c-29.137,4.048-51.762,29.211-51.762,59.417v180.758c0,33,27,60,60,60h637.109c33,0,60-27,60-60v-180.758c0-29.874-22.127-54.828-50.801-59.289ZM574.902,51.086s38.253,5.07,63.529,18.635c47.206,25.334,40.315,47.435,40.315,47.435h-103.844V51.086ZM413.618,167.062h239.179c15.506,0,28.193,14.721,28.193,32.713v229.384c0,17.434-121.335-44.731-267.372-48.605v-213.492ZM159.677,69.721c25.276-13.565,63.529-18.635,63.529-18.635v66.07h-103.844s-6.89-22.101,40.315-47.435ZM119.01,199.775c0-17.992,12.687-32.713,28.193-32.713h243.179v213.392c-148.2,2.569-271.372,66.337-271.372,48.705v-229.384ZM122,590.89c-30.376,0-55-24.624-55-55s24.624-55,55-55,55,24.624,55,55-24.624,55-55,55ZM539.5,566.89h-275c-2.761,0-5-2.238-5-5s2.239-5,5-5h275c2.762,0,5,2.238,5,5s-2.238,5-5,5ZM539.5,537.89h-275c-2.761,0-5-2.238-5-5s2.239-5,5-5h275c2.762,0,5,2.238,5,5s-2.238,5-5,5ZM539.5,508.89h-275c-2.761,0-5-2.238-5-5s2.239-5,5-5h275c2.762,0,5,2.238,5,5s-2.238,5-5,5ZM682,590.89c-30.376,0-55-24.624-55-55s24.624-55,55-55,55,24.624,55,55-24.624,55-55,55Z"/>
</svg>