<?xml version="1.0" encoding="UTF-8"?>
<svg class="svg-icon-modes-bus_city svg-icon svg-icon-modes" xmlns="http://www.w3.org/2000/svg" version="1.1" viewBox="0 0 800 800">
    <path d="M539.5,745.89v17.951c0,19.8,16.2,36,36,36h43.5c19.8,0,36-16.2,36-36v-17.951h-115.5Z"/>
    <path d="M149,745.89v17.951c0,19.8,16.2,36,36,36h43.5c19.8,0,36-16.2,36-36v-17.951h-115.5Z"/>
    <path d="M56.498,208.89h-26.498c-16.5,0-30,13.5-30,30v81.475c0,16.5,13.5,30,30,30h26.498v-141.475Z"/>
    <path d="M770,208.89h-25.822v141.475h25.822c16.5,0,30-13.5,30-30v-81.475c0-16.5-13.5-30-30-30Z"/>
    <path d="M650.895,40.982c0-.008-.002-.015-.002-.022H149.107c0,.008-.002.015-.002.022-42.335,1.912-76.378,37.122-76.378,79.908v529c0,44,36,80,80,80h494.546c44,0,80-36,80-80V120.89c0-42.785-34.043-77.996-76.378-79.908ZM150.793,117.698c0-16.5,13.5-30,30-30h438.413c16.5,0,30,13.5,30,30v12.282c0,16.5-13.5,30-30,30H180.793c-16.5,0-30-13.5-30-30v-12.282ZM162,670.89c-30.376,0-55-24.624-55-55s24.624-55,55-55,55,24.624,55,55-24.624,55-55,55ZM264.5,670.89c-15.188,0-27.5-12.312-27.5-27.5s12.312-27.5,27.5-27.5,27.5,12.312,27.5,27.5-12.312,27.5-27.5,27.5ZM119.01,489.159v-249.384c0-17.992,12.687-32.713,28.193-32.713h505.594c15.506,0,28.193,14.721,28.193,32.713v249.384c0,17.992-128.748,63.731-280.99,63.731s-280.99-45.738-280.99-63.731ZM539.5,670.89c-15.188,0-27.5-12.312-27.5-27.5s12.312-27.5,27.5-27.5,27.5,12.312,27.5,27.5-12.312,27.5-27.5,27.5ZM642,670.89c-30.376,0-55-24.624-55-55s24.624-55,55-55,55,24.624,55,55-24.624,55-55,55Z"/>
</svg>