<?xml version="1.0" encoding="UTF-8"?>
<svg id="svg-icon-bus_city_electric" class="svg-icon" xmlns="http://www.w3.org/2000/svg" version="1.1" viewBox="0 0 800 800">
    <defs>
        <style>
            .svg-icon-opacity_half { opacity: .5; }
        </style>
    </defs>
    <path d="M539.5,745.89v17.951c0,19.8,16.2,36,36,36h43.5c19.8,0,36-16.2,36-36v-17.951h-115.5Z"/>
    <path d="M149,745.89v17.951c0,19.8,16.2,36,36,36h43.5c19.8,0,36-16.2,36-36v-17.951h-115.5Z"/>
    <path d="M56.498,208.89h-26.498c-16.5,0-30,13.5-30,30v81.475c0,16.5,13.5,30,30,30h26.498v-141.475Z"/>
    <path d="M770,208.89h-25.822v141.475h25.822c16.5,0,30-13.5,30-30v-81.475c0-16.5-13.5-30-30-30Z"/>
    <path d="M650.895,40.982c-1.491-22.793-20.591-40.982-43.744-40.982H192.849c-23.153,0-42.253,18.189-43.744,40.982-42.335,1.912-76.378,37.122-76.378,79.908v529c0,44,36,80,80,80h494.546c44,0,80-36,80-80V120.89c0-42.785-34.043-77.996-76.378-79.908ZM150.793,117.698c0-16.5,13.5-30,30-30h438.413c16.5,0,30,13.5,30,30v12.282c0,16.5-13.5,30-30,30H180.793c-16.5,0-30-13.5-30-30v-12.282ZM162,670.89c-30.376,0-55-24.624-55-55s24.624-55,55-55,55,24.624,55,55-24.624,55-55,55ZM264.5,670.89c-15.188,0-27.5-12.312-27.5-27.5s12.312-27.5,27.5-27.5,27.5,12.312,27.5,27.5-12.312,27.5-27.5,27.5ZM119.01,489.159v-249.384c0-17.992,12.687-32.713,28.193-32.713h505.594c15.506,0,28.193,14.721,28.193,32.713v249.384c0,17.992-128.748,63.731-280.99,63.731s-280.99-45.738-280.99-63.731ZM539.5,670.89c-15.188,0-27.5-12.312-27.5-27.5s12.312-27.5,27.5-27.5,27.5,12.312,27.5,27.5-12.312,27.5-27.5,27.5ZM642,670.89c-30.376,0-55-24.624-55-55s24.624-55,55-55,55,24.624,55,55-24.624,55-55,55Z"/>
    <path class="svg-icon-opacity_half" d="M641.505,292.466h-37.549l13.861-42.234c1.302-4.946-2.44-9.826-7.549-9.826h-46.854c-3.905,0-7.223,2.896-7.744,6.768l-10.412,78.091c-.618,4.685,3.026,8.85,7.744,8.85h38.622l-15,63.286c-1.171,4.946,2.603,9.599,7.581,9.599,2.733,0,5.336-1.432,6.768-3.905l57.267-98.915c3.026-5.174-.716-11.714-6.735-11.714Z"/>
</svg>