<?xml version="1.0" encoding="utf-8"?><!-- Uploaded to: SVG Repo, www.svgrepo.com, Generator: SVG Repo Mixer Tools -->
<svg fill="#000000" width="800px" height="800px" viewBox="0 0 30 30" xmlns="http://www.w3.org/2000/svg" xmlns:xlink="http://www.w3.org/1999/xlink"><path d="M7 3 A 1 1 0 0 0 6 4 A 1 1 0 0 0 6.0273438 4.2285156L8.015625 15.171875 A 1 1 0 0 0 8.0234375 15.214844L8.0253906 15.224609 A 1 1 0 0 0 8.0273438 15.224609 A 1 1 0 0 0 9 16L20 16 A 1 1 0 0 0 21 15 A 1 1 0 0 0 20.570312 14.179688C20.570312 14.179688 20.568359 14.177734 20.568359 14.177734 A 1 1 0 0 0 20.541016 14.158203C20.460199 14.090329 17.951736 12 15 12C14.121 12 13.243453 12.174969 12.439453 12.417969C12.439453 12.417969 12.314847 11.272913 12.060547 10L14.832031 10 A 1.0001 1.0001 0 0 0 15.158203 10L17 10 A 1.0001 1.0001 0 1 0 17 8L16 8 A 1.0001 1.0001 0 0 0 14.984375 6.9863281 A 1.0001 1.0001 0 0 0 14 8L11.535156 8C11.52327 7.9674963 11.514104 7.9303147 11.501953 7.8984375C10.760581 5.9520886 9.50129 4.2398572 8.8261719 3.4355469 A 1 1 0 0 0 8.8164062 3.4238281C8.8112754 3.4177286 8.8038891 3.4063821 8.7988281 3.4003906 A 1 1 0 0 0 8 3L7 3 z M 8 18C5.791 18 4 19.791 4 22L4 22.5C4 24.421152 5.578848 26 7.5 26C8.8831519 26 10.0777 25.175306 10.644531 24L17.355469 24C17.9223 25.175306 19.116848 26 20.5 26C22.421152 26 24 24.421152 24 22.5L24 22C24 21.907738 23.978805 21.821173 23.972656 21.730469L26.316406 20.949219 A 1.0001 1.0001 0 0 0 26.046875 18.996094 A 1.0001 1.0001 0 0 0 25.683594 19.050781L23.351562 19.828125C22.638467 18.729936 21.406835 18 20 18L8 18 z M 7.5 21C8.3402718 21 9 21.659728 9 22.5C9 23.340272 8.3402718 24 7.5 24C6.6597282 24 6 23.340272 6 22.5C6 21.659728 6.6597282 21 7.5 21 z M 20.5 21C21.340272 21 22 21.659728 22 22.5C22 23.340272 21.340272 24 20.5 24C19.659728 24 19 23.340272 19 22.5C19 21.659728 19.659728 21 20.5 21 z"/></svg>