<?xml version="1.0" encoding="UTF-8"?>
<svg id="svg-icon-foot_with_backpack" class="svg-icon" xmlns="http://www.w3.org/2000/svg" version="1.1" viewBox="0 0 800 800">
    <path d="M445.359,0c39.598,0,71.699,32.1,71.699,71.699s-32.1,71.699-71.699,71.699-71.699-32.1-71.699-71.699S405.76,0,445.359,0Z"/>
    <path d="M333.929,270.671s-3.831,32.78-12.439,69.49-20.374,93.246,5.973,127.658l-162.88,269.635c-11.138,19.804-4.116,44.886,15.687,56.027,19.802,11.136,44.885,4.114,56.024-15.686l141.449-238.815,161.801,242.698c12.601,18.903,38.144,24.013,57.047,11.412,18.907-12.605,24.013-38.148,11.412-57.051,0,0-150.736-222.919-180.965-271.446l25.127-108.404s13.602,23.81,42.968,32.23c29.366,8.42,97.219,27.877,97.219,27.877,3.553,1.019,7.13,1.505,10.65,1.505,16.768,0,32.202-11.025,37.054-27.947,5.872-20.475-5.967-41.833-26.442-47.704,0,0-38.452-10.217-66.582-18.923-53.236-16.478-73.213-54.906-78.955-96.369-2.971-21.456-12.554-29.014-26.728-36.604-20.963-11.227-67.719-13.379-85.789,12.597s-21.631,67.82-21.631,67.82Z"/>
    <path d="M252.16,399.582l-21.454-3.597c-16.34-2.74-27.366-18.207-24.626-34.548l19.347-115.394c4.726-28.189,31.409-47.21,59.599-42.483h0c16.34,2.74,27.366,18.207,24.626,34.548l-22.944,136.848c-2.74,16.34-18.207,27.366-34.548,24.626Z"/>
</svg>