<?xml version="1.0" encoding="UTF-8"?>
<svg id="svg-icon-foot_with_pale_backpack" class="svg-icon" xmlns="http://www.w3.org/2000/svg" version="1.1" viewBox="0 0 800 800">
    <path d="M329.096,291.323l-23.861,135.212c-1.789,10.14.399,20.576,6.109,29.14l10.624,15.937-157.531,267.574c-10.83,19.256-4.002,43.644,15.253,54.476,19.254,10.828,43.643,4,54.473-15.252l137.534-232.204,157.322,235.98c12.252,18.38,37.088,23.348,55.468,11.096,18.384-12.256,23.348-37.092,11.096-55.472l-175.956-263.932,12.735-66.099,129.689,41.221c20.96,6.988,43.612-4.34,50.596-25.3,6.988-20.956-4.34-43.608-25.296-50.596l-139.726-44.54,13.954-72.427c2.956-15.356-3.304-31.027-16.028-40.117l-40-28.572c-12.056-8.612-27.4-16.968-41.14-3.228s-29.426,73.727-35.316,107.101Z"/>
    <path d="M362.299,80c0-44.183,35.82-80,80-80s80,35.817,80,80-35.816,80-80,80-80-35.817-80-80Z"/>
    <path d="M257.279,403.183l-21.454-3.597c-16.34-2.74-27.366-18.207-24.626-34.548l19.347-115.394c4.726-28.189,31.409-47.21,59.599-42.483h0c16.34,2.74,27.366,18.207,24.626,34.548l-22.944,136.848c-2.74,16.34-18.207,27.366-34.548,24.626Z" style="opacity: .5;"/>
</svg>