<?xml version="1.0" encoding="UTF-8"?>
<svg class="svg-icon-modes-run svg-icon svg-icon-modes" xmlns="http://www.w3.org/2000/svg" xmlns:xlink="http://www.w3.org/1999/xlink" version="1.1" viewBox="0 0 800 800">
    <path d="M511.629,800c-20.55,0-37.209-16.659-37.209-37.209v-187.49c0-11.363-5.092-21.954-13.967-29.056l-63.831-51.063-7.353-4.901-12.191,67.052c-5.676,31.219-24.448,58.632-51.503,75.212-27.056,16.579-60.004,20.858-90.4,11.741l-106.332-31.9c-19.684-5.904-30.854-26.647-24.948-46.332,5.905-19.683,26.646-30.857,46.332-24.947l106.332,31.899c10.28,3.084,20.983,1.693,30.134-3.914,9.151-5.608,15.247-14.511,17.167-25.071l22.171-121.941c.059-.372.123-.744.193-1.115l25.059-150.353-42.343,21.171c-12.686,6.343-20.568,19.096-20.568,33.282v65.633c0,20.55-16.659,37.209-37.209,37.209s-37.209-16.659-37.209-37.209v-65.633c0-42.555,23.644-80.814,61.705-99.844l107.372-53.687c3.184-1.635,6.618-2.818,10.2-3.481.038-.007.073-.014.11-.02.014-.003.031-.005.045-.008,1.541-.279,3.088-.458,4.633-.54.01,0,.017,0,.026-.001.047-.003.093-.005.14-.007.021-.001.041-.002.061-.003.044-.002.085-.004.129-.005.06-.002.117-.005.178-.007.045-.002.088-.004.133-.005.074-.003.15-.005.225-.007.005,0,.012,0,.017,0,1.184-.033,2.381-.01,3.581.072.034.002.068.005.101.007.013.001.027.002.041.003.044.003.087.006.132.01h.003c2.047.155,4.073.48,6.057.966.179.044.358.088.534.134l73.84,18.461c4.171,1.014,8.006,2.696,11.421,4.906.002.002.003.002.005.004.019.012.035.023.055.035.014.01.029.019.044.029.004.003.009.005.012.008.337.22.67.445,1,.676,3.982,2.783,7.481,6.396,10.219,10.776l76.003,121.604c5.408,8.654,14.249,14.765,24.259,16.769l61.527,12.304c20.151,4.03,33.221,23.633,29.19,43.783-4.029,20.151-23.642,33.223-43.782,29.19l-61.534-12.305c-30.026-6.01-56.547-24.343-72.769-50.302l-28.391-45.425-30.352,131.528,46.819,37.454c26.625,21.305,41.894,53.075,41.894,87.166v187.49c0,20.55-16.66,37.209-37.21,37.209ZM493.025,148.837c-41.034,0-74.419-33.383-74.419-74.419S451.991,0,493.025,0s74.418,33.385,74.418,74.418-33.384,74.419-74.418,74.419ZM493.023,74.372l.002.046c0-.032-.002-.046-.002-.046Z"/>
</svg>