<svg xmlns="http://www.w3.org/2000/svg" viewBox="0 0 100 100">
  <defs>
    <style>.cls-1{fill:#fff;}</style>
  </defs>
  <title>accessibility_map_white</title>
  <g id="accessibility_map">
    <g id="white">
      <circle class="cls-1" cx="82.5" cy="17.69" r="5.68" />
      <circle class="cls-1" cx="17.88" cy="15.62" r="3.61" />
      <circle class="cls-1" cx="11.65" cy="10.1" r="2.06" />
      <circle class="cls-1" cx="89.27" cy="10.92" r="2.62" />
      <path class="cls-1" d="M88,40.76l0,0-.05-.05a18,18,0,0,0-7.22-3.37,13.67,13.67,0,0,0,.86-4.76,13.46,13.46,0,0,0-21-11.2,22.46,22.46,0,0,0-41.93,11.2c0,.3,0,.6,0,.9A20.38,20.38,0,0,0,5.16,52.63v.14A20.22,20.22,0,0,0,25.37,73h.14A20.19,20.19,0,0,0,37.4,69.15a11.4,11.4,0,0,0,11,2.42,14.61,14.61,0,0,0,21.58.06A18.11,18.11,0,0,0,76.82,73H77A18,18,0,0,0,88,40.76ZM51,50.51a1.3,1.3,0,0,1-2.13,0C41,39.11,39.53,37.94,39.53,33.75a10.39,10.39,0,1,1,20.77,0C60.3,37.94,58.84,39.11,51,50.51Z" />
      <circle class="cls-1" cx="49.91" cy="33.75" r="4.33" />
      <circle class="cls-1" cx="24.21" cy="81.36" r="6.33" />
      <circle class="cls-1" cx="34.02" cy="90.61" r="3.48" />
    </g>
  </g>
</svg>