<?xml version="1.0" encoding="utf-8"?>
<!-- Generator: Adobe Illustrator 23.1.1, SVG Export Plug-In . SVG Version: 6.00 Build 0)  -->
<svg version="1.1" id="Layer_1" focusable="false" xmlns="http://www.w3.org/2000/svg" xmlns:xlink="http://www.w3.org/1999/xlink"
	 x="0px" y="0px" viewBox="0 0 100 100" style="enable-background:new 0 0 100 100;" xml:space="preserve">
<style type="text/css">
	.st0{opacity:0.5;fill:#FFFFFF;enable-background:new    ;}
	.st1{fill:#FFFFFF;}
</style>
<g>
	<path class="st0" d="M88.5,21.7L72,35c0.1,0.4,0.1,0.8,0.1,1.2c0,4.6-3.7,8.3-8.3,8.3s-8.3-3.7-8.3-8.3c0-0.4,0.1-0.8,0.1-1.2
		L39.1,21.7c-1.6,0.7-3.4,0.8-5.1,0.3L16.3,39.6c1.2,4.4-1.5,9-5.9,10.1c-4.4,1.2-9-1.5-10.1-5.9s1.5-9,5.9-10.1
		c0.7-0.2,1.4-0.3,2.1-0.3c0.7,0,1.4,0.1,2.1,0.3L28,16.1c-0.2-0.7-0.3-1.4-0.3-2.1c0-4.6,3.7-8.3,8.3-8.3s8.3,3.7,8.3,8.3
		c0,0.4-0.1,0.8-0.1,1.2l16.5,13.2c1.9-0.8,4.1-0.8,6,0l16.5-13.2c-0.1-0.4-0.1-0.8-0.1-1.2c0-4.6,3.7-8.4,8.3-8.4
		c4.6,0,8.4,3.7,8.4,8.3c0,4.6-3.7,8.4-8.3,8.4C90.6,22.3,89.5,22.1,88.5,21.7z"/>
	<path class="st1" d="M69.4,61.2H58.3c-1.5,0-2.8,1.2-2.8,2.8v27.7c0,1.5,1.2,2.8,2.8,2.8h11.1c1.5,0,2.8-1.2,2.8-2.8V63.9
		C72.1,62.4,70.9,61.2,69.4,61.2z M97.1,39H86c-1.5,0-2.8,1.2-2.8,2.8v49.9c0,1.5,1.2,2.8,2.8,2.8h11.1c1.5,0,2.8-1.2,2.8-2.8V41.7
		C99.9,40.2,98.6,39,97.1,39z M41.6,39H30.5c-1.5,0-2.8,1.2-2.8,2.8v49.9c0,1.5,1.2,2.8,2.8,2.8h11.1c1.5,0,2.8-1.2,2.8-2.8V41.7
		C44.4,40.2,43.1,39,41.6,39z M13.9,66.7H2.8C1.2,66.7,0,68,0,69.5v22.2c0,1.5,1.2,2.8,2.8,2.8h11.1c1.5,0,2.8-1.2,2.8-2.8V69.5
		C16.6,68,15.4,66.7,13.9,66.7z"/>
</g>
</svg>
