<?xml version="1.0" encoding="UTF-8" standalone="no"?>
<svg
   xmlns:dc="http://purl.org/dc/elements/1.1/"
   xmlns:cc="http://creativecommons.org/ns#"
   xmlns:rdf="http://www.w3.org/1999/02/22-rdf-syntax-ns#"
   xmlns:svg="http://www.w3.org/2000/svg"
   xmlns="http://www.w3.org/2000/svg"
   xmlns:sodipodi="http://sodipodi.sourceforge.net/DTD/sodipodi-0.dtd"
   xmlns:inkscape="http://www.inkscape.org/namespaces/inkscape"
   viewBox="0 0 100 100"
   version="1.1"
   id="svg96"
   sodipodi:docname="close_map_black.svg"
   inkscape:version="0.92.4 (5da689c313, 2019-01-14)">
  <metadata
     id="metadata100">
    <rdf:RDF>
      <cc:Work
         rdf:about="">
        <dc:format>image/svg+xml</dc:format>
        <dc:type
           rdf:resource="http://purl.org/dc/dcmitype/StillImage" />
      </cc:Work>
    </rdf:RDF>
  </metadata>
  <sodipodi:namedview
     pagecolor="#ffffff"
     bordercolor="#666666"
     borderopacity="1"
     objecttolerance="10"
     gridtolerance="10"
     guidetolerance="10"
     inkscape:pageopacity="0"
     inkscape:pageshadow="2"
     inkscape:window-width="958"
     inkscape:window-height="991"
     id="namedview98"
     showgrid="false"
     inkscape:zoom="6.5"
     inkscape:cx="66.656908"
     inkscape:cy="45.849925"
     inkscape:window-x="-8"
     inkscape:window-y="0"
     inkscape:window-maximized="0"
     inkscape:current-layer="white" />
  <defs
     id="defs84">
    <style
       id="style82">
			.cls-1{fill:#ff2020}
		</style>
  </defs>
  <title
     id="title86">
		close_map
	</title>
  <g
     id="chart_bars">
    <g
       id="white">
      <path
         class="cls-1"
         d="M 98.732788,79.245038 C 92.077225,68.232043 83.186499,62.018081 73.608986,61.608024 c -0.511967,-0.06309 -1.028094,-0.108147 -1.556711,-0.108147 -0.93236,0 -1.839747,0.108147 -2.713835,0.310922 -8.71175,1.221163 -16.736716,7.290928 -22.871984,17.434239 l -0.882413,1.455483 0.67846,1.126535 c 6.892812,11.396016 16.1748,17.673066 26.135246,17.673066 9.964611,0 19.242437,-6.27705 26.135247,-17.673066 l 0.882411,-1.45999 z M 81.359239,75.680685 c 0,5.556067 -4.174812,10.080226 -9.306964,10.080226 -5.132148,0 -9.30696,-4.524159 -9.30696,-10.080226 0,-4.808045 3.130069,-8.832027 7.300719,-9.827882 0.849114,-0.108148 1.698229,-0.180245 2.55567,-0.180245 0.04995,0 0.09573,0.0045 0.145681,0.009 4.803325,0.387527 8.611854,4.699898 8.611854,9.999116 z m -8.96149,19.714345 c -8.320488,0 -16.187287,-5.209093 -22.268445,-14.699015 2.955251,-4.695394 6.347547,-8.354377 10.014556,-10.89133 -0.761703,1.797946 -1.194587,3.780647 -1.194587,5.880507 0,7.818146 5.877205,14.18081 13.098841,14.18081 7.2258,0 13.103004,-6.362664 13.103004,-14.18081 0,-2.4964 -0.603538,-4.839591 -1.652444,-6.88087 4.178977,2.478374 8.04161,6.376183 11.36731,11.571758 -6.101967,9.692698 -14.056174,15.01895 -22.468235,15.01895 z m 0,0"
         id="path88"
         inkscape:connector-curvature="0"
         style="fill:#ff2020;stroke:#ff0000;stroke-width:0.99975497;stroke-miterlimit:4;stroke-dasharray:none;stroke-opacity:1" />
      <path
         d="M 40.943736,82.614376 31.356382,77.787972 V 6.1189751 l 22.488977,13.9880619 0.07071,35.884892 c 0.0019,0.974561 0.674701,1.759626 1.5008,1.759626 0.829391,0 1.502727,-0.785065 1.500801,-1.759626 L 56.84696,20.226924 79.335937,9.344312 79.901622,43.879848 c 0.01596,0.974433 0.671411,1.763494 1.49751,1.763494 0.82939,0 1.515633,-0.789044 1.500801,-1.763494 L 82.334248,6.71454 C 82.325302,6.1267773 82.084115,5.5775516 81.66942,5.2488295 81.254724,4.9239764 80.728128,4.8620994 80.264064,5.0825359 L 55.425149,17.102137 30.559904,1.6328949 c -0.01975,-0.011602 -0.04278,-0.015469 -0.06254,-0.027071 -0.0724,-0.038674 -0.144813,-0.069612 -0.21722,-0.096683 -0.04278,-0.015469 -0.08558,-0.030938 -0.13165,-0.042541 -0.07899,-0.019336 -0.157979,-0.023204 -0.240259,-0.027071 -0.04278,0 -0.08228,-0.00387 -0.125068,-0.00387 -0.07899,0.00773 -0.154687,0.023204 -0.230386,0.042541 -0.04608,0.011602 -0.09545,0.019336 -0.141522,0.034806 -0.0066,0.00387 -0.01975,0.00387 -0.02962,0.00773 L 2.3935549,12.093969 C 1.7813856,12.329875 1.369982,13.002788 1.369982,13.764648 v 75.752877 c 0,0.568494 0.2303866,1.098316 0.6253342,1.430904 0.2567155,0.216569 0.5627997,0.332589 0.8754668,0.332589 0.1579791,0 0.3192492,-0.03094 0.4739372,-0.09282 l 26.4450358,-10.356653 9.972427,5.019769 c 0.190892,0.09669 0.391657,0.14309 0.589131,0.14309 0.582547,0 1.135474,-0.4022 1.379026,-1.067377 0.325831,-0.893348 -0.02633,-1.929788 -0.786604,-2.312651 z M 4.3682931,15.033125 28.358071,5.6355615 V 77.679688 L 4.3682931,87.073384 Z"
         id="path90"
         style="opacity:1;fill:#ffffff;fill-opacity:1;stroke:#ffffff;stroke-width:2.73996401;stroke-miterlimit:4;stroke-dasharray:none;stroke-opacity:1;paint-order:fill markers stroke"
         inkscape:connector-curvature="0"
         sodipodi:nodetypes="ccccsssccsssscccccccccccccsscscccsccccccc" />
      <rect
         class="cls-1"
         width="57.17001"
         height="3.0578415"
         x="-30.768463"
         y="102.31699"
         ry="0"
         rx="0"
         transform="matrix(0.67885124,-0.73427583,0.67885124,0.73427583,0,0)"
         id="rect92"
         style="fill:#ff2020;stroke-width:1.00153949;stroke-miterlimit:4;stroke-dasharray:none;stroke:#ff0000;stroke-opacity:1" />
    </g>
  </g>
</svg>
