<svg xmlns="http://www.w3.org/2000/svg" viewBox="0 0 78.75 90"><defs><style>.cls-1{fill:#fff;}</style></defs><title>delete_white</title><g id="delete"><path id="white" class="cls-1" d="M10.25,19.77V14.84a4.21,4.21,0,0,1,4.22-4.21H34.16l1.65-3.29A4.17,4.17,0,0,1,39.57,5H59.66a4.22,4.22,0,0,1,3.78,2.34l1.65,3.29H84.78A4.21,4.21,0,0,1,89,14.84v4.93a2.12,2.12,0,0,1-2.11,2.11H12.36A2.12,2.12,0,0,1,10.25,19.77Zm73.13,9.84v57A8.44,8.44,0,0,1,74.94,95H24.31a8.43,8.43,0,0,1-8.43-8.44V29.61A2.11,2.11,0,0,1,18,27.5H81.27A2.12,2.12,0,0,1,83.38,29.61Zm-47.82,12a2.81,2.81,0,1,0-5.62,0V80.94a2.81,2.81,0,0,0,5.62,0Zm16.88,0a2.82,2.82,0,0,0-5.63,0V80.94a2.82,2.82,0,0,0,5.63,0Zm16.87,0a2.81,2.81,0,0,0-5.62,0V80.94a2.81,2.81,0,0,0,5.62,0Z" transform="translate(-10.25 -5)"/></g></svg>