<svg xmlns="http://www.w3.org/2000/svg" viewBox="0 0 100 100"><defs><style>.cls-1{fill:#dd2222;}</style></defs><title>download_cloud_red</title><g id="download_cloud"><path id="red" class="cls-1" d="M80.55,45.75A13.49,13.49,0,0,0,68,27.41a13.35,13.35,0,0,0-7.48,2.28,22.47,22.47,0,0,0-41.94,11.2q0,.57,0,1.14a20.22,20.22,0,0,0,6.71,39.3H77a18,18,0,0,0,3.59-35.58ZM60.91,58.81l-13,13a3.36,3.36,0,0,1-4.76,0l-13-13a3.36,3.36,0,0,1,0-4.76l1.51-1.52a3.39,3.39,0,0,1,4.85.07L41,57.45V39.77A3.36,3.36,0,0,1,44.4,36.4h2.24A3.36,3.36,0,0,1,50,39.77V57.45l4.55-4.85a3.38,3.38,0,0,1,4.85-.07l1.51,1.52a3.38,3.38,0,0,1,0,4.76Z"/></g></svg>