<svg xmlns="http://www.w3.org/2000/svg" viewBox="0 0 90 90"><defs><style>.cls-1{fill:#fff;}</style></defs><title>edit_white</title><g id="edit"><path id="black" class="cls-1" d="M92.54,30l-8.1,8.1a2.11,2.11,0,0,1-3,0L61.94,18.56a2.11,2.11,0,0,1,0-3L70,7.47A8.46,8.46,0,0,1,82,7.47L92.54,18A8.42,8.42,0,0,1,92.54,30ZM55,22.53,8.82,68.69,5.09,90.05A4.23,4.23,0,0,0,10,94.94l21.36-3.75L77.5,45a2.12,2.12,0,0,0,0-3L58,22.53a2.12,2.12,0,0,0-3,0Zm-34.49,57h8.44V85.9l-11.34,2-5.47-5.47,2-11.34h6.38Z" transform="translate(-5.02 -5)"/></g></svg>