<svg xmlns="http://www.w3.org/2000/svg" viewBox="0 0 100 100"><defs><style>.cls-1{fill:#fff;}</style></defs><g id="export"><path id="white" class="cls-1" d="M65.08,30.14A3.66,3.66,0,0,0,64,27.57L49.15,12.69a3.65,3.65,0,0,0-2.58-1.06h-.92V31.07H65.08ZM93.47,58.4,78.94,43.76a2.43,2.43,0,0,0-4.16,1.71v9.89H65.06v9.72h9.72V75a2.43,2.43,0,0,0,4.16,1.71L93.47,62A2.58,2.58,0,0,0,93.47,58.4ZM35.93,62.65V57.79a2.43,2.43,0,0,1,2.43-2.43H65.08V35.92H44.43a3.65,3.65,0,0,1-3.64-3.64V11.63H10.42a3.64,3.64,0,0,0-3.64,3.65V85.72a3.64,3.64,0,0,0,3.64,3.65h51a3.64,3.64,0,0,0,3.64-3.65V65.08H38.36A2.44,2.44,0,0,1,35.93,62.65Z"/></g></svg>