<svg xmlns="http://www.w3.org/2000/svg" viewBox="0 0 100 100"><g id="gear_refresh"><g id="black"><path d="M68,26.8A3,3,0,0,1,67.14,30l-5.66,5.16a25.16,25.16,0,0,1,0,6.64L67.14,47A3,3,0,0,1,68,50.2a33.24,33.24,0,0,1-2.06,4.49l-.61,1.06a33.5,33.5,0,0,1-2.89,4.09,3,3,0,0,1-3.21.89L51.91,58.4a28.29,28.29,0,0,1-5.76,3.34l-1.63,7.47a3.13,3.13,0,0,1-2.38,2.33,34.39,34.39,0,0,1-5.68.46A33.69,33.69,0,0,1,31,71.54a3.13,3.13,0,0,1-2.38-2.33L27,61.74a25.4,25.4,0,0,1-5.76-3.34L14,60.73a3,3,0,0,1-3.21-.89,33.5,33.5,0,0,1-2.89-4.09l-.62-1.06A33.24,33.24,0,0,1,5.18,50.2,3,3,0,0,1,6,47l5.66-5.16a25.16,25.16,0,0,1,0-6.64L6,30a3,3,0,0,1-.83-3.22,33.24,33.24,0,0,1,2.06-4.49l.61-1.06a34.71,34.71,0,0,1,2.9-4.09A3,3,0,0,1,14,16.27l7.28,2.33A25,25,0,0,1,27,15.26l1.63-7.47A3,3,0,0,1,31,5.46a33.89,33.89,0,0,1,11.13,0,3,3,0,0,1,2.38,2.33l1.63,7.47a27.83,27.83,0,0,1,5.76,3.34l7.29-2.33a3,3,0,0,1,3.21.89,33.5,33.5,0,0,1,2.89,4.09l.61,1.06A33.24,33.24,0,0,1,68,26.8ZM36.58,49A10.53,10.53,0,1,0,26.11,38.38,10.49,10.49,0,0,0,36.58,49Z"/><path d="M47.52,78.81l7-10.56a2.81,2.81,0,0,1,3.91-.78L69,74.5a2.82,2.82,0,1,1-3.12,4.69L61.25,76.1A14.07,14.07,0,1,0,74.51,61.23a2.82,2.82,0,1,1-.32-5.63,19.53,19.53,0,0,1,12,3.27A19.72,19.72,0,1,1,55.64,76.78l-3.43,5.15a2.82,2.82,0,1,1-4.69-3.12Z"/></g></g></svg>