<svg xmlns="http://www.w3.org/2000/svg" viewBox="0 0 100 100"><title>hidden_black</title><g id="hidden"><path id="black" d="M50,70.13A20.18,20.18,0,0,1,29.9,51.41L15.15,40A46.4,46.4,0,0,0,10,47.83a4.55,4.55,0,0,0,0,4.1c7.63,14.88,22.72,24.95,40,24.95a44.08,44.08,0,0,0,11-1.47l-7.29-5.65A20.46,20.46,0,0,1,50,70.13ZM94.13,78.3l-15.55-12A46.53,46.53,0,0,0,90,51.93a4.58,4.58,0,0,0,0-4.11C82.38,32.94,67.29,22.88,50,22.88a43.38,43.38,0,0,0-20.72,5.3L11.39,14.35a2.24,2.24,0,0,0-3.15.4h0L5.47,18.3a2.26,2.26,0,0,0,.4,3.16L88.61,85.4A2.23,2.23,0,0,0,91.76,85h0l2.77-3.56A2.25,2.25,0,0,0,94.13,78.3Zm-25.84-20-5.52-4.27a13.56,13.56,0,0,0,.73-4.18,13.33,13.33,0,0,0-17.06-13,6.68,6.68,0,0,1,1.31,4,6.09,6.09,0,0,1-.22,1.4l-10.35-8A20,20,0,0,1,50,29.63,20.24,20.24,0,0,1,70.25,49.85v0a19.65,19.65,0,0,1-2,8.45Z"/></g></svg>