<svg xmlns="http://www.w3.org/2000/svg" viewBox="0 0 100 100"><g id="import"><path id="black" d="M9.82,55a2.56,2.56,0,0,0-2.55,2.55v5.1a2.56,2.56,0,0,0,2.55,2.55H27.66V55Zm77.9-29.15L72.13,10.21A3.81,3.81,0,0,0,69.42,9.1h-1V29.49H88.84v-1A3.81,3.81,0,0,0,87.72,25.82ZM63.35,30.76V9.1H31.49a3.82,3.82,0,0,0-3.83,3.82V55H48.05V44.59a2.56,2.56,0,0,1,4.37-1.8L67.65,58.16a2.71,2.71,0,0,1,0,3.82L52.4,77.34A2.55,2.55,0,0,1,48,75.54V65.17H27.66V86.84a3.82,3.82,0,0,0,3.83,3.82H85a3.82,3.82,0,0,0,3.83-3.82V34.58H67.17A3.83,3.83,0,0,1,63.35,30.76Z"/></g></svg>