<svg xmlns="http://www.w3.org/2000/svg" viewBox="0 0 100 100">
	<defs>
		<style >
		</style>
	</defs>
	<title >
		load
	</title>
	<g id="top_left">
		<g id="black" style="fill:#ffffff">
      <path d="M 92.1875 61.132812 L 92.1875 88.28125 C 92.1875 90.433594 90.433594 92.1875 88.28125 92.1875 L 11.71875 92.1875 C 9.566406 92.1875 7.8125 90.433594 7.8125 88.28125 L 7.8125 61.132812 L 0 61.132812 L 0 88.28125 C 0 94.742188 5.257812 100 11.71875 100 L 88.28125 100 C 94.742188 100 100 94.742188 100 88.28125 L 100 61.132812 Z M 92.1875 61.132812 "/>
      <path d="M 68.75 46.039062 L 53.90625 60.882812 L 53.90625 0 L 46.09375 0 L 46.09375 60.882812 L 31.25 46.039062 L 25.726562 51.5625 L 50 75.835938 L 74.273438 51.5625 Z M 68.75 46.039062 "/>
    </g>
	</g>
</svg>