<?xml version="1.0" encoding="utf-8"?><!-- Uploaded to: SVG Repo, www.svgrepo.com, Generator: SVG Repo Mixer Tools -->
<svg width="800px" height="800px" viewBox="0 0 24 24" fill="none" xmlns="http://www.w3.org/2000/svg">
<path d="M8.28988 10H15.7101M8.28988 10C8.10128 10.6337 8 11.305 8 12C8 12.695 8.10128 13.3663 8.28988 14M8.28988 10C8.85908 8.08747 10.2236 6.51749 12 5.67363M8.28988 14H15.7101M8.28988 14C8.85908 15.9125 10.2236 17.4825 12 18.3264M12 5.67363C11.0907 5.24169 10.0736 5 9 5C5.13401 5 2 8.13401 2 12C2 15.866 5.13401 19 9 19C10.0736 19 11.0907 18.7583 12 18.3264M12 5.67363C12.9093 5.24169 13.9264 5 15 5C18.866 5 22 8.13401 22 12C22 15.866 18.866 19 15 19C13.9264 19 12.9093 18.7583 12 18.3264M12 5.67363C14.3649 6.7971 16 9.2076 16 12C16 14.7924 14.3649 17.2029 12 18.3264" stroke="#000000" stroke-width="2" stroke-linecap="round" stroke-linejoin="round"/>
</svg>