<svg xmlns="http://www.w3.org/2000/svg" viewBox="0 0 100 100"><defs><style>.cls-1{fill:#fff;}</style></defs><title>simulation_white</title><g id="simulation"><path id="white" class="cls-1" d="M89.09,42.2v-7a2.29,2.29,0,0,0-2.44-2.1H13.35a2.29,2.29,0,0,0-2.44,2.1v7a2.28,2.28,0,0,0,2.44,2.09h3.46a44.53,44.53,0,0,0-5.9,21.22,25.68,25.68,0,0,0,5.58,16.67v8.18a4.19,4.19,0,0,0,8.38,0v-1.3c6.8,3.71,15.56,5.49,25.13,5.49s18.33-1.78,25.13-5.49v1.3a4.19,4.19,0,1,0,8.38,0V82.18a25.68,25.68,0,0,0,5.58-16.67,44.53,44.53,0,0,0-5.9-21.22h3.46A2.28,2.28,0,0,0,89.09,42.2ZM38.83,16.37a5.59,5.59,0,1,0-5.58-5.58A5.58,5.58,0,0,0,38.83,16.37ZM58.38,27.54A8.38,8.38,0,1,0,50,19.16,8.38,8.38,0,0,0,58.38,27.54Z"/></g></svg>