<svg xmlns="http://www.w3.org/2000/svg" viewBox="0 0 100 100"><defs><style>.cls-1,.cls-2,.cls-3,.cls-4{fill:#fff;}.cls-1{opacity:0.7;}.cls-2{opacity:0.4;}.cls-3{opacity:0.5;}</style></defs><title>od_routing_white</title><g id="od_routing"><g id="white"><path class="cls-1" d="M75.45,86.91c-11.8-17.11-14-18.86-14-25.15a15.59,15.59,0,0,1,31.18,0c0,6.29-2.19,8-14,25.15a1.94,1.94,0,0,1-3.2,0Zm1.6-18.65a6.5,6.5,0,1,0-6.5-6.5A6.5,6.5,0,0,0,77.05,68.26Z"/><path class="cls-2" d="M15.26,32.89C7.39,21.49,5.93,20.32,5.93,16.13a10.4,10.4,0,0,1,20.79,0c0,4.19-1.46,5.36-9.33,16.76a1.29,1.29,0,0,1-2.13,0Zm1.06-12.43A4.33,4.33,0,1,0,12,16.13,4.33,4.33,0,0,0,16.32,20.46Z"/><path class="cls-3" d="M80.31,42.57C72.45,31.17,71,30,71,25.81a10.39,10.39,0,1,1,20.78,0c0,4.19-1.46,5.36-9.32,16.76a1.31,1.31,0,0,1-2.14,0Zm1.07-12.43a4.33,4.33,0,1,0-4.33-4.33A4.33,4.33,0,0,0,81.38,30.14Z"/><path class="cls-4" d="M44,67.77H30.84a4.37,4.37,0,1,1,0-8.74H44S57.06,44.41,57.06,37.17a13.11,13.11,0,1,0-26.22,0c0,3.48,3,8.66,6.18,13.12H30.84a13.11,13.11,0,1,0,0,26.22H44a4.38,4.38,0,0,1,0,8.75H12.46A95.5,95.5,0,0,1,6,94H44a13.12,13.12,0,0,0,0-26.23Zm0-35a4.37,4.37,0,1,1-4.37,4.37A4.36,4.36,0,0,1,44,32.8Z"/></g></g></svg>