<?xml version="1.0" encoding="UTF-8" standalone="no"?>
<svg
   xmlns:dc="http://purl.org/dc/elements/1.1/"
   xmlns:cc="http://creativecommons.org/ns#"
   xmlns:rdf="http://www.w3.org/1999/02/22-rdf-syntax-ns#"
   xmlns:svg="http://www.w3.org/2000/svg"
   xmlns="http://www.w3.org/2000/svg"
   xmlns:sodipodi="http://sodipodi.sourceforge.net/DTD/sodipodi-0.dtd"
   xmlns:inkscape="http://www.inkscape.org/namespaces/inkscape"
   viewBox="0 0 100 100"
   version="1.1"
   id="svg1191"
   sodipodi:docname="open_map_black.svg"
   inkscape:version="0.92.4 (5da689c313, 2019-01-14)">
  <metadata
     id="metadata1195">
    <rdf:RDF>
      <cc:Work
         rdf:about="">
        <dc:format>image/svg+xml</dc:format>
        <dc:type
           rdf:resource="http://purl.org/dc/dcmitype/StillImage" />
      </cc:Work>
    </rdf:RDF>
  </metadata>
  <sodipodi:namedview
     pagecolor="#ffffff"
     bordercolor="#666666"
     borderopacity="1"
     objecttolerance="10"
     gridtolerance="10"
     guidetolerance="10"
     inkscape:pageopacity="0"
     inkscape:pageshadow="2"
     inkscape:window-width="958"
     inkscape:window-height="991"
     id="namedview1193"
     showgrid="false"
     inkscape:zoom="6.5"
     inkscape:cx="60.536847"
     inkscape:cy="31.736248"
     inkscape:window-x="952"
     inkscape:window-y="0"
     inkscape:window-maximized="0"
     inkscape:current-layer="white" />
  <defs
     id="defs1181">
    <style
       id="style1179">
			.cls-1{fill:#53C878}
		</style>
  </defs>
  <title
     id="title1183">
		open_map
	</title>
  <g
     id="chart_bars">
    <g
       id="white">
      <path
         class="cls-1"
         d="M 98.746314,79.244293 C 92.087322,68.224729 83.192011,62.007062 73.609561,61.596761 73.09733,61.53363 72.580937,61.488549 72.052049,61.488549 c -0.932842,0 -1.840696,0.108212 -2.715235,0.311108 -8.716241,1.221891 -16.745343,7.295275 -22.883773,17.444636 l -0.882869,1.45635 0.678809,1.127205 C 53.145347,93.230661 62.432118,99.51145 72.3977,99.51145 c 9.969746,0 19.252355,-6.280789 26.148719,-17.683602 l 0.882873,-1.460859 z M 81.363809,75.677814 c 0,5.559378 -4.176965,10.086236 -9.31176,10.086236 -5.134795,0 -9.31176,-4.526858 -9.31176,-10.086236 0,-4.810914 3.131684,-8.837293 7.304485,-9.833743 0.849553,-0.108212 1.699104,-0.180353 2.556986,-0.180353 0.04997,0 0.09579,0.0045 0.145756,0.009 4.805801,0.387758 8.616293,4.702702 8.616293,10.005077 z M 72.3977,95.403912 c -8.324779,0 -16.195631,-5.212198 -22.279925,-14.707778 2.956775,-4.698195 6.350821,-8.359358 10.019719,-10.897827 -0.762097,1.799022 -1.195202,3.782904 -1.195202,5.884016 0,7.822806 5.880233,14.189265 13.105593,14.189265 7.229522,0 13.109758,-6.366459 13.109758,-14.189265 0,-2.497889 -0.60385,-4.842476 -1.653297,-6.884973 4.181131,2.479852 8.045761,6.379984 11.373174,11.578657 -6.105117,9.698478 -14.063422,15.027905 -22.47982,15.027905 z m 0,0"
         id="path1185"
         inkscape:connector-curvature="0"
         style="fill:#53c878;stroke:#53c878;stroke-width:0.97709906;stroke-miterlimit:4;stroke-dasharray:none;stroke-opacity:1" />
      <path
         d="M 40.943736,82.614376 31.356382,77.787972 V 6.1189757 l 22.488977,13.9880613 0.07071,35.884892 c 0.0019,0.974561 0.674701,1.759626 1.5008,1.759626 0.829391,0 1.502727,-0.785065 1.500801,-1.759626 L 56.84696,20.226924 79.335937,9.3443126 79.901622,43.879848 c 0.01596,0.974433 0.671411,1.763494 1.49751,1.763494 0.82939,0 1.515633,-0.789044 1.500801,-1.763494 L 82.334248,6.7145406 C 82.325302,6.1267779 82.084115,5.5775522 81.66942,5.2488301 81.254724,4.923977 80.728128,4.8621 80.264064,5.0825365 L 55.425149,17.102137 30.559904,1.6328955 c -0.01975,-0.011602 -0.04278,-0.015469 -0.06254,-0.027071 -0.0724,-0.038674 -0.144813,-0.069612 -0.21722,-0.096683 -0.04278,-0.015469 -0.08558,-0.030938 -0.13165,-0.042541 -0.07899,-0.019336 -0.157979,-0.023204 -0.240259,-0.027071 -0.04278,0 -0.08228,-0.00387 -0.125068,-0.00387 -0.07899,0.00773 -0.154687,0.023204 -0.230386,0.042541 -0.04608,0.011602 -0.09545,0.019336 -0.141522,0.034806 -0.0066,0.00387 -0.01975,0.00387 -0.02962,0.00773 L 2.393555,12.093969 c -0.61217,0.235906 -1.023573,0.908819 -1.023573,1.670679 v 75.752877 c 0,0.568494 0.230386,1.098316 0.625334,1.430904 0.256716,0.216569 0.5628,0.332589 0.875467,0.332589 0.157979,0 0.319249,-0.03094 0.473937,-0.09282 l 26.445036,-10.356653 9.972427,5.019769 c 0.190892,0.09669 0.391657,0.14309 0.589131,0.14309 0.582547,0 1.135474,-0.4022 1.379026,-1.067377 0.325831,-0.893348 -0.02633,-1.929788 -0.786604,-2.312651 z M 4.368293,15.033125 28.358071,5.6355621 V 77.679688 L 4.368293,87.073384 Z"
         id="path90"
         style="opacity:1;fill:#000000;fill-opacity:1;stroke:#000000;stroke-width:2.73996401;stroke-miterlimit:4;stroke-dasharray:none;stroke-opacity:1;paint-order:fill markers stroke"
         inkscape:connector-curvature="0"
         sodipodi:nodetypes="ccccsssccsssscccccccccccccsscscccsccccccc" />
    </g>
  </g>
</svg>
