<svg xmlns="http://www.w3.org/2000/svg" viewBox="0 0 89.33 89.33"><defs><style>.cls-1{fill:#fff;}</style></defs><title>plus_white</title><g id="plus"><path id="black" class="cls-1" d="M88.29,40.26H59.57V11.55a6.38,6.38,0,0,0-6.38-6.38H46.81a6.38,6.38,0,0,0-6.38,6.38V40.26H11.71a6.38,6.38,0,0,0-6.38,6.38V53a6.38,6.38,0,0,0,6.38,6.38H40.43V88.12a6.38,6.38,0,0,0,6.38,6.38h6.38a6.38,6.38,0,0,0,6.38-6.38V59.4H88.29A6.38,6.38,0,0,0,94.67,53V46.64A6.38,6.38,0,0,0,88.29,40.26Z" transform="translate(-5.33 -5.17)"/></g></svg>