<svg xmlns="http://www.w3.org/2000/svg" viewBox="0 0 100 100"><defs><style>.cls-1{fill:#fff;}</style></defs><g id="preferences"><path id="white" class="cls-1" d="M59.33,53.3l4.73,2.36a3.39,3.39,0,0,1,1.48,4.09c-1.25,3.41-3.71,6.53-6,9.25a3.36,3.36,0,0,1-4.26.75L51.2,67.39a24,24,0,0,1-7.72,4.45v4.73a3.38,3.38,0,0,1-2.77,3.32,31.85,31.85,0,0,1-10.67,0,3.39,3.39,0,0,1-2.81-3.32V71.84a24.53,24.53,0,0,1-7.72-4.45l-4.09,2.34A3.36,3.36,0,0,1,11.16,69c-2.28-2.73-4.68-5.85-5.93-9.24A3.39,3.39,0,0,1,6.7,55.66l4.69-2.36a24.26,24.26,0,0,1,0-8.91L6.7,42a3.34,3.34,0,0,1-1.47-4.08c1.25-3.4,3.65-6.52,5.93-9.25a3.36,3.36,0,0,1,4.26-.74l4.09,2.36a24.18,24.18,0,0,1,7.72-4.46V21.11A3.35,3.35,0,0,1,30,17.8a31.9,31.9,0,0,1,10.68,0,3.37,3.37,0,0,1,2.81,3.32v4.72a24.26,24.26,0,0,1,7.72,4.46l4.09-2.37a3.37,3.37,0,0,1,4.26.75c2.28,2.73,4.67,5.85,5.92,9.25A3.36,3.36,0,0,1,64.06,42l-4.73,2.36A24.82,24.82,0,0,1,59.33,53.3Zm-16.54,3c8.33-10.83-4-23.19-14.86-14.86C19.61,52.23,32,64.59,42.79,56.27ZM77,82l-1.15,2a1.72,1.72,0,0,1-2.12.76,15.65,15.65,0,0,1-4.52-2.61,1.76,1.76,0,0,1-.39-2.21l1.15-2A12.06,12.06,0,0,1,67.75,74H65.43a1.74,1.74,0,0,1-1.72-1.45,16,16,0,0,1,0-5.22,1.75,1.75,0,0,1,1.72-1.46h2.32A12,12,0,0,1,70,62.06l-1.15-2a1.74,1.74,0,0,1,.39-2.21,15.55,15.55,0,0,1,4.52-2.61,1.72,1.72,0,0,1,2.12.76L77,58a12.38,12.38,0,0,1,4.46,0l1.15-2a1.72,1.72,0,0,1,2.12-.76,15.42,15.42,0,0,1,4.52,2.61,1.76,1.76,0,0,1,.39,2.21l-1.15,2a12,12,0,0,1,2.23,3.85h2.32a1.74,1.74,0,0,1,1.72,1.45,16,16,0,0,1,0,5.21A1.75,1.75,0,0,1,93.05,74H90.73a12.06,12.06,0,0,1-2.23,3.85l1.15,2a1.74,1.74,0,0,1-.39,2.21,15.78,15.78,0,0,1-4.52,2.61A1.72,1.72,0,0,1,82.62,84l-1.15-2A12.38,12.38,0,0,1,77,82Zm-1.47-8.28c5.41,4.16,11.58-2,7.42-7.42-5.41-4.16-11.59,2-7.42,7.42Z"/></g></svg>