<svg xmlns="http://www.w3.org/2000/svg" viewBox="0 0 100 100"><title>reverse_black</title><g id="reverse"><path id="black" d="M94,62.53,79.69,76.84a3.41,3.41,0,0,1-4.82,0L60.56,62.53a3.41,3.41,0,0,1,0-4.82l1.54-1.54a3.41,3.41,0,0,1,4.89.07l5.75,6.08V36.44H46.09a3.42,3.42,0,0,1-2.42-1L41.4,33.17a3.41,3.41,0,0,1,2.41-5.82H78.42a3.41,3.41,0,0,1,3.41,3.41V62.32l5.74-6.08a3.41,3.41,0,0,1,4.89-.07L94,57.71a3.41,3.41,0,0,1,0,4.82ZM56.33,64.72a3.42,3.42,0,0,0-2.42-1H27.26V37.85L33,43.93A3.41,3.41,0,0,0,37.9,44l1.54-1.54a3.41,3.41,0,0,0,0-4.82L25.13,23.33a3.41,3.41,0,0,0-4.82,0L6,37.64a3.41,3.41,0,0,0,0,4.82L7.54,44a3.41,3.41,0,0,0,4.89-.07l5.74-6.08V69.41a3.41,3.41,0,0,0,3.41,3.41H56.19A3.41,3.41,0,0,0,58.6,67l-2.27-2.28Z"/></g></svg>