<svg xmlns="http://www.w3.org/2000/svg" viewBox="0 0 100 100"><defs><style>.cls-1{fill:#fff;}</style></defs><title>routing_white</title><g id="routing"><path id="white" class="cls-1" d="M76.66,60.9H61.12a5.22,5.22,0,0,1,0-10.43H76.66S92.21,33,92.21,24.39a15.55,15.55,0,1,0-31.09,0c0,4.16,3.59,10.34,7.33,15.65H61.12a15.65,15.65,0,0,0,0,31.29H76.66a5.22,5.22,0,0,1,0,10.43H39.34a114.14,114.14,0,0,1-7.66,10.43h45a15.65,15.65,0,0,0,0-31.29Zm0-41.72a5.22,5.22,0,1,1-5.18,5.21A5.19,5.19,0,0,1,76.66,19.18ZM24.84,50.47A15.6,15.6,0,0,0,9.3,66.11c0,8.64,15.54,26.08,15.54,26.08S40.39,74.75,40.39,66.11A15.6,15.6,0,0,0,24.84,50.47Zm0,20.86A5.22,5.22,0,1,1,30,66.11,5.2,5.2,0,0,1,24.84,71.33Z"/></g></svg>