<svg xmlns="http://www.w3.org/2000/svg" viewBox="0 0 100 100"><title>routing_black</title><g id="routing"><path id="black" d="M76.21,60.72H60.94a5.13,5.13,0,0,1,0-10.25H76.21S91.49,33.33,91.49,24.85a15.28,15.28,0,1,0-30.55,0c0,4.08,3.53,10.15,7.2,15.37h-7.2a15.38,15.38,0,0,0,0,30.75H76.21a5.13,5.13,0,0,1,0,10.25H39.53A109.35,109.35,0,0,1,32,91.47h44.2a15.38,15.38,0,0,0,0-30.75Zm0-41a5.13,5.13,0,1,1-5.09,5.13A5.1,5.1,0,0,1,76.21,19.72ZM25.29,50.47A15.33,15.33,0,0,0,10,65.84c0,8.49,15.27,25.63,15.27,25.63S40.57,74.33,40.57,65.84A15.33,15.33,0,0,0,25.29,50.47Zm0,20.5a5.13,5.13,0,1,1,5.09-5.13A5.11,5.11,0,0,1,25.29,71Z"/></g></svg>