<?xml version="1.0" encoding="UTF-8"?>
<svg id="Layer_2" data-name="Layer 2" xmlns="http://www.w3.org/2000/svg" viewBox="0 0 500 500">
  <defs>
    <style>
      .cls-1 {
        fill: #fff;
        stroke-width: 0px;
      }
    </style>
  </defs>
  <path class="cls-1" d="M179.77,463.29c-16.84,16.8-44.22,16.8-61.15,0l-82.95-82.85c-16.84-16.8-16.84-44.12,0-61.01l45.66-45.56,43.23,43.13c5.58,5.57,14.77,5.57,20.35,0,5.58-5.57,5.58-14.74,0-20.31l-43.23-43.13,37.29-37.2,43.23,43.13c5.58,5.57,14.77,5.57,20.35,0s5.58-14.74,0-20.31l-43.23-43.13,37.29-37.2,43.23,43.13c5.58,5.57,14.77,5.57,20.35,0s5.58-14.74,0-20.31l-43.23-43.13,37.29-37.2,43.23,43.13c5.58,5.57,14.77,5.57,20.35,0s5.58-14.74,0-20.31l-43.23-43.13,45.66-45.56c16.84-16.8,44.22-16.8,61.15,0l82.95,82.76c16.84,16.8,16.84,44.12,0,61.01L179.77,463.29Z"/>
</svg>