<svg xmlns="http://www.w3.org/2000/svg" viewBox="0 0 100 100"><defs><style>.cls-1{fill:#fff;}</style></defs><title>sandglass_white</title><g id="sandglass"><g id="black"><path class="cls-1" d="M82.53,86H80.9a2.29,2.29,0,0,0,.07-.34c0-12.47-6.26-23.8-16.34-29.55-3.06-1.76-4.8-4.18-4.8-6.67s1.74-4.92,4.8-6.66c9.86-5.62,16-16.61,16.29-28.76h1.61a4.51,4.51,0,0,0,0-9H17.85a4.51,4.51,0,1,0,0,9h1.6c.28,12.15,6.43,23.14,16.29,28.76,3,1.74,4.81,4.16,4.81,6.66s-1.76,4.91-4.81,6.67C25.67,61.85,19.41,73.18,19.41,85.65c0,.12.05.21.06.34H17.85a4.51,4.51,0,1,0,0,9H82.53a4.51,4.51,0,0,0,0-9ZM72.41,86H25.17a2.29,2.29,0,0,0,.07-.34c0-10.39,5.13-19.77,13.4-24.5,4.92-2.79,7.74-7.06,7.74-11.72s-2.82-8.92-7.74-11.73c-8-4.6-13.09-13.62-13.35-23.69h49.8C74.81,24.08,69.78,33.1,61.74,37.7,56.82,40.51,54,44.78,54,49.43s2.82,8.93,7.74,11.72c8.26,4.73,13.4,14.11,13.4,24.5,0,.12,0,.21.06.34Z"/><path class="cls-1" d="M58.06,31.67a1.92,1.92,0,0,0-1.78-1.18H44.1a1.92,1.92,0,0,0-1.37,3.28l6.09,6.13a1.91,1.91,0,0,0,2.74,0l6.09-6.13A1.94,1.94,0,0,0,58.06,31.67Z"/><path class="cls-1" d="M35,80.43a1.94,1.94,0,0,0,1.79,1.18H63.59A1.93,1.93,0,0,0,65,78.32L51.55,64.85a1.93,1.93,0,0,0-1.36-.57,2,2,0,0,0-1.38.57L35.4,78.32A2,2,0,0,0,35,80.43Z"/></g></g></svg>