<?xml version="1.0" encoding="UTF-8" standalone="no"?>
<svg xmlns:dc="http://purl.org/dc/elements/1.1/" xmlns:cc="http://creativecommons.org/ns#" xmlns:rdf="http://www.w3.org/1999/02/22-rdf-syntax-ns#" xmlns:svg="http://www.w3.org/2000/svg" xmlns="http://www.w3.org/2000/svg" xmlns:sodipodi="http://sodipodi.sourceforge.net/DTD/sodipodi-0.dtd" xmlns:inkscape="http://www.inkscape.org/namespaces/inkscape" viewBox="0 0 100 100" version="1.1" id="svg62" sodipodi:docname="load_period_white.svg" inkscape:version="0.92.4 (5da689c313, 2019-01-14)">
	<title>
		save
	</title>
	<path d="M 462,44 H 419.35012 V 30 C 419.35012,13.458 400.875,0 384.333,0 367.791,0 348.0616,13.458 348.0616,30 V 44 H 191.35012 V 30 C 191.35012,13.458 172.875,0 156.333,0 139.791,0 120.0616,13.458 120.0616,30 V 44.37 C 119.2116,44.135 124.592,44 123.667,44 H 83.823 c -27.57,0 -50,22.43 -50,50 v 170.333 c 0,5.523 4.478,10 10,10 5.522,0 10,-4.477 10,-10 V 162.14418 h 360.51 c 5.522,0 10,-4.477 10,-10 0,-5.523 -4.478,-10 -10,-10 H 53.823 V 94 c 0,-16.542 13.458,-30 30,-30 h 39.844 c 0.925,0 -4.4554,-0.136 -3.6054,-0.37 V 76.5 c 0,16.542 19.7294,30 36.2714,30 16.542,0 35.01712,-13.458 35.01712,-30 V 64 H 348.0616 v 12.5 c 0,16.542 19.7294,30 36.2714,30 16.542,0 35.01712,-13.458 35.01712,-30 V 64 H 462 c 16.542,0 30,13.458 30,30 V 473.994 C 492,483.922 483.923,492 473.994,492 H 440.533 276.79455 v 20 H 473.994 C 494.95,512 512,494.951 512,473.994 V 94 C 512,66.43 489.57,44 462,44 Z M 171.35012,76.5 c 0,5.514 -9.50312,10 -15.01712,10 -5.514,0 -16.2714,-4.486 -16.2714,-10 V 30 c 0,-5.514 10.7574,-10 16.2714,-10 5.514,0 15.01712,4.486 15.01712,10 z m 228,0 c 0,5.514 -9.50312,10 -15.01712,10 -5.514,0 -16.2714,-4.486 -16.2714,-10 V 30 c 0,-5.514 10.7574,-10 16.2714,-10 5.514,0 15.01712,4.486 15.01712,10 z" transform="matrix(-0.17075748,0,0,0.17269901,88.892242,1.3172517)" style="fill:#ffffff;stroke:#ffffff;stroke-width:15" id="path870" />
	<g 
      transform="matrix(-0.17075748,0,0,0.17269901,88.892242,1.3172517)" 
      style="fill:#ffffff;stroke:#ffffff;stroke-width:10" 
   >
		<path d="m 299.30633,316.14185 c -20.953,0 -38,17.047 -38,38 0,20.953 17.047,38 38,38 20.953,0 38,-17.047 38,-38 0,-20.953 -17.047,-38 -38,-38 z m 0,56 c -9.925,0 -18,-8.075 -18,-18 0,-9.925 8.075,-18 18,-18 9.925,0 18,8.075 18,18 0,9.925 -8.075,18 -18,18 z" id="path872" />
		<path d="m 412.912,316.14185 c -20.953,0 -38,17.047 -38,38 0,20.953 17.047,38 38,38 20.953,0 38,-17.047 38,-38 0,-20.953 -17.047,-38 -38,-38 z m 0,56 c -9.925,0 -18,-8.075 -18,-18 0,-9.925 8.075,-18 18,-18 9.925,0 18,8.075 18,18 0,9.925 -8.075,18 -18,18 z" id="path874" />
		<path d="m 299.30633,200 c -20.953,0 -38,17.047 -38,38 0,20.953 17.047,38 38,38 20.953,0 38,-17.047 38,-38 0,-20.953 -17.047,-38 -38,-38 z m 0,56 c -9.925,0 -18,-8.075 -18,-18 0,-9.925 8.075,-18 18,-18 9.925,0 18,8.075 18,18 0,9.925 -8.075,18 -18,18 z" id="path876" />
		<path d="m 412.912,200 c -20.953,0 -38,17.047 -38,38 0,20.953 17.047,38 38,38 20.953,0 38,-17.047 38,-38 0,-20.953 -17.047,-38 -38,-38 z m 0,56 c -9.925,0 -18,-8.075 -18,-18 0,-9.925 8.075,-18 18,-18 9.925,0 18,8.075 18,18 0,9.925 -8.075,18 -18,18 z" />
		<path d="m 184.8007,200 c -20.953,0 -38,17.047 -38,38 0,20.953 17.047,38 38,38 20.953,0 38,-17.047 38,-38 0,-20.953 -17.047,-38 -38,-38 z m 0,56 c -9.925,0 -18,-8.075 -18,-18 0,-9.925 8.075,-18 18,-18 9.925,0 18,8.075 18,18 0,9.925 -8.075,18 -18,18 z" />
	</g>
	<path 
      d="M 87.871047,57.227354 H 55.970949 c -2.789615,0 -5.05976,2.201049 -5.05976,4.905757 v 32.050943 c 0,2.704707 2.270145,4.905757 5.05976,4.905757 h 33.0571 c 2.789609,0 5.059762,-2.20105 5.059762,-4.905757 V 63.254893 Z m -26.840338,3.270504 h 19.395745 v 9.647988 H 61.030709 Z M 83.968286,95.819307 H 61.030709 V 82.900813 h 22.937577 z m 6.746347,-1.635253 c 0,0.901024 -0.757278,1.635253 -1.686584,1.635253 H 87.341455 V 79.630309 h -29.68392 v 16.188998 h -1.686586 c -0.92931,0 -1.686587,-0.734229 -1.686587,-1.635253 V 62.133111 c 0,-0.901024 0.757277,-1.635253 1.686587,-1.635253 h 1.686586 V 73.416351 H 83.799627 V 60.497858 h 2.674927 l 4.240079,4.111024 z m 0,0" 
      style="fill:#7137c8;stroke:#7137c8;stroke-width:1.50037754;stroke-miterlimit:4;stroke-dasharray:none;stroke-opacity:1" />
	<path 
      d="m 74.017425,62.051348 h 3.373173 v 6.459246 h -3.373173 z m 0,0" 
      style="fill:#7137c8;stroke:#7137c8;stroke-width:1.50037754;stroke-miterlimit:4;stroke-dasharray:none;stroke-opacity:1" />
</svg>
