<?xml version="1.0" encoding="UTF-8" standalone="no"?>
<svg
   xmlns:dc="http://purl.org/dc/elements/1.1/"
   xmlns:cc="http://creativecommons.org/ns#"
   xmlns:rdf="http://www.w3.org/1999/02/22-rdf-syntax-ns#"
   xmlns:svg="http://www.w3.org/2000/svg"
   xmlns="http://www.w3.org/2000/svg"
   xmlns:sodipodi="http://sodipodi.sourceforge.net/DTD/sodipodi-0.dtd"
   xmlns:inkscape="http://www.inkscape.org/namespaces/inkscape"
   viewBox="0 0 100 100"
   version="1.1"
   id="svg62"
   sodipodi:docname="save_map_black.svg"
   inkscape:version="0.92.4 (5da689c313, 2019-01-14)">
  <metadata
     id="metadata66">
    <rdf:RDF>
      <cc:Work
         rdf:about="">
        <dc:format>image/svg+xml</dc:format>
        <dc:type
           rdf:resource="http://purl.org/dc/dcmitype/StillImage" />
        <dc:title>
		save
	</dc:title>
      </cc:Work>
    </rdf:RDF>
  </metadata>
  <sodipodi:namedview
     pagecolor="#ffffff"
     bordercolor="#666666"
     borderopacity="1"
     objecttolerance="10"
     gridtolerance="10"
     guidetolerance="10"
     inkscape:pageopacity="0"
     inkscape:pageshadow="2"
     inkscape:window-width="958"
     inkscape:window-height="991"
     id="namedview64"
     showgrid="false"
     inkscape:zoom="6.5"
     inkscape:cx="36.920506"
     inkscape:cy="32.65622"
     inkscape:window-x="-8"
     inkscape:window-y="0"
     inkscape:window-maximized="0"
     inkscape:current-layer="svg62" />
  <defs
     id="defs52">
    <style
       id="style50" />
  </defs>
  <title
     id="title54">
		save
	</title>
  <g
     id="select_segment"
     transform="matrix(0.35,0,0,0.35,60,65)"
     style="fill:#7137c8">
    <g
       id="black"
       style="fill:#7137c8;stroke:#7137c8;stroke-width:3.52909947;stroke-miterlimit:4;stroke-dasharray:none;stroke-opacity:1"
       transform="matrix(1.2329857,0,0,1.196081,-25.935,-22.176651)">
      <path
         d="M 85.601562,0 H 11.71875 C 5.257812,0 0,5.257812 0,11.71875 v 76.5625 C 0,94.742188 5.257812,100 11.71875,100 h 76.5625 C 94.742188,100 100,94.742188 100,88.28125 V 14.398438 Z M 23.4375,7.8125 H 68.359375 V 30.859375 H 23.4375 Z m 53.125,84.375 H 23.4375 V 61.328125 h 53.125 z m 15.625,-3.90625 c 0,2.152344 -1.753906,3.90625 -3.90625,3.90625 H 84.375 V 53.515625 H 15.625 V 92.1875 h -3.90625 c -2.152344,0 -3.90625,-1.753906 -3.90625,-3.90625 v -76.5625 c 0,-2.152344 1.753906,-3.90625 3.90625,-3.90625 H 15.625 V 38.671875 H 76.171875 V 7.8125 h 6.195313 l 9.820312,9.820312 z m 0,0"
         id="path56"
         inkscape:connector-curvature="0"
         style="fill:#7137c8;stroke:#7137c8;stroke-width:3.52909947;stroke-miterlimit:4;stroke-dasharray:none;stroke-opacity:1" />
      <path
         d="m 53.515625,11.523438 h 7.8125 v 15.429687 h -7.8125 z m 0,0"
         id="path58"
         inkscape:connector-curvature="0"
         style="fill:#7137c8;stroke:#7137c8;stroke-width:3.52909947;stroke-miterlimit:4;stroke-dasharray:none;stroke-opacity:1" />
    </g>
  </g>
  <path
     d="M 40.943736,82.614376 31.356382,77.787972 V 6.1189755 l 22.488977,13.9880615 0.07071,31.5772 c 0.0022,0.97456 0.674701,1.759626 1.5008,1.759626 0.829391,0 1.502992,-0.785066 1.500801,-1.759626 L 56.84696,20.226924 79.335937,9.3443124 79.901622,43.879848 c 0.01596,0.974433 0.671411,1.763494 1.49751,1.763494 0.82939,0 1.515633,-0.789044 1.500801,-1.763494 L 82.334248,6.7145404 C 82.325302,6.1267777 82.084115,5.577552 81.66942,5.2488299 81.254724,4.9239768 80.728128,4.8620998 80.264064,5.0825363 L 55.425149,17.102137 30.559904,1.6328953 c -0.01975,-0.011602 -0.04278,-0.015469 -0.06254,-0.027071 -0.0724,-0.038674 -0.144813,-0.069612 -0.21722,-0.096683 -0.04278,-0.015469 -0.08558,-0.030938 -0.13165,-0.042541 -0.07899,-0.019336 -0.157979,-0.023204 -0.240259,-0.027071 -0.04278,0 -0.08228,-0.00387 -0.125068,-0.00387 -0.07899,0.00773 -0.154687,0.023204 -0.230386,0.042541 -0.04608,0.011602 -0.09545,0.019336 -0.141522,0.034806 -0.0066,0.00387 -0.01975,0.00387 -0.02962,0.00773 L 2.393555,12.093969 c -0.612169,0.235906 -1.023573,0.908819 -1.023573,1.670679 v 75.752877 c 0,0.568494 0.230387,1.098316 0.625334,1.430904 0.256716,0.216569 0.5628,0.332589 0.875467,0.332589 0.157979,0 0.3192493,-0.03094 0.4739373,-0.09282 l 26.4450357,-10.356653 9.972427,5.019769 c 0.190892,0.09669 0.391657,0.14309 0.589131,0.14309 0.582547,0 1.135474,-0.4022 1.379026,-1.067377 0.325831,-0.893348 -0.02633,-1.929788 -0.786604,-2.312651 z M 4.3682932,15.033125 28.358071,5.6355619 V 77.679688 L 4.3682932,87.073384 Z"
     id="path90"
     style="opacity:1;fill:#000000;fill-opacity:1;stroke:#000000;stroke-width:2.73996401;stroke-miterlimit:4;stroke-dasharray:none;stroke-opacity:1;paint-order:fill markers stroke"
     inkscape:connector-curvature="0"
     sodipodi:nodetypes="ccccsssccsssscccccccccccccsscscccsccccccc" />
</svg>
