
<svg xmlns="http://www.w3.org/2000/svg" viewBox="0 0 100 100">
	<defs>
		<style>
		</style>
	</defs>
	<title>
		save
	</title>
	<g id='select_segment'>
		<g id="black" style='fill:#ffffff'>
      <path d="M 85.601562 0 L 11.71875 0 C 5.257812 0 0 5.257812 0 11.71875 L 0 88.28125 C 0 94.742188 5.257812 100 11.71875 100 L 88.28125 100 C 94.742188 100 100 94.742188 100 88.28125 L 100 14.398438 Z M 23.4375 7.8125 L 68.359375 7.8125 L 68.359375 30.859375 L 23.4375 30.859375 Z M 76.5625 92.1875 L 23.4375 92.1875 L 23.4375 61.328125 L 76.5625 61.328125 Z M 92.1875 88.28125 C 92.1875 90.433594 90.433594 92.1875 88.28125 92.1875 L 84.375 92.1875 L 84.375 53.515625 L 15.625 53.515625 L 15.625 92.1875 L 11.71875 92.1875 C 9.566406 92.1875 7.8125 90.433594 7.8125 88.28125 L 7.8125 11.71875 C 7.8125 9.566406 9.566406 7.8125 11.71875 7.8125 L 15.625 7.8125 L 15.625 38.671875 L 76.171875 38.671875 L 76.171875 7.8125 L 82.367188 7.8125 L 92.1875 17.632812 Z M 92.1875 88.28125 "/>
      <path d="M 53.515625 11.523438 L 61.328125 11.523438 L 61.328125 26.953125 L 53.515625 26.953125 Z M 53.515625 11.523438 "/>
		</g>
	</g>
</svg>
