<?xml version="1.0" encoding="UTF-8"?>
<svg id="Layer_1" data-name="Layer 1" xmlns="http://www.w3.org/2000/svg" viewBox="0 0 500 500">
  <defs>
    <style>
      .cls-1 {
        stroke-width: 0px;
      }
    </style>
  </defs>
  <path class="cls-1" d="M112.79,23.84h19.17c8.88,0,16.14,7.25,16.14,16.11s-7.26,16.11-16.14,16.11h-19.17c-31.18,0-56.5,25.27-56.5,56.39v19.13c0,8.86-7.26,16.11-16.14,16.11s-16.14-7.25-16.14-16.11v-19.13c0-48.94,39.75-88.61,88.79-88.61ZM40.14,189.98c8.88,0,16.14,7.25,16.14,16.11v86.59c0,8.86-7.26,16.11-16.14,16.11s-16.14-7.25-16.14-16.11v-86.59c0-8.86,7.26-16.11,16.14-16.11ZM459.86,189.98c8.88,0,16.14,7.25,16.14,16.11v86.59c0,8.86-7.26,16.11-16.14,16.11s-16.14-7.25-16.14-16.11v-86.59c0-8.86,7.26-16.11,16.14-16.11ZM459.86,147.69c-8.88,0-16.14-7.25-16.14-16.11v-19.13c0-31.11-25.32-56.39-56.5-56.39h-19.17c-8.88,0-16.14-7.25-16.14-16.11s7.26-16.11,16.14-16.11h19.17c49.03,0,88.79,39.67,88.79,88.61v19.13c0,8.86-7.26,16.11-16.14,16.11ZM476,368.21v18.12c0,48.94-39.75,88.61-88.79,88.61h-19.17c-8.88,0-16.14-7.25-16.14-16.11s7.26-16.11,16.14-16.11h19.17c31.18,0,56.5-25.27,56.5-56.39v-18.12c0-8.86,7.26-16.11,16.14-16.11s16.14,7.25,16.14,16.11ZM56.29,367.2v19.13c0,31.11,25.32,56.39,56.5,56.39h19.17c8.88,0,16.14,7.25,16.14,16.11s-7.26,16.11-16.14,16.11h-19.17c-49.03,0-88.79-39.67-88.79-88.61v-19.13c0-8.86,7.26-16.11,16.14-16.11s16.14,7.25,16.14,16.11ZM206.62,474.94c-8.88,0-16.14-7.25-16.14-16.11s7.26-16.11,16.14-16.11h86.77c8.88,0,16.14,7.25,16.14,16.11s-7.26,16.11-16.14,16.11h-86.77ZM190.47,39.95c0-8.86,7.26-16.11,16.14-16.11h86.77c8.88,0,16.14,7.25,16.14,16.11s-7.26,16.11-16.14,16.11h-86.77c-8.88,0-16.14-7.25-16.14-16.11Z"/>
</svg>