<svg xmlns="http://www.w3.org/2000/svg" viewBox="0 0 100 100"><title>simulation_black</title><g id="simulation"><path id="black" d="M89.09,42.32v-7a2.28,2.28,0,0,0-2.44-2.09H13.35a2.28,2.28,0,0,0-2.44,2.09v7a2.29,2.29,0,0,0,2.44,2.1h3.46a44.5,44.5,0,0,0-5.9,21.22,25.7,25.7,0,0,0,5.58,16.67v8.18a4.19,4.19,0,0,0,8.38,0V89.18c6.8,3.72,15.56,5.49,25.13,5.49s18.33-1.77,25.13-5.49v1.31a4.19,4.19,0,0,0,8.38,0V82.31a25.7,25.7,0,0,0,5.58-16.67,44.5,44.5,0,0,0-5.9-21.22h3.46A2.29,2.29,0,0,0,89.09,42.32ZM38.83,16.49a5.58,5.58,0,1,0-5.58-5.58A5.58,5.58,0,0,0,38.83,16.49ZM58.38,27.66A8.38,8.38,0,1,0,50,19.29,8.37,8.37,0,0,0,58.38,27.66Z"/></g></svg>