<svg xmlns="http://www.w3.org/2000/svg" viewBox="0 0 100 100"><defs><style>.cls-1{fill:#fff;}</style></defs><title>visible_white</title><g id="visible"><path id="white" class="cls-1" d="M90.19,47.94C82.53,33,67.36,22.88,50,22.88S17.47,33,9.81,47.94a4.6,4.6,0,0,0,0,4.12C17.47,67,32.64,77.12,50,77.12S82.53,67,90.19,52.06A4.6,4.6,0,0,0,90.19,47.94ZM50,70.34A20.34,20.34,0,1,1,70.34,50,20.34,20.34,0,0,1,50,70.34Zm0-33.9a13.48,13.48,0,0,0-3.57.54A6.76,6.76,0,0,1,37,46.43a13.53,13.53,0,1,0,16.6-9.52A14,14,0,0,0,50,36.44Z"/></g></svg>