<?xml version="1.0" encoding="UTF-8"?>
<svg class="svg-icon-modes-monorail svg-icon svg-icon-modes" xmlns="http://www.w3.org/2000/svg" version="1.1" viewBox="0 0 800 800">
    <path d="M498.779,586.855l-3.284-12.859c-1.696-6.641-7.679-11.288-14.533-11.288h-161.922c-6.855,0-12.837,4.647-14.533,11.288l-3.284,12.859c-1.696,6.641-7.679,11.288-14.533,11.288h-59.044c-8.284,0-15,6.716-15,15v186.857h374.712v-186.857c0-8.284-6.716-15-15-15h-59.044c-6.855,0-12.837-4.647-14.533-11.288Z"/>
    <path d="M620.433,515.42c-29.123,8.942-63.262,15.869-100.604,20.555.848,1.323,1.504,2.792,1.91,4.379l2.108,13.254c1.696,6.641,7.679,11.288,14.533,11.288h68.721c8.284,0,15,6.716,15,15v137.964s47.435,11.294,63.247-18.071c8.724-16.202,16.76-116.587,22.212-232.001-16.928,18.958-46.24,35.077-87.127,47.631Z"/>
    <path d="M180.793,515.42c-40.89-12.555-70.203-28.675-87.131-47.635,5.395,112.576,12.896,216.974,20.99,232.005,15.812,29.365,63.247,18.071,63.247,18.071v-137.964c0-8.284,6.716-15,15-15h68.721c6.855,0,12.837-4.647,14.533-11.288l2.108-13.254c.42-1.644,1.104-3.165,1.998-4.525-36.897-4.684-70.641-11.559-99.467-20.41Z"/>
    <path d="M400,0C205.005,0,85.288,87.65,85.288,193.815c0,46.157,2.562,142.271,6.758,238.59,3.127,20.463,23.049,47.152,93.15,68.676,56.715,17.414,133.219,27.004,215.417,27.004s158.702-9.59,215.417-27.004c69.658-21.387,89.767-47.873,93.086-68.285,3.502-83.874,5.597-171.868,5.597-238.98C714.712,87.65,594.995,0,400,0ZM209.937,458.24c-18.729,0-53.644-20.405-64.336-38.066-10.692-17.66-14.246-47.748,8.483-43.516,22.728,4.232,74.582,81.582,55.853,81.582ZM645.236,420.784c-10.692,17.661-45.607,38.066-64.336,38.066s33.125-77.35,55.853-81.582c22.729-4.232,19.175,25.856,8.483,43.516ZM400,358.078c-156.031,0-262.576-95.136-262.576-143.477,0-96.517,76.882-6.314,262.576-6.254,185.694-.06,262.576-90.263,262.576,6.254,0,48.341-106.545,143.477-262.576,143.477Z"/>
</svg>