<svg xmlns="http://www.w3.org/2000/svg" viewBox="0 0 100 100"><defs><style>.cls-1{opacity:0.7;}.cls-2{opacity:0.4;}.cls-3{opacity:0.5;}</style></defs><g id="show_hide_objects"><g id="black"><path class="cls-1" d="M29.28,90.79c-11.8-17.11-14-18.86-14-25.15a15.6,15.6,0,0,1,31.19,0c0,6.29-2.19,8-14,25.15a2,2,0,0,1-3.21,0Zm1.61-18.65a6.5,6.5,0,1,0-6.5-6.5A6.49,6.49,0,0,0,30.89,72.14Z"/><path class="cls-2" d="M19.84,40.77C12,29.37,10.52,28.2,10.52,24A10.39,10.39,0,1,1,31.3,24c0,4.19-1.46,5.36-9.32,16.76a1.3,1.3,0,0,1-2.14,0Zm1.07-12.43A4.33,4.33,0,1,0,16.58,24,4.33,4.33,0,0,0,20.91,28.34Z"/><path class="cls-3" d="M64.65,74.2c-7.87-11.4-9.33-12.57-9.33-16.76a10.4,10.4,0,1,1,20.79,0c0,4.19-1.46,5.36-9.32,16.76a1.31,1.31,0,0,1-2.14,0Zm1.07-12.43a4.33,4.33,0,1,0-4.33-4.33A4.33,4.33,0,0,0,65.72,61.77Z"/></g><path id="black-2" data-name="black" d="M92.6,23a24.08,24.08,0,0,0-43.49,0,2.56,2.56,0,0,0,0,2.26,24.09,24.09,0,0,0,43.49,0A2.54,2.54,0,0,0,92.6,23ZM70.85,35.21a11.14,11.14,0,1,1,11-11.13,11.07,11.07,0,0,1-11,11.13Zm0-18.56a7.45,7.45,0,0,0-1.93.29,3.73,3.73,0,0,1-.78,5.18,3.62,3.62,0,0,1-4.33,0A7.41,7.41,0,0,0,69,31.21a7.32,7.32,0,0,0,9-5.21,7.36,7.36,0,0,0-7.09-9.35Z"/></g></svg>