<svg xmlns="http://www.w3.org/2000/svg" viewBox="0 0 100 100"><defs><style>.cls-1{opacity:0.7;}.cls-2{opacity:0.4;}.cls-3{opacity:0.5;}</style></defs><g id="show_hide_objects"><g id="black"><path class="cls-1" d="M29.28,90.79c-11.8-17.11-14-18.86-14-25.15a15.6,15.6,0,0,1,31.19,0c0,6.29-2.19,8-14,25.15a2,2,0,0,1-3.21,0Zm1.61-18.65a6.5,6.5,0,1,0-6.5-6.5A6.49,6.49,0,0,0,30.89,72.14Z"/><path class="cls-2" d="M19.84,40.77C12,29.37,10.52,28.2,10.52,24A10.39,10.39,0,1,1,31.3,24c0,4.19-1.46,5.36-9.32,16.76a1.3,1.3,0,0,1-2.14,0Zm1.07-12.43A4.33,4.33,0,1,0,16.58,24,4.33,4.33,0,0,0,20.91,28.34Z"/><path class="cls-3" d="M64.65,74.2c-7.87-11.4-9.33-12.57-9.33-16.76a10.4,10.4,0,1,1,20.79,0c0,4.19-1.46,5.36-9.32,16.76a1.31,1.31,0,0,1-2.14,0Zm1.07-12.43a4.33,4.33,0,1,0-4.33-4.33A4.33,4.33,0,0,0,65.72,61.77Z"/></g><path id="black-2" data-name="black" d="M70.87,35.45A10.87,10.87,0,0,1,60,25.36l-7.95-6.14a24.74,24.74,0,0,0-2.78,4.21,2.42,2.42,0,0,0,0,2.22A24.31,24.31,0,0,0,70.87,39.09a23.52,23.52,0,0,0,5.9-.79l-3.93-3A10.05,10.05,0,0,1,70.87,35.45Zm23.78,4.41-8.38-6.48a24.91,24.91,0,0,0,6.16-7.74,2.46,2.46,0,0,0,0-2.21A24.3,24.3,0,0,0,70.87,10,23.35,23.35,0,0,0,59.7,12.85L50.06,5.39a1.21,1.21,0,0,0-1.7.22h0L46.87,7.52a1.21,1.21,0,0,0,.22,1.7L91.67,43.68a1.2,1.2,0,0,0,1.7-.21h0l1.48-1.91A1.21,1.21,0,0,0,94.65,39.86ZM80.73,29.09l-3-2.3A7.18,7.18,0,0,0,69,17.55a3.66,3.66,0,0,1,.71,2.14,4.81,4.81,0,0,1-.12.76L64,16.14a10.77,10.77,0,0,1,6.91-2.51,10.9,10.9,0,0,1,10.91,10.9h0a10.63,10.63,0,0,1-1,4.55Z"/></g></svg>