<?xml version="1.0" encoding="UTF-8"?>
<svg class="svg-icon-modes-gondola_small svg-icon svg-icon-modes" xmlns="http://www.w3.org/2000/svg" version="1.1" viewBox="0 0 800 800">
    <path d="M797.666,141.758l-.511-2.13c-1.289-5.37-6.688-8.679-12.058-7.39L9.723,318.383c-5.37,1.289-8.679,6.688-7.389,12.058l.511,2.131c1.289,5.37,6.688,8.678,12.058,7.389l369.482-88.702v95.344h-74.228c-11.187,0-21.445,6.225-26.611,16.148l-88.029,169.113c-4.519,8.682-4.519,19.022,0,27.704l88.029,169.113c5.165,9.923,15.423,16.148,26.611,16.148h170.881c11.187,0,21.445-6.225,26.611-16.148l88.029-169.113c4.519-8.682,4.519-19.022,0-27.704l-88.029-169.113c-5.166-9.923-15.423-16.148-26.611-16.148h-74.461v-100.672l383.699-92.116c5.37-1.289,8.678-6.688,7.389-12.058ZM479.036,629.083c0,5.522-4.478,10-10,10s-10-4.478-10-10v-24.631c0-5.522,4.478-10,10-10s10,4.478,10,10v24.631ZM482.095,401.076l60.072,115.405c6.931,13.315-2.73,29.235-17.74,29.235h-257.659c-15.01,0-24.671-15.92-17.74-29.235l60.072-115.405c3.444-6.616,10.282-10.765,17.74-10.765h137.514c7.458,0,14.297,4.15,17.74,10.765Z"/>
    <path d="M380.727,188.841c0,13.003-10.541,23.544-23.544,23.544s-23.544-10.541-23.544-23.544,10.541-23.544,23.544-23.544,23.544,10.541,23.544,23.544ZM425.774,148.83c-13.003,0-23.544,10.541-23.544,23.544s10.541,23.544,23.544,23.544,23.544-10.541,23.544-23.544-10.541-23.544-23.544-23.544Z"/>
</svg>