<?xml version="1.0" encoding="UTF-8"?>
<svg id="svg-icon-gondola_large" class="svg-icon" xmlns="http://www.w3.org/2000/svg" version="1.1" viewBox="0 0 800 800">
    <path d="M586.968,355.425h-180.39v-109.494l383.699-92.116c5.37-1.289,8.678-6.688,7.389-12.058l-.511-2.13c-1.289-5.37-6.688-8.679-12.058-7.39L9.723,318.383c-5.37,1.289-8.679,6.688-7.389,12.058l.512,2.131c1.289,5.37,6.688,8.678,12.058,7.389l369.482-88.702v104.167h-180.391c-45.77,0-83.217,37.448-83.217,83.217v162.93c0,45.77,37.448,83.217,83.217,83.217h382.974c45.77,0,83.217-37.448,83.217-83.217v-162.93c0-45.77-37.448-83.217-83.217-83.217ZM469.556,416.801v204.51c0,15.32-12.419,27.739-27.739,27.739h-91.752c-15.32,0-27.739-12.419-27.739-27.739v-204.51c0-15.32,12.419-27.739,27.739-27.739h91.752c15.32,0,27.739,12.419,27.739,27.739ZM151.574,526.998v-82.458c0-30.513,24.965-55.478,55.478-55.478h57.576c15.32,0,27.739,12.419,27.739,27.739v137.936c0,15.32-12.419,27.739-27.739,27.739h-57.576c-30.513,0-55.478-24.965-55.478-55.478ZM639.388,526.998c0,30.513-24.965,55.478-55.478,55.478h-56.657c-15.32,0-27.739-12.419-27.739-27.739v-137.936c0-15.32,12.419-27.739,27.739-27.739h56.657c30.513,0,55.478,24.965,55.478,55.478v82.458Z"/>
    <path d="M350.551,188.841c0,13.003-10.541,23.544-23.544,23.544s-23.544-10.541-23.544-23.544,10.541-23.544,23.544-23.544,23.544,10.541,23.544,23.544ZM395.598,148.83c-13.003,0-23.544,10.541-23.544,23.544s10.541,23.544,23.544,23.544,23.544-10.541,23.544-23.544-10.541-23.544-23.544-23.544ZM464.874,132.925c-13.003,0-23.544,10.541-23.544,23.544s10.541,23.544,23.544,23.544,23.544-10.541,23.544-23.544-10.541-23.544-23.544-23.544Z"/>
</svg>