<?xml version="1.0" encoding="UTF-8"?>
<svg class="svg-icon-interface-marker_round_with_down_arrow svg-icon-interface svg-icon" xmlns="http://www.w3.org/2000/svg" version="1.1" viewBox="0 0 800 800">
    <defs>
        <style>
            .svg-icon-marker-background { fill: #fff; }
        </style>
    </defs>
    <path class="svg-icon-marker-marker_round" d="M678.058,289.282c.01-.256.02-.513.029-.769.044-1.27.087-2.539.113-3.813.046-1.971.075-3.946.075-5.925C678.276,125.068,553.208,0,399.501,0S120.726,125.068,120.726,278.775h0c0,.007,0,.015,0,.022,0,1.966.03,3.927.075,5.886.027,1.301.071,2.597.116,3.893.008.218.016.436.025.654,1.311,35.36,9.235,69.057,22.578,99.889,66.594,165.882,256.216,300.297,256.216,410.756l.133-7.452.133,7.452c0-110.815,190.349-245.74,256.184-412.361,12.919-30.379,20.579-63.506,21.873-98.232Z"/>
    <path class="svg-icon-marker-background" d="M168.817,278.775c0-127.191,103.493-230.684,230.684-230.684s230.684,103.493,230.684,230.684-103.493,230.684-230.684,230.684-230.684-103.493-230.684-230.684h0Z"/>
    <path class="svg-icon-marker-marker_round_with_down_arrow-down_arrow" d="M422.1,292.8V98.3c0-12-9.3-22.1-21.3-22.6-12.5-.4-22.9,9.6-22.9,22v195h-88.9c-8.9,0-14.1,10-9.1,17.3l111,160.1c4.4,6.3,13.7,6.3,18.1,0l111-160.1c5.1-7.3-.2-17.3-9.1-17.3h-88.9Z"/>
</svg>