<?xml version="1.0" encoding="UTF-8"?>
<svg class="svg-icon-modes-wheelchair svg-icon svg-icon-modes" xmlns="http://www.w3.org/2000/svg" xmlns:xlink="http://www.w3.org/1999/xlink" version="1.1" viewBox="0 0 800 800">
    <path d="M353.581,799.277c-4.206.3-8.426.506-12.668.62-74.585,1.995-145.483-25.175-199.634-76.503-54.151-51.329-85.072-120.674-87.067-195.258-1.923-71.915,23.522-140.948,71.651-194.383,11.287-12.531,30.595-13.54,43.126-2.253,12.531,11.287,13.54,30.595,2.253,43.126-37.602,41.748-57.482,95.685-55.979,151.876,1.559,58.277,25.719,112.461,68.03,152.567,42.311,40.106,97.708,61.336,155.986,59.776,58.277-1.553,112.461-25.718,152.567-68.03,11.601-12.24,30.93-12.758,43.17-1.155,12.24,11.602,12.757,30.93,1.155,43.17-48.409,51.07-112.848,81.479-182.59,86.446Z"/>
    <path d="M744.078,745.907l-48.078-261.56c-2.201-11.973-9.077-22.577-19.111-29.471-10.035-6.895-22.399-9.506-34.364-7.271l-245.794,45.997-27.197-127.514c10.972,5.64,29.088,12.884,50.773,13.585,35.949,1.163,80.71.656,80.71.656,3.758-.09,7.347-.746,10.709-1.893,16.013-5.465,26.806-22.055,25.384-41.377-1.719-23.38-20.668-41.914-42.321-41.395h0s-18.272-1.296-48.25-1.255c-43.866.059-76.827-8.124-98.92-31.061l-12.273-57.54c-5.277-24.741-29.612-40.52-54.352-35.242-24.741,5.277-40.519,29.61-35.243,54.351l70.701,331.479c5.184,24.303,28.799,40.038,53.222,35.469l244.532-45.761,39.77,216.365c4.06,22.081,23.322,37.532,44.998,37.531,2.746,0,5.534-.249,8.333-.762,24.88-4.573,41.342-28.451,36.769-53.33Z"/>
    <path d="M186.08,75.618C186.08,33.855,219.935,0,261.698,0s75.618,33.855,75.618,75.618-33.855,75.618-75.618,75.618-75.618-33.855-75.618-75.618Z"/>
</svg>