<?xml version="1.0" encoding="UTF-8"?>
<svg id="svg-icon-wheelchair_electric" class="svg-icon" xmlns="http://www.w3.org/2000/svg" xmlns:xlink="http://www.w3.org/1999/xlink" version="1.1" viewBox="0 0 800 800">
    <path d="M104.165.11c-19.205,0-34.773,15.568-34.773,34.773.01,2.677,70.089,388.48,70.089,388.48.08.5.17.998.272,1.494l.068.34c.023,0,.045,0,.068,0,3.632,15.759,17.65,26.934,33.822,26.963h382.503c19.205,0,34.773-15.568,34.773-34.773-.013-11.38-5.593-22.034-14.942-28.525l-.068-.068c-.313-.232-.63-.458-.951-.679-2.81-2.36-90.037-75.047-192.678-75.047-30.565,0-61.08,6.084-89.038,14.534,0,0-4.333-39.817-13.176-84.08h171.76c19.205.272,34.993-15.077,35.265-34.281.272-19.205-15.077-34.993-34.281-35.265-.328-.005-.656-.005-.984,0h-34.773c.263-19.205-15.092-34.986-34.297-35.249-.34-.005-.68-.004-1.019,0-19.178.3-34.492,16.07-34.23,35.248h-85.71c-.413-1.13-.732-2.423-1.155-3.532-25.78-67.68-69.569-127.22-93.045-155.188-.112-.137-.225-.273-.34-.407-.178-.212-.435-.607-.611-.815C160.161,5.283,149.872.126,138.938.11h-34.773ZM138.938,521.706C62.125,521.706-.154,583.984-.154,660.798v17.387c0,66.804,54.901,121.706,121.706,121.706,48.096,0,89.634-28.677,109.345-69.546h233.36c19.71,40.869,61.248,69.546,109.345,69.546,66.804,0,121.706-54.901,121.706-121.706v-17.387c0-3.208-.737-6.218-.951-9.372l81.499-27.166c18.312-5.792,28.462-25.333,22.67-43.645-4.45-14.069-17.294-23.798-32.042-24.271-4.292-.152-8.575.493-12.632,1.902l-81.092,27.031c-24.796-38.187-67.624-63.569-116.544-63.569H138.938ZM121.552,626.025c29.219,0,52.16,22.941,52.16,52.16s-22.941,52.16-52.16,52.16-52.16-22.941-52.16-52.16,22.941-52.16,52.16-52.16ZM573.601,626.025c29.219,0,52.16,22.941,52.16,52.16s-22.941,52.16-52.16,52.16-52.16-22.941-52.16-52.16,22.941-52.16,52.16-52.16Z"/>
</svg>