<?xml version="1.0" encoding="UTF-8"?>
<svg class="svg-icon-marker_square-activities-carsharing_station svg-icon-marker_square svg-icon-marker_square-activities" xmlns="http://www.w3.org/2000/svg" version="1.1" viewBox="0 0 800 800">
    <defs>
        <style>
            .svg-icon-marker-background { fill: #fff; }
            .svg-icon-opacity_half { opacity: .5; }
        </style>
    </defs>
    <path class="svg-icon-marker-marker_square" d="M678.707,0H121.24C79.611,0,45.744,33.867,45.744,75.496v557.467c0,41.629,33.867,75.496,75.496,75.496h130.099c148.693,5.043,148.635,91.541,148.635,91.541,0,0-.058-86.499,148.636-91.541h130.097c41.629,0,75.496-33.867,75.496-75.496V75.496C754.203,33.868,720.336,0,678.707,0h0Z"/>
    <path class="svg-icon-marker-background" d="M139.566,48.525h520.814c25.017,0,45.297,20.28,45.297,45.297v520.814c0,25.017-20.28,45.297-45.297,45.297H139.566c-25.017,0-45.297-20.28-45.297-45.297V93.822c0-25.017,20.28-45.297,45.297-45.297Z"/>
    <g class="svg-icon-content" transform="translate(120, 75) scale(0.7)">
        <path class="svg-icon-opacity_half" d="M337.478,328.786c-6.086-5.626-9.775-13.756-9.775-23.03,0-17.819,13.32-31.138,31.137-31.138,10.671,0,19.824,4.883,25.394,12.685,5.754-1.862,11.861-3.19,18.273-3.962,6.909-.721,21.062-1.443,39.995-2.009-2.767-18.567-9.598-32.498-22.325-48.919h.001s-6.593-8.555-6.593-8.555l2.355-.556c9.878-2.332,16.053-12.322,13.72-22.2-2.332-9.878-12.322-16.053-22.2-13.72l-8.376,1.977c-6.843-25.912-15.451-49.708-20.55-60.489-9.942-21.197-29.45-33.765-54.397-37.141-12.568-1.5-53.647-2.626-102.232-2.626s-89.475,1.313-102.044,2.626c-24.947,3.002-44.456,15.945-54.398,37.141-5.077,10.734-13.631,34.368-20.458,60.145l-6.918-1.633c-9.878-2.332-19.868,3.842-22.2,13.72-2.332,9.878,3.842,19.868,13.72,22.2l1.045.247-6.832,8.865C6.378,254.922,0,272.741,0,304.255v108.234c0,13.88,10.88,24.573,24.948,24.573h22.134c13.881,0,24.76-10.693,24.76-24.572v-31.514c41.643,2.626,101.856,4.502,150.064,4.502,29.847,0,64.365-.72,96.215-1.891,6.838-23.358,14.328-43.769,19.356-54.801ZM77.473,196.398h-.002c4.502-20.634,13.506-47.458,19.696-58.338,5.065-8.817,10.504-12.568,20.634-13.881,14.256-2.064,46.145-3.189,104.107-3.189s90.039.75,104.295,3.189c9.942,1.501,15.381,5.065,20.633,13.881,6.38,10.691,14.82,37.703,19.695,58.338,1.69,6.94-1.125,9.566-8.439,9.004-31.138-1.875-68.28-3.938-136.184-3.938s-104.857,2.064-135.995,3.938c-7.316.563-9.942-2.064-8.441-9.004ZM85.161,336.896c-17.82,0-31.138-13.507-31.138-31.139,0-17.819,13.318-31.138,31.138-31.138s31.138,13.318,31.138,31.138c0,17.633-13.318,31.139-31.138,31.139ZM271.804,328.267h-99.605c-13.13,0-22.322-9.378-22.322-22.51,0-13.318,9.192-22.51,22.322-22.51h99.605c13.131,0,22.322,9.192,22.322,22.51,0,13.131-9.191,22.51-22.322,22.51Z"/>
        <path d="M771.834,468.915l-7.795-10.116,2.785-.658c11.68-2.758,18.981-14.57,16.223-26.25h0c-2.758-11.68-14.57-18.981-26.25-16.223l-9.904,2.337c-8.091-30.639-18.27-58.777-24.299-71.524-11.755-25.064-34.823-39.925-64.321-43.917-14.861-1.773-63.434-3.105-120.883-3.105s-105.798,1.553-120.66,3.105c-29.498,3.549-52.566,18.854-64.322,43.917-6.003,12.692-16.117,40.638-24.19,71.118l-8.181-1.931c-11.68-2.758-23.493,4.543-26.25,16.223h0c-2.758,11.68,4.543,23.493,16.223,26.25l1.236.292-8.079,10.483c-20.625,26.615-28.167,47.686-28.167,84.948v127.979c0,16.413,12.864,29.056,29.5,29.056h26.172c16.414,0,29.277-12.643,29.277-29.055v-37.263c49.241,3.105,120.438,5.324,177.44,5.324s128.424-2.218,177.662-5.324v37.263c0,16.413,12.642,29.055,29.276,29.055h26.174c16.634,0,29.498-12.643,29.498-29.055v-127.979c0-37.263-7.541-58.333-28.168-84.949h.002ZM366.605,426.329c5.324-24.398,15.97-56.116,23.289-68.981,5.989-10.425,12.421-14.861,24.398-16.414,16.857-2.44,54.564-3.77,123.1-3.77s106.465.887,123.322,3.77c11.755,1.775,18.187,5.989,24.397,16.414,7.544,12.642,17.524,44.582,23.289,68.981,1.999,8.206-1.33,11.312-9.979,10.646-36.819-2.217-80.736-4.657-161.028-4.657s-123.987,2.44-160.805,4.657c-8.65.666-11.755-2.44-9.981-10.646h-.002ZM375.697,592.458c-21.07,0-36.819-15.971-36.819-36.82,0-21.07,15.748-36.819,36.819-36.819s36.819,15.748,36.819,36.819c0,20.849-15.747,36.82-36.819,36.82h0ZM596.39,582.254h-117.776c-15.525,0-26.394-11.089-26.394-26.616,0-15.747,10.869-26.616,26.394-26.616h117.776c15.527,0,26.394,10.869,26.394,26.616,0,15.527-10.868,26.616-26.394,26.616h0ZM699.304,592.458c-21.068,0-36.818-15.971-36.818-36.82,0-21.07,15.75-36.819,36.818-36.819,20.85,0,36.82,15.748,36.82,36.819,0,20.849-15.971,36.82-36.82,36.82h0Z"/>
    </g>
</svg>