<?xml version="1.0" encoding="UTF-8"?>
<svg class="svg-icon-activities-electric_charging_station svg-icon svg-icon-activities" xmlns="http://www.w3.org/2000/svg" version="1.1" viewBox="0 0 800 800">
    <path d="M791.304,227.994h-18.912v-58.496c0-9.502-7.703-17.205-17.205-17.205s-17.205,7.703-17.205,17.205v58.496h-51.614v-58.496c0-9.502-7.703-17.205-17.205-17.205s-17.205,7.703-17.205,17.205v58.496h-20.632c-4.751,0-8.602,3.851-8.602,8.602v53.334c0,38.053,27.462,69.671,63.644,76.174v208.253c0,21.82-17.751,39.571-39.571,39.571s-39.571-17.751-39.571-39.571v-65.377c0-50.28-40.905-91.185-91.184-91.185h-34.409V90.357c0-28.388-23.226-51.614-51.614-51.614H103.133c-28.388,0-51.614,23.226-51.614,51.614v574.633c-28.388,0-51.614,23.226-51.614,51.614v5.161c0,28.388,23.226,51.614,51.614,51.614h430.115c28.388,0,51.614-23.226,51.614-51.614v-5.161c0-28.388-23.226-51.614-51.614-51.614v-195.581h34.409v-.002c21.82,0,39.571,17.752,39.571,39.572v65.377c0,50.28,40.905,91.184,91.184,91.184s91.184-40.905,91.184-91.184v-208.56c35.331-7.179,61.923-38.416,61.923-75.867v-53.334c0-4.751-3.851-8.602-8.602-8.602ZM177.126,382.034l17.913-134.352c.896-6.662,6.605-11.644,13.323-11.644h80.61c8.79,0,15.228,8.396,12.988,16.905l-23.847,72.662h64.602c10.355,0,16.793,11.252,11.587,20.154l-98.525,170.179c-2.464,4.255-6.942,6.718-11.644,6.718-8.564,0-15.057-8.005-13.043-16.515l25.807-108.881h-66.448c-8.117,0-14.386-7.166-13.323-15.226Z"/>
</svg>