<?xml version="1.0" encoding="UTF-8"?>
<svg class="svg-icon-marker_round-activities-electric_charging_station svg-icon-marker_round svg-icon-marker_round-activities" xmlns="http://www.w3.org/2000/svg" version="1.1" viewBox="0 0 800 800">
    <defs>
        <style>
            .svg-icon-marker-background { fill: #fff; }

        </style>
    </defs>
    <path class="svg-icon-marker-marker_round" d="M678.058,289.282c.01-.256.02-.513.029-.769.044-1.27.087-2.539.113-3.813.046-1.971.075-3.946.075-5.925C678.276,125.068,553.208,0,399.501,0S120.726,125.068,120.726,278.775h0c0,.007,0,.015,0,.022,0,1.966.03,3.927.075,5.886.027,1.301.071,2.597.116,3.893.008.218.016.436.025.654,1.311,35.36,9.235,69.057,22.578,99.889,66.594,165.882,256.216,300.297,256.216,410.756l.133-7.452.133,7.452c0-110.815,190.349-245.74,256.184-412.361,12.919-30.379,20.579-63.506,21.873-98.232Z"/>
    <path class="svg-icon-marker-background" d="M168.817,278.775c0-127.191,103.493-230.684,230.684-230.684s230.684,103.493,230.684,230.684-103.493,230.684-230.684,230.684-230.684-103.493-230.684-230.684h0Z"/>
    <g class="svg-icon-content" transform="translate(240, 120) scale(0.4)">
        <path d="M791.304,227.994h-18.912v-58.496c0-9.502-7.703-17.205-17.205-17.205s-17.205,7.703-17.205,17.205v58.496h-51.614v-58.496c0-9.502-7.703-17.205-17.205-17.205s-17.205,7.703-17.205,17.205v58.496h-20.632c-4.751,0-8.602,3.851-8.602,8.602v53.334c0,38.053,27.462,69.671,63.644,76.174v208.253c0,21.82-17.751,39.571-39.571,39.571s-39.571-17.751-39.571-39.571v-65.377c0-50.28-40.905-91.185-91.184-91.185h-34.409V90.357c0-28.388-23.226-51.614-51.614-51.614H103.133c-28.388,0-51.614,23.226-51.614,51.614v574.633c-28.388,0-51.614,23.226-51.614,51.614v5.161c0,28.388,23.226,51.614,51.614,51.614h430.115c28.388,0,51.614-23.226,51.614-51.614v-5.161c0-28.388-23.226-51.614-51.614-51.614v-195.581h34.409v-.002c21.82,0,39.571,17.752,39.571,39.572v65.377c0,50.28,40.905,91.184,91.184,91.184s91.184-40.905,91.184-91.184v-208.56c35.331-7.179,61.923-38.416,61.923-75.867v-53.334c0-4.751-3.851-8.602-8.602-8.602ZM177.126,382.034l17.913-134.352c.896-6.662,6.605-11.644,13.323-11.644h80.61c8.79,0,15.228,8.396,12.988,16.905l-23.847,72.662h64.602c10.355,0,16.793,11.252,11.587,20.154l-98.525,170.179c-2.464,4.255-6.942,6.718-11.644,6.718-8.564,0-15.057-8.005-13.043-16.515l25.807-108.881h-66.448c-8.117,0-14.386-7.166-13.323-15.226Z"/>
    </g>
</svg>