<?xml version="1.0" encoding="UTF-8"?>
<svg class="svg-icon-marker_round-activities-question_mark svg-icon-marker_round svg-icon-marker_round-activities" xmlns="http://www.w3.org/2000/svg" version="1.1" viewBox="0 0 800 800">
    <defs>
        <style>
            .svg-icon-marker-background { fill: #fff; }

        </style>
    </defs>
    <path class="svg-icon-marker-marker_round" d="M678.058,289.282c.01-.256.02-.513.029-.769.044-1.27.087-2.539.113-3.813.046-1.971.075-3.946.075-5.925C678.276,125.068,553.208,0,399.501,0S120.726,125.068,120.726,278.775h0c0,.007,0,.015,0,.022,0,1.966.03,3.927.075,5.886.027,1.301.071,2.597.116,3.893.008.218.016.436.025.654,1.311,35.36,9.235,69.057,22.578,99.889,66.594,165.882,256.216,300.297,256.216,410.756l.133-7.452.133,7.452c0-110.815,190.349-245.74,256.184-412.361,12.919-30.379,20.579-63.506,21.873-98.232Z"/>
    <path class="svg-icon-marker-background" d="M168.817,278.775c0-127.191,103.493-230.684,230.684-230.684s230.684,103.493,230.684,230.684-103.493,230.684-230.684,230.684-230.684-103.493-230.684-230.684h0Z"/>
    <g class="svg-icon-content" transform="translate(240, 120) scale(0.4)">
        <path d="M298.807,528.742v-39.206c0-33.907,7.236-63.394,21.723-88.476,14.478-25.075,40.968-51.738,79.47-80,37.086-26.49,61.539-48.03,73.378-64.635,11.828-16.598,17.748-35.141,17.748-55.63,0-22.955-8.477-40.439-25.431-52.45-16.953-12.004-40.621-18.014-70.993-18.014-52.98,0-113.378,17.31-181.192,51.92l-57.749-116.027C234.52,22.078,318.054,0,406.357,0c72.757,0,130.597,17.484,173.51,52.45,42.915,34.967,64.371,81.59,64.371,139.868,0,38.857-8.833,72.409-26.49,100.662-17.666,28.262-51.217,60.05-100.663,95.365-33.907,25.083-55.364,44.156-64.37,57.219-9.006,13.069-13.51,30.197-13.51,51.389v31.789h-140.398ZM281.855,709.934c0-29.669,7.946-52.095,23.84-67.284,15.894-15.182,39.024-22.782,69.405-22.782,29.312,0,52.002,7.773,68.078,23.311,16.069,15.545,24.106,37.798,24.106,66.755,0,27.906-8.129,49.892-24.371,65.96-16.25,16.069-38.858,24.106-67.814,24.106-29.669,0-52.633-7.864-68.875-23.576-16.25-15.712-24.37-37.881-24.37-66.49Z"/>
    </g>
</svg>