<?xml version="1.0" encoding="UTF-8"?>
<svg class="svg-icon-marker_square-activities-question_mark svg-icon-marker_square svg-icon-marker_square-activities" xmlns="http://www.w3.org/2000/svg" version="1.1" viewBox="0 0 800 800">
    <defs>
        <style>
            .svg-icon-marker-background { fill: #fff; }

        </style>
    </defs>
    <path class="svg-icon-marker-marker_square" d="M678.707,0H121.24C79.611,0,45.744,33.867,45.744,75.496v557.467c0,41.629,33.867,75.496,75.496,75.496h130.099c148.693,5.043,148.635,91.541,148.635,91.541,0,0-.058-86.499,148.636-91.541h130.097c41.629,0,75.496-33.867,75.496-75.496V75.496C754.203,33.868,720.336,0,678.707,0h0Z"/>
    <path class="svg-icon-marker-background" d="M139.566,48.525h520.814c25.017,0,45.297,20.28,45.297,45.297v520.814c0,25.017-20.28,45.297-45.297,45.297H139.566c-25.017,0-45.297-20.28-45.297-45.297V93.822c0-25.017,20.28-45.297,45.297-45.297Z"/>
    <g class="svg-icon-content" transform="translate(120, 75) scale(0.7)">
        <path d="M298.807,528.742v-39.206c0-33.907,7.236-63.394,21.723-88.476,14.478-25.075,40.968-51.738,79.47-80,37.086-26.49,61.539-48.03,73.378-64.635,11.828-16.598,17.748-35.141,17.748-55.63,0-22.955-8.477-40.439-25.431-52.45-16.953-12.004-40.621-18.014-70.993-18.014-52.98,0-113.378,17.31-181.192,51.92l-57.749-116.027C234.52,22.078,318.054,0,406.357,0c72.757,0,130.597,17.484,173.51,52.45,42.915,34.967,64.371,81.59,64.371,139.868,0,38.857-8.833,72.409-26.49,100.662-17.666,28.262-51.217,60.05-100.663,95.365-33.907,25.083-55.364,44.156-64.37,57.219-9.006,13.069-13.51,30.197-13.51,51.389v31.789h-140.398ZM281.855,709.934c0-29.669,7.946-52.095,23.84-67.284,15.894-15.182,39.024-22.782,69.405-22.782,29.312,0,52.002,7.773,68.078,23.311,16.069,15.545,24.106,37.798,24.106,66.755,0,27.906-8.129,49.892-24.371,65.96-16.25,16.069-38.858,24.106-67.814,24.106-29.669,0-52.633-7.864-68.875-23.576-16.25-15.712-24.37-37.881-24.37-66.49Z"/>
    </g>
</svg>