<?xml version="1.0" encoding="UTF-8"?>
<svg id="svg-icon-restaurant" class="svg-icon" xmlns="http://www.w3.org/2000/svg" version="1.1" viewBox="0 0 800 800">
    <path d="M581.1,0C492.7,0,421.1,88.4,421.1,188.2s28.6,114.3,63.5,147.7c30.6,29.3,49.5,51.9,53.2,100.8v322.8c0,22.4,18.2,40.6,40.6,40.6h5.5c22.4,0,40.6-18.2,40.6-40.6v-322.8c3.8-49,22.6-71.5,53.2-100.8,34.9-33.3,63.5-86.9,63.5-147.7C741.1,88.4,669.4,0,581.1,0Z"/>
    <path d="M294.7,38.4v170.9c0,10.9-8.8,19.8-19.8,19.8h-5.3c-10.9,0-19.8-8.9-19.8-19.8V37.6c0-28.2-18.9-36.6-37.1-36.6s-37.1,8.4-37.1,36.6v171.7c0,10.9-8.9,19.8-19.8,19.8h-5.3c-10.9,0-19.8-8.9-19.8-19.8V38.4c0-50.4-71.9-48.7-71.9.6v163.2c-.3,90.6,21.3,114.1,57.1,142.4,28.8,22.8,53.4,35.7,53.4,92.2v322.7c0,22.4,18.1,40.6,40.6,40.6h5.5c22.4,0,40.6-18.2,40.6-40.6v-322.7c0-56.5,24.6-69.5,53.4-92.2,35.8-28.2,57.4-51.8,57.1-142.4V38.9c0-49.3-71.9-51-71.9-.6Z"/>
</svg>