<?xml version="1.0" encoding="UTF-8"?>
<svg class="svg-icon-marker_square-activities-restaurant svg-icon-marker_square svg-icon-marker_square-activities" xmlns="http://www.w3.org/2000/svg" version="1.1" viewBox="0 0 800 800">
    <defs>
        <style>
            .svg-icon-marker-background { fill: #fff; }

        </style>
    </defs>
    <path class="svg-icon-marker-marker_square" d="M678.707,0H121.24C79.611,0,45.744,33.867,45.744,75.496v557.467c0,41.629,33.867,75.496,75.496,75.496h130.099c148.693,5.043,148.635,91.541,148.635,91.541,0,0-.058-86.499,148.636-91.541h130.097c41.629,0,75.496-33.867,75.496-75.496V75.496C754.203,33.868,720.336,0,678.707,0h0Z"/>
    <path class="svg-icon-marker-background" d="M139.566,48.525h520.814c25.017,0,45.297,20.28,45.297,45.297v520.814c0,25.017-20.28,45.297-45.297,45.297H139.566c-25.017,0-45.297-20.28-45.297-45.297V93.822c0-25.017,20.28-45.297,45.297-45.297Z"/>
    <g class="svg-icon-content" transform="translate(120, 75) scale(0.7)">
        <path d="M581.1,0C492.7,0,421.1,88.4,421.1,188.2s28.6,114.3,63.5,147.7c30.6,29.3,49.5,51.9,53.2,100.8v322.8c0,22.4,18.2,40.6,40.6,40.6h5.5c22.4,0,40.6-18.2,40.6-40.6v-322.8c3.8-49,22.6-71.5,53.2-100.8,34.9-33.3,63.5-86.9,63.5-147.7C741.1,88.4,669.4,0,581.1,0Z"/>
        <path d="M294.7,38.4v170.9c0,10.9-8.8,19.8-19.8,19.8h-5.3c-10.9,0-19.8-8.9-19.8-19.8V37.6c0-28.2-18.9-36.6-37.1-36.6s-37.1,8.4-37.1,36.6v171.7c0,10.9-8.9,19.8-19.8,19.8h-5.3c-10.9,0-19.8-8.9-19.8-19.8V38.4c0-50.4-71.9-48.7-71.9.6v163.2c-.3,90.6,21.3,114.1,57.1,142.4,28.8,22.8,53.4,35.7,53.4,92.2v322.7c0,22.4,18.1,40.6,40.6,40.6h5.5c22.4,0,40.6-18.2,40.6-40.6v-322.7c0-56.5,24.6-69.5,53.4-92.2,35.8-28.2,57.4-51.8,57.1-142.4V38.9c0-49.3-71.9-51-71.9-.6Z"/>
    </g>
</svg>