<?xml version="1.0" encoding="UTF-8"?>
<svg id="svg-icon-two_persons" xmlns="http://www.w3.org/2000/svg" version="1.1" viewBox="0 0 800 800">
    <defs>
        <style>
            .svg-icon-opacity_half { opacity: .5; }
        </style>
    </defs>
    <path class="svg-icon-opacity_half" d="M530.8,293.2c0-51.4,41.7-93.1,93.1-93.1s93.1,41.7,93.1,93.1-41.7,93.1-93.1,93.1-93.1-41.7-93.1-93.1ZM577.1,609h222.9c0-99.2-78.8-179.6-176.1-179.6s-100.4,23.8-132.7,61.6c36.4,32.4,65.9,72.6,85.9,118Z"/>
    <path d="M0,733c0-161.5,128.4-292.4,286.7-292.4s286.7,130.9,286.7,292.4H0ZM0,733h0c0-161.5,128.4-292.4,286.7-292.4s286.7,130.9,286.7,292.4H0M286.7,67c-83.8,0-151.7,67.9-151.7,151.7s67.9,151.7,151.7,151.7,151.7-67.9,151.7-151.7-67.9-151.7-151.7-151.7Z"/>
</svg>