<?xml version="1.0" encoding="UTF-8"?>
<svg class="svg-icon-marker_round-activities-two_persons svg-icon-marker_round svg-icon-marker_round-activities" xmlns="http://www.w3.org/2000/svg" version="1.1" viewBox="0 0 800 800">
    <defs>
        <style>
            .svg-icon-marker-background { fill: #fff; }
            .svg-icon-opacity_half { opacity: .5; }
        </style>
    </defs>
    <path class="svg-icon-marker-marker_round" d="M678.058,289.282c.01-.256.02-.513.029-.769.044-1.27.087-2.539.113-3.813.046-1.971.075-3.946.075-5.925C678.276,125.068,553.208,0,399.501,0S120.726,125.068,120.726,278.775h0c0,.007,0,.015,0,.022,0,1.966.03,3.927.075,5.886.027,1.301.071,2.597.116,3.893.008.218.016.436.025.654,1.311,35.36,9.235,69.057,22.578,99.889,66.594,165.882,256.216,300.297,256.216,410.756l.133-7.452.133,7.452c0-110.815,190.349-245.74,256.184-412.361,12.919-30.379,20.579-63.506,21.873-98.232Z"/>
    <path class="svg-icon-marker-background" d="M168.817,278.775c0-127.191,103.493-230.684,230.684-230.684s230.684,103.493,230.684,230.684-103.493,230.684-230.684,230.684-230.684-103.493-230.684-230.684h0Z"/>
    <g class="svg-icon-content" transform="translate(240, 120) scale(0.4)">
        <path class="svg-icon-opacity_half" d="M530.8,293.2c0-51.4,41.7-93.1,93.1-93.1s93.1,41.7,93.1,93.1-41.7,93.1-93.1,93.1-93.1-41.7-93.1-93.1ZM577.1,609h222.9c0-99.2-78.8-179.6-176.1-179.6s-100.4,23.8-132.7,61.6c36.4,32.4,65.9,72.6,85.9,118Z"/>
        <path d="M0,733c0-161.5,128.4-292.4,286.7-292.4s286.7,130.9,286.7,292.4H0ZM0,733h0c0-161.5,128.4-292.4,286.7-292.4s286.7,130.9,286.7,292.4H0M286.7,67c-83.8,0-151.7,67.9-151.7,151.7s67.9,151.7,151.7,151.7,151.7-67.9,151.7-151.7-67.9-151.7-151.7-151.7Z"/>
    </g>
</svg>