<?xml version="1.0" encoding="UTF-8"?>
<svg class="svg-icon-marker_round-activities-volunteering svg-icon-marker_round svg-icon-marker_round-activities" xmlns="http://www.w3.org/2000/svg" version="1.1" viewBox="0 0 800 800">
    <defs>
        <style>
            .svg-icon-marker-background { fill: #fff; }

        </style>
    </defs>
    <path class="svg-icon-marker-marker_round" d="M678.058,289.282c.01-.256.02-.513.029-.769.044-1.27.087-2.539.113-3.813.046-1.971.075-3.946.075-5.925C678.276,125.068,553.208,0,399.501,0S120.726,125.068,120.726,278.775h0c0,.007,0,.015,0,.022,0,1.966.03,3.927.075,5.886.027,1.301.071,2.597.116,3.893.008.218.016.436.025.654,1.311,35.36,9.235,69.057,22.578,99.889,66.594,165.882,256.216,300.297,256.216,410.756l.133-7.452.133,7.452c0-110.815,190.349-245.74,256.184-412.361,12.919-30.379,20.579-63.506,21.873-98.232Z"/>
    <path class="svg-icon-marker-background" d="M168.817,278.775c0-127.191,103.493-230.684,230.684-230.684s230.684,103.493,230.684,230.684-103.493,230.684-230.684,230.684-230.684-103.493-230.684-230.684h0Z"/>
    <g class="svg-icon-content" transform="translate(240, 120) scale(0.4)">
        <path d="M746.89,489.5c-47.303,2.915-109.501,50.173-169.487,77.342-73.565,33.269-188.03,6.531-188.043,6.531,17.695-8.293,89.449-25.382,103.894-31.746,76.813-33.782,70.268-104.24,33.695-103.648-48.305.815-76.714,12.679-173.143,25.831-73.1,9.931-159.556,6.299-201.021,22.13-50.977,19.479-129.04,136.087-148.349,165.875-2.599,4.009-1.995,9.289,1.436,12.614l132.966,128.873c3.833,3.715,9.91,3.769,13.801.115,21.91-20.574,90.688-82.294,127.266-82.294,100.074,0,104.108-1.377,196.999-6.393,39.53-2.112,47.74-3.734,70.37-11.355,120.443-40.715,249.746-149.149,252.126-162.201,5.476-30.202-27.563-43.227-52.508-41.673Z"/>
        <path d="M218.506,203.764l190.112,190.112,190.113-190.112c22.383-22.385,34.959-52.745,34.959-84.402v-5.354c0-62.965-51.044-114.009-114.007-114.009-34.636,0-67.391,15.744-89.027,42.788l-22.038,27.547-22.038-27.547C364.944,15.744,332.188,0,297.554,0c-62.965,0-114.009,51.044-114.009,114.009v5.354c0,31.657,12.576,62.017,34.96,84.402Z"/>
    </g>
</svg>