<?xml version="1.0" encoding="UTF-8"?>
<svg class="svg-icon-marker_square-activities-worship svg-icon-marker_square svg-icon-marker_square-activities" xmlns="http://www.w3.org/2000/svg" version="1.1" viewBox="0 0 800 800">
    <defs>
        <style>
            .svg-icon-marker-background { fill: #fff; }

        </style>
    </defs>
    <path class="svg-icon-marker-marker_square" d="M678.707,0H121.24C79.611,0,45.744,33.867,45.744,75.496v557.467c0,41.629,33.867,75.496,75.496,75.496h130.099c148.693,5.043,148.635,91.541,148.635,91.541,0,0-.058-86.499,148.636-91.541h130.097c41.629,0,75.496-33.867,75.496-75.496V75.496C754.203,33.868,720.336,0,678.707,0h0Z"/>
    <path class="svg-icon-marker-background" d="M139.566,48.525h520.814c25.017,0,45.297,20.28,45.297,45.297v520.814c0,25.017-20.28,45.297-45.297,45.297H139.566c-25.017,0-45.297-20.28-45.297-45.297V93.822c0-25.017,20.28-45.297,45.297-45.297Z"/>
    <g class="svg-icon-content" transform="translate(120, 75) scale(0.7)">
        <path d="M25.972,149.596c-13.651-.288-24.483-11.589-24.195-25.239v-.028c.248-11.065,7.763-20.561,18.415-23.451L367.826,7.569c19.818-4.954,40.461-4.954,60.279,0l347.635,93.308c13.563,1.796,23.102,14.246,21.306,27.809,0,.006-.002.012-.002.018-1.807,13.561-14.265,23.09-27.827,21.284-1.717-.229-3.406-.637-5.038-1.218L415.719,56.288c-11.891-3.303-24.442-3.303-36.332,0L31.752,148.77c-1.817.661-3.798.991-5.78.826Z"/>
        <path d="M591.601,724.858h-125.512c-2.725,0-4.872-2.147-4.872-4.872,0-1.734.908-3.386,2.395-4.211,0,0,78.445-46.241,79.271-46.241,28.075-14.863,45.415-44.59,37.158-75.968l-64.407-223.774c-9.496-34.598-45.25-54.994-79.849-45.498-.083,0-.165.083-.248.083-9.991,2.973-19.322,8.092-27.249,14.863-2.395,1.651-4.624,3.633-6.606,5.78l-85.051,83.399c-5.766,5.951-15.264,6.102-21.216.337-.38-.368-.74-.756-1.079-1.162l-79.271-94.134c-10.55-12.981-29.626-14.952-42.607-4.402-.111.09-.222.181-.331.273-12.477,10.306-14.285,28.755-4.046,41.287.248.33.495.578.743.826l108.171,128.815c1.651,1.651,2.477,4.129,4.129,5.78,4.954,4.707,11.395,7.597,18.166,8.257h4.954c6.854-.165,13.542-2.477,18.992-6.606,1.817-1.734,3.551-3.716,4.954-5.78l60.279-60.279c2.725-2.973,7.349-3.055,10.239-.33,1.073.991,1.817,2.229,2.147,3.633l47.067,164.321c3.881,13.212-1.486,27.414-13.212,34.681l-141.201,85.877-.826.826c-.826.826-2.477,1.651-3.303,2.477l-2.477,2.477-2.477,2.477-2.477,2.477c-.908.908-1.404,2.064-1.651,3.303-.991.826-1.651,1.982-1.651,3.303-.826.826-.826,2.477-1.651,3.303s-.826,2.477-.826,3.303c.083,1.156-.165,2.312-.826,3.303v11.56c0,1.651.826,2.477.826,3.303s.826,2.477.826,3.303,1.651,2.477,1.651,4.129c.083.661.413,1.239.826,1.651,0,.495.33.826.826.826.578,1.239,1.486,2.395,2.477,3.303.826.826,1.651,1.651,1.651,2.477.908.991,2.064,1.899,3.303,2.477l2.477,2.477c.908.908,2.064,1.404,3.303,1.651.826.826,1.651.826,3.303,1.651s2.477.826,4.129,1.651,2.477.826,3.303.826c1.156-.083,2.312.165,3.303.826,1.404-.165,2.89.165,4.129.826h281.576c21.273-.204,38.354-17.614,38.15-38.888-.01-1.077-.066-2.153-.166-3.225-3.205-19.309-20.065-33.359-39.635-33.029h0Z"/>
        <path d="M390.947,156.752c41.044,0,74.316,33.273,74.316,74.316s-33.272,74.316-74.316,74.316-74.316-33.273-74.316-74.316,33.273-74.316,74.316-74.316Z"/>
    </g>
</svg>