<?xml version="1.0" encoding="UTF-8"?>
<svg class="svg-icon-marker_square-activities-accompany_someone svg-icon-marker_square svg-icon-marker_square-activities" xmlns="http://www.w3.org/2000/svg" version="1.1" viewBox="0 0 800 800">
    <defs>
        <style>
            .svg-icon-marker-background { fill: #fff; }
            .svg-icon-opacity_half { opacity: .5; }
        </style>
    </defs>
    <path class="svg-icon-marker-marker_square" d="M678.707,0H121.24C79.611,0,45.744,33.867,45.744,75.496v557.467c0,41.629,33.867,75.496,75.496,75.496h130.099c148.693,5.043,148.635,91.541,148.635,91.541,0,0-.058-86.499,148.636-91.541h130.097c41.629,0,75.496-33.867,75.496-75.496V75.496C754.203,33.868,720.336,0,678.707,0h0Z"/>
    <path class="svg-icon-marker-background" d="M139.566,48.525h520.814c25.017,0,45.297,20.28,45.297,45.297v520.814c0,25.017-20.28,45.297-45.297,45.297H139.566c-25.017,0-45.297-20.28-45.297-45.297V93.822c0-25.017,20.28-45.297,45.297-45.297Z"/>
    <g class="svg-icon-content" transform="translate(120, 75) scale(0.7)">
        <path class="svg-icon-opacity_half" d="M0,536.484c0-115.725,91.983-209.539,205.451-209.539s205.451,93.814,205.451,209.539H0ZM205.451,80.552c-60.012,0-108.663,48.651-108.663,108.663s48.651,108.663,108.663,108.663,108.663-48.651,108.663-108.663-48.651-108.663-108.663-108.663Z"/>
        <path d="M241.907,719.448c0-157.179,124.933-284.599,279.046-284.599s279.046,127.42,279.046,284.599H241.907ZM520.954,100.194c-81.509,0-147.588,66.078-147.588,147.588s66.078,147.588,147.588,147.588,147.588-66.078,147.588-147.588-66.078-147.588-147.588-147.588Z"/>
    </g>
</svg>
