<?xml version="1.0" encoding="UTF-8"?>
<svg class="svg-icon-marker_round-activities-accompany_someone svg-icon-marker_round svg-icon-marker_round-activities" xmlns="http://www.w3.org/2000/svg" version="1.1" viewBox="0 0 800 800">
    <defs>
        <style>
            .svg-icon-marker-background { fill: #fff; }
            .svg-icon-opacity_half { opacity: .5; }
        </style>
    </defs>
    <path class="svg-icon-marker-marker_round" d="M678.058,289.282c.01-.256.02-.513.029-.769.044-1.27.087-2.539.113-3.813.046-1.971.075-3.946.075-5.925C678.276,125.068,553.208,0,399.501,0S120.726,125.068,120.726,278.775h0c0,.007,0,.015,0,.022,0,1.966.03,3.927.075,5.886.027,1.301.071,2.597.116,3.893.008.218.016.436.025.654,1.311,35.36,9.235,69.057,22.578,99.889,66.594,165.882,256.216,300.297,256.216,410.756l.133-7.452.133,7.452c0-110.815,190.349-245.74,256.184-412.361,12.919-30.379,20.579-63.506,21.873-98.232Z"/>
    <path class="svg-icon-marker-background" d="M168.817,278.775c0-127.191,103.493-230.684,230.684-230.684s230.684,103.493,230.684,230.684-103.493,230.684-230.684,230.684-230.684-103.493-230.684-230.684h0Z"/>
    <g class="svg-icon-content" transform="translate(240, 120) scale(0.4)">
        <path class="svg-icon-opacity_half" d="M0,536.484c0-115.725,91.983-209.539,205.451-209.539s205.451,93.814,205.451,209.539H0ZM205.451,80.552c-60.012,0-108.663,48.651-108.663,108.663s48.651,108.663,108.663,108.663,108.663-48.651,108.663-108.663-48.651-108.663-108.663-108.663Z"/>
        <path d="M241.907,719.448c0-157.179,124.933-284.599,279.046-284.599s279.046,127.42,279.046,284.599H241.907ZM520.954,100.194c-81.509,0-147.588,66.078-147.588,147.588s66.078,147.588,147.588,147.588,147.588-66.078,147.588-147.588-66.078-147.588-147.588-147.588Z"/>
    </g>
</svg>
