<?xml version="1.0" encoding="UTF-8"?>
<svg id="svg-icon-accompany_someone" class="svg-icon" xmlns="http://www.w3.org/2000/svg" version="1.1" viewBox="0 0 800 800">
    <defs>
        <style>
            .svg-icon-opacity_half { opacity: .5; }
        </style>
    </defs>
    <path class="svg-icon-opacity_half" d="M0,536.484c0-115.725,91.983-209.539,205.451-209.539s205.451,93.814,205.451,209.539H0ZM205.451,80.552c-60.012,0-108.663,48.651-108.663,108.663s48.651,108.663,108.663,108.663,108.663-48.651,108.663-108.663-48.651-108.663-108.663-108.663Z"/>
    <path d="M241.907,719.448c0-157.179,124.933-284.599,279.046-284.599s279.046,127.42,279.046,284.599H241.907ZM520.954,100.194c-81.509,0-147.588,66.078-147.588,147.588s66.078,147.588,147.588,147.588,147.588-66.078,147.588-147.588-66.078-147.588-147.588-147.588Z"/>
</svg>