<?xml version="1.0" encoding="UTF-8"?>
<svg class="svg-icon-marker_round-activities-fetch_someone svg-icon-marker_round svg-icon-marker_round-activities" xmlns="http://www.w3.org/2000/svg" version="1.1" viewBox="0 0 800 800">
    <defs>
        <style>
            .svg-icon-marker-background { fill: #fff; }
            .svg-icon-opacity_half { opacity: .5; }
        </style>
    </defs>
    <path class="svg-icon-marker-marker_round" d="M678.058,289.282c.01-.256.02-.513.029-.769.044-1.27.087-2.539.113-3.813.046-1.971.075-3.946.075-5.925C678.276,125.068,553.208,0,399.501,0S120.726,125.068,120.726,278.775h0c0,.007,0,.015,0,.022,0,1.966.03,3.927.075,5.886.027,1.301.071,2.597.116,3.893.008.218.016.436.025.654,1.311,35.36,9.235,69.057,22.578,99.889,66.594,165.882,256.216,300.297,256.216,410.756l.133-7.452.133,7.452c0-110.815,190.349-245.74,256.184-412.361,12.919-30.379,20.579-63.506,21.873-98.232Z"/>
    <path class="svg-icon-marker-background" d="M168.817,278.775c0-127.191,103.493-230.684,230.684-230.684s230.684,103.493,230.684,230.684-103.493,230.684-230.684,230.684-230.684-103.493-230.684-230.684h0Z"/>
    <g class="svg-icon-content" transform="translate(240, 120) scale(0.4)">
        <path d="M206.914,0C246.512,0,278.613,32.1,278.613,71.699s-32.1,71.699-71.699,71.699-71.699-32.1-71.699-71.699S167.315,0,206.914,0" />
        <path d="M449.995,65.346c-20.057-5.157-40.799,6.273-45.657,26.979-11.225,47.843-27.883,79.466-62.895,98.102-49.93,26.576-89.785-18.037-148.753-18.037-42.117,0-77.66,4.099-117.015,39.542C41.138,243.036,17.379,291.994.904,366.005c-4.5,20.216,8.24,40.252,28.456,44.752,2.744.611,5.484.904,8.183.904,17.185,0,32.68-11.889,36.569-29.36,12.281-55.17,29.19-93.247,50.271-113.254l-.78,219.102c-.057.87-.095,1.745-.095,2.629l-68.293,268.443c0,22.092,17.909,40,40,40s40-17.908,40-40l69.293-244.24v244.24c0,22.092,17.909,40,40,40s40-17.908,40-40v-268.443l-5.895-222.274c35.159,15.016,88.787,12.332,134.064-32.772,50.823-50.629,58.214-92.334,64.297-124.73,3.822-20.355-6.921-40.5-26.979-45.657Z" />
        <path class="svg-icon-opacity_half" d="M728.859,294.601l65.923-36.549-192.331-115.523-3.911,224.324,64.204-35.596c19.957,50.904,31.186,98.333,33.42,141.371,1.6,30.792-1.523,59.336-9.281,84.84-8.473,27.851-22.805,53.008-42.601,74.773-13.935,15.321-12.811,39.039,2.511,52.974,7.186,6.535,16.217,9.758,25.221,9.758,10.194,0,20.354-4.133,27.753-12.269,51.729-56.876,75.716-128.864,71.297-213.965-2.791-53.757-16.974-112.22-42.204-174.138Z" />
    </g>
</svg>
