<?xml version="1.0" encoding="UTF-8"?>
<svg class="svg-icon-marker_square-activities-fetch_someone svg-icon-marker_square svg-icon-marker_square-activities" xmlns="http://www.w3.org/2000/svg" version="1.1" viewBox="0 0 800 800">
    <defs>
        <style>
            .svg-icon-marker-background { fill: #fff; }
            .svg-icon-opacity_half { opacity: .5; }
        </style>
    </defs>
    <path class="svg-icon-marker-marker_square" d="M678.707,0H121.24C79.611,0,45.744,33.867,45.744,75.496v557.467c0,41.629,33.867,75.496,75.496,75.496h130.099c148.693,5.043,148.635,91.541,148.635,91.541,0,0-.058-86.499,148.636-91.541h130.097c41.629,0,75.496-33.867,75.496-75.496V75.496C754.203,33.868,720.336,0,678.707,0h0Z"/>
    <path class="svg-icon-marker-background" d="M139.566,48.525h520.814c25.017,0,45.297,20.28,45.297,45.297v520.814c0,25.017-20.28,45.297-45.297,45.297H139.566c-25.017,0-45.297-20.28-45.297-45.297V93.822c0-25.017,20.28-45.297,45.297-45.297Z"/>
    <g class="svg-icon-content" transform="translate(120, 75) scale(0.7)">
        <path d="M206.914,0C246.512,0,278.613,32.1,278.613,71.699s-32.1,71.699-71.699,71.699-71.699-32.1-71.699-71.699S167.315,0,206.914,0" />
        <path d="M449.995,65.346c-20.057-5.157-40.799,6.273-45.657,26.979-11.225,47.843-27.883,79.466-62.895,98.102-49.93,26.576-89.785-18.037-148.753-18.037-42.117,0-77.66,4.099-117.015,39.542C41.138,243.036,17.379,291.994.904,366.005c-4.5,20.216,8.24,40.252,28.456,44.752,2.744.611,5.484.904,8.183.904,17.185,0,32.68-11.889,36.569-29.36,12.281-55.17,29.19-93.247,50.271-113.254l-.78,219.102c-.057.87-.095,1.745-.095,2.629l-68.293,268.443c0,22.092,17.909,40,40,40s40-17.908,40-40l69.293-244.24v244.24c0,22.092,17.909,40,40,40s40-17.908,40-40v-268.443l-5.895-222.274c35.159,15.016,88.787,12.332,134.064-32.772,50.823-50.629,58.214-92.334,64.297-124.73,3.822-20.355-6.921-40.5-26.979-45.657Z" />
        <path class="svg-icon-opacity_half" d="M728.859,294.601l65.923-36.549-192.331-115.523-3.911,224.324,64.204-35.596c19.957,50.904,31.186,98.333,33.42,141.371,1.6,30.792-1.523,59.336-9.281,84.84-8.473,27.851-22.805,53.008-42.601,74.773-13.935,15.321-12.811,39.039,2.511,52.974,7.186,6.535,16.217,9.758,25.221,9.758,10.194,0,20.354-4.133,27.753-12.269,51.729-56.876,75.716-128.864,71.297-213.965-2.791-53.757-16.974-112.22-42.204-174.138Z" />
    </g>
</svg>
