<?xml version="1.0" encoding="UTF-8"?>
<svg class="svg-icon-modes-minibus svg-icon svg-icon-modes" xmlns="http://www.w3.org/2000/svg" version="1.1" viewBox="0 0 800 800">
    <path d="M75.928,410.001v-66.493c0-7.76-6.29-14.05-14.05-14.05h-9.266c-14.518,0-26.397,11.879-26.397,26.397v71.691c0,14.518,11.879,26.397,26.397,26.397h9.266c7.608,0,13.765-6.057,14.005-13.607l.045.024v-30.359Z"/>
    <path d="M747.388,329.457h-9.266c-7.759,0-14.05,6.29-14.05,14.05v56.615l.045.045v40.168c.24,7.549,6.397,13.607,14.005,13.607h9.266c14.518,0,26.397-11.879,26.397-26.397v-71.691c0-14.518-11.879-26.397-26.397-26.397Z"/>
    <path d="M708.53,457.007v-.012c-.656-8.824-1.328-17.9-2.007-27.256l.123-.065-2.545-36.918-.167.023c-.765-11.355-1.52-23.053-2.252-35.117l-.008-.113h.001c-.338-5.571-.671-11.214-.997-16.949C683.74,42.33,615.081.924,499.448.924h-198.895C184.919.924,116.26,42.33,99.322,340.599c-.835,14.704-1.715,28.848-2.613,42.516h0s-.012.178-.012.178c-.209,3.185-.42,6.352-.631,9.486l-.03-.004-2.577,36.956.018.009c-.142,1.96-.284,3.905-.426,5.841v.003h0c-9.567,130.882-17.409,207.947,6.114,252.209v74.169c0,20.413,14.151,37.115,31.447,37.115h37.998c17.295,0,31.447-16.701,31.447-37.115v-22.897c23.566,2.712,51.5,3.844,84.795,3.844h230.297c33.295,0,61.229-1.131,84.795-3.844v22.897c0,20.413,14.151,37.115,31.447,37.115h37.998c17.295,0,31.447-16.701,31.447-37.115v-74.169c22.209-41.79,16.459-112.828,7.695-230.785h0ZM226.743,608.401c-40.006-.605-80.898-6.362-99.125-13.197-7.172-2.69-9.424-46.803,7.192-55.86,16.616-9.057,95.995,41.119,98.394,61.848.445,3.84-2.596,7.267-6.461,7.209ZM514.856,582.328l-8.086,31.189c-3.174,12.243-16.204,20.984-31.278,20.984h-150.985c-15.074,0-28.104-8.741-31.278-20.984l-8.086-31.189c-1.717-6.622,4.358-12.871,12.511-12.871h204.69c8.153,0,14.228,6.249,12.511,12.871ZM492.365,469.406c.005.119.01.237.015.356-14.897,1.069-31.999,1.929-49.223,2.511-10.689.406-21.571.656-32.607.747-.935.01-1.848.016-2.775.024-1.945.011-3.864.051-5.818.051-.637,0-1.314-.009-1.957-.01-.643.001-1.32.01-1.957.01-1.954,0-3.873-.04-5.818-.051-.927-.008-1.84-.014-2.775-.024-11.036-.091-21.918-.341-32.607-.747-17.224-.582-34.326-1.442-49.223-2.511.005-.119.01-.237.015-.356-60.298-4.727-111.518-12.928-145.529-18.104-16.494-2.51-28.227-17.279-27.029-33.92l13.834-172.344c1.205-16.735,1.001-79.773,35.518-79.773,0,0,72.986,6.399,215.571,6.399s215.571-6.399,215.571-6.399c34.517,0,34.313,63.038,35.518,79.773l13.834,172.344c1.198,16.641-10.536,31.41-27.029,33.92-34.01,5.176-85.231,13.377-145.529,18.104ZM672.382,595.204c-18.227,6.835-59.119,12.593-99.125,13.197-3.865.058-6.905-3.369-6.461-7.209,2.399-20.73,81.778-70.905,98.394-61.848,16.616,9.057,14.364,53.17,7.192,55.86Z"/>
</svg>