<?xml version="1.0" encoding="UTF-8"?>
<svg id="svg-icon-minibus_electric_with_wheelchair" class="svg-icon" xmlns="http://www.w3.org/2000/svg" version="1.1" viewBox="0 0 800 800">
    <defs>
        <style>
            .svg-icon-opacity_half { opacity: .5; }
        </style>
    </defs>
    <g id="svg-icon-minibus-group-lightning" class="svg-icon-opacity_half">
        <path d="M596.052,248.844h-37.549l13.861-42.234c1.302-4.946-2.44-9.826-7.549-9.826h-46.854c-3.905,0-7.223,2.896-7.744,6.768l-10.412,78.091c-.618,4.685,3.026,8.85,7.744,8.85h38.622l-15,63.286c-1.171,4.946,2.603,9.599,7.581,9.599,2.733,0,5.336-1.432,6.768-3.905l57.267-98.915c3.026-5.174-.716-11.714-6.735-11.714h0Z"/>
    </g>
    <g id="svg-icon-minibus-group-wheelchair" class="svg-icon-opacity_half">
        <path d="M268.916,426.895c-1.211.086-2.426.146-3.647.178-21.473.574-41.884-7.248-57.475-22.025-15.59-14.778-24.492-34.742-25.067-56.215-.554-20.704,6.772-40.579,20.628-55.963,3.25-3.608,8.808-3.898,12.416-.649,3.608,3.25,3.898,8.808.649,12.416-10.826,12.019-16.549,27.548-16.116,43.725.449,16.778,7.404,32.377,19.586,43.924,12.181,11.547,28.13,17.659,44.908,17.209,16.778-.447,32.377-7.404,43.924-19.586,3.34-3.524,8.905-3.673,12.429-.333s3.673,8.905.333,12.429c-13.937,14.703-32.489,23.458-52.568,24.888h0v.002Z"/>
        <path d="M381.34,411.53l-13.842-75.303c-.634-3.447-2.613-6.5-5.502-8.485s-6.449-2.737-9.893-2.093l-70.764,13.243-7.83-36.711c3.159,1.624,8.374,3.709,14.618,3.911,10.35.335,23.236.189,23.236.189,1.082-.026,2.115-.215,3.083-.545,4.61-1.573,7.717-6.35,7.308-11.912-.495-6.731-5.95-12.067-12.184-11.918h0s-5.261-.373-13.891-.361c-12.629.017-22.118-2.339-28.479-8.942l-3.533-16.566c-1.519-7.123-8.525-11.666-15.648-10.146-7.123,1.519-11.665,8.525-10.146,15.648l20.355,95.433c1.492,6.997,8.291,11.527,15.323,10.212l70.401-13.175,11.45,62.291c1.169,6.357,6.714,10.805,12.955,10.805.791,0,1.593-.072,2.399-.219,7.163-1.317,11.902-8.191,10.586-15.354h0l-.002-.002Z"/>
        <path d="M220.693,218.554c0-12.024,9.747-21.77,21.77-21.77s21.77,9.747,21.77,21.77-9.747,21.77-21.77,21.77-21.77-9.747-21.77-21.77Z"/>
    </g>
    <g id="svg-icon-minibus-group-minibus">
        <path d="M75.928,410.001v-66.493c0-7.76-6.29-14.05-14.05-14.05h-9.266c-14.518,0-26.397,11.879-26.397,26.397v71.691c0,14.518,11.879,26.397,26.397,26.397h9.266c7.608,0,13.765-6.057,14.005-13.607l.045.024v-30.359Z"/>
        <path d="M747.388,329.457h-9.266c-7.759,0-14.05,6.29-14.05,14.05v56.615l.045.045v40.168c.24,7.549,6.397,13.607,14.005,13.607h9.266c14.518,0,26.397-11.879,26.397-26.397v-71.691c0-14.518-11.879-26.397-26.397-26.397h0Z"/>
        <path d="M708.53,457.007v-.012c-.656-8.824-1.328-17.9-2.007-27.256l.123-.065-2.545-36.918-.167.023c-.765-11.355-1.52-23.053-2.252-35.117l-.008-.113h0c-.338-5.571-.671-11.214-.997-16.949C683.74,42.33,615.081.924,499.448.924h-198.895C184.919.924,116.26,42.33,99.322,340.599c-.835,14.704-1.715,28.848-2.613,42.516h0l-.012.178c-.209,3.185-.42,6.352-.631,9.486l-.03-.004-2.577,36.956.018.009c-.142,1.96-.284,3.905-.426,5.841v.003h0c-9.567,130.882-17.409,207.947,6.114,252.209v74.169c0,20.413,14.151,37.115,31.447,37.115h37.998c17.295,0,31.447-16.701,31.447-37.115v-22.897c23.566,2.712,51.5,3.844,84.795,3.844h230.297c33.295,0,61.229-1.131,84.795-3.844v22.897c0,20.413,14.151,37.115,31.447,37.115h37.998c17.295,0,31.447-16.701,31.447-37.115v-74.169c22.209-41.79,16.459-112.828,7.695-230.785h0ZM226.743,608.401c-40.006-.605-80.898-6.362-99.125-13.197-7.172-2.69-9.424-46.803,7.192-55.86s95.995,41.119,98.394,61.848c.445,3.84-2.596,7.267-6.461,7.209ZM514.856,582.328l-8.086,31.189c-3.174,12.243-16.204,20.984-31.278,20.984h-150.985c-15.074,0-28.104-8.741-31.278-20.984l-8.086-31.189c-1.717-6.622,4.358-12.871,12.511-12.871h204.69c8.153,0,14.228,6.249,12.511,12.871h.001ZM492.365,469.406c.005.119.01.237.015.356-14.897,1.069-31.999,1.929-49.223,2.511-10.689.406-21.571.656-32.607.747-.935.01-1.848.016-2.775.024-1.945.011-3.864.051-5.818.051-.637,0-1.314-.009-1.957-.01-.643.001-1.32.01-1.957.01-1.954,0-3.873-.04-5.818-.051-.927-.008-1.84-.014-2.775-.024-11.036-.091-21.918-.341-32.607-.747-17.224-.582-34.326-1.442-49.223-2.511.005-.119.01-.237.015-.356-60.298-4.727-111.518-12.928-145.529-18.104-16.494-2.51-28.227-17.279-27.029-33.92l13.834-172.344c1.205-16.735,1.001-79.773,35.518-79.773,0,0,72.986,6.399,215.571,6.399s215.571-6.399,215.571-6.399c34.517,0,34.313,63.038,35.518,79.773l13.834,172.344c1.198,16.641-10.536,31.41-27.029,33.92-34.01,5.176-85.231,13.377-145.529,18.104h0ZM672.382,595.204c-18.227,6.835-59.119,12.593-99.125,13.197-3.865.058-6.905-3.369-6.461-7.209,2.399-20.73,81.778-70.905,98.394-61.848,16.616,9.057,14.364,53.17,7.192,55.86Z"/>
    </g>
</svg>