<?xml version="1.0" encoding="UTF-8"?>
<svg id="svg-icon-taxi_passenger" class="svg-icon" xmlns="http://www.w3.org/2000/svg" version="1.1" viewBox="0 0 800 800">
    <defs>
        <style>
            .svg-icon-opacity_half { opacity: .5; }
            .svg-icon-opacity_quarter { opacity: .25; }
            .svg-icon-mirror_x { transform: scaleX(-1); transform-origin: center; }
        </style>
    </defs>
    <g class="svg-icon-mirror_x">
        <path class="svg-icon-opacity_half" d="M324.824,80.247h150.481c13.951,0,26.06,9.617,29.22,23.205l14.604,62.795h-238.129l14.604-62.795c3.16-13.588,15.27-23.205,29.22-23.205Z"/>
        <path d="M757.076,381.465h0l-11.879-15.416,4.243-1.002c17.798-4.202,28.923-22.202,24.721-40-4.202-17.798-22.202-28.923-40-24.721l-15.091,3.562c-12.329-46.687-27.84-89.564-37.028-108.989-17.913-38.193-53.063-60.837-98.012-66.921-22.645-2.702-96.662-4.731-184.201-4.731s-161.216,2.366-183.862,4.731c-44.95,5.408-80.1,28.729-98.014,66.921-9.147,19.34-24.56,61.924-36.861,108.37l-12.466-2.943c-17.798-4.202-35.798,6.923-40,24.721s6.923,35.798,24.721,40l1.883.445-12.31,15.974C11.492,422.023,0,454.13,0,510.911v195.016c0,25.01,19.603,44.275,44.952,44.275h39.881c25.011,0,44.613-19.266,44.613-44.275v-56.781c75.033,4.731,183.524,8.112,270.385,8.112s195.693-3.38,270.723-8.112v56.781c0,25.01,19.264,44.275,44.611,44.275h39.884c25.347,0,44.95-19.266,44.95-44.275v-195.016c0-56.781-11.49-88.888-42.923-129.446h0ZM153.443,569.721c-32.107,0-56.105-24.336-56.105-56.106,0-32.107,23.997-56.105,56.105-56.105s56.105,23.997,56.105,56.105c0,31.77-23.996,56.106-56.105,56.106ZM218.92,329.327c-23.905,1.084-44.666,2.296-64.123,3.468-13.182,1.015-17.913-3.718-15.209-16.222h-.001c8.112-37.179,24.335-85.509,35.488-105.113,9.125-15.886,18.927-22.645,37.178-25.011,25.687-3.718,83.145-5.745,187.58-5.745s162.231,1.351,187.918,5.745c17.913,2.704,27.713,9.125,37.176,25.011,11.496,19.264,26.704,67.934,35.487,105.113,3.046,12.504-2.027,17.237-15.206,16.222-12.637-.761-25.827-1.539-40.071-2.288-9.419-28.311-36.142-48.792-67.576-48.792-29.807,0-55.38,18.416-65.979,44.461-21.646-.304-45.41-.477-71.749-.477-30.693,0-57.897.235-82.323.641-7.036-25.753-22.992-43.473-48.913-43.473-26.911,0-43.078,19.101-49.677,46.46h0ZM489.735,554.173h-179.468c-23.658,0-40.22-16.898-40.22-40.558,0-23.996,16.562-40.558,40.22-40.558h179.468c23.66,0,40.22,16.562,40.22,40.558,0,23.66-16.561,40.558-40.22,40.558h0ZM487.996,326.437c9.484-17.674,28.141-29.723,49.563-29.723,22.708,0,42.3,13.542,51.161,32.968-28.141-1.343-60.62-2.524-100.724-3.245h0ZM646.557,569.721c-32.104,0-56.103-24.336-56.103-56.106,0-32.107,23.999-56.105,56.103-56.105,31.771,0,56.107,23.997,56.107,56.105,0,31.77-24.336,56.106-56.107,56.106Z"/>
        <path d="M304.975,233.909c0,19.291-15.638,34.929-34.929,34.929s-34.929-15.638-34.929-34.929,15.638-34.929,34.929-34.929,34.929,15.638,34.929,34.929h0Z"/>
        <path class="svg-icon-opacity_quarter" d="M538.359,198.98c19.291,0,34.929,15.638,34.929,34.929s-15.638,34.929-34.929,34.929-34.929-15.638-34.929-34.929,15.638-34.929,34.929-34.929h0Z"/>
    </g>
</svg>