<?xml version="1.0" encoding="UTF-8"?>
<svg id="Layer_1" xmlns="http://www.w3.org/2000/svg" xmlns:xlink="http://www.w3.org/1999/xlink" version="1.1" viewBox="0 0 800 800">
    <path d="M724.75,617.7l-14.997-51.477c3.989-.372,7.92-1.002,11.986-1.002,14.402,0,26.088-11.677,26.088-26.087s-11.686-26.087-26.087-26.087c-9.102,0-18.058.786-26.866,2.105l-123.686-424.531,52.539-13.136c13.978-3.491,22.47-17.655,18.97-31.631-3.481-13.977-17.662-22.495-31.641-18.98l-208.694,52.175c-13.978,3.491-22.47,17.653-18.97,31.631,3.503,14.05,17.77,22.475,31.641,18.98l105.494-26.373,124.388,426.942c-18.75,8.744-35.848,20.597-50.619,34.995H205.703c-33.348-32.505-78.658-52.173-127.442-52.173-14.402,0-26.087,11.677-26.087,26.088s11.686,26.087,26.087,26.087c58.509,0,110.225,39.394,125.764,95.822.819,2.969,1.988,5.723,3.075,8.525h-55.386c-10.805-30.298-39.492-52.173-73.453-52.173-43.155-.002-78.261,35.105-78.261,78.259s35.106,78.261,78.261,78.261c33.964,0,62.648-21.875,73.453-52.173h368.155c35.495,0,66.066-24.397,76.105-60.717,9.645-35.012,33.255-63.42,63.745-79.972l15.225,52.256c-18.988,14.292-31.466,36.802-31.466,62.345,0,43.155,35.106,78.261,78.261,78.261s78.261-35.106,78.261-78.261c0-42.127-33.514-76.333-75.25-77.958Z"/>
</svg>