<?xml version="1.0" encoding="UTF-8"?>
<svg id="svg-icon-tram" class="svg-icon" xmlns="http://www.w3.org/2000/svg" version="1.1" viewBox="0 0 800 800">
    <path d="M624.417,579.282V187.664c0-58.431-47.807-106.239-106.239-106.239h-106.433c3.92-15.775,11.785-29.339,23.334-39.934,16.12-14.791,38.582-22.936,63.245-22.936h104.493V0H197.183v18.555h104.493c24.664,0,47.124,8.145,63.245,22.936,11.548,10.596,19.413,24.159,23.334,39.934h-106.433c-58.431,0-106.239,47.807-106.239,106.239v391.618c0,58.431,47.807,106.239,106.239,106.239h-.548l-91.511,114.479h55.372l65.89-114.479h177.95l65.89,114.479h55.372l-91.511-114.479h-.548c58.431,0,106.239-47.807,106.239-106.239h0ZM376.586,27.531h-.001c-3.561-3.267-7.373-6.26-11.395-8.976h69.621c-4.023,2.716-7.833,5.709-11.395,8.976-10.167,9.328-17.999,20.464-23.415,33.05-5.416-12.586-13.248-23.722-23.415-33.05ZM305.549,123.878h188.902c11.732,0,21.331,9.599,21.331,21.331s-9.599,21.331-21.331,21.331h-188.902c-11.732,0-21.331-9.599-21.331-21.331s9.599-21.331,21.331-21.331ZM400,636.543c-22.218,0-40.229-18.011-40.229-40.229s18.011-40.229,40.229-40.229,40.229,18.011,40.229,40.229-18.011,40.229-40.229,40.229ZM580.215,407.284c0,38.954-58.431,91.23-180.215,91.23s-180.215-52.276-180.215-91.23v-130.132c0-38.954,31.872-70.826,70.826-70.826h218.778c38.954,0,70.826,31.872,70.826,70.826v130.132Z"/>
</svg>