<?xml version="1.0" encoding="UTF-8"?>
<svg id="bicycle_without_rider_electric" class="svg-icon" xmlns="http://www.w3.org/2000/svg" version="1.1" viewBox="0 0 800 800">
    <defs>
        <style>
            .opacity_half { opacity: .5; }
        </style>
    </defs>
    <path d="M214,224c-8.3,0-15-6.7-15-15s6.7-15,15-15h85c8.3-.1,15,6.6,15,14.9s-6.7,15-15,15h-85v.1Z"/>
    <path d="M702.2,191c-5.5,0-10.7-3-13.4-8.2s-8.9-4.3-10.9-3.8c-.5.2-.7.2-1.3.3l-33.3,5.7c-8.2,1.4-15.9-4.1-17.3-12.3-1.4-8.2,4.1-15.9,12.3-17.3l32.7-5.6c11.1-2.7,33.7-2,44.6,19.3,3.8,7.4.9,16.4-6.5,20.2-2.2,1.1-4.5,1.7-6.8,1.7h-.1Z"/>
    <path d="M639.6,304.326c-1.845,0-3.68.044-5.511.107l-17.218-130.505c-1.084-8.213-8.611-13.995-16.833-12.909-8.213,1.083-13.993,8.62-12.909,16.833l4.865,36.875-187.611,195.317c-6.444-3.221-13.702-5.044-21.383-5.044-3.36,0-6.639.35-9.805,1.01l-104.139-159.327c-2.932-4.486-8.026-7.058-13.386-6.771-5.351.296-10.137,3.425-12.556,8.208l-30.528,60.367c-16.641-6.042-34.585-9.343-53.286-9.343-86.325,0-156.555,70.23-156.555,156.556s70.23,156.555,156.555,156.555c82.043,0,149.541-63.438,156.036-143.836l22.117-.301c6.35,19.08,24.361,32.882,45.547,32.882,26.467,0,48-21.533,48-48,0-7.87-1.916-15.296-5.287-21.857l171.305-178.34,7.326,55.526c-69.403,16.034-121.298,78.346-121.298,152.552,0,86.324,70.23,156.555,156.555,156.555s156.556-70.23,156.556-156.555-70.23-156.555-156.556-156.555h0ZM258.16,284.846l89.039,136.226c-4.366,4.89-7.742,10.675-9.825,17.044l-22.477.306c-5.48-49.683-34.298-92.435-75.223-117.02l18.486-36.556h0ZM274.649,438.97l-95.085,1.294,42-83.051c28.129,17.846,48.125,47.401,53.085,81.757h0ZM159.3,572.255c-64.269,0-116.555-52.286-116.555-116.555s52.286-116.556,116.555-116.556c12.211,0,23.988,1.892,35.057,5.391l-52.743,104.295c-2.368,4.683-2.117,10.263.662,14.713,2.743,4.394,7.554,7.057,12.723,7.057h.205l119.891-1.632c-6.607,58.044-56.013,103.288-115.796,103.288h0ZM383,471c-9.925,0-18-8.075-18-18s8.075-18,18-18,18,8.075,18,18-8.075,18-18,18ZM639.6,577.436c-64.269,0-116.555-52.286-116.555-116.555,0-53.903,36.783-99.37,86.564-112.636l15.119,114.598c.996,7.548,7.44,13.04,14.853,13.04.653,0,1.314-.043,1.98-.131,8.213-1.084,13.993-8.62,12.909-16.833l-15.118-114.59c.083,0,.164-.003.247-.003,64.269,0,116.556,52.287,116.556,116.555s-52.287,116.555-116.556,116.555h0Z"/>
    <path d="M371.729,408.877l163-166c7.738-7.882,20.4-7.997,28.283-.258,7.881,7.739,7.997,20.402.258,28.283l-163,166c-3.916,3.987-36.28-20.144-28.541-28.025Z"/>
    <path class="opacity_half" d="M466.707,177.244h-37.549l13.861-42.234c1.302-4.946-2.44-9.826-7.549-9.826h-46.854c-3.905,0-7.223,2.896-7.744,6.768l-10.412,78.091c-.618,4.685,3.026,8.85,7.744,8.85h38.622l-15,63.286c-1.171,4.946,2.603,9.599,7.581,9.599,2.733,0,5.336-1.432,6.768-3.905l57.267-98.915c3.026-5.174-.716-11.714-6.735-11.714Z"/>
</svg>