<?xml version="1.0" encoding="utf-8"?>
<svg id="bicycle_with_rider" class="svg-icon" xmlns="http://www.w3.org/2000/svg" version="1.1" viewBox="0 0 800 800">
    <path d="M533.3,200c36.8,0,66.7-29.8,66.7-66.7s-29.8-66.7-66.7-66.7-66.7,29.8-66.7,66.7,29.8,66.7,66.7,66.7ZM441.1,183.1c11.1,2.8,20,11,23.6,21.9,6.1,18.2,14.6,34.1,25.1,47.5,28.8,36.8,75.2,57.8,138.2,47.4,15.6-2.6,32.8,7.3,37.8,22.3,6.6,20-6.3,40.4-26.3,43.7-71.6,11.9-133.5-6.3-178.3-46.3l-90.9,79.8,54.4,62.1c5.3,6.1,8.3,13.9,8.3,22.1v150.3c0,15.9-12.8,31.3-28.6,33.6-20.7,2.9-38.4-13-38.4-33.1v-138.2l-68-77.7-1.5-1.7c-8-9-21.4-23.9-27.2-41.7-3.6-10.9-4.7-23.4-.9-36.7,3.7-12.9,11.3-23.8,20.8-33l.5-.4,120.4-113.7c8.3-7.8,20-10.9,31.1-8.1ZM66.7,566.7c0-55.2,44.8-100,100-100s100,44.8,100,100-44.8,100-100,100-100-44.8-100-100ZM166.7,400C74.6,400,0,474.6,0,566.7s74.6,166.7,166.7,166.7,166.7-74.6,166.7-166.7-74.6-166.7-166.7-166.7ZM533.3,566.7c0-55.2,44.8-100,100-100s100,44.8,100,100-44.8,100-100,100-100-44.8-100-100ZM633.3,400c-92,0-166.7,74.6-166.7,166.7s74.6,166.7,166.7,166.7,166.7-74.6,166.7-166.7-74.6-166.7-166.7-166.7Z" fill-rule="evenodd" />
</svg>