<?xml version="1.0" encoding="UTF-8"?>
<svg id="svg-icon-mobility_scooter" class="svg-icon" xmlns="http://www.w3.org/2000/svg" xmlns:xlink="http://www.w3.org/1999/xlink" version="1.1" viewBox="0 0 800 800">
    <path d="M110.122,497.903c-56.826,0-102.893,46.067-102.893,102.893s46.067,102.893,102.893,102.893,102.893-46.067,102.893-102.893-46.067-102.893-102.893-102.893ZM110.122,649.437c-26.863,0-48.64-21.777-48.64-48.64s21.777-48.64,48.64-48.64,48.64,21.777,48.64,48.64-21.777,48.64-48.64,48.64Z"/>
    <path d="M667.617,497.903c-56.826,0-102.893,46.067-102.893,102.893s46.067,102.893,102.893,102.893,102.893-46.067,102.893-102.893-46.067-102.893-102.893-102.893ZM667.617,649.437c-26.863,0-48.64-21.777-48.64-48.64s21.777-48.64,48.64-48.64,48.64,21.777,48.64,48.64-21.777,48.64-48.64,48.64Z"/>
    <path d="M796.737,505.133c-14.637-19.726-33.892-36.081-55.683-47.296-17.655-9.085-37.065-14.798-56.905-16.855.092-1.747-.079-3.536-.574-5.315l-72.147-259.265c-1.994-7.165-8.52-12.123-15.958-12.123h-125.633c-9.148,0-16.564,7.416-16.564,16.564s7.416,16.564,16.564,16.564h113.049l67.786,243.593c-53.402,5.623-99.088,37.51-123.875,82.469h-181.338l-15.196-63.184h9.966c22.871,0,41.411-18.54,41.411-41.411s-18.54-41.411-41.411-41.411h-192.607L81.457,127.149c-5.844-22.112-28.51-35.299-50.618-29.453-22.111,5.844-35.298,28.507-29.453,50.618l74.313,281.144c1.273,4.818,3.371,9.242,6.108,13.152-28.035,5.005-53.577,17.302-74.583,34.857,0,0-12.42,13.24-1.819,23.841s24.267.568,24.267.568c21.964-17.896,49.976-28.638,80.451-28.638,70.336,0,127.559,57.222,127.559,127.559,0,9.148,7.416,16.564,16.564,16.564h269.247c9.148,0,16.564-7.416,16.564-16.564,0-70.337,57.222-127.559,127.559-127.559,40.801,0,78.167,18.821,102.516,51.637,5.45,7.346,15.825,8.882,23.173,3.431,7.346-5.451,8.883-15.826,3.431-23.173h0Z"/>
</svg>